G04 Layer_Color=32896*
%FSLAX24Y24*%
%MOIN*%
G70*
G01*
G75*
%ADD35C,0.0100*%
%ADD51C,0.0079*%
%ADD52C,0.0080*%
%ADD77C,0.0250*%
D35*
X6894Y4617D02*
X18894D01*
X6894D02*
Y7583D01*
X18894D01*
Y4617D02*
Y7583D01*
X18250Y3784D02*
X18050D01*
X18150D01*
Y4284D01*
X18050Y4384D01*
X17950D01*
X17850Y4284D01*
X18450Y4384D02*
X18650D01*
X18550D01*
Y3784D01*
X18450Y3884D01*
X18900Y18450D02*
X19100D01*
X19000D01*
Y17950D01*
X19100Y17850D01*
X19200D01*
X19300Y17950D01*
X18300Y17850D02*
X18700D01*
X18300Y18250D01*
Y18350D01*
X18400Y18450D01*
X18600D01*
X18700Y18350D01*
D51*
X3348Y20591D02*
X19487D01*
X3348Y18791D02*
X19487D01*
X3348D02*
Y20591D01*
X19487Y18791D02*
Y20591D01*
D52*
X2837Y19491D02*
X3004D01*
X2920D01*
Y18992D01*
X2837Y19075D01*
X3070Y20341D02*
X2737D01*
X3070Y20008D01*
Y19925D01*
X2987Y19842D01*
X2820D01*
X2737Y19925D01*
X19937Y20391D02*
Y19892D01*
X19687Y20141D01*
X20020D01*
X20187Y19975D02*
X20270Y19892D01*
X20437D01*
X20520Y19975D01*
Y20308D01*
X20437Y20391D01*
X20270D01*
X20187Y20308D01*
Y19975D01*
X19687Y19125D02*
X19770Y19042D01*
X19937D01*
X20020Y19125D01*
Y19208D01*
X19937Y19291D01*
X19854D01*
X19937D01*
X20020Y19375D01*
Y19458D01*
X19937Y19541D01*
X19770D01*
X19687Y19458D01*
X20187D02*
X20270Y19541D01*
X20437D01*
X20520Y19458D01*
Y19125D01*
X20437Y19042D01*
X20270D01*
X20187Y19125D01*
Y19208D01*
X20270Y19291D01*
X20520D01*
D77*
X8427Y4217D02*
G03*
X8427Y4217I-100J0D01*
G01*
M02*
