M48
;Layer_Color=9474304
;FILE_FORMAT=2:4
INCH,TZ
;TYPE=PLATED
T1F00S00C0.0079
T2F00S00C0.0080
T3F00S00C0.0354
T4F00S00C0.0630
;TYPE=NON_PLATED
T5F00S00C0.0315
T6F00S00C0.0472
T7F00S00C0.1142
%
T01
X34403Y18703
X34797
Y19097
X34403
T02
X28050Y13900
X29250Y15350
X30450Y15400
X32550Y15550
X34500Y15200
X34350Y14650
X36900Y14750
X37353Y15200
X39950Y15250
X39750Y14850
X42822Y14800
X40900Y16300
X38200Y16550
X38700Y18900
X35600Y19250
X36250Y20563
X34000Y19750
X35300Y16900
X32050Y15900
X31500Y21400
Y24312
X33431Y23381
X30800Y23700
X30450
X31050Y24000
X29784Y24500
X28950Y21800
X28150Y21650
X27144Y21444
X25200Y22100
X25627Y22877
X24930Y24530
X24990Y26050
X25350Y27250
X25850Y27350
X26300Y26950
Y28100
X26800Y28550
X28050Y27500
X21400Y27650
X20750Y25350
X19900Y24950
X20150Y23750
X20353Y23253
X20700Y24050
X21492Y22650
X22750Y21350
X22600Y20800
X22650Y20450
X24200Y20800
X23950Y21150
X24950Y20950
X25100Y20150
X25730Y18230
X26330Y18220
X28900Y19450
X29450Y20250
X29700Y21050
X30250Y18550
X30050Y18050
X18300Y20300
Y20700
X17700Y21550
X18550Y22450
X17550Y23500
X16650Y23450
X18100Y25350
X14050Y27800
T03
X15650Y25000
X16500Y27000
Y28000
X17500
Y27000
X19500Y27050
Y28050
X20500
Y27050
X20236Y29291
X21024
X21811
X22598
X23386
X24173
X24961
X25748
X26535
X27323
X28110
X28898
Y30079
X28110
X27323
X26535
X25748
X24961
X24173
X23386
X22598
X21811
X21024
X20236
X19449
X18661
X17874
X17087
X16299
Y29291
X17087
X17874
X18661
X19449
X15512
X14724
X13937
Y30079
X14724
X15512
X14650Y25000
X13650
X12650
X11650
X10650
T04
X33100Y25719
Y28081
X31250Y26900
T05
X17343Y16083
T06
X28445Y16083
T07
X41890Y17283
Y29685
X11575
Y17283
M30
