G04 Layer_Physical_Order=2*
G04 Layer_Color=32768*
%FSLAX24Y24*%
%MOIN*%
G70*
G01*
G75*
%ADD34C,0.0400*%
%ADD35C,0.0100*%
%ADD36C,0.1542*%
%ADD37C,0.1030*%
G04:AMPARAMS|DCode=38|XSize=123mil|YSize=123mil|CornerRadius=0mil|HoleSize=0mil|Usage=FLASHONLY|Rotation=0.000|XOffset=0mil|YOffset=0mil|HoleType=Round|Shape=Relief|Width=10mil|Gap=10mil|Entries=4|*
%AMTHD38*
7,0,0,0.1230,0.1030,0.0100,45*
%
%ADD38THD38*%
%ADD39C,0.0872*%
%ADD40C,0.0715*%
%ADD41C,0.0754*%
G04:AMPARAMS|DCode=42|XSize=95.433mil|YSize=95.433mil|CornerRadius=0mil|HoleSize=0mil|Usage=FLASHONLY|Rotation=0.000|XOffset=0mil|YOffset=0mil|HoleType=Round|Shape=Relief|Width=10mil|Gap=10mil|Entries=4|*
%AMTHD42*
7,0,0,0.0954,0.0754,0.0100,45*
%
%ADD42THD42*%
%ADD43C,0.0480*%
G04:AMPARAMS|DCode=44|XSize=68mil|YSize=68mil|CornerRadius=0mil|HoleSize=0mil|Usage=FLASHONLY|Rotation=0.000|XOffset=0mil|YOffset=0mil|HoleType=Round|Shape=Relief|Width=10mil|Gap=10mil|Entries=4|*
%AMTHD44*
7,0,0,0.0680,0.0480,0.0100,45*
%
%ADD44THD44*%
%ADD45C,0.0479*%
D34*
X0Y0D02*
X33465D01*
Y21260D01*
X0D02*
X33465D01*
X0Y0D02*
Y21260D01*
D35*
X16550Y16400D02*
Y21250D01*
Y16400D02*
X18050Y14900D01*
X25950D01*
X26500Y15450D01*
Y21260D01*
X16550Y21250D02*
X17700D01*
D36*
X1575Y7283D02*
D03*
Y19685D02*
D03*
X31890D02*
D03*
Y7283D02*
D03*
D37*
X21250Y16900D02*
D03*
X23100Y18081D02*
D03*
D38*
Y15719D02*
D03*
D39*
X18445Y6083D02*
D03*
D40*
X7343D02*
D03*
D41*
X18898Y20079D02*
D03*
Y19291D02*
D03*
X18110D02*
D03*
X17323D02*
D03*
X16535Y20079D02*
D03*
Y19291D02*
D03*
X15748Y20079D02*
D03*
Y19291D02*
D03*
X14961Y20079D02*
D03*
Y19291D02*
D03*
X14173Y20079D02*
D03*
Y19291D02*
D03*
X13386Y20079D02*
D03*
Y19291D02*
D03*
X12598Y20079D02*
D03*
Y19291D02*
D03*
X11811Y20079D02*
D03*
Y19291D02*
D03*
X11024Y20079D02*
D03*
Y19291D02*
D03*
X10236Y20079D02*
D03*
Y19291D02*
D03*
X9449Y20079D02*
D03*
Y19291D02*
D03*
X8661Y20079D02*
D03*
Y19291D02*
D03*
X7874Y20079D02*
D03*
Y19291D02*
D03*
X7087Y20079D02*
D03*
Y19291D02*
D03*
X6299Y20079D02*
D03*
Y19291D02*
D03*
X5512Y20079D02*
D03*
Y19291D02*
D03*
X4724Y20079D02*
D03*
Y19291D02*
D03*
X3937Y20079D02*
D03*
Y19291D02*
D03*
X5650Y15000D02*
D03*
X4650D02*
D03*
X3650D02*
D03*
X2650D02*
D03*
X1650D02*
D03*
X650D02*
D03*
X9500Y17050D02*
D03*
Y18050D02*
D03*
X10500Y17050D02*
D03*
Y18050D02*
D03*
X6500Y17000D02*
D03*
Y18000D02*
D03*
X7500Y17000D02*
D03*
Y18000D02*
D03*
D42*
X18110Y20079D02*
D03*
X17323D02*
D03*
D43*
X18050Y17500D02*
D03*
X21500Y14312D02*
D03*
X20450Y13700D02*
D03*
X28200Y6550D02*
D03*
X24000Y9750D02*
D03*
X25600Y9250D02*
D03*
X20800Y13700D02*
D03*
X12600Y10800D02*
D03*
X12650Y10450D02*
D03*
X14200Y10800D02*
D03*
X13950Y11150D02*
D03*
X15850Y17350D02*
D03*
X16300Y16950D02*
D03*
X15200Y12100D02*
D03*
X14930Y14530D02*
D03*
X28700Y8900D02*
D03*
X18950Y11800D02*
D03*
X17144Y11444D02*
D03*
X15100Y10150D02*
D03*
X14950Y10950D02*
D03*
X20050Y8050D02*
D03*
X32822Y4800D02*
D03*
X29750Y4850D02*
D03*
X26900Y4750D02*
D03*
X24350Y4650D02*
D03*
X20450Y5400D02*
D03*
X26250Y10563D02*
D03*
X23431Y13382D02*
D03*
X15350Y17250D02*
D03*
X30900Y6300D02*
D03*
X25300Y6900D02*
D03*
X21050Y14000D02*
D03*
X21500Y11400D02*
D03*
X19784Y14500D02*
D03*
X20250Y8550D02*
D03*
X18150Y11650D02*
D03*
X22550Y5550D02*
D03*
X18050Y3900D02*
D03*
X10353Y13253D02*
D03*
X10700Y14050D02*
D03*
X8300Y10300D02*
D03*
X6650Y13450D02*
D03*
X8550Y12450D02*
D03*
X7550Y13500D02*
D03*
X7700Y11550D02*
D03*
X10150Y13750D02*
D03*
X11492Y12650D02*
D03*
X16330Y8220D02*
D03*
X19450Y10250D02*
D03*
X14990Y16050D02*
D03*
X16800Y18550D02*
D03*
X9900Y14950D02*
D03*
X4050Y17800D02*
D03*
D44*
X16300Y18100D02*
D03*
X15627Y12877D02*
D03*
X27353Y5200D02*
D03*
X24500D02*
D03*
X22050Y5900D02*
D03*
X19250Y5350D02*
D03*
X8300Y10700D02*
D03*
X15730Y8230D02*
D03*
X18900Y9450D02*
D03*
X19700Y11050D02*
D03*
X10750Y15350D02*
D03*
X8100D02*
D03*
X11400Y17650D02*
D03*
X29950Y5250D02*
D03*
X12750Y11350D02*
D03*
D45*
X24797Y8703D02*
D03*
X24403D02*
D03*
X24797Y9097D02*
D03*
X24403D02*
D03*
M02*
