G04 Layer_Color=8388736*
%FSLAX24Y24*%
%MOIN*%
G70*
G01*
G75*
%ADD51R,0.0356X0.0179*%
%ADD52R,0.0730X0.1017*%
%ADD53R,0.0316X0.0277*%
%ADD54R,0.0592X0.0474*%
%ADD55R,0.0277X0.0316*%
%ADD56R,0.0671X0.0631*%
%ADD57R,0.0513X0.1104*%
%ADD58R,0.0198X0.0395*%
%ADD59R,0.0395X0.0198*%
%ADD60R,0.0749X0.0513*%
%ADD61R,0.0434X0.0395*%
%ADD62R,0.0474X0.0198*%
%ADD63R,0.0198X0.0474*%
%ADD64R,0.0631X0.0671*%
%ADD65R,0.0592X0.0690*%
%ADD66C,0.1222*%
%ADD67R,0.0867X0.1104*%
%ADD68R,0.1104X0.0867*%
%ADD69C,0.0552*%
%ADD70C,0.0395*%
%ADD71C,0.0671*%
%ADD72R,0.0671X0.0671*%
%ADD73C,0.0277*%
D51*
X35151Y18605D02*
D03*
Y18802D02*
D03*
Y18998D02*
D03*
Y19195D02*
D03*
X34049Y18605D02*
D03*
Y18802D02*
D03*
Y18998D02*
D03*
Y19195D02*
D03*
D52*
X34600Y18900D02*
D03*
D53*
X19903Y25350D02*
D03*
X20297D02*
D03*
X19100Y25350D02*
D03*
X18706D02*
D03*
X32053Y14900D02*
D03*
X32447D02*
D03*
X33247Y14900D02*
D03*
X32853D02*
D03*
X29256Y14900D02*
D03*
X29650D02*
D03*
X30450D02*
D03*
X30056D02*
D03*
X36097Y14900D02*
D03*
X35703Y14900D02*
D03*
X34903Y14900D02*
D03*
X35297D02*
D03*
X37703Y14850D02*
D03*
X38097D02*
D03*
X38897Y14850D02*
D03*
X38503D02*
D03*
X40500Y14850D02*
D03*
X40894D02*
D03*
X41694Y14850D02*
D03*
X41300D02*
D03*
X25233Y22550D02*
D03*
X25627D02*
D03*
X28427Y19450D02*
D03*
X28033D02*
D03*
X28486Y20250D02*
D03*
X28880D02*
D03*
X29124Y21050D02*
D03*
X28730D02*
D03*
X18697Y21550D02*
D03*
X18303D02*
D03*
D54*
X24200Y26070D02*
D03*
Y26700D02*
D03*
X23400Y26070D02*
D03*
Y26700D02*
D03*
X22600Y26070D02*
D03*
Y26700D02*
D03*
X21800Y26085D02*
D03*
Y26715D02*
D03*
D55*
X24200Y27338D02*
D03*
Y27732D02*
D03*
X23400Y27338D02*
D03*
Y27732D02*
D03*
X22600Y27388D02*
D03*
Y27782D02*
D03*
X24530Y21347D02*
D03*
Y20953D02*
D03*
X26330Y19100D02*
D03*
Y18706D02*
D03*
X25730Y19047D02*
D03*
Y18653D02*
D03*
X27630Y22650D02*
D03*
Y23044D02*
D03*
X24930Y23944D02*
D03*
Y23550D02*
D03*
X18100Y22447D02*
D03*
Y22053D02*
D03*
X18100Y23100D02*
D03*
Y23494D02*
D03*
X22350Y21350D02*
D03*
Y21744D02*
D03*
X21800Y27403D02*
D03*
Y27797D02*
D03*
X18800Y20303D02*
D03*
Y20697D02*
D03*
D56*
X14650Y26456D02*
D03*
Y27244D02*
D03*
X13650Y26456D02*
D03*
Y27244D02*
D03*
X12650Y26456D02*
D03*
Y27244D02*
D03*
X11650Y26456D02*
D03*
Y27244D02*
D03*
X10650Y26456D02*
D03*
Y27244D02*
D03*
D57*
X36718Y18900D02*
D03*
X37781D02*
D03*
X31831Y18100D02*
D03*
X30768D02*
D03*
D58*
X25933Y21542D02*
D03*
X26130D02*
D03*
X26327D02*
D03*
Y20558D02*
D03*
X26130D02*
D03*
X25933D02*
D03*
D59*
X26622Y21444D02*
D03*
Y21247D02*
D03*
Y21050D02*
D03*
Y20853D02*
D03*
Y20656D02*
D03*
X25638D02*
D03*
Y20853D02*
D03*
Y21050D02*
D03*
Y21247D02*
D03*
Y21444D02*
D03*
D60*
X28780Y23381D02*
D03*
Y22318D02*
D03*
D61*
X16650Y22274D02*
D03*
Y22826D02*
D03*
D62*
X21396Y22241D02*
D03*
Y21847D02*
D03*
Y21453D02*
D03*
Y21256D02*
D03*
Y21059D02*
D03*
Y21650D02*
D03*
X19723Y22044D02*
D03*
Y21650D02*
D03*
Y21453D02*
D03*
Y21256D02*
D03*
Y21059D02*
D03*
Y21847D02*
D03*
X21396Y22044D02*
D03*
X19723Y22241D02*
D03*
D63*
X20944Y22496D02*
D03*
X20747D02*
D03*
X20944Y20804D02*
D03*
X20747D02*
D03*
X20550D02*
D03*
X20156Y22496D02*
D03*
X20353D02*
D03*
X20550D02*
D03*
X20156Y20804D02*
D03*
X20353D02*
D03*
D64*
X32294Y20350D02*
D03*
X31506D02*
D03*
X33556Y20700D02*
D03*
X34344D02*
D03*
D65*
X41050Y14000D02*
D03*
X42822D02*
D03*
X41050Y10870D02*
D03*
X42822D02*
D03*
X38314Y13965D02*
D03*
X40086D02*
D03*
X38314Y10835D02*
D03*
X40086D02*
D03*
X35500Y13950D02*
D03*
X37272D02*
D03*
X35500Y10820D02*
D03*
X37272D02*
D03*
X32564Y13965D02*
D03*
X34336D02*
D03*
X32564Y10835D02*
D03*
X34336D02*
D03*
X29864Y14015D02*
D03*
X31636D02*
D03*
X29864Y10885D02*
D03*
X31636D02*
D03*
D66*
X11575Y17283D02*
D03*
Y29685D02*
D03*
X41890D02*
D03*
Y17283D02*
D03*
D67*
X31250Y26900D02*
D03*
D68*
X33100Y28081D02*
D03*
Y25719D02*
D03*
D69*
X28445Y16083D02*
D03*
D70*
X17343D02*
D03*
D71*
X28898Y30079D02*
D03*
Y29291D02*
D03*
X28110Y30079D02*
D03*
Y29291D02*
D03*
X27323Y30079D02*
D03*
Y29291D02*
D03*
X26535Y30079D02*
D03*
Y29291D02*
D03*
X25748Y30079D02*
D03*
Y29291D02*
D03*
X24961Y30079D02*
D03*
Y29291D02*
D03*
X24173Y30079D02*
D03*
Y29291D02*
D03*
X23386Y30079D02*
D03*
Y29291D02*
D03*
X22598Y30079D02*
D03*
Y29291D02*
D03*
X21811Y30079D02*
D03*
Y29291D02*
D03*
X21024Y30079D02*
D03*
Y29291D02*
D03*
X20236Y30079D02*
D03*
Y29291D02*
D03*
X19449Y30079D02*
D03*
Y29291D02*
D03*
X18661Y30079D02*
D03*
Y29291D02*
D03*
X17874Y30079D02*
D03*
Y29291D02*
D03*
X17087Y30079D02*
D03*
Y29291D02*
D03*
X16299Y30079D02*
D03*
Y29291D02*
D03*
X15512Y30079D02*
D03*
Y29291D02*
D03*
X14724Y30079D02*
D03*
Y29291D02*
D03*
X13937Y30079D02*
D03*
X14650Y25000D02*
D03*
X13650D02*
D03*
X12650D02*
D03*
X11650D02*
D03*
X10650D02*
D03*
X19500Y28050D02*
D03*
X20500Y27050D02*
D03*
Y28050D02*
D03*
X16500Y28000D02*
D03*
X17500Y27000D02*
D03*
Y28000D02*
D03*
D72*
X13937Y29291D02*
D03*
X15650Y25000D02*
D03*
X19500Y27050D02*
D03*
X16500Y27000D02*
D03*
D73*
X28050Y27500D02*
D03*
X31500Y24312D02*
D03*
X30450Y23700D02*
D03*
X38200Y16550D02*
D03*
X26300Y28100D02*
D03*
X34797Y18703D02*
D03*
X34403D02*
D03*
X34797Y19097D02*
D03*
X34403D02*
D03*
X34000Y19750D02*
D03*
X35600Y19250D02*
D03*
X25627Y22877D02*
D03*
X30800Y23700D02*
D03*
X22600Y20800D02*
D03*
X22650Y20450D02*
D03*
X24200Y20800D02*
D03*
X23950Y21150D02*
D03*
X25850Y27350D02*
D03*
X26300Y26950D02*
D03*
X25200Y22100D02*
D03*
X24930Y24530D02*
D03*
X38700Y18900D02*
D03*
X28950Y21800D02*
D03*
X27144Y21444D02*
D03*
X25100Y20150D02*
D03*
X24950Y20950D02*
D03*
X30050Y18050D02*
D03*
X37353Y15200D02*
D03*
X34500D02*
D03*
X42822Y14800D02*
D03*
X32050Y15900D02*
D03*
X39750Y14850D02*
D03*
X36900Y14750D02*
D03*
X34350Y14650D02*
D03*
X30450Y15400D02*
D03*
X29250Y15350D02*
D03*
X36250Y20563D02*
D03*
X33431Y23381D02*
D03*
X25350Y27250D02*
D03*
X40900Y16300D02*
D03*
X35300Y16900D02*
D03*
X31050Y24000D02*
D03*
X31500Y21400D02*
D03*
X29784Y24500D02*
D03*
X30250Y18550D02*
D03*
X28150Y21650D02*
D03*
X32550Y15550D02*
D03*
X28050Y13900D02*
D03*
X20353Y23253D02*
D03*
X20700Y24050D02*
D03*
X18300Y20700D02*
D03*
Y20300D02*
D03*
X16650Y23450D02*
D03*
X18550Y22450D02*
D03*
X17550Y23500D02*
D03*
X17700Y21550D02*
D03*
X20150Y23750D02*
D03*
X21492Y22650D02*
D03*
X25730Y18230D02*
D03*
X26330Y18220D02*
D03*
X28900Y19450D02*
D03*
X29450Y20250D02*
D03*
X29700Y21050D02*
D03*
X24990Y26050D02*
D03*
X26800Y28550D02*
D03*
X20750Y25350D02*
D03*
X18100D02*
D03*
X19900Y24950D02*
D03*
X21400Y27650D02*
D03*
X39950Y15250D02*
D03*
X14050Y27800D02*
D03*
X22750Y21350D02*
D03*
M02*
