G04*
G04 #@! TF.GenerationSoftware,Altium Limited,Altium Designer,18.0.12 (696)*
G04*
G04 Layer_Color=32896*
%FSLAX25Y25*%
%MOIN*%
G70*
G01*
G75*
%ADD12C,0.00500*%
%ADD13C,0.01000*%
%ADD14C,0.00787*%
%ADD88C,0.00800*%
%ADD120C,0.02500*%
D12*
X197399Y153879D02*
X196899Y153380D01*
X195900D01*
X195400Y153879D01*
Y155879D01*
X195900Y156379D01*
X196899D01*
X197399Y155879D01*
X199899Y156379D02*
Y153380D01*
X198399Y154879D01*
X200398D01*
X197499Y162501D02*
X197000Y162001D01*
X196000D01*
X195500Y162501D01*
Y164500D01*
X196000Y165000D01*
X197000D01*
X197499Y164500D01*
X200498Y162001D02*
X199499Y162501D01*
X198499Y163500D01*
Y164500D01*
X198999Y165000D01*
X199999D01*
X200498Y164500D01*
Y164000D01*
X199999Y163500D01*
X198499D01*
X45969Y88499D02*
X46469Y88999D01*
X47469D01*
X47969Y88499D01*
Y86500D01*
X47469Y86000D01*
X46469D01*
X45969Y86500D01*
X43470Y86000D02*
Y88999D01*
X44969Y87499D01*
X42970D01*
X41970Y86000D02*
X40971D01*
X41471D01*
Y88999D01*
X41970Y88499D01*
X37472Y88999D02*
X39471D01*
Y87499D01*
X38472Y87999D01*
X37972D01*
X37472Y87499D01*
Y86500D01*
X37972Y86000D01*
X38971D01*
X39471Y86500D01*
X66477Y115036D02*
X66977Y115536D01*
X67976D01*
X68476Y115036D01*
Y113037D01*
X67976Y112537D01*
X66977D01*
X66477Y113037D01*
X63978Y112537D02*
Y115536D01*
X65477Y114037D01*
X63478D01*
X62478Y112537D02*
X61479D01*
X61979D01*
Y115536D01*
X62478Y115036D01*
X58480Y112537D02*
Y115536D01*
X59979Y114037D01*
X57980D01*
X45552Y94999D02*
X46052Y95499D01*
X47051D01*
X47551Y94999D01*
Y93000D01*
X47051Y92500D01*
X46052D01*
X45552Y93000D01*
X43053Y92500D02*
Y95499D01*
X44552Y93999D01*
X42553D01*
X41553Y92500D02*
X40553D01*
X41053D01*
Y95499D01*
X41553Y94999D01*
X39054D02*
X38554Y95499D01*
X37554D01*
X37055Y94999D01*
Y94499D01*
X37554Y93999D01*
X38054D01*
X37554D01*
X37055Y93500D01*
Y93000D01*
X37554Y92500D01*
X38554D01*
X39054Y93000D01*
X74493Y109036D02*
X74993Y109536D01*
X75992D01*
X76492Y109036D01*
Y107037D01*
X75992Y106537D01*
X74993D01*
X74493Y107037D01*
X71994Y106537D02*
Y109536D01*
X73493Y108036D01*
X71494D01*
X70494Y106537D02*
X69494D01*
X69994D01*
Y109536D01*
X70494Y109036D01*
X65996Y106537D02*
X67995D01*
X65996Y108536D01*
Y109036D01*
X66495Y109536D01*
X67495D01*
X67995Y109036D01*
X46082Y63665D02*
X46582Y64164D01*
X47582D01*
X48082Y63665D01*
Y61665D01*
X47582Y61165D01*
X46582D01*
X46082Y61665D01*
X43583Y61165D02*
Y64164D01*
X45083Y62665D01*
X43084D01*
X42084Y61165D02*
X41084D01*
X41584D01*
Y64164D01*
X42084Y63665D01*
X39585Y61165D02*
X38585D01*
X39085D01*
Y64164D01*
X39585Y63665D01*
X45670Y82133D02*
X46170Y82633D01*
X47170D01*
X47669Y82133D01*
Y80134D01*
X47170Y79634D01*
X46170D01*
X45670Y80134D01*
X43171Y79634D02*
Y82633D01*
X44670Y81133D01*
X42671D01*
X41671Y79634D02*
X40672D01*
X41171D01*
Y82633D01*
X41671Y82133D01*
X39172D02*
X38672Y82633D01*
X37672D01*
X37173Y82133D01*
Y80134D01*
X37672Y79634D01*
X38672D01*
X39172Y80134D01*
Y82133D01*
X45670Y69999D02*
X46170Y70499D01*
X47170D01*
X47669Y69999D01*
Y68000D01*
X47170Y67500D01*
X46170D01*
X45670Y68000D01*
X43171Y67500D02*
Y70499D01*
X44670Y68999D01*
X42671D01*
X41671Y69999D02*
X41171Y70499D01*
X40172D01*
X39672Y69999D01*
Y68000D01*
X40172Y67500D01*
X41171D01*
X41671Y68000D01*
Y69999D01*
X38672Y68000D02*
X38172Y67500D01*
X37173D01*
X36673Y68000D01*
Y69999D01*
X37173Y70499D01*
X38172D01*
X38672Y69999D01*
Y69499D01*
X38172Y68999D01*
X36673D01*
X45501Y76133D02*
X46000Y76633D01*
X47000D01*
X47500Y76133D01*
Y74134D01*
X47000Y73634D01*
X46000D01*
X45501Y74134D01*
X43001Y73634D02*
Y76633D01*
X44501Y75133D01*
X42502D01*
X41502Y76133D02*
X41002Y76633D01*
X40002D01*
X39503Y76133D01*
Y74134D01*
X40002Y73634D01*
X41002D01*
X41502Y74134D01*
Y76133D01*
X38503D02*
X38003Y76633D01*
X37003D01*
X36504Y76133D01*
Y75633D01*
X37003Y75133D01*
X36504Y74634D01*
Y74134D01*
X37003Y73634D01*
X38003D01*
X38503Y74134D01*
Y74634D01*
X38003Y75133D01*
X38503Y75633D01*
Y76133D01*
X38003Y75133D02*
X37003D01*
X250799Y75119D02*
X251299Y74619D01*
Y73620D01*
X250799Y73120D01*
X248800D01*
X248300Y73620D01*
Y74619D01*
X248800Y75119D01*
X248300Y77618D02*
X251299D01*
X249799Y76119D01*
Y78118D01*
X250799Y79118D02*
X251299Y79618D01*
Y80617D01*
X250799Y81117D01*
X248800D01*
X248300Y80617D01*
Y79618D01*
X248800Y79118D01*
X250799D01*
X251299Y82117D02*
Y84116D01*
X250799D01*
X248800Y82117D01*
X248300D01*
X303212Y154999D02*
X303712Y155499D01*
X304712D01*
X305212Y154999D01*
Y153000D01*
X304712Y152500D01*
X303712D01*
X303212Y153000D01*
X300713Y152500D02*
Y155499D01*
X302213Y153999D01*
X300213D01*
X299214Y154999D02*
X298714Y155499D01*
X297714D01*
X297214Y154999D01*
Y153000D01*
X297714Y152500D01*
X298714D01*
X299214Y153000D01*
Y154999D01*
X294215Y155499D02*
X295215Y154999D01*
X296215Y153999D01*
Y153000D01*
X295715Y152500D01*
X294715D01*
X294215Y153000D01*
Y153500D01*
X294715Y153999D01*
X296215D01*
X257499Y83499D02*
X257999Y82999D01*
Y82000D01*
X257499Y81500D01*
X255500D01*
X255000Y82000D01*
Y82999D01*
X255500Y83499D01*
X255000Y85999D02*
X257999D01*
X256500Y84499D01*
Y86498D01*
X257499Y87498D02*
X257999Y87998D01*
Y88998D01*
X257499Y89497D01*
X255500D01*
X255000Y88998D01*
Y87998D01*
X255500Y87498D01*
X257499D01*
X257999Y92496D02*
Y90497D01*
X256500D01*
X256999Y91497D01*
Y91997D01*
X256500Y92496D01*
X255500D01*
X255000Y91997D01*
Y90997D01*
X255500Y90497D01*
X303212Y148999D02*
X303712Y149499D01*
X304712D01*
X305212Y148999D01*
Y147000D01*
X304712Y146500D01*
X303712D01*
X303212Y147000D01*
X300713Y146500D02*
Y149499D01*
X302213Y148000D01*
X300213D01*
X299214Y148999D02*
X298714Y149499D01*
X297714D01*
X297214Y148999D01*
Y147000D01*
X297714Y146500D01*
X298714D01*
X299214Y147000D01*
Y148999D01*
X294715Y146500D02*
Y149499D01*
X296215Y148000D01*
X294215D01*
X303212Y161099D02*
X303712Y161599D01*
X304712D01*
X305212Y161099D01*
Y159100D01*
X304712Y158600D01*
X303712D01*
X303212Y159100D01*
X300713Y158600D02*
Y161599D01*
X302213Y160099D01*
X300213D01*
X299214Y161099D02*
X298714Y161599D01*
X297714D01*
X297214Y161099D01*
Y159100D01*
X297714Y158600D01*
X298714D01*
X299214Y159100D01*
Y161099D01*
X296215D02*
X295715Y161599D01*
X294715D01*
X294215Y161099D01*
Y160599D01*
X294715Y160099D01*
X295215D01*
X294715D01*
X294215Y159600D01*
Y159100D01*
X294715Y158600D01*
X295715D01*
X296215Y159100D01*
X303212Y142499D02*
X303712Y142999D01*
X304712D01*
X305212Y142499D01*
Y140500D01*
X304712Y140000D01*
X303712D01*
X303212Y140500D01*
X300713Y140000D02*
Y142999D01*
X302213Y141499D01*
X300213D01*
X299214Y142499D02*
X298714Y142999D01*
X297714D01*
X297214Y142499D01*
Y140500D01*
X297714Y140000D01*
X298714D01*
X299214Y140500D01*
Y142499D01*
X294215Y140000D02*
X296215D01*
X294215Y141999D01*
Y142499D01*
X294715Y142999D01*
X295715D01*
X296215Y142499D01*
X303212Y166999D02*
X303712Y167499D01*
X304712D01*
X305212Y166999D01*
Y165000D01*
X304712Y164500D01*
X303712D01*
X303212Y165000D01*
X300713Y164500D02*
Y167499D01*
X302213Y165999D01*
X300213D01*
X299214Y166999D02*
X298714Y167499D01*
X297714D01*
X297214Y166999D01*
Y165000D01*
X297714Y164500D01*
X298714D01*
X299214Y165000D01*
Y166999D01*
X296215Y164500D02*
X295215D01*
X295715D01*
Y167499D01*
X296215Y166999D01*
X303212Y136499D02*
X303712Y136999D01*
X304712D01*
X305212Y136499D01*
Y134500D01*
X304712Y134000D01*
X303712D01*
X303212Y134500D01*
X300713Y134000D02*
Y136999D01*
X302213Y135500D01*
X300213D01*
X299214Y136499D02*
X298714Y136999D01*
X297714D01*
X297214Y136499D01*
Y134500D01*
X297714Y134000D01*
X298714D01*
X299214Y134500D01*
Y136499D01*
X296215D02*
X295715Y136999D01*
X294715D01*
X294215Y136499D01*
Y134500D01*
X294715Y134000D01*
X295715D01*
X296215Y134500D01*
Y136499D01*
X197499Y170607D02*
X197000Y170107D01*
X196000D01*
X195500Y170607D01*
Y172606D01*
X196000Y173106D01*
X197000D01*
X197499Y172606D01*
X198499Y170607D02*
X198999Y170107D01*
X199999D01*
X200498Y170607D01*
Y171107D01*
X199999Y171607D01*
X199499D01*
X199999D01*
X200498Y172106D01*
Y172606D01*
X199999Y173106D01*
X198999D01*
X198499Y172606D01*
X197499Y178524D02*
X197000Y178025D01*
X196000D01*
X195500Y178524D01*
Y180524D01*
X196000Y181024D01*
X197000D01*
X197499Y180524D01*
X200498Y178025D02*
X198499D01*
Y179524D01*
X199499Y179024D01*
X199999D01*
X200498Y179524D01*
Y180524D01*
X199999Y181024D01*
X198999D01*
X198499Y180524D01*
X304001Y94999D02*
X304501Y95499D01*
X305500D01*
X306000Y94999D01*
Y93000D01*
X305500Y92500D01*
X304501D01*
X304001Y93000D01*
X301002Y95499D02*
X303001D01*
Y93999D01*
X302001Y94499D01*
X301501D01*
X301002Y93999D01*
Y93000D01*
X301501Y92500D01*
X302501D01*
X303001Y93000D01*
X300002Y94999D02*
X299502Y95499D01*
X298502D01*
X298003Y94999D01*
Y93000D01*
X298502Y92500D01*
X299502D01*
X300002Y93000D01*
Y94999D01*
X297003D02*
X296503Y95499D01*
X295503D01*
X295004Y94999D01*
Y93000D01*
X295503Y92500D01*
X296503D01*
X297003Y93000D01*
Y94999D01*
X304501Y102999D02*
X305000Y103499D01*
X306000D01*
X306500Y102999D01*
Y101000D01*
X306000Y100500D01*
X305000D01*
X304501Y101000D01*
X301502Y103499D02*
X303501D01*
Y101999D01*
X302501Y102499D01*
X302002D01*
X301502Y101999D01*
Y101000D01*
X302002Y100500D01*
X303001D01*
X303501Y101000D01*
X300502Y102999D02*
X300002Y103499D01*
X299002D01*
X298503Y102999D01*
Y101000D01*
X299002Y100500D01*
X300002D01*
X300502Y101000D01*
Y102999D01*
X295504Y100500D02*
X297503D01*
X295504Y102499D01*
Y102999D01*
X296003Y103499D01*
X297003D01*
X297503Y102999D01*
X303430Y71499D02*
X303930Y71999D01*
X304929D01*
X305429Y71499D01*
Y69500D01*
X304929Y69000D01*
X303930D01*
X303430Y69500D01*
X300431Y71999D02*
X302430D01*
Y70499D01*
X301431Y70999D01*
X300931D01*
X300431Y70499D01*
Y69500D01*
X300931Y69000D01*
X301930D01*
X302430Y69500D01*
X299431Y71499D02*
X298931Y71999D01*
X297932D01*
X297432Y71499D01*
Y69500D01*
X297932Y69000D01*
X298931D01*
X299431Y69500D01*
Y71499D01*
X294933Y69000D02*
Y71999D01*
X296432Y70499D01*
X294433D01*
X304001Y88999D02*
X304501Y89499D01*
X305500D01*
X306000Y88999D01*
Y87000D01*
X305500Y86500D01*
X304501D01*
X304001Y87000D01*
X301002Y89499D02*
X303001D01*
Y87999D01*
X302001Y88499D01*
X301501D01*
X301002Y87999D01*
Y87000D01*
X301501Y86500D01*
X302501D01*
X303001Y87000D01*
X300002Y88999D02*
X299502Y89499D01*
X298502D01*
X298003Y88999D01*
Y87000D01*
X298502Y86500D01*
X299502D01*
X300002Y87000D01*
Y88999D01*
X295004Y89499D02*
X297003D01*
Y87999D01*
X296003Y88499D01*
X295503D01*
X295004Y87999D01*
Y87000D01*
X295503Y86500D01*
X296503D01*
X297003Y87000D01*
X304001Y76499D02*
X304501Y76999D01*
X305500D01*
X306000Y76499D01*
Y74500D01*
X305500Y74000D01*
X304501D01*
X304001Y74500D01*
X301002Y76999D02*
X303001D01*
Y75499D01*
X302001Y75999D01*
X301501D01*
X301002Y75499D01*
Y74500D01*
X301501Y74000D01*
X302501D01*
X303001Y74500D01*
X300002Y76499D02*
X299502Y76999D01*
X298502D01*
X298003Y76499D01*
Y74500D01*
X298502Y74000D01*
X299502D01*
X300002Y74500D01*
Y76499D01*
X295004Y76999D02*
X296003Y76499D01*
X297003Y75499D01*
Y74500D01*
X296503Y74000D01*
X295503D01*
X295004Y74500D01*
Y75000D01*
X295503Y75499D01*
X297003D01*
X304001Y82999D02*
X304501Y83499D01*
X305500D01*
X306000Y82999D01*
Y81000D01*
X305500Y80500D01*
X304501D01*
X304001Y81000D01*
X301002Y83499D02*
X303001D01*
Y81999D01*
X302001Y82499D01*
X301501D01*
X301002Y81999D01*
Y81000D01*
X301501Y80500D01*
X302501D01*
X303001Y81000D01*
X300002Y82999D02*
X299502Y83499D01*
X298502D01*
X298003Y82999D01*
Y81000D01*
X298502Y80500D01*
X299502D01*
X300002Y81000D01*
Y82999D01*
X297003Y83499D02*
X295004D01*
Y82999D01*
X297003Y81000D01*
Y80500D01*
X1482Y72001D02*
X982Y71501D01*
X-17D01*
X-517Y72001D01*
Y74000D01*
X-17Y74500D01*
X982D01*
X1482Y74000D01*
X4481Y71501D02*
X2482D01*
Y73001D01*
X3481Y72501D01*
X3981D01*
X4481Y73001D01*
Y74000D01*
X3981Y74500D01*
X2982D01*
X2482Y74000D01*
X5481Y72001D02*
X5981Y71501D01*
X6980D01*
X7480Y72001D01*
Y74000D01*
X6980Y74500D01*
X5981D01*
X5481Y74000D01*
Y72001D01*
X8480D02*
X8980Y71501D01*
X9979D01*
X10479Y72001D01*
Y72501D01*
X9979Y73001D01*
X10479Y73500D01*
Y74000D01*
X9979Y74500D01*
X8980D01*
X8480Y74000D01*
Y73500D01*
X8980Y73001D01*
X8480Y72501D01*
Y72001D01*
X8980Y73001D02*
X9979D01*
X8813Y65001D02*
X8313Y64501D01*
X7313D01*
X6813Y65001D01*
Y67000D01*
X7313Y67500D01*
X8313D01*
X8813Y67000D01*
X11812Y64501D02*
X9812D01*
Y66000D01*
X10812Y65501D01*
X11312D01*
X11812Y66000D01*
Y67000D01*
X11312Y67500D01*
X10312D01*
X9812Y67000D01*
X12811Y67500D02*
X13811D01*
X13311D01*
Y64501D01*
X12811Y65001D01*
X15311D02*
X15811Y64501D01*
X16810D01*
X17310Y65001D01*
Y67000D01*
X16810Y67500D01*
X15811D01*
X15311Y67000D01*
Y65001D01*
X17499Y89501D02*
X16999Y89001D01*
X16000D01*
X15500Y89501D01*
Y91500D01*
X16000Y92000D01*
X16999D01*
X17499Y91500D01*
X20498Y89001D02*
X18499D01*
Y90500D01*
X19499Y90001D01*
X19999D01*
X20498Y90500D01*
Y91500D01*
X19999Y92000D01*
X18999D01*
X18499Y91500D01*
X21498Y92000D02*
X22498D01*
X21998D01*
Y89001D01*
X21498Y89501D01*
X25997Y92000D02*
X23997D01*
X25997Y90001D01*
Y89501D01*
X25497Y89001D01*
X24497D01*
X23997Y89501D01*
X9499Y93501D02*
X8999Y93001D01*
X8000D01*
X7500Y93501D01*
Y95500D01*
X8000Y96000D01*
X8999D01*
X9499Y95500D01*
X12498Y93001D02*
X10499D01*
Y94500D01*
X11499Y94001D01*
X11999D01*
X12498Y94500D01*
Y95500D01*
X11999Y96000D01*
X10999D01*
X10499Y95500D01*
X13498Y96000D02*
X14498D01*
X13998D01*
Y93001D01*
X13498Y93501D01*
X15997D02*
X16497Y93001D01*
X17497D01*
X17997Y93501D01*
Y94001D01*
X17497Y94500D01*
X16997D01*
X17497D01*
X17997Y95000D01*
Y95500D01*
X17497Y96000D01*
X16497D01*
X15997Y95500D01*
X9999Y76501D02*
X9499Y76001D01*
X8500D01*
X8000Y76501D01*
Y78500D01*
X8500Y79000D01*
X9499D01*
X9999Y78500D01*
X12998Y76001D02*
X10999D01*
Y77500D01*
X11999Y77001D01*
X12499D01*
X12998Y77500D01*
Y78500D01*
X12499Y79000D01*
X11499D01*
X10999Y78500D01*
X13998Y79000D02*
X14998D01*
X14498D01*
Y76001D01*
X13998Y76501D01*
X17997Y79000D02*
Y76001D01*
X16497Y77500D01*
X18497D01*
X16899Y105446D02*
X16399Y104946D01*
X15399D01*
X14899Y105446D01*
Y107445D01*
X15399Y107945D01*
X16399D01*
X16899Y107445D01*
X19898Y104946D02*
X17898D01*
Y106445D01*
X18898Y105946D01*
X19398D01*
X19898Y106445D01*
Y107445D01*
X19398Y107945D01*
X18398D01*
X17898Y107445D01*
X20897Y107945D02*
X21897D01*
X21397D01*
Y104946D01*
X20897Y105446D01*
X25396Y104946D02*
X23396D01*
Y106445D01*
X24396Y105946D01*
X24896D01*
X25396Y106445D01*
Y107445D01*
X24896Y107945D01*
X23896D01*
X23396Y107445D01*
D13*
X188937Y46165D02*
Y75827D01*
X68937D02*
X188937D01*
X68937Y46165D02*
Y75827D01*
Y46165D02*
X188937D01*
X184001Y42498D02*
X186001D01*
X185001D01*
Y37500D01*
X186001Y36500D01*
X187000D01*
X188000Y37500D01*
X182002Y36500D02*
X180003D01*
X181002D01*
Y42498D01*
X182002Y41498D01*
X190001Y185498D02*
X192001D01*
X191001D01*
Y180500D01*
X192001Y179500D01*
X193000D01*
X194000Y180500D01*
X184003Y179500D02*
X188002D01*
X184003Y183499D01*
Y184498D01*
X185003Y185498D01*
X187002D01*
X188002Y184498D01*
D14*
X194870Y187913D02*
Y205913D01*
X33476Y187913D02*
Y205913D01*
Y187913D02*
X194870D01*
X33476Y205913D02*
X194870D01*
D88*
X196870Y191248D02*
X197703Y190415D01*
X199369D01*
X200202Y191248D01*
Y192081D01*
X199369Y192914D01*
X198536D01*
X199369D01*
X200202Y193747D01*
Y194580D01*
X199369Y195413D01*
X197703D01*
X196870Y194580D01*
X201869D02*
X202701Y195413D01*
X204368D01*
X205201Y194580D01*
Y191248D01*
X204368Y190415D01*
X202701D01*
X201869Y191248D01*
Y192081D01*
X202701Y192914D01*
X205201D01*
X199369Y203913D02*
Y198915D01*
X196870Y201414D01*
X200202D01*
X201869Y199748D02*
X202701Y198915D01*
X204368D01*
X205201Y199748D01*
Y203080D01*
X204368Y203913D01*
X202701D01*
X201869Y203080D01*
Y199748D01*
X30702Y203413D02*
X27370D01*
X30702Y200081D01*
Y199248D01*
X29869Y198415D01*
X28203D01*
X27370Y199248D01*
X28370Y194913D02*
X30036D01*
X29203D01*
Y189915D01*
X28370Y190748D01*
D120*
X84268Y42165D02*
G03*
X84268Y42165I-1000J0D01*
G01*
M02*
