G04*
G04 #@! TF.GenerationSoftware,Altium Limited,Altium Designer,18.0.12 (696)*
G04*
G04 Layer_Color=65535*
%FSLAX25Y25*%
%MOIN*%
G70*
G01*
G75*
%ADD10C,0.00984*%
%ADD11C,0.00394*%
%ADD12C,0.00500*%
%ADD13C,0.01000*%
%ADD14C,0.00787*%
D10*
X30130Y190811D02*
G03*
X30130Y190811I-500J0D01*
G01*
X305370Y123878D02*
G03*
X305370Y123878I-500J0D01*
G01*
X305472Y52480D02*
G03*
X305472Y52480I-500J0D01*
G01*
X30130Y110622D02*
G03*
X30130Y110622I-500J0D01*
G01*
X162126Y147241D02*
G03*
X162126Y147241I-492J0D01*
G01*
D11*
X27197Y130756D02*
G03*
X27197Y130756I-197J0D01*
G01*
X203520Y98402D02*
G03*
X203520Y98402I-197J0D01*
G01*
X240878Y198429D02*
G03*
X240878Y198429I-197J0D01*
G01*
X195768Y142681D02*
G03*
X195768Y142681I-197J0D01*
G01*
D12*
X221490Y187889D02*
G03*
X221490Y187889I-6890J0D01*
G01*
X196490Y167889D02*
G03*
X196490Y167889I-6890J0D01*
G01*
X246490D02*
G03*
X246490Y167889I-6890J0D01*
G01*
X221490Y147889D02*
G03*
X221490Y147889I-6890J0D01*
G01*
X67390Y105500D02*
G03*
X67390Y105500I-6890J0D01*
G01*
X59890Y131017D02*
G03*
X59890Y131017I-6890J0D01*
G01*
X326000Y191600D02*
Y196600D01*
X325700Y202600D02*
Y207600D01*
X102300Y9200D02*
X107300D01*
X117833D02*
X122833D01*
X133167Y9700D02*
X138167D01*
X150000Y9200D02*
X155000D01*
X136579Y135646D02*
X137579Y136646D01*
X136579Y137646D02*
X137579Y136646D01*
X127579Y146646D02*
X128579Y145647D01*
X126579D02*
X127579Y146646D01*
Y136646D02*
Y146646D01*
Y136646D02*
X137579D01*
X-19500Y-5000D02*
X-18500Y-4000D01*
X-19500Y-3000D02*
X-18500Y-4000D01*
X-28500Y6000D02*
X-27500Y5000D01*
X-29500D02*
X-28500Y6000D01*
Y-4000D02*
Y6000D01*
Y-4000D02*
X-18500D01*
X1900Y38900D02*
X41900D01*
X1900Y7400D02*
Y38900D01*
Y7400D02*
X5900Y3400D01*
Y-100D02*
Y3400D01*
X41900Y6900D02*
Y38900D01*
X38400Y3400D02*
X41900Y6900D01*
X38400Y-100D02*
Y3400D01*
X329000Y-2000D02*
Y1500D01*
X332500Y5000D01*
Y37000D01*
X296500Y-2000D02*
Y1500D01*
X292500Y5500D02*
X296500Y1500D01*
X292500Y5500D02*
Y37000D01*
X332500D01*
X72431Y136292D02*
X82432D01*
X72431D02*
Y146292D01*
X71431Y145292D02*
X72431Y146292D01*
X73431Y145292D01*
X81432Y137292D02*
X82432Y136292D01*
X81432Y135292D02*
X82432Y136292D01*
X300689Y9976D02*
X299689D01*
X300189D01*
Y6977D01*
X300689Y7477D01*
X328346Y10075D02*
X327347D01*
X327847D01*
Y7076D01*
X328346Y7576D01*
X323848Y10075D02*
X325847D01*
X323848Y8075D01*
Y7576D01*
X324348Y7076D01*
X325347D01*
X325847Y7576D01*
X299280Y34976D02*
X301279D01*
X299280Y32977D01*
Y32477D01*
X299780Y31977D01*
X300780D01*
X301279Y32477D01*
X296781Y34976D02*
Y31977D01*
X298281Y33477D01*
X296281D01*
X328248Y35173D02*
X327248D01*
X327748D01*
Y32174D01*
X328248Y32674D01*
X325749D02*
X325249Y32174D01*
X324249D01*
X323749Y32674D01*
Y33174D01*
X324249Y33674D01*
X324749D01*
X324249D01*
X323749Y34174D01*
Y34673D01*
X324249Y35173D01*
X325249D01*
X325749Y34673D01*
X132579Y134645D02*
X134578Y131647D01*
Y134645D02*
X132579Y131647D01*
X122579Y144646D02*
Y144146D01*
X123578Y143146D01*
X124578Y144146D01*
Y144646D01*
X123578Y143146D02*
Y141647D01*
X-23500Y-6001D02*
X-21501Y-9000D01*
Y-6001D02*
X-23500Y-9000D01*
X-33500Y3999D02*
Y3499D01*
X-32500Y2499D01*
X-31501Y3499D01*
Y3999D01*
X-32500Y2499D02*
Y1000D01*
X230501Y18599D02*
X230001Y18100D01*
Y17100D01*
X230501Y16600D01*
X232500D01*
X233000Y17100D01*
Y18100D01*
X232500Y18599D01*
X231501D01*
Y17600D01*
X233000Y19599D02*
X230001D01*
X233000Y21598D01*
X230001D01*
Y22598D02*
X233000D01*
Y24098D01*
X232500Y24597D01*
X230501D01*
X230001Y24098D01*
Y22598D01*
X222700Y16600D02*
X219701D01*
Y18100D01*
X220201Y18599D01*
X221200D01*
X221700Y18100D01*
Y16600D01*
Y17600D02*
X222700Y18599D01*
X219701Y19599D02*
Y21598D01*
Y20599D01*
X222700D01*
X220201Y24597D02*
X219701Y24098D01*
Y23098D01*
X220201Y22598D01*
X220701D01*
X221200Y23098D01*
Y24098D01*
X221700Y24597D01*
X222200D01*
X222700Y24098D01*
Y23098D01*
X222200Y22598D01*
X212400Y16600D02*
Y17600D01*
Y17100D01*
X209401D01*
X209901Y16600D01*
X212400Y19099D02*
X211900D01*
Y19599D01*
X212400D01*
Y19099D01*
X209901Y21598D02*
X209401Y22098D01*
Y23098D01*
X209901Y23598D01*
X210401D01*
X210900Y23098D01*
X211400Y23598D01*
X211900D01*
X212400Y23098D01*
Y22098D01*
X211900Y21598D01*
X211400D01*
X210900Y22098D01*
X210401Y21598D01*
X209901D01*
X210900Y22098D02*
Y23098D01*
X209401Y24597D02*
X211400D01*
X212400Y25597D01*
X211400Y26597D01*
X209401D01*
X202100Y16600D02*
X199101D01*
Y18100D01*
X199601Y18599D01*
X200601D01*
X201100Y18100D01*
Y16600D01*
Y17600D02*
X202100Y18599D01*
X199101Y19599D02*
X202100Y21598D01*
X199101D02*
X202100Y19599D01*
X188801Y16600D02*
Y18599D01*
Y17600D01*
X191800D01*
X188801Y19599D02*
X191800Y21598D01*
X188801D02*
X191800Y19599D01*
X179001Y18599D02*
X178501Y18100D01*
Y17100D01*
X179001Y16600D01*
X181000D01*
X181500Y17100D01*
Y18100D01*
X181000Y18599D01*
X178501Y19599D02*
Y21598D01*
Y20599D01*
X181500D01*
X179001Y24597D02*
X178501Y24098D01*
Y23098D01*
X179001Y22598D01*
X179501D01*
X180000Y23098D01*
Y24098D01*
X180500Y24597D01*
X181000D01*
X181500Y24098D01*
Y23098D01*
X181000Y22598D01*
X67431Y144291D02*
Y143791D01*
X68431Y142792D01*
X69431Y143791D01*
Y144291D01*
X68431Y142792D02*
Y141292D01*
X72831Y133591D02*
X74831Y130592D01*
Y133591D02*
X72831Y130592D01*
X33499Y66500D02*
Y64501D01*
X32999D01*
X31000Y66500D01*
X30500D01*
Y61502D02*
Y63501D01*
X32499Y61502D01*
X32999D01*
X33499Y62001D01*
Y63001D01*
X32999Y63501D01*
X33499Y58503D02*
Y60502D01*
X31999D01*
X32499Y59502D01*
Y59002D01*
X31999Y58503D01*
X31000D01*
X30500Y59002D01*
Y60002D01*
X31000Y60502D01*
X30500Y57503D02*
Y56503D01*
Y57003D01*
X33499D01*
X32999Y57503D01*
X301603Y95102D02*
Y97102D01*
X302103D01*
X304102Y95102D01*
X304602D01*
Y100101D02*
Y98101D01*
X302603Y100101D01*
X302103D01*
X301603Y99601D01*
Y98601D01*
X302103Y98101D01*
X301603Y103100D02*
Y101100D01*
X303103D01*
X302603Y102100D01*
Y102600D01*
X303103Y103100D01*
X304102D01*
X304602Y102600D01*
Y101600D01*
X304102Y101100D01*
X304602Y104100D02*
Y105099D01*
Y104599D01*
X301603D01*
X302103Y104100D01*
X304500Y168499D02*
Y166500D01*
X302501Y168499D01*
X302001D01*
X301501Y167999D01*
Y167000D01*
X302001Y166500D01*
X301501Y169499D02*
Y171498D01*
X302001D01*
X304000Y169499D01*
X304500D01*
X302001Y172498D02*
X301501Y172998D01*
Y173998D01*
X302001Y174497D01*
X302501D01*
X303000Y173998D01*
Y173498D01*
Y173998D01*
X303500Y174497D01*
X304000D01*
X304500Y173998D01*
Y172998D01*
X304000Y172498D01*
X304500Y177496D02*
Y175497D01*
X302501Y177496D01*
X302001D01*
X301501Y176997D01*
Y175997D01*
X302001Y175497D01*
X30602Y144690D02*
Y146689D01*
X32602Y144690D01*
X33101D01*
X33601Y145189D01*
Y146189D01*
X33101Y146689D01*
X33601Y143690D02*
Y141691D01*
X33101D01*
X31102Y143690D01*
X30602D01*
X33101Y140691D02*
X33601Y140191D01*
Y139191D01*
X33101Y138692D01*
X32602D01*
X32102Y139191D01*
Y139691D01*
Y139191D01*
X31602Y138692D01*
X31102D01*
X30602Y139191D01*
Y140191D01*
X31102Y140691D01*
X30602Y135693D02*
Y137692D01*
X32602Y135693D01*
X33101D01*
X33601Y136192D01*
Y137192D01*
X33101Y137692D01*
X10089Y11876D02*
X9089D01*
X9589D01*
Y8877D01*
X10089Y9377D01*
X37747Y11975D02*
X36747D01*
X37247D01*
Y8976D01*
X37747Y9476D01*
X33248Y11975D02*
X35247D01*
X33248Y9975D01*
Y9476D01*
X33748Y8976D01*
X34747D01*
X35247Y9476D01*
X8680Y36876D02*
X10679D01*
X8680Y34877D01*
Y34377D01*
X9180Y33877D01*
X10180D01*
X10679Y34377D01*
X6181Y36876D02*
Y33877D01*
X7681Y35377D01*
X5681D01*
X37648Y37073D02*
X36648D01*
X37148D01*
Y34074D01*
X37648Y34574D01*
X35149D02*
X34649Y34074D01*
X33649D01*
X33149Y34574D01*
Y35074D01*
X33649Y35574D01*
X34149D01*
X33649D01*
X33149Y36074D01*
Y36573D01*
X33649Y37073D01*
X34649D01*
X35149Y36573D01*
X307000Y41499D02*
Y39000D01*
X307500Y38500D01*
X308500D01*
X308999Y39000D01*
Y41499D01*
X311498Y38500D02*
Y41499D01*
X309999Y39999D01*
X311998D01*
X312998Y40999D02*
X313498Y41499D01*
X314498D01*
X314997Y40999D01*
Y39000D01*
X314498Y38500D01*
X313498D01*
X312998Y39000D01*
Y40999D01*
X315997D02*
X316497Y41499D01*
X317497D01*
X317996Y40999D01*
Y39000D01*
X317497Y38500D01*
X316497D01*
X315997Y39000D01*
Y40999D01*
X149409Y26499D02*
Y24000D01*
X149909Y23500D01*
X150909D01*
X151409Y24000D01*
Y26499D01*
X154408D02*
X152408D01*
Y24999D01*
X153408Y25499D01*
X153908D01*
X154408Y24999D01*
Y24000D01*
X153908Y23500D01*
X152908D01*
X152408Y24000D01*
X262300Y69299D02*
Y66800D01*
X262800Y66300D01*
X263800D01*
X264299Y66800D01*
Y69299D01*
X265299Y66300D02*
X266299D01*
X265799D01*
Y69299D01*
X265299Y68799D01*
X267798D02*
X268298Y69299D01*
X269298D01*
X269798Y68799D01*
Y66800D01*
X269298Y66300D01*
X268298D01*
X267798Y66800D01*
Y68799D01*
X272797Y66300D02*
X270797D01*
X272797Y68299D01*
Y68799D01*
X272297Y69299D01*
X271297D01*
X270797Y68799D01*
X259000Y42500D02*
X256001D01*
Y43999D01*
X256501Y44499D01*
X257501D01*
X258000Y43999D01*
Y42500D01*
Y43500D02*
X259000Y44499D01*
Y45499D02*
Y46499D01*
Y45999D01*
X256001D01*
X256501Y45499D01*
Y47998D02*
X256001Y48498D01*
Y49498D01*
X256501Y49998D01*
X258500D01*
X259000Y49498D01*
Y48498D01*
X258500Y47998D01*
X256501D01*
X259000Y52997D02*
Y50997D01*
X257001Y52997D01*
X256501D01*
X256001Y52497D01*
Y51497D01*
X256501Y50997D01*
X243001Y69999D02*
X242501Y69499D01*
Y68500D01*
X243001Y68000D01*
X245000D01*
X245500Y68500D01*
Y69499D01*
X245000Y69999D01*
X245500Y70999D02*
Y71999D01*
Y71499D01*
X242501D01*
X243001Y70999D01*
Y73498D02*
X242501Y73998D01*
Y74998D01*
X243001Y75498D01*
X245000D01*
X245500Y74998D01*
Y73998D01*
X245000Y73498D01*
X243001D01*
X242501Y78497D02*
Y76497D01*
X244001D01*
X243501Y77497D01*
Y77997D01*
X244001Y78497D01*
X245000D01*
X245500Y77997D01*
Y76997D01*
X245000Y76497D01*
X279199Y70499D02*
X278699Y70999D01*
X277700D01*
X277200Y70499D01*
Y68500D01*
X277700Y68000D01*
X278699D01*
X279199Y68500D01*
X280199Y68000D02*
X281199D01*
X280699D01*
Y70999D01*
X280199Y70499D01*
X282698D02*
X283198Y70999D01*
X284198D01*
X284698Y70499D01*
Y68500D01*
X284198Y68000D01*
X283198D01*
X282698Y68500D01*
Y70499D01*
X287197Y68000D02*
Y70999D01*
X285697Y69499D01*
X287697D01*
X279499Y63999D02*
X278999Y64499D01*
X278000D01*
X277500Y63999D01*
Y62000D01*
X278000Y61500D01*
X278999D01*
X279499Y62000D01*
X280499Y61500D02*
X281499D01*
X280999D01*
Y64499D01*
X280499Y63999D01*
X282998D02*
X283498Y64499D01*
X284498D01*
X284998Y63999D01*
Y62000D01*
X284498Y61500D01*
X283498D01*
X282998Y62000D01*
Y63999D01*
X287997Y64499D02*
X286997Y63999D01*
X285997Y62999D01*
Y62000D01*
X286497Y61500D01*
X287497D01*
X287997Y62000D01*
Y62500D01*
X287497Y62999D01*
X285997D01*
X244599Y59118D02*
X245099Y59618D01*
Y60618D01*
X244599Y61117D01*
X242600D01*
X242100Y60618D01*
Y59618D01*
X242600Y59118D01*
X242100Y58118D02*
Y57119D01*
Y57618D01*
X245099D01*
X244599Y58118D01*
Y55619D02*
X245099Y55119D01*
Y54120D01*
X244599Y53620D01*
X242600D01*
X242100Y54120D01*
Y55119D01*
X242600Y55619D01*
X244599D01*
X245099Y52620D02*
Y50621D01*
X244599D01*
X242600Y52620D01*
X242100D01*
X256800Y63217D02*
Y66216D01*
X258299D01*
X258799Y65716D01*
Y64717D01*
X258299Y64217D01*
X256800D01*
X257800D02*
X258799Y63217D01*
X259799D02*
X260799D01*
X260299D01*
Y66216D01*
X259799Y65716D01*
X262298D02*
X262798Y66216D01*
X263798D01*
X264298Y65716D01*
Y63717D01*
X263798Y63217D01*
X262798D01*
X262298Y63717D01*
Y65716D01*
X265297D02*
X265797Y66216D01*
X266797D01*
X267297Y65716D01*
Y65217D01*
X266797Y64717D01*
X266297D01*
X266797D01*
X267297Y64217D01*
Y63717D01*
X266797Y63217D01*
X265797D01*
X265297Y63717D01*
X261900Y49957D02*
Y47458D01*
X262400Y46958D01*
X263400D01*
X263899Y47458D01*
Y49957D01*
X264899Y46958D02*
X265899D01*
X265399D01*
Y49957D01*
X264899Y49457D01*
X267398D02*
X267898Y49957D01*
X268898D01*
X269398Y49457D01*
Y47458D01*
X268898Y46958D01*
X267898D01*
X267398Y47458D01*
Y49457D01*
X270397D02*
X270897Y49957D01*
X271897D01*
X272397Y49457D01*
Y48958D01*
X271897Y48458D01*
X271397D01*
X271897D01*
X272397Y47958D01*
Y47458D01*
X271897Y46958D01*
X270897D01*
X270397Y47458D01*
X262100Y108505D02*
Y106006D01*
X262600Y105506D01*
X263599D01*
X264099Y106006D01*
Y108505D01*
X265099Y105506D02*
X266099D01*
X265599D01*
Y108505D01*
X265099Y108005D01*
X267598D02*
X268098Y108505D01*
X269098D01*
X269598Y108005D01*
Y106006D01*
X269098Y105506D01*
X268098D01*
X267598Y106006D01*
Y108005D01*
X270597Y105506D02*
X271597D01*
X271097D01*
Y108505D01*
X270597Y108005D01*
X260000Y102000D02*
X257001D01*
Y103499D01*
X257501Y103999D01*
X258501D01*
X259000Y103499D01*
Y102000D01*
Y103000D02*
X260000Y103999D01*
Y104999D02*
Y105999D01*
Y105499D01*
X257001D01*
X257501Y104999D01*
Y107498D02*
X257001Y107998D01*
Y108998D01*
X257501Y109498D01*
X259500D01*
X260000Y108998D01*
Y107998D01*
X259500Y107498D01*
X257501D01*
X260000Y110497D02*
Y111497D01*
Y110997D01*
X257001D01*
X257501Y110497D01*
X242501Y108999D02*
X242001Y108500D01*
Y107500D01*
X242501Y107000D01*
X244500D01*
X245000Y107500D01*
Y108500D01*
X244500Y108999D01*
X245000Y109999D02*
Y110999D01*
Y110499D01*
X242001D01*
X242501Y109999D01*
Y112498D02*
X242001Y112998D01*
Y113998D01*
X242501Y114498D01*
X244500D01*
X245000Y113998D01*
Y112998D01*
X244500Y112498D01*
X242501D01*
Y115497D02*
X242001Y115997D01*
Y116997D01*
X242501Y117497D01*
X243001D01*
X243500Y116997D01*
Y116497D01*
Y116997D01*
X244000Y117497D01*
X244500D01*
X245000Y116997D01*
Y115997D01*
X244500Y115497D01*
X278399Y108999D02*
X277900Y109499D01*
X276900D01*
X276400Y108999D01*
Y107000D01*
X276900Y106500D01*
X277900D01*
X278399Y107000D01*
X279399Y106500D02*
X280399D01*
X279899D01*
Y109499D01*
X279399Y108999D01*
X281898D02*
X282398Y109499D01*
X283398D01*
X283898Y108999D01*
Y107000D01*
X283398Y106500D01*
X282398D01*
X281898Y107000D01*
Y108999D01*
X286897Y106500D02*
X284897D01*
X286897Y108499D01*
Y108999D01*
X286397Y109499D01*
X285397D01*
X284897Y108999D01*
X187499Y148268D02*
X186999Y148767D01*
X186000D01*
X185500Y148268D01*
Y147768D01*
X186000Y147268D01*
X186999D01*
X187499Y146768D01*
Y146268D01*
X186999Y145768D01*
X186000D01*
X185500Y146268D01*
X188499Y148767D02*
Y145768D01*
X189499Y146768D01*
X190498Y145768D01*
Y148767D01*
X192998Y145768D02*
Y148767D01*
X191498Y147268D01*
X193497D01*
X238499Y188999D02*
X238000Y189499D01*
X237000D01*
X236500Y188999D01*
Y188499D01*
X237000Y187999D01*
X238000D01*
X238499Y187500D01*
Y187000D01*
X238000Y186500D01*
X237000D01*
X236500Y187000D01*
X239499Y189499D02*
Y186500D01*
X240499Y187500D01*
X241498Y186500D01*
Y189499D01*
X244497Y186500D02*
X242498D01*
X244497Y188499D01*
Y188999D01*
X243998Y189499D01*
X242998D01*
X242498Y188999D01*
X302999Y161377D02*
X302000D01*
X302500D01*
Y158878D01*
X302000Y158378D01*
X301500D01*
X301000Y158878D01*
X303999Y160877D02*
X304499Y161377D01*
X305499D01*
X305998Y160877D01*
Y160377D01*
X305499Y159878D01*
X304999D01*
X305499D01*
X305998Y159378D01*
Y158878D01*
X305499Y158378D01*
X304499D01*
X303999Y158878D01*
X323800Y186500D02*
X324800D01*
X324300D01*
Y189499D01*
X323800Y188999D01*
X326299Y189499D02*
Y187500D01*
X327299Y186500D01*
X328298Y187500D01*
Y189499D01*
X329298Y188999D02*
X329798Y189499D01*
X330798D01*
X331298Y188999D01*
Y188499D01*
X330798Y187999D01*
X331298Y187500D01*
Y187000D01*
X330798Y186500D01*
X329798D01*
X329298Y187000D01*
Y187500D01*
X329798Y187999D01*
X329298Y188499D01*
Y188999D01*
X329798Y187999D02*
X330798D01*
X324300Y200199D02*
X324800Y200699D01*
X325799D01*
X326299Y200199D01*
Y199699D01*
X325799Y199199D01*
X325300D01*
X325799D01*
X326299Y198700D01*
Y198200D01*
X325799Y197700D01*
X324800D01*
X324300Y198200D01*
X327299Y200699D02*
Y198700D01*
X328299Y197700D01*
X329298Y198700D01*
Y200699D01*
X330298Y200199D02*
X330798Y200699D01*
X331798D01*
X332297Y200199D01*
Y199699D01*
X331798Y199199D01*
X331298D01*
X331798D01*
X332297Y198700D01*
Y198200D01*
X331798Y197700D01*
X330798D01*
X330298Y198200D01*
X218501Y119799D02*
X218001Y119299D01*
Y118300D01*
X218501Y117800D01*
X220500D01*
X221000Y118300D01*
Y119299D01*
X220500Y119799D01*
X221000Y120799D02*
Y121799D01*
Y121299D01*
X218001D01*
X218501Y120799D01*
X187999Y85799D02*
X187499Y86299D01*
X186500D01*
X186000Y85799D01*
Y83800D01*
X186500Y83300D01*
X187499D01*
X187999Y83800D01*
X190998Y83300D02*
X188999D01*
X190998Y85299D01*
Y85799D01*
X190499Y86299D01*
X189499D01*
X188999Y85799D01*
X97001Y16000D02*
Y17000D01*
Y16500D01*
X100000D01*
Y16000D01*
Y17000D01*
Y18499D02*
X97001D01*
X100000Y20498D01*
X97001D01*
Y21498D02*
X100000D01*
Y22998D01*
X99500Y23498D01*
X97501D01*
X97001Y22998D01*
Y21498D01*
X100000Y24497D02*
Y25497D01*
Y24997D01*
X97001D01*
X97501Y24497D01*
X113001Y16000D02*
Y17000D01*
Y16500D01*
X116000D01*
Y16000D01*
Y17000D01*
Y18499D02*
X113001D01*
X116000Y20498D01*
X113001D01*
Y21498D02*
X116000D01*
Y22998D01*
X115500Y23498D01*
X113501D01*
X113001Y22998D01*
Y21498D01*
X116000Y26497D02*
Y24497D01*
X114001Y26497D01*
X113501D01*
X113001Y25997D01*
Y24997D01*
X113501Y24497D01*
X128001Y17000D02*
Y18000D01*
Y17500D01*
X131000D01*
Y17000D01*
Y18000D01*
Y19499D02*
X128001D01*
X131000Y21498D01*
X128001D01*
Y22498D02*
X131000D01*
Y23998D01*
X130500Y24498D01*
X128501D01*
X128001Y23998D01*
Y22498D01*
X128501Y25497D02*
X128001Y25997D01*
Y26997D01*
X128501Y27497D01*
X129001D01*
X129500Y26997D01*
Y26497D01*
Y26997D01*
X130000Y27497D01*
X130500D01*
X131000Y26997D01*
Y25997D01*
X130500Y25497D01*
X286701Y131899D02*
Y130900D01*
Y131400D01*
X289200D01*
X289700Y130900D01*
Y130400D01*
X289200Y129900D01*
X289700Y134399D02*
X286701D01*
X288200Y132899D01*
Y134898D01*
X285901Y142631D02*
Y141631D01*
Y142131D01*
X288400D01*
X288900Y141631D01*
Y141131D01*
X288400Y140631D01*
X285901Y145630D02*
Y143631D01*
X287401D01*
X286901Y144630D01*
Y145130D01*
X287401Y145630D01*
X288400D01*
X288900Y145130D01*
Y144130D01*
X288400Y143631D01*
X234000Y103800D02*
Y106799D01*
X235500D01*
X235999Y106299D01*
Y105299D01*
X235500Y104800D01*
X234000D01*
X235000D02*
X235999Y103800D01*
X236999D02*
X237999D01*
X237499D01*
Y106799D01*
X236999Y106299D01*
X222500Y72800D02*
Y75799D01*
X224000D01*
X224499Y75299D01*
Y74300D01*
X224000Y73800D01*
X222500D01*
X223500D02*
X224499Y72800D01*
X227498D02*
X225499D01*
X227498Y74799D01*
Y75299D01*
X226998Y75799D01*
X225999D01*
X225499Y75299D01*
X96000Y9500D02*
X93001D01*
Y11000D01*
X93501Y11499D01*
X94500D01*
X95000Y11000D01*
Y9500D01*
Y10500D02*
X96000Y11499D01*
X93501Y12499D02*
X93001Y12999D01*
Y13999D01*
X93501Y14498D01*
X94001D01*
X94500Y13999D01*
Y13499D01*
Y13999D01*
X95000Y14498D01*
X95500D01*
X96000Y13999D01*
Y12999D01*
X95500Y12499D01*
X112000Y9500D02*
X109001D01*
Y11000D01*
X109501Y11499D01*
X110501D01*
X111000Y11000D01*
Y9500D01*
Y10500D02*
X112000Y11499D01*
Y13999D02*
X109001D01*
X110501Y12499D01*
Y14498D01*
X127610Y9600D02*
X124611D01*
Y11100D01*
X125111Y11599D01*
X126111D01*
X126611Y11100D01*
Y9600D01*
Y10600D02*
X127610Y11599D01*
X124611Y14598D02*
Y12599D01*
X126111D01*
X125611Y13599D01*
Y14099D01*
X126111Y14598D01*
X127110D01*
X127610Y14099D01*
Y13099D01*
X127110Y12599D01*
X314000Y198700D02*
Y201699D01*
X315499D01*
X315999Y201199D01*
Y200200D01*
X315499Y199700D01*
X314000D01*
X315000D02*
X315999Y198700D01*
X316999Y201699D02*
X318998D01*
Y201199D01*
X316999Y199200D01*
Y198700D01*
X314100Y188000D02*
Y190999D01*
X315599D01*
X316099Y190499D01*
Y189499D01*
X315599Y189000D01*
X314100D01*
X315100D02*
X316099Y188000D01*
X317099Y188500D02*
X317599Y188000D01*
X318599D01*
X319098Y188500D01*
Y190499D01*
X318599Y190999D01*
X317599D01*
X317099Y190499D01*
Y189999D01*
X317599Y189499D01*
X319098D01*
X208500Y103299D02*
Y100800D01*
X209000Y100300D01*
X209999D01*
X210499Y100800D01*
Y103299D01*
X211499Y100300D02*
X212499D01*
X211999D01*
Y103299D01*
X211499Y102799D01*
X101700Y28199D02*
Y25700D01*
X102200Y25200D01*
X103200D01*
X103699Y25700D01*
Y28199D01*
X106698Y25200D02*
X104699D01*
X106698Y27199D01*
Y27699D01*
X106199Y28199D01*
X105199D01*
X104699Y27699D01*
X120000Y26499D02*
Y24000D01*
X120500Y23500D01*
X121500D01*
X121999Y24000D01*
Y26499D01*
X122999Y25999D02*
X123499Y26499D01*
X124499D01*
X124998Y25999D01*
Y25499D01*
X124499Y24999D01*
X123999D01*
X124499D01*
X124998Y24500D01*
Y24000D01*
X124499Y23500D01*
X123499D01*
X122999Y24000D01*
X136000Y26999D02*
Y24500D01*
X136500Y24000D01*
X137499D01*
X137999Y24500D01*
Y26999D01*
X140499Y24000D02*
Y26999D01*
X138999Y25499D01*
X140998D01*
X229201Y193500D02*
X232200D01*
Y195000D01*
X231700Y195499D01*
X229701D01*
X229201Y195000D01*
Y193500D01*
X232200Y196499D02*
Y197499D01*
Y196999D01*
X229201D01*
X229701Y196499D01*
X194500Y135238D02*
Y132239D01*
X196000D01*
X196499Y132739D01*
Y134739D01*
X196000Y135238D01*
X194500D01*
X199498Y132239D02*
X197499D01*
X199498Y134239D01*
Y134739D01*
X198999Y135238D01*
X197999D01*
X197499Y134739D01*
X145001Y15000D02*
Y16000D01*
Y15500D01*
X148000D01*
Y15000D01*
Y16000D01*
Y17499D02*
X145001D01*
X148000Y19499D01*
X145001D01*
Y20498D02*
X148000D01*
Y21998D01*
X147500Y22498D01*
X145501D01*
X145001Y21998D01*
Y20498D01*
X148000Y24997D02*
X145001D01*
X146501Y23497D01*
Y25497D01*
X144000Y8000D02*
X141001D01*
Y9499D01*
X141501Y9999D01*
X142500D01*
X143000Y9499D01*
Y8000D01*
Y9000D02*
X144000Y9999D01*
X141001Y12998D02*
X141501Y11999D01*
X142500Y10999D01*
X143500D01*
X144000Y11499D01*
Y12499D01*
X143500Y12998D01*
X143000D01*
X142500Y12499D01*
Y10999D01*
X170273Y6999D02*
Y6000D01*
Y6499D01*
X172772D01*
X173272Y6000D01*
Y5500D01*
X172772Y5000D01*
X170273Y9998D02*
X170773Y8999D01*
X171772Y7999D01*
X172772D01*
X173272Y8499D01*
Y9499D01*
X172772Y9998D01*
X172272D01*
X171772Y9499D01*
Y7999D01*
X255500Y31000D02*
Y33999D01*
X256999D01*
X257499Y33499D01*
Y32500D01*
X256999Y32000D01*
X255500D01*
X256500D02*
X257499Y31000D01*
X258499Y33499D02*
X258999Y33999D01*
X259998D01*
X260498Y33499D01*
Y32999D01*
X259998Y32500D01*
X260498Y32000D01*
Y31500D01*
X259998Y31000D01*
X258999D01*
X258499Y31500D01*
Y32000D01*
X258999Y32500D01*
X258499Y32999D01*
Y33499D01*
X258999Y32500D02*
X259998D01*
X255000Y20000D02*
Y22999D01*
X256500D01*
X256999Y22499D01*
Y21499D01*
X256500Y21000D01*
X255000D01*
X256000D02*
X256999Y20000D01*
X257999D02*
X258999D01*
X258499D01*
Y22999D01*
X257999Y22499D01*
X260498D02*
X260998Y22999D01*
X261998D01*
X262498Y22499D01*
Y20500D01*
X261998Y20000D01*
X260998D01*
X260498Y20500D01*
Y22499D01*
X255400Y7600D02*
Y10599D01*
X256899D01*
X257399Y10099D01*
Y9099D01*
X256899Y8600D01*
X255400D01*
X256400D02*
X257399Y7600D01*
X258399D02*
X259399D01*
X258899D01*
Y10599D01*
X258399Y10099D01*
X260898Y7600D02*
X261898D01*
X261398D01*
Y10599D01*
X260898Y10099D01*
X146580Y173646D02*
X146080Y173146D01*
Y172146D01*
X146580Y171646D01*
X148579D01*
X149079Y172146D01*
Y173146D01*
X148579Y173646D01*
X146580Y174645D02*
X146080Y175145D01*
Y176145D01*
X146580Y176645D01*
X147079D01*
X147579Y176145D01*
Y175645D01*
Y176145D01*
X148079Y176645D01*
X148579D01*
X149079Y176145D01*
Y175145D01*
X148579Y174645D01*
X146580Y177645D02*
X146080Y178144D01*
Y179144D01*
X146580Y179644D01*
X148579D01*
X149079Y179144D01*
Y178144D01*
X148579Y177645D01*
X146580D01*
Y180644D02*
X146080Y181143D01*
Y182143D01*
X146580Y182643D01*
X148579D01*
X149079Y182143D01*
Y181143D01*
X148579Y180644D01*
X146580D01*
X164579Y132496D02*
X164080Y131996D01*
Y130997D01*
X164579Y130497D01*
X166579D01*
X167079Y130997D01*
Y131996D01*
X166579Y132496D01*
X164579Y133496D02*
X164080Y133996D01*
Y134995D01*
X164579Y135495D01*
X165079D01*
X165579Y134995D01*
Y134496D01*
Y134995D01*
X166079Y135495D01*
X166579D01*
X167079Y134995D01*
Y133996D01*
X166579Y133496D01*
X164579Y136495D02*
X164080Y136995D01*
Y137994D01*
X164579Y138494D01*
X166579D01*
X167079Y137994D01*
Y136995D01*
X166579Y136495D01*
X164579D01*
X167079Y139494D02*
Y140494D01*
Y139994D01*
X164080D01*
X164579Y139494D01*
X159080Y122646D02*
X158580Y122146D01*
Y121146D01*
X159080Y120647D01*
X161079D01*
X161579Y121146D01*
Y122146D01*
X161079Y122646D01*
X159080Y123645D02*
X158580Y124145D01*
Y125145D01*
X159080Y125645D01*
X159579D01*
X160079Y125145D01*
Y124645D01*
Y125145D01*
X160579Y125645D01*
X161079D01*
X161579Y125145D01*
Y124145D01*
X161079Y123645D01*
X159080Y126645D02*
X158580Y127144D01*
Y128144D01*
X159080Y128644D01*
X161079D01*
X161579Y128144D01*
Y127144D01*
X161079Y126645D01*
X159080D01*
X161579Y131643D02*
Y129644D01*
X159579Y131643D01*
X159080D01*
X158580Y131143D01*
Y130143D01*
X159080Y129644D01*
X149580Y125146D02*
X149080Y124646D01*
Y123646D01*
X149580Y123146D01*
X151579D01*
X152079Y123646D01*
Y124646D01*
X151579Y125146D01*
X149580Y126146D02*
X149080Y126645D01*
Y127645D01*
X149580Y128145D01*
X150079D01*
X150579Y127645D01*
Y127145D01*
Y127645D01*
X151079Y128145D01*
X151579D01*
X152079Y127645D01*
Y126645D01*
X151579Y126146D01*
X149580Y129145D02*
X149080Y129644D01*
Y130644D01*
X149580Y131144D01*
X151579D01*
X152079Y130644D01*
Y129644D01*
X151579Y129145D01*
X149580D01*
Y132144D02*
X149080Y132643D01*
Y133643D01*
X149580Y134143D01*
X150079D01*
X150579Y133643D01*
Y133143D01*
Y133643D01*
X151079Y134143D01*
X151579D01*
X152079Y133643D01*
Y132643D01*
X151579Y132144D01*
X142079Y116146D02*
X141580Y115646D01*
Y114646D01*
X142079Y114146D01*
X144079D01*
X144579Y114646D01*
Y115646D01*
X144079Y116146D01*
X142079Y117146D02*
X141580Y117645D01*
Y118645D01*
X142079Y119145D01*
X142579D01*
X143079Y118645D01*
Y118145D01*
Y118645D01*
X143579Y119145D01*
X144079D01*
X144579Y118645D01*
Y117645D01*
X144079Y117146D01*
X142079Y120144D02*
X141580Y120644D01*
Y121644D01*
X142079Y122144D01*
X144079D01*
X144579Y121644D01*
Y120644D01*
X144079Y120144D01*
X142079D01*
X144579Y124643D02*
X141580D01*
X143079Y123144D01*
Y125143D01*
X143079Y169647D02*
X140080D01*
Y171146D01*
X140579Y171646D01*
X141579D01*
X142079Y171146D01*
Y169647D01*
Y170646D02*
X143079Y171646D01*
X140579Y172645D02*
X140080Y173145D01*
Y174145D01*
X140579Y174645D01*
X141079D01*
X141579Y174145D01*
Y173645D01*
Y174145D01*
X142079Y174645D01*
X142579D01*
X143079Y174145D01*
Y173145D01*
X142579Y172645D01*
X140579Y175645D02*
X140080Y176144D01*
Y177144D01*
X140579Y177644D01*
X142579D01*
X143079Y177144D01*
Y176144D01*
X142579Y175645D01*
X140579D01*
Y178644D02*
X140080Y179143D01*
Y180143D01*
X140579Y180643D01*
X142579D01*
X143079Y180143D01*
Y179143D01*
X142579Y178644D01*
X140579D01*
X121547Y151146D02*
Y154146D01*
X123047D01*
X123547Y153646D01*
Y152646D01*
X123047Y152146D01*
X121547D01*
X122547D02*
X123547Y151146D01*
X124546Y153646D02*
X125046Y154146D01*
X126046D01*
X126546Y153646D01*
Y153146D01*
X126046Y152646D01*
X125546D01*
X126046D01*
X126546Y152146D01*
Y151646D01*
X126046Y151146D01*
X125046D01*
X124546Y151646D01*
X127545Y153646D02*
X128045Y154146D01*
X129045D01*
X129545Y153646D01*
Y151646D01*
X129045Y151146D01*
X128045D01*
X127545Y151646D01*
Y153646D01*
X130544Y151146D02*
X131544D01*
X131044D01*
Y154146D01*
X130544Y153646D01*
X156079Y123146D02*
X153080D01*
Y124646D01*
X153579Y125146D01*
X154579D01*
X155079Y124646D01*
Y123146D01*
Y124146D02*
X156079Y125146D01*
X153579Y126146D02*
X153080Y126645D01*
Y127645D01*
X153579Y128145D01*
X154079D01*
X154579Y127645D01*
Y127145D01*
Y127645D01*
X155079Y128145D01*
X155579D01*
X156079Y127645D01*
Y126645D01*
X155579Y126146D01*
X153579Y129145D02*
X153080Y129644D01*
Y130644D01*
X153579Y131144D01*
X155579D01*
X156079Y130644D01*
Y129644D01*
X155579Y129145D01*
X153579D01*
X156079Y134143D02*
Y132144D01*
X154079Y134143D01*
X153579D01*
X153080Y133643D01*
Y132643D01*
X153579Y132144D01*
X154547Y174646D02*
X151548D01*
Y176146D01*
X152048Y176646D01*
X153048D01*
X153548Y176146D01*
Y174646D01*
Y175646D02*
X154547Y176646D01*
X152048Y177646D02*
X151548Y178145D01*
Y179145D01*
X152048Y179645D01*
X152548D01*
X153048Y179145D01*
Y178645D01*
Y179145D01*
X153548Y179645D01*
X154047D01*
X154547Y179145D01*
Y178145D01*
X154047Y177646D01*
X152048Y180645D02*
X151548Y181144D01*
Y182144D01*
X152048Y182644D01*
X154047D01*
X154547Y182144D01*
Y181144D01*
X154047Y180645D01*
X152048D01*
Y183644D02*
X151548Y184143D01*
Y185143D01*
X152048Y185643D01*
X152548D01*
X153048Y185143D01*
Y184643D01*
Y185143D01*
X153548Y185643D01*
X154047D01*
X154547Y185143D01*
Y184143D01*
X154047Y183644D01*
X119579Y156147D02*
Y159145D01*
X121078D01*
X121578Y158646D01*
Y157646D01*
X121078Y157146D01*
X119579D01*
X120578D02*
X121578Y156147D01*
X122578Y158646D02*
X123078Y159145D01*
X124077D01*
X124577Y158646D01*
Y158146D01*
X124077Y157646D01*
X123577D01*
X124077D01*
X124577Y157146D01*
Y156646D01*
X124077Y156147D01*
X123078D01*
X122578Y156646D01*
X125577Y158646D02*
X126077Y159145D01*
X127076D01*
X127576Y158646D01*
Y156646D01*
X127076Y156147D01*
X126077D01*
X125577Y156646D01*
Y158646D01*
X130075Y156147D02*
Y159145D01*
X128576Y157646D01*
X130575D01*
X157579Y164146D02*
Y161646D01*
X158079Y161146D01*
X159078D01*
X159578Y161646D01*
Y164146D01*
X160578Y163646D02*
X161078Y164146D01*
X162077D01*
X162577Y163646D01*
Y163146D01*
X162077Y162646D01*
X161577D01*
X162077D01*
X162577Y162146D01*
Y161646D01*
X162077Y161146D01*
X161078D01*
X160578Y161646D01*
X163577Y163646D02*
X164077Y164146D01*
X165076D01*
X165576Y163646D01*
Y161646D01*
X165076Y161146D01*
X164077D01*
X163577Y161646D01*
Y163646D01*
X166576D02*
X167076Y164146D01*
X168075D01*
X168575Y163646D01*
Y161646D01*
X168075Y161146D01*
X167076D01*
X166576Y161646D01*
Y163646D01*
X108401Y174114D02*
X107901Y173615D01*
Y172615D01*
X108401Y172115D01*
X110400D01*
X110900Y172615D01*
Y173615D01*
X110400Y174114D01*
X108401Y175114D02*
X107901Y175614D01*
Y176613D01*
X108401Y177113D01*
X108901D01*
X109400Y176613D01*
Y176114D01*
Y176613D01*
X109900Y177113D01*
X110400D01*
X110900Y176613D01*
Y175614D01*
X110400Y175114D01*
X107901Y180112D02*
Y178113D01*
X109400D01*
X108901Y179113D01*
Y179613D01*
X109400Y180112D01*
X110400D01*
X110900Y179613D01*
Y178613D01*
X110400Y178113D01*
X108401Y181112D02*
X107901Y181612D01*
Y182612D01*
X108401Y183111D01*
X110400D01*
X110900Y182612D01*
Y181612D01*
X110400Y181112D01*
X108401D01*
X103901Y173614D02*
X103401Y173115D01*
Y172115D01*
X103901Y171615D01*
X105900D01*
X106400Y172115D01*
Y173115D01*
X105900Y173614D01*
X103901Y174614D02*
X103401Y175114D01*
Y176113D01*
X103901Y176613D01*
X104401D01*
X104901Y176113D01*
Y175614D01*
Y176113D01*
X105400Y176613D01*
X105900D01*
X106400Y176113D01*
Y175114D01*
X105900Y174614D01*
X103401Y179612D02*
Y177613D01*
X104901D01*
X104401Y178613D01*
Y179113D01*
X104901Y179612D01*
X105900D01*
X106400Y179113D01*
Y178113D01*
X105900Y177613D01*
X106400Y180612D02*
Y181612D01*
Y181112D01*
X103401D01*
X103901Y180612D01*
X109901Y137292D02*
X109401Y136792D01*
Y135792D01*
X109901Y135292D01*
X111900D01*
X112400Y135792D01*
Y136792D01*
X111900Y137292D01*
X109901Y138291D02*
X109401Y138791D01*
Y139791D01*
X109901Y140290D01*
X110401D01*
X110900Y139791D01*
Y139291D01*
Y139791D01*
X111400Y140290D01*
X111900D01*
X112400Y139791D01*
Y138791D01*
X111900Y138291D01*
X109401Y143289D02*
Y141290D01*
X110900D01*
X110401Y142290D01*
Y142790D01*
X110900Y143289D01*
X111900D01*
X112400Y142790D01*
Y141790D01*
X111900Y141290D01*
X112400Y146289D02*
Y144289D01*
X110401Y146289D01*
X109901D01*
X109401Y145789D01*
Y144789D01*
X109901Y144289D01*
X116401Y159792D02*
X115901Y159292D01*
Y158292D01*
X116401Y157792D01*
X118400D01*
X118900Y158292D01*
Y159292D01*
X118400Y159792D01*
X116401Y160791D02*
X115901Y161291D01*
Y162291D01*
X116401Y162791D01*
X116901D01*
X117401Y162291D01*
Y161791D01*
Y162291D01*
X117900Y162791D01*
X118400D01*
X118900Y162291D01*
Y161291D01*
X118400Y160791D01*
X115901Y165789D02*
Y163790D01*
X117401D01*
X116901Y164790D01*
Y165290D01*
X117401Y165789D01*
X118400D01*
X118900Y165290D01*
Y164290D01*
X118400Y163790D01*
X116401Y166789D02*
X115901Y167289D01*
Y168289D01*
X116401Y168789D01*
X116901D01*
X117401Y168289D01*
Y167789D01*
Y168289D01*
X117900Y168789D01*
X118400D01*
X118900Y168289D01*
Y167289D01*
X118400Y166789D01*
X74404Y158615D02*
X71405D01*
Y160115D01*
X71905Y160614D01*
X72904D01*
X73404Y160115D01*
Y158615D01*
Y159615D02*
X74404Y160614D01*
X71905Y161614D02*
X71405Y162114D01*
Y163113D01*
X71905Y163613D01*
X72405D01*
X72904Y163113D01*
Y162614D01*
Y163113D01*
X73404Y163613D01*
X73904D01*
X74404Y163113D01*
Y162114D01*
X73904Y161614D01*
X71405Y166612D02*
Y164613D01*
X72904D01*
X72405Y165613D01*
Y166112D01*
X72904Y166612D01*
X73904D01*
X74404Y166112D01*
Y165113D01*
X73904Y164613D01*
X71905Y167612D02*
X71405Y168112D01*
Y169112D01*
X71905Y169611D01*
X73904D01*
X74404Y169112D01*
Y168112D01*
X73904Y167612D01*
X71905D01*
X105900Y128792D02*
X102901D01*
Y130292D01*
X103401Y130791D01*
X104401D01*
X104900Y130292D01*
Y128792D01*
Y129792D02*
X105900Y130791D01*
X103401Y131791D02*
X102901Y132291D01*
Y133291D01*
X103401Y133791D01*
X103901D01*
X104401Y133291D01*
Y132791D01*
Y133291D01*
X104900Y133791D01*
X105400D01*
X105900Y133291D01*
Y132291D01*
X105400Y131791D01*
X102901Y136790D02*
Y134790D01*
X104401D01*
X103901Y135790D01*
Y136290D01*
X104401Y136790D01*
X105400D01*
X105900Y136290D01*
Y135290D01*
X105400Y134790D01*
X105900Y137789D02*
Y138789D01*
Y138289D01*
X102901D01*
X103401Y137789D01*
X81400Y173291D02*
Y170792D01*
X81900Y170292D01*
X82899D01*
X83399Y170792D01*
Y173291D01*
X84399Y172791D02*
X84899Y173291D01*
X85899D01*
X86398Y172791D01*
Y172292D01*
X85899Y171792D01*
X85399D01*
X85899D01*
X86398Y171292D01*
Y170792D01*
X85899Y170292D01*
X84899D01*
X84399Y170792D01*
X89397Y173291D02*
X87398D01*
Y171792D01*
X88398Y172292D01*
X88898D01*
X89397Y171792D01*
Y170792D01*
X88898Y170292D01*
X87898D01*
X87398Y170792D01*
X90397Y172791D02*
X90897Y173291D01*
X91897D01*
X92396Y172791D01*
Y170792D01*
X91897Y170292D01*
X90897D01*
X90397Y170792D01*
Y172791D01*
X212999Y208999D02*
X212499Y209499D01*
X211500D01*
X211000Y208999D01*
Y208499D01*
X211500Y207999D01*
X212499D01*
X212999Y207500D01*
Y207000D01*
X212499Y206500D01*
X211500D01*
X211000Y207000D01*
X213999Y209499D02*
Y206500D01*
X214999Y207500D01*
X215998Y206500D01*
Y209499D01*
X216998Y206500D02*
X217998D01*
X217498D01*
Y209499D01*
X216998Y208999D01*
X214499Y128346D02*
X214000Y128846D01*
X213000D01*
X212500Y128346D01*
Y127846D01*
X213000Y127346D01*
X214000D01*
X214499Y126846D01*
Y126346D01*
X214000Y125847D01*
X213000D01*
X212500Y126346D01*
X215499Y128846D02*
Y125847D01*
X216499Y126846D01*
X217498Y125847D01*
Y128846D01*
X218498Y128346D02*
X218998Y128846D01*
X219998D01*
X220497Y128346D01*
Y127846D01*
X219998Y127346D01*
X219498D01*
X219998D01*
X220497Y126846D01*
Y126346D01*
X219998Y125847D01*
X218998D01*
X218498Y126346D01*
X277999Y90807D02*
X277500Y91307D01*
X276500D01*
X276000Y90807D01*
Y88808D01*
X276500Y88308D01*
X277500D01*
X277999Y88808D01*
X278999Y88308D02*
X279999D01*
X279499D01*
Y91307D01*
X278999Y90807D01*
X281498D02*
X281998Y91307D01*
X282998D01*
X283498Y90807D01*
Y88808D01*
X282998Y88308D01*
X281998D01*
X281498Y88808D01*
Y90807D01*
X284497D02*
X284997Y91307D01*
X285997D01*
X286497Y90807D01*
Y88808D01*
X285997Y88308D01*
X284997D01*
X284497Y88808D01*
Y90807D01*
X243001Y90499D02*
X242501Y90000D01*
Y89000D01*
X243001Y88500D01*
X245000D01*
X245500Y89000D01*
Y90000D01*
X245000Y90499D01*
X245500Y91499D02*
Y92499D01*
Y91999D01*
X242501D01*
X243001Y91499D01*
Y93998D02*
X242501Y94498D01*
Y95498D01*
X243001Y95998D01*
X245000D01*
X245500Y95498D01*
Y94498D01*
X245000Y93998D01*
X243001D01*
X245500Y96997D02*
Y97997D01*
Y97497D01*
X242501D01*
X243001Y96997D01*
X260000Y81000D02*
X257001D01*
Y82499D01*
X257501Y82999D01*
X258501D01*
X259000Y82499D01*
Y81000D01*
Y82000D02*
X260000Y82999D01*
Y83999D02*
Y84999D01*
Y84499D01*
X257001D01*
X257501Y83999D01*
Y86498D02*
X257001Y86998D01*
Y87998D01*
X257501Y88498D01*
X259500D01*
X260000Y87998D01*
Y86998D01*
X259500Y86498D01*
X257501D01*
Y89497D02*
X257001Y89997D01*
Y90997D01*
X257501Y91497D01*
X259500D01*
X260000Y90997D01*
Y89997D01*
X259500Y89497D01*
X257501D01*
X262500Y90334D02*
Y87835D01*
X263000Y87335D01*
X264000D01*
X264499Y87835D01*
Y90334D01*
X265499Y87335D02*
X266499D01*
X265999D01*
Y90334D01*
X265499Y89834D01*
X267998D02*
X268498Y90334D01*
X269498D01*
X269998Y89834D01*
Y87835D01*
X269498Y87335D01*
X268498D01*
X267998Y87835D01*
Y89834D01*
X270997D02*
X271497Y90334D01*
X272497D01*
X272997Y89834D01*
Y87835D01*
X272497Y87335D01*
X271497D01*
X270997Y87835D01*
Y89834D01*
X257100Y14263D02*
Y17262D01*
X258599D01*
X259099Y16762D01*
Y15763D01*
X258599Y15263D01*
X257100D01*
X258100D02*
X259099Y14263D01*
X260099D02*
X261099D01*
X260599D01*
Y17262D01*
X260099Y16762D01*
X264598Y14263D02*
X262598D01*
X264598Y16262D01*
Y16762D01*
X264098Y17262D01*
X263098D01*
X262598Y16762D01*
X49500Y19500D02*
X46501D01*
Y21000D01*
X47001Y21499D01*
X48000D01*
X48500Y21000D01*
Y19500D01*
Y20500D02*
X49500Y21499D01*
Y22499D02*
Y23499D01*
Y22999D01*
X46501D01*
X47001Y22499D01*
Y24998D02*
X46501Y25498D01*
Y26498D01*
X47001Y26998D01*
X47501D01*
X48000Y26498D01*
Y25998D01*
Y26498D01*
X48500Y26998D01*
X49000D01*
X49500Y26498D01*
Y25498D01*
X49000Y24998D01*
X258000Y4800D02*
Y7799D01*
X259500D01*
X259999Y7299D01*
Y6300D01*
X259500Y5800D01*
X258000D01*
X259000D02*
X259999Y4800D01*
X260999D02*
X261999D01*
X261499D01*
Y7799D01*
X260999Y7299D01*
X264998Y4800D02*
Y7799D01*
X263498Y6300D01*
X265498D01*
X58800Y19300D02*
X55801D01*
Y20799D01*
X56301Y21299D01*
X57301D01*
X57800Y20799D01*
Y19300D01*
Y20300D02*
X58800Y21299D01*
Y22299D02*
Y23299D01*
Y22799D01*
X55801D01*
X56301Y22299D01*
X55801Y26798D02*
Y24798D01*
X57301D01*
X56801Y25798D01*
Y26298D01*
X57301Y26798D01*
X58300D01*
X58800Y26298D01*
Y25298D01*
X58300Y24798D01*
X82000Y19500D02*
X79001D01*
Y21000D01*
X79501Y21499D01*
X80501D01*
X81000Y21000D01*
Y19500D01*
Y20500D02*
X82000Y21499D01*
Y22499D02*
Y23499D01*
Y22999D01*
X79001D01*
X79501Y22499D01*
X79001Y26998D02*
X79501Y25998D01*
X80501Y24998D01*
X81500D01*
X82000Y25498D01*
Y26498D01*
X81500Y26998D01*
X81000D01*
X80501Y26498D01*
Y24998D01*
X71100Y19400D02*
X68101D01*
Y20899D01*
X68601Y21399D01*
X69600D01*
X70100Y20899D01*
Y19400D01*
Y20400D02*
X71100Y21399D01*
Y22399D02*
Y23399D01*
Y22899D01*
X68101D01*
X68601Y22399D01*
X68101Y24898D02*
Y26898D01*
X68601D01*
X70600Y24898D01*
X71100D01*
X22500Y127001D02*
Y130000D01*
X21001D01*
X20501Y129500D01*
Y127501D01*
X21001Y127001D01*
X22500D01*
X19501Y127501D02*
X19001Y127001D01*
X18001D01*
X17502Y127501D01*
Y128001D01*
X18001Y128500D01*
X18501D01*
X18001D01*
X17502Y129000D01*
Y129500D01*
X18001Y130000D01*
X19001D01*
X19501Y129500D01*
X54000Y90316D02*
Y93315D01*
X55500D01*
X55999Y92815D01*
Y91815D01*
X55500Y91315D01*
X54000D01*
X58499Y93315D02*
X57499D01*
X56999Y92815D01*
Y90816D01*
X57499Y90316D01*
X58499D01*
X58998Y90816D01*
Y92815D01*
X58499Y93315D01*
X59998D02*
Y90316D01*
X60998Y91315D01*
X61997Y90316D01*
Y93315D01*
X64996D02*
X62997D01*
Y90316D01*
X64996D01*
X62997Y91815D02*
X63997D01*
X65996Y90316D02*
Y93315D01*
X67496D01*
X67996Y92815D01*
Y91815D01*
X67496Y91315D01*
X65996D01*
X66996D02*
X67996Y90316D01*
X46500Y144017D02*
Y147016D01*
X48000D01*
X48499Y146516D01*
Y145516D01*
X48000Y145016D01*
X46500D01*
X47500D02*
X48499Y144017D01*
X51498Y147016D02*
X49499D01*
Y144017D01*
X51498D01*
X49499Y145516D02*
X50499D01*
X54497Y146516D02*
X53998Y147016D01*
X52998D01*
X52498Y146516D01*
Y146016D01*
X52998Y145516D01*
X53998D01*
X54497Y145016D01*
Y144516D01*
X53998Y144017D01*
X52998D01*
X52498Y144516D01*
X57496Y147016D02*
X55497D01*
Y144017D01*
X57496D01*
X55497Y145516D02*
X56497D01*
X58496Y147016D02*
X60496D01*
X59496D01*
Y144017D01*
X196800Y112249D02*
X198799D01*
X197800D01*
Y109250D01*
X199799D02*
Y112249D01*
X201299D01*
X201798Y111749D01*
Y110749D01*
X201299Y110250D01*
X199799D01*
X202798Y111749D02*
X203298Y112249D01*
X204298D01*
X204797Y111749D01*
Y111249D01*
X204298Y110749D01*
X203798D01*
X204298D01*
X204797Y110250D01*
Y109750D01*
X204298Y109250D01*
X203298D01*
X202798Y109750D01*
X264032Y38999D02*
X266031D01*
X265031D01*
Y36000D01*
X267031D02*
Y38999D01*
X268530D01*
X269030Y38499D01*
Y37499D01*
X268530Y37000D01*
X267031D01*
X270030Y36000D02*
X271029D01*
X270529D01*
Y38999D01*
X270030Y38499D01*
X274028Y36000D02*
Y38999D01*
X272529Y37499D01*
X274528D01*
X231300Y140749D02*
X233299D01*
X232300D01*
Y137750D01*
X234299D02*
Y140749D01*
X235799D01*
X236298Y140249D01*
Y139250D01*
X235799Y138750D01*
X234299D01*
X237298Y137750D02*
X238298D01*
X237798D01*
Y140749D01*
X237298Y140249D01*
X241797Y140749D02*
X239797D01*
Y139250D01*
X240797Y139749D01*
X241297D01*
X241797Y139250D01*
Y138250D01*
X241297Y137750D01*
X240297D01*
X239797Y138250D01*
X156500Y27999D02*
X158499D01*
X157500D01*
Y25000D01*
X159499D02*
Y27999D01*
X160999D01*
X161498Y27499D01*
Y26500D01*
X160999Y26000D01*
X159499D01*
X162498Y25000D02*
X163498D01*
X162998D01*
Y27999D01*
X162498Y27499D01*
X166997Y27999D02*
X165997Y27499D01*
X164997Y26500D01*
Y25500D01*
X165497Y25000D01*
X166497D01*
X166997Y25500D01*
Y26000D01*
X166497Y26500D01*
X164997D01*
X232300Y122749D02*
X234299D01*
X233300D01*
Y119750D01*
X235299D02*
Y122749D01*
X236799D01*
X237298Y122249D01*
Y121249D01*
X236799Y120750D01*
X235299D01*
X238298Y119750D02*
X239298D01*
X238798D01*
Y122749D01*
X238298Y122249D01*
X240797D02*
X241297Y122749D01*
X242297D01*
X242797Y122249D01*
Y120250D01*
X242297Y119750D01*
X241297D01*
X240797Y120250D01*
Y122249D01*
X243796Y119750D02*
X244796D01*
X244296D01*
Y122749D01*
X243796Y122249D01*
X100300Y124749D02*
X102299D01*
X101300D01*
Y121750D01*
X103299D02*
Y124749D01*
X104799D01*
X105298Y124249D01*
Y123249D01*
X104799Y122750D01*
X103299D01*
X106298Y121750D02*
X107298D01*
X106798D01*
Y124749D01*
X106298Y124249D01*
X108797D02*
X109297Y124749D01*
X110297D01*
X110797Y124249D01*
Y122250D01*
X110297Y121750D01*
X109297D01*
X108797Y122250D01*
Y124249D01*
X113796Y121750D02*
X111796D01*
X113796Y123749D01*
Y124249D01*
X113296Y124749D01*
X112296D01*
X111796Y124249D01*
X40300Y83710D02*
X42299D01*
X41300D01*
Y80711D01*
X43299D02*
Y83710D01*
X44799D01*
X45298Y83210D01*
Y82210D01*
X44799Y81710D01*
X43299D01*
X46298Y80711D02*
X47298D01*
X46798D01*
Y83710D01*
X46298Y83210D01*
X48797D02*
X49297Y83710D01*
X50297D01*
X50797Y83210D01*
Y81211D01*
X50297Y80711D01*
X49297D01*
X48797Y81211D01*
Y83210D01*
X51796D02*
X52296Y83710D01*
X53296D01*
X53796Y83210D01*
Y82710D01*
X53296Y82210D01*
X52796D01*
X53296D01*
X53796Y81710D01*
Y81211D01*
X53296Y80711D01*
X52296D01*
X51796Y81211D01*
X264000Y31499D02*
X265999D01*
X265000D01*
Y28500D01*
X266999D02*
Y31499D01*
X268498D01*
X268998Y30999D01*
Y30000D01*
X268498Y29500D01*
X266999D01*
X269998Y28500D02*
X270998D01*
X270498D01*
Y31499D01*
X269998Y30999D01*
X272497D02*
X272997Y31499D01*
X273997D01*
X274497Y30999D01*
Y29000D01*
X273997Y28500D01*
X272997D01*
X272497Y29000D01*
Y30999D01*
X276996Y28500D02*
Y31499D01*
X275496Y30000D01*
X277496D01*
X31499Y98001D02*
Y99000D01*
Y98501D01*
X29000D01*
X28500Y99000D01*
Y99500D01*
X29000Y100000D01*
X31499Y95002D02*
Y97001D01*
X30000D01*
X30499Y96001D01*
Y95501D01*
X30000Y95002D01*
X29000D01*
X28500Y95501D01*
Y96501D01*
X29000Y97001D01*
X30999Y94002D02*
X31499Y93502D01*
Y92502D01*
X30999Y92003D01*
X29000D01*
X28500Y92502D01*
Y93502D01*
X29000Y94002D01*
X30999D01*
X28500Y91003D02*
Y90003D01*
Y90503D01*
X31499D01*
X30999Y91003D01*
X299001Y49499D02*
Y48500D01*
Y49000D01*
X301500D01*
X302000Y48500D01*
Y48000D01*
X301500Y47500D01*
X299001Y52498D02*
Y50499D01*
X300500D01*
X300001Y51499D01*
Y51999D01*
X300500Y52498D01*
X301500D01*
X302000Y51999D01*
Y50999D01*
X301500Y50499D01*
X299501Y53498D02*
X299001Y53998D01*
Y54998D01*
X299501Y55497D01*
X301500D01*
X302000Y54998D01*
Y53998D01*
X301500Y53498D01*
X299501D01*
Y56497D02*
X299001Y56997D01*
Y57997D01*
X299501Y58496D01*
X301500D01*
X302000Y57997D01*
Y56997D01*
X301500Y56497D01*
X299501D01*
X226499Y38999D02*
X225999Y39499D01*
X225000D01*
X224500Y38999D01*
Y37000D01*
X225000Y36500D01*
X225999D01*
X226499Y37000D01*
X227499Y36500D02*
X228499D01*
X227999D01*
Y39499D01*
X227499Y38999D01*
X229998D02*
X230498Y39499D01*
X231498D01*
X231998Y38999D01*
Y37000D01*
X231498Y36500D01*
X230498D01*
X229998Y37000D01*
Y38999D01*
X232997D02*
X233497Y39499D01*
X234497D01*
X234997Y38999D01*
Y38499D01*
X234497Y37999D01*
X234997Y37500D01*
Y37000D01*
X234497Y36500D01*
X233497D01*
X232997Y37000D01*
Y37500D01*
X233497Y37999D01*
X232997Y38499D01*
Y38999D01*
X233497Y37999D02*
X234497D01*
X194501Y37499D02*
X194001Y36999D01*
Y36000D01*
X194501Y35500D01*
X196500D01*
X197000Y36000D01*
Y36999D01*
X196500Y37499D01*
X197000Y38499D02*
Y39499D01*
Y38999D01*
X194001D01*
X194501Y38499D01*
Y40998D02*
X194001Y41498D01*
Y42498D01*
X194501Y42998D01*
X196500D01*
X197000Y42498D01*
Y41498D01*
X196500Y40998D01*
X194501D01*
X196500Y43997D02*
X197000Y44497D01*
Y45497D01*
X196500Y45997D01*
X194501D01*
X194001Y45497D01*
Y44497D01*
X194501Y43997D01*
X195001D01*
X195501Y44497D01*
Y45997D01*
X227499Y58499D02*
X226999Y58999D01*
X226000D01*
X225500Y58499D01*
Y56500D01*
X226000Y56000D01*
X226999D01*
X227499Y56500D01*
X228499Y56000D02*
X229499D01*
X228999D01*
Y58999D01*
X228499Y58499D01*
X230998Y56000D02*
X231998D01*
X231498D01*
Y58999D01*
X230998Y58499D01*
X233497D02*
X233997Y58999D01*
X234997D01*
X235497Y58499D01*
Y56500D01*
X234997Y56000D01*
X233997D01*
X233497Y56500D01*
Y58499D01*
X195501Y58999D02*
X195001Y58499D01*
Y57500D01*
X195501Y57000D01*
X197500D01*
X198000Y57500D01*
Y58499D01*
X197500Y58999D01*
X198000Y59999D02*
Y60999D01*
Y60499D01*
X195001D01*
X195501Y59999D01*
X198000Y62498D02*
Y63498D01*
Y62998D01*
X195001D01*
X195501Y62498D01*
X198000Y64997D02*
Y65997D01*
Y65497D01*
X195001D01*
X195501Y64997D01*
X210000Y28102D02*
X207001D01*
Y29602D01*
X207501Y30102D01*
X208501D01*
X209000Y29602D01*
Y28102D01*
Y29102D02*
X210000Y30102D01*
Y31101D02*
Y32101D01*
Y31601D01*
X207001D01*
X207501Y31101D01*
Y33601D02*
X207001Y34100D01*
Y35100D01*
X207501Y35600D01*
X209500D01*
X210000Y35100D01*
Y34100D01*
X209500Y33601D01*
X207501D01*
X210000Y38099D02*
X207001D01*
X208501Y36600D01*
Y38599D01*
X210500Y48500D02*
X207501D01*
Y49999D01*
X208001Y50499D01*
X209000D01*
X209500Y49999D01*
Y48500D01*
Y49500D02*
X210500Y50499D01*
Y51499D02*
Y52499D01*
Y51999D01*
X207501D01*
X208001Y51499D01*
Y53998D02*
X207501Y54498D01*
Y55498D01*
X208001Y55998D01*
X210000D01*
X210500Y55498D01*
Y54498D01*
X210000Y53998D01*
X208001D01*
X207501Y58997D02*
Y56997D01*
X209000D01*
X208501Y57997D01*
Y58497D01*
X209000Y58997D01*
X210000D01*
X210500Y58497D01*
Y57497D01*
X210000Y56997D01*
X177000Y29999D02*
X178999D01*
X178000D01*
Y27000D01*
X179999D02*
Y29999D01*
X181499D01*
X181998Y29499D01*
Y28499D01*
X181499Y28000D01*
X179999D01*
X182998Y27000D02*
X183998D01*
X183498D01*
Y29999D01*
X182998Y29499D01*
X185497D02*
X185997Y29999D01*
X186997D01*
X187497Y29499D01*
Y27500D01*
X186997Y27000D01*
X185997D01*
X185497Y27500D01*
Y29499D01*
X188496Y29999D02*
X190496D01*
Y29499D01*
X188496Y27500D01*
Y27000D01*
X48500Y169646D02*
X50499D01*
X49500D01*
Y166647D01*
X51499D02*
Y169646D01*
X52999D01*
X53498Y169146D01*
Y168146D01*
X52999Y167646D01*
X51499D01*
X54498Y166647D02*
X55498D01*
X54998D01*
Y169646D01*
X54498Y169146D01*
X56997D02*
X57497Y169646D01*
X58497D01*
X58997Y169146D01*
Y167146D01*
X58497Y166647D01*
X57497D01*
X56997Y167146D01*
Y169146D01*
X59996D02*
X60496Y169646D01*
X61496D01*
X61996Y169146D01*
Y168646D01*
X61496Y168146D01*
X61996Y167646D01*
Y167146D01*
X61496Y166647D01*
X60496D01*
X59996Y167146D01*
Y167646D01*
X60496Y168146D01*
X59996Y168646D01*
Y169146D01*
X60496Y168146D02*
X61496D01*
X298000Y210499D02*
X299999D01*
X299000D01*
Y207500D01*
X300999D02*
Y210499D01*
X302499D01*
X302998Y209999D01*
Y208999D01*
X302499Y208500D01*
X300999D01*
X305997Y210499D02*
X303998D01*
Y208999D01*
X304998Y209499D01*
X305498D01*
X305997Y208999D01*
Y208000D01*
X305498Y207500D01*
X304498D01*
X303998Y208000D01*
X306997Y209999D02*
X307497Y210499D01*
X308497D01*
X308996Y209999D01*
Y208000D01*
X308497Y207500D01*
X307497D01*
X306997Y208000D01*
Y209999D01*
X309996D02*
X310496Y210499D01*
X311496D01*
X311996Y209999D01*
Y208000D01*
X311496Y207500D01*
X310496D01*
X309996Y208000D01*
Y209999D01*
X298500Y199999D02*
X300499D01*
X299500D01*
Y197000D01*
X301499D02*
Y199999D01*
X302998D01*
X303498Y199499D01*
Y198500D01*
X302998Y198000D01*
X301499D01*
X306497Y199999D02*
X304498D01*
Y198500D01*
X305498Y198999D01*
X305998D01*
X306497Y198500D01*
Y197500D01*
X305998Y197000D01*
X304998D01*
X304498Y197500D01*
X307497Y199499D02*
X307997Y199999D01*
X308997D01*
X309496Y199499D01*
Y197500D01*
X308997Y197000D01*
X307997D01*
X307497Y197500D01*
Y199499D01*
X310496Y197000D02*
X311496D01*
X310996D01*
Y199999D01*
X310496Y199499D01*
X298193Y189499D02*
X300193D01*
X299193D01*
Y186500D01*
X301192D02*
Y189499D01*
X302692D01*
X303192Y188999D01*
Y187999D01*
X302692Y187500D01*
X301192D01*
X306191Y189499D02*
X304191D01*
Y187999D01*
X305191Y188499D01*
X305691D01*
X306191Y187999D01*
Y187000D01*
X305691Y186500D01*
X304691D01*
X304191Y187000D01*
X307190Y188999D02*
X307690Y189499D01*
X308690D01*
X309190Y188999D01*
Y187000D01*
X308690Y186500D01*
X307690D01*
X307190Y187000D01*
Y188999D01*
X312189Y186500D02*
X310190D01*
X312189Y188499D01*
Y188999D01*
X311689Y189499D01*
X310689D01*
X310190Y188999D01*
X250000Y146999D02*
X251999D01*
X251000D01*
Y144000D01*
X252999D02*
Y146999D01*
X254499D01*
X254998Y146499D01*
Y145500D01*
X254499Y145000D01*
X252999D01*
X257997Y146999D02*
X255998D01*
Y145500D01*
X256998Y145999D01*
X257498D01*
X257997Y145500D01*
Y144500D01*
X257498Y144000D01*
X256498D01*
X255998Y144500D01*
X258997Y146499D02*
X259497Y146999D01*
X260497D01*
X260996Y146499D01*
Y144500D01*
X260497Y144000D01*
X259497D01*
X258997Y144500D01*
Y146499D01*
X261996D02*
X262496Y146999D01*
X263496D01*
X263996Y146499D01*
Y145999D01*
X263496Y145500D01*
X262996D01*
X263496D01*
X263996Y145000D01*
Y144500D01*
X263496Y144000D01*
X262496D01*
X261996Y144500D01*
X57602Y167912D02*
X59601D01*
X58602D01*
Y164913D01*
X60601D02*
Y167912D01*
X62100D01*
X62600Y167412D01*
Y166412D01*
X62100Y165913D01*
X60601D01*
X65599Y167912D02*
X63600D01*
Y166412D01*
X64600Y166912D01*
X65100D01*
X65599Y166412D01*
Y165413D01*
X65100Y164913D01*
X64100D01*
X63600Y165413D01*
X66599Y164913D02*
X67599D01*
X67099D01*
Y167912D01*
X66599Y167412D01*
X69098D02*
X69598Y167912D01*
X70598D01*
X71098Y167412D01*
Y165413D01*
X70598Y164913D01*
X69598D01*
X69098Y165413D01*
Y167412D01*
X61429Y182499D02*
X63428D01*
X62429D01*
Y179500D01*
X64428D02*
Y182499D01*
X65928D01*
X66427Y181999D01*
Y181000D01*
X65928Y180500D01*
X64428D01*
X69426Y182499D02*
X67427D01*
Y181000D01*
X68427Y181499D01*
X68927D01*
X69426Y181000D01*
Y180000D01*
X68927Y179500D01*
X67927D01*
X67427Y180000D01*
X70426Y179500D02*
X71426D01*
X70926D01*
Y182499D01*
X70426Y181999D01*
X72925Y179500D02*
X73925D01*
X73425D01*
Y182499D01*
X72925Y181999D01*
X211500Y37499D02*
Y35000D01*
X212000Y34500D01*
X213000D01*
X213499Y35000D01*
Y37499D01*
X214499Y34500D02*
X215499D01*
X214999D01*
Y37499D01*
X214499Y36999D01*
X216998D02*
X217498Y37499D01*
X218498D01*
X218998Y36999D01*
Y35000D01*
X218498Y34500D01*
X217498D01*
X216998Y35000D01*
Y36999D01*
X221497Y34500D02*
Y37499D01*
X219997Y36000D01*
X221997D01*
X212500Y57499D02*
Y55000D01*
X213000Y54500D01*
X214000D01*
X214499Y55000D01*
Y57499D01*
X215499Y54500D02*
X216499D01*
X215999D01*
Y57499D01*
X215499Y56999D01*
X217998D02*
X218498Y57499D01*
X219498D01*
X219998Y56999D01*
Y55000D01*
X219498Y54500D01*
X218498D01*
X217998Y55000D01*
Y56999D01*
X222997Y57499D02*
X220997D01*
Y55999D01*
X221997Y56499D01*
X222497D01*
X222997Y55999D01*
Y55000D01*
X222497Y54500D01*
X221497D01*
X220997Y55000D01*
X299501Y121499D02*
Y120500D01*
Y121000D01*
X302000D01*
X302500Y120500D01*
Y120000D01*
X302000Y119500D01*
X299501Y124498D02*
X300001Y123499D01*
X301000Y122499D01*
X302000D01*
X302500Y122999D01*
Y123999D01*
X302000Y124498D01*
X301500D01*
X301000Y123999D01*
Y122499D01*
X300001Y125498D02*
X299501Y125998D01*
Y126998D01*
X300001Y127497D01*
X302000D01*
X302500Y126998D01*
Y125998D01*
X302000Y125498D01*
X300001D01*
Y128497D02*
X299501Y128997D01*
Y129997D01*
X300001Y130496D01*
X302000D01*
X302500Y129997D01*
Y128997D01*
X302000Y128497D01*
X300001D01*
X31986Y167501D02*
Y168500D01*
Y168000D01*
X29486D01*
X28987Y168500D01*
Y169000D01*
X29486Y169500D01*
X31986Y164502D02*
X31486Y165501D01*
X30486Y166501D01*
X29486D01*
X28987Y166001D01*
Y165001D01*
X29486Y164502D01*
X29986D01*
X30486Y165001D01*
Y166501D01*
X31486Y163502D02*
X31986Y163002D01*
Y162002D01*
X31486Y161503D01*
X29486D01*
X28987Y162002D01*
Y163002D01*
X29486Y163502D01*
X31486D01*
X28987Y160503D02*
Y159503D01*
Y160003D01*
X31986D01*
X31486Y160503D01*
X16400Y43399D02*
Y40900D01*
X16900Y40400D01*
X17899D01*
X18399Y40900D01*
Y43399D01*
X20899Y40400D02*
Y43399D01*
X19399Y41899D01*
X21398D01*
X22398Y42899D02*
X22898Y43399D01*
X23898D01*
X24397Y42899D01*
Y40900D01*
X23898Y40400D01*
X22898D01*
X22398Y40900D01*
Y42899D01*
X25397Y40400D02*
X26397D01*
X25897D01*
Y43399D01*
X25397Y42899D01*
D13*
X82241Y164015D02*
G03*
X82241Y164015I-141J0D01*
G01*
X256000Y155378D02*
Y212378D01*
Y155378D02*
X294000D01*
Y212378D01*
X256000D02*
X294000D01*
D14*
X246000Y26441D02*
Y31559D01*
Y15941D02*
Y21059D01*
Y5441D02*
Y10559D01*
X22339Y136480D02*
Y141402D01*
X292Y137268D02*
Y197111D01*
X4229Y195537D02*
Y197898D01*
X3048Y195537D02*
X4229D01*
X3048D02*
Y197111D01*
X292D02*
X3048D01*
X4230Y136480D02*
X6197D01*
X292Y137268D02*
X3048D01*
Y138842D01*
X4229D01*
Y136480D02*
Y138842D01*
X18008Y136480D02*
X22339D01*
X18008Y197898D02*
X22339D01*
X4230Y197898D02*
X6197D01*
X22339Y192976D02*
Y197898D01*
X29579Y124713D02*
X30504D01*
Y129358D02*
Y129437D01*
X29579D02*
X30504D01*
Y124713D02*
Y124791D01*
X212866Y59047D02*
X213850D01*
X220150D02*
X221134D01*
X220150Y68496D02*
X221134D01*
X212866D02*
X216213D01*
X211366Y38776D02*
X212350D01*
X218650D02*
X219634D01*
X218650Y48224D02*
X219634D01*
X211366D02*
X214713D01*
X312161Y173287D02*
Y178209D01*
X334208Y117578D02*
Y177421D01*
X330271Y116790D02*
Y119152D01*
X331452D01*
Y117578D02*
Y119152D01*
Y117578D02*
X334208D01*
X328303Y178209D02*
X330270D01*
X331452Y177421D02*
X334208D01*
X331452Y175847D02*
Y177421D01*
X330271Y175847D02*
X331452D01*
X330271D02*
Y178209D01*
X312161D02*
X316492D01*
X312161Y116790D02*
X316492D01*
X328303Y116791D02*
X330270D01*
X312161Y116790D02*
Y121713D01*
X312263Y45393D02*
Y50315D01*
X328405Y45394D02*
X330372D01*
X312263Y45393D02*
X316595D01*
X312263Y106811D02*
X316595D01*
X330373Y104449D02*
Y106811D01*
Y104449D02*
X331554D01*
Y106024D01*
X334310D01*
X328405Y106811D02*
X330372D01*
X331554Y46180D02*
X334310D01*
X331554D02*
Y47755D01*
X330373D02*
X331554D01*
X330373Y45393D02*
Y47755D01*
X334310Y46180D02*
Y106024D01*
X312263Y101890D02*
Y106811D01*
X22339Y112787D02*
Y117710D01*
X4230Y117709D02*
X6197D01*
X18008Y117710D02*
X22339D01*
X18008Y56291D02*
X22339D01*
X4229D02*
Y58653D01*
X3048D02*
X4229D01*
X3048Y57079D02*
Y58653D01*
X292Y57079D02*
X3048D01*
X4230Y56291D02*
X6197D01*
X292Y116922D02*
X3048D01*
Y115348D02*
Y116922D01*
Y115348D02*
X4229D01*
Y117710D01*
X292Y57079D02*
Y116922D01*
X22339Y56291D02*
Y61213D01*
X262666Y71076D02*
X263650D01*
X269950D02*
X270934D01*
X269950Y80524D02*
X270934D01*
X262666D02*
X266013D01*
X262266Y51734D02*
X263250D01*
X269550D02*
X270534D01*
X269550Y61183D02*
X270534D01*
X262266D02*
X265613D01*
X262466Y110282D02*
X263450D01*
X269750D02*
X270734D01*
X269750Y119731D02*
X270734D01*
X262466D02*
X265813D01*
X228724Y105725D02*
Y108875D01*
X219276Y105725D02*
Y108875D01*
X192425Y98009D02*
X195575D01*
X192425Y88560D02*
X195575D01*
X265000Y138000D02*
X285000D01*
X265000Y128000D02*
Y138000D01*
Y128000D02*
X285000D01*
Y138000D01*
X265000Y149331D02*
X285000D01*
X265000Y139331D02*
Y149331D01*
Y139331D02*
X285000D01*
Y149331D01*
X232941Y93300D02*
X238059D01*
X221941Y85300D02*
X227059D01*
X204898Y97320D02*
Y98402D01*
Y86198D02*
Y87280D01*
X217102Y97320D02*
Y98402D01*
Y86198D02*
Y87280D01*
X204898Y98402D02*
X206472D01*
X215528D02*
X217102D01*
X204898Y86198D02*
X206472D01*
X215528D02*
X217102D01*
X234638Y194925D02*
Y195850D01*
X239283Y194925D02*
X239362D01*
Y195850D01*
X234638Y194925D02*
X234717D01*
X198150Y136638D02*
X199075D01*
Y141284D02*
Y141362D01*
X198150D02*
X199075D01*
Y136638D02*
Y136716D01*
X174500Y13600D02*
X234500D01*
X174500Y3600D02*
X234500D01*
Y13600D01*
X174500Y3600D02*
Y13600D01*
X159075Y146650D02*
Y147143D01*
X156614Y146650D02*
X159075D01*
X146083D02*
X148543D01*
X146083D02*
Y147143D01*
Y159150D02*
Y159643D01*
X148543D01*
X159075Y159150D02*
Y159643D01*
X156614D02*
X159075D01*
X83223Y147438D02*
Y148225D01*
Y147438D02*
X84995D01*
X83223Y162005D02*
Y162792D01*
X84995D01*
X98577Y147438D02*
Y148225D01*
X96806Y147438D02*
X98577D01*
Y162005D02*
Y162792D01*
X96806D02*
X98577D01*
X262866Y92110D02*
X263850D01*
X270150D02*
X271134D01*
X270150Y101559D02*
X271134D01*
X262866D02*
X266213D01*
X274500Y15904D02*
Y21022D01*
X44941Y9500D02*
X50059D01*
X274500Y5441D02*
Y10559D01*
X55441Y9500D02*
X60559D01*
X77041Y9200D02*
X82159D01*
X66641D02*
X71759D01*
M02*
