G04 Layer_Physical_Order=3*
G04 Layer_Color=36540*
%FSLAX25Y25*%
%MOIN*%
G70*
G01*
G75*
%ADD41C,0.00800*%
%ADD42C,0.00500*%
%ADD43C,0.01500*%
%ADD44C,0.00394*%
%ADD45C,0.01000*%
%ADD46C,0.00197*%
%ADD47C,0.00787*%
%ADD48C,0.00600*%
%ADD49C,0.05905*%
%ADD50R,0.05905X0.05905*%
%ADD53C,0.05000*%
%ADD54R,0.10236X0.07874*%
%ADD55R,0.07874X0.10236*%
%ADD56C,0.01800*%
%ADD57C,0.02400*%
%ADD58C,0.01968*%
G36*
X333379Y1122D02*
X1122D01*
Y30863D01*
X1584Y31054D01*
X4860Y27778D01*
X4688Y27242D01*
X4130Y26870D01*
X3710Y26241D01*
X3662Y26000D01*
X5500D01*
Y25500D01*
X6000D01*
Y23662D01*
X6241Y23710D01*
X6870Y24130D01*
X7243Y24688D01*
X7778Y24860D01*
X15633Y17004D01*
Y6725D01*
X15419Y6581D01*
X15087Y6085D01*
X14971Y5500D01*
X15087Y4915D01*
X15419Y4419D01*
X15915Y4087D01*
X16500Y3971D01*
X17085Y4087D01*
X17538Y4390D01*
X17702Y4339D01*
X17999Y4144D01*
X17971Y4000D01*
X18087Y3415D01*
X18419Y2919D01*
X18915Y2587D01*
X19500Y2471D01*
X20085Y2587D01*
X20581Y2919D01*
X20913Y3415D01*
X21029Y4000D01*
X20913Y4585D01*
X20645Y4986D01*
X20867Y5330D01*
X20938Y5399D01*
X21500Y5287D01*
X22085Y5404D01*
X22580Y5734D01*
X22695Y5809D01*
X23067D01*
X23182Y5734D01*
X23677Y5404D01*
X24262Y5287D01*
X24848Y5404D01*
X25344Y5735D01*
X25483Y5944D01*
X25769Y5928D01*
X26032Y5865D01*
X26330Y5419D01*
X26827Y5087D01*
X27412Y4971D01*
X27997Y5087D01*
X28493Y5419D01*
X28825Y5915D01*
X28941Y6500D01*
X28825Y7085D01*
X28493Y7581D01*
X27997Y7913D01*
X27412Y8029D01*
X26827Y7913D01*
X26330Y7581D01*
X26191Y7373D01*
X25905Y7389D01*
X25642Y7451D01*
X25344Y7898D01*
X25129Y8042D01*
Y17238D01*
X25063Y17570D01*
X24875Y17851D01*
X10867Y31859D01*
Y103463D01*
X13815Y106412D01*
X14003Y106693D01*
X14069Y107025D01*
Y116860D01*
X14003Y117191D01*
X13815Y117472D01*
X10867Y120421D01*
Y175641D01*
X11859Y176633D01*
X36960D01*
X37104Y176419D01*
X37600Y176087D01*
X38185Y175971D01*
X38770Y176087D01*
X39266Y176419D01*
X39598Y176915D01*
X39714Y177500D01*
X39598Y178085D01*
X39266Y178581D01*
X38770Y178913D01*
X38350Y178997D01*
X38241Y179168D01*
X38149Y179431D01*
X38142Y179509D01*
X38413Y179915D01*
X38529Y180500D01*
X38425Y181025D01*
X38570Y181260D01*
X38759Y181468D01*
X39063Y181408D01*
X39648Y181524D01*
X40144Y181856D01*
X40476Y182352D01*
X40592Y182937D01*
X40476Y183522D01*
X40144Y184018D01*
X39648Y184350D01*
X39063Y184466D01*
X38478Y184350D01*
X37982Y184018D01*
X37838Y183804D01*
X35941D01*
X35609Y183738D01*
X35328Y183550D01*
X34207Y182429D01*
X33886Y182466D01*
X33694Y182968D01*
X35859Y185133D01*
X39775D01*
X39919Y184919D01*
X40415Y184587D01*
X41000Y184471D01*
X41585Y184587D01*
X41975Y184847D01*
X42350Y184718D01*
X42475Y184626D01*
Y154874D01*
X42350Y154782D01*
X41975Y154653D01*
X41585Y154913D01*
X41000Y155029D01*
X40415Y154913D01*
X39919Y154581D01*
X39587Y154085D01*
X39471Y153500D01*
X39587Y152915D01*
X39919Y152419D01*
X40415Y152087D01*
X41000Y151971D01*
X41375Y151547D01*
Y150016D01*
X41278Y149938D01*
X40608Y150041D01*
X40581Y150081D01*
X40085Y150413D01*
X39500Y150529D01*
X38915Y150413D01*
X38419Y150081D01*
X38087Y149585D01*
X37971Y149000D01*
X38087Y148415D01*
X38419Y147919D01*
X38915Y147587D01*
X39500Y147471D01*
X39753Y147521D01*
X40133Y147141D01*
Y134118D01*
X39999Y133917D01*
X39933Y133586D01*
Y132290D01*
X37504Y129861D01*
X24166D01*
X23834Y129795D01*
X23553Y129607D01*
X21329Y127383D01*
X20867Y127574D01*
Y164803D01*
X21098Y164849D01*
X21379Y165037D01*
X22122Y165780D01*
X36271D01*
X36475Y165576D01*
X36675Y165442D01*
X36772Y164954D01*
X37104Y164457D01*
X37600Y164126D01*
X38185Y164010D01*
X38770Y164126D01*
X39266Y164457D01*
X39598Y164954D01*
X39714Y165539D01*
X39598Y166124D01*
X39266Y166620D01*
X38811Y166924D01*
X38786Y167189D01*
X38811Y167454D01*
X39266Y167757D01*
X39598Y168254D01*
X39714Y168839D01*
X39630Y169264D01*
X39942Y169621D01*
X40021Y169667D01*
X40374Y169597D01*
X40959Y169713D01*
X41456Y170045D01*
X41787Y170541D01*
X41903Y171126D01*
X41787Y171711D01*
X41456Y172207D01*
X40959Y172539D01*
X40374Y172655D01*
X39789Y172539D01*
X39293Y172207D01*
X38961Y171711D01*
X38845Y171126D01*
X38929Y170701D01*
X38618Y170343D01*
X38538Y170298D01*
X38185Y170368D01*
X37600Y170252D01*
X37104Y169920D01*
X36960Y169706D01*
X30839D01*
X30507Y169640D01*
X30318Y169513D01*
X21829D01*
X21379Y169963D01*
X21098Y170151D01*
X20766Y170217D01*
X18350D01*
X18018Y170151D01*
X17737Y169963D01*
X17387Y169613D01*
X17199Y169332D01*
X17133Y169000D01*
Y47500D01*
X17199Y47168D01*
X17387Y46887D01*
X18633Y45641D01*
Y33000D01*
X18699Y32668D01*
X18887Y32387D01*
X32037Y19237D01*
X32318Y19049D01*
X32650Y18983D01*
X37275D01*
X37419Y18769D01*
X37915Y18437D01*
X38500Y18321D01*
X39085Y18437D01*
X39581Y18769D01*
X39913Y19265D01*
X40029Y19850D01*
X39913Y20435D01*
X39581Y20931D01*
X39127Y21235D01*
X39101Y21500D01*
X39127Y21765D01*
X39581Y22069D01*
X39913Y22565D01*
X40029Y23150D01*
X39913Y23735D01*
X39581Y24231D01*
X39085Y24563D01*
X38500Y24679D01*
X37915Y24563D01*
X37419Y24231D01*
X37275Y24017D01*
X32537D01*
X22367Y34187D01*
Y46828D01*
X22301Y47160D01*
X22113Y47441D01*
X20867Y48687D01*
Y52616D01*
X21367Y52768D01*
X21387Y52737D01*
X22271Y51853D01*
X22552Y51665D01*
X22884Y51600D01*
X23215Y51665D01*
X23356Y51759D01*
X23945Y51170D01*
X23851Y51030D01*
X23785Y50698D01*
X23851Y50367D01*
X24039Y50086D01*
X29737Y44387D01*
X30018Y44199D01*
X30350Y44133D01*
X36014D01*
X36087Y43765D01*
X36419Y43269D01*
X36915Y42937D01*
X37500Y42821D01*
X38085Y42937D01*
X38581Y43269D01*
X38913Y43765D01*
X39029Y44350D01*
X38913Y44935D01*
X38581Y45431D01*
X38127Y45735D01*
X38101Y46000D01*
X38127Y46265D01*
X38581Y46569D01*
X38913Y47065D01*
X39029Y47650D01*
X38913Y48235D01*
X38581Y48731D01*
X38085Y49063D01*
X37500Y49179D01*
X36915Y49063D01*
X36419Y48731D01*
X36087Y48235D01*
X36014Y47867D01*
X31537D01*
X28261Y51143D01*
X28452Y51605D01*
X31924D01*
X31961Y51598D01*
X32432Y51692D01*
X32627Y51221D01*
X32419Y51081D01*
X32087Y50585D01*
X31971Y50000D01*
X32087Y49415D01*
X32419Y48919D01*
X32915Y48587D01*
X33500Y48471D01*
X34085Y48587D01*
X34581Y48919D01*
X34913Y49415D01*
X35004Y49873D01*
X36113Y50982D01*
X36301Y51263D01*
X36367Y51595D01*
Y54794D01*
X36301Y55126D01*
X36113Y55407D01*
X35129Y56390D01*
X34848Y56578D01*
X34517Y56644D01*
X27793D01*
Y84226D01*
X27727Y84558D01*
X27539Y84839D01*
X27519Y84859D01*
Y86641D01*
X28725Y87847D01*
X29181Y87596D01*
X29162Y87500D01*
X30500D01*
Y88838D01*
X30404Y88819D01*
X30153Y89275D01*
X32012Y91133D01*
X35141D01*
X36021Y90253D01*
X35971Y90000D01*
X36087Y89415D01*
X36419Y88919D01*
X36915Y88587D01*
X37500Y88471D01*
X38085Y88587D01*
X38581Y88919D01*
X38885Y89373D01*
X39150Y89399D01*
X39415Y89373D01*
X39719Y88919D01*
X40215Y88587D01*
X40800Y88471D01*
X41385Y88587D01*
X41881Y88919D01*
X42213Y89415D01*
X42329Y90000D01*
X42213Y90585D01*
X41881Y91081D01*
X41385Y91413D01*
X40980Y91494D01*
X37861Y94613D01*
X37579Y94801D01*
X37248Y94867D01*
X31028D01*
X30818Y95364D01*
X31387Y95933D01*
X32154D01*
X32486Y95999D01*
X32767Y96187D01*
X33912Y97332D01*
X34165Y97282D01*
X34751Y97398D01*
X35247Y97730D01*
X35578Y98226D01*
X35695Y98811D01*
X35578Y99396D01*
X35247Y99892D01*
X34945Y100094D01*
X35096Y100594D01*
X37180D01*
X37521Y100253D01*
X37471Y100000D01*
X37587Y99415D01*
X37919Y98919D01*
X38359Y98624D01*
X38424Y98342D01*
X38435Y98073D01*
X38130Y97870D01*
X37710Y97241D01*
X37662Y97000D01*
X41338D01*
X41290Y97241D01*
X40870Y97870D01*
X40241Y98290D01*
X40086Y98321D01*
X39981Y98851D01*
X40081Y98919D01*
X40413Y99415D01*
X40529Y100000D01*
X40413Y100585D01*
X40081Y101081D01*
X39585Y101413D01*
X39000Y101529D01*
X38747Y101479D01*
X38152Y102074D01*
X37871Y102262D01*
X37539Y102328D01*
X32861D01*
X32529Y102262D01*
X32248Y102074D01*
X26294Y96119D01*
X25253D01*
X24921Y96053D01*
X24640Y95866D01*
X21387Y92613D01*
X21367Y92582D01*
X20867Y92734D01*
Y113426D01*
X21329Y113617D01*
X27473Y107473D01*
X27754Y107285D01*
X28086Y107219D01*
X36753D01*
X36837Y107236D01*
X37333Y107137D01*
X37919Y107254D01*
X38415Y107585D01*
X38746Y108081D01*
X38863Y108667D01*
X38746Y109252D01*
X38415Y109748D01*
X37919Y110080D01*
X37333Y110196D01*
X36797Y110089D01*
X36591Y110258D01*
X36423Y110463D01*
X36529Y111000D01*
X36413Y111585D01*
X36081Y112081D01*
X35585Y112413D01*
X35000Y112529D01*
X34415Y112413D01*
X33919Y112081D01*
X33587Y111585D01*
X33471Y111000D01*
X33521Y110747D01*
X33141Y110367D01*
X29859D01*
X23867Y116359D01*
Y124641D01*
X25353Y126127D01*
X37501D01*
X37693Y125665D01*
X35394Y123367D01*
X28225D01*
X28081Y123581D01*
X27585Y123913D01*
X27000Y124029D01*
X26415Y123913D01*
X25919Y123581D01*
X25587Y123085D01*
X25471Y122500D01*
X25587Y121915D01*
X25919Y121419D01*
X26415Y121087D01*
X27000Y120971D01*
X27585Y121087D01*
X28081Y121419D01*
X28225Y121633D01*
X35753D01*
X36084Y121699D01*
X36366Y121887D01*
X41127Y126648D01*
X41532Y126400D01*
X41554Y126368D01*
X41480Y126000D01*
Y124351D01*
X41422Y124058D01*
Y121371D01*
X41500Y120981D01*
X41721Y120650D01*
X43322Y119049D01*
Y85922D01*
X42292Y84893D01*
X41832Y85139D01*
X41903Y85500D01*
X41787Y86085D01*
X41456Y86581D01*
X40959Y86913D01*
X40374Y87029D01*
X39789Y86913D01*
X39293Y86581D01*
X38961Y86085D01*
X38845Y85500D01*
X38961Y84915D01*
X39293Y84419D01*
X39789Y84087D01*
X40374Y83971D01*
X40735Y84042D01*
X40982Y83582D01*
X38386Y80986D01*
X35618D01*
X35228Y80909D01*
X34898Y80688D01*
X34229Y80020D01*
X32123D01*
X32081Y80081D01*
X31585Y80413D01*
X31000Y80529D01*
X30415Y80413D01*
X29919Y80081D01*
X29587Y79585D01*
X29471Y79000D01*
X29587Y78415D01*
X29919Y77919D01*
X30415Y77587D01*
X31000Y77471D01*
X31585Y77587D01*
X32081Y77919D01*
X32123Y77980D01*
X34652D01*
X34884Y78027D01*
X34993Y77482D01*
X35324Y76986D01*
X35820Y76654D01*
X36406Y76538D01*
X36991Y76654D01*
X37487Y76986D01*
X37819Y77482D01*
X37935Y78067D01*
X37859Y78447D01*
X38177Y78947D01*
X38809D01*
X39199Y79025D01*
X39530Y79246D01*
X45063Y84779D01*
X45284Y85110D01*
X45361Y85500D01*
Y119471D01*
X45284Y119861D01*
X45244Y119921D01*
X45122Y120261D01*
X45389Y120573D01*
X45711Y120788D01*
X46132Y121417D01*
X46180Y121658D01*
X44342D01*
Y122158D01*
X43842D01*
Y124150D01*
X43520Y124442D01*
Y125578D01*
X46215Y128273D01*
X46436Y128604D01*
X46514Y128994D01*
Y149799D01*
X47014Y150067D01*
X47500Y149971D01*
X47633Y149861D01*
Y44116D01*
X47699Y43785D01*
X47887Y43503D01*
X64504Y26887D01*
X64785Y26699D01*
X65116Y26633D01*
X90744D01*
X93624Y23753D01*
X93573Y23500D01*
X93690Y22915D01*
X94021Y22419D01*
X94517Y22087D01*
X95103Y21971D01*
X95688Y22087D01*
X96184Y22419D01*
X96516Y22915D01*
X96632Y23500D01*
X96516Y24085D01*
X96184Y24581D01*
X95688Y24913D01*
X95103Y25029D01*
X94849Y24979D01*
X92657Y27171D01*
X92848Y27633D01*
X114251D01*
X116631Y25253D01*
X116581Y25000D01*
X116697Y24415D01*
X117029Y23919D01*
X117525Y23587D01*
X118110Y23471D01*
X118695Y23587D01*
X119192Y23919D01*
X119523Y24415D01*
X119640Y25000D01*
X119523Y25585D01*
X119192Y26081D01*
X118695Y26413D01*
X118110Y26529D01*
X117857Y26479D01*
X115964Y28371D01*
X116156Y28833D01*
X163584D01*
X163915Y28899D01*
X164197Y29087D01*
X164243Y29133D01*
X192709D01*
X192758Y29041D01*
X192840Y28633D01*
X192289Y28211D01*
X191792Y27563D01*
X191480Y26809D01*
X191373Y26000D01*
X191480Y25191D01*
X191792Y24437D01*
X192289Y23789D01*
X192937Y23292D01*
X193691Y22980D01*
X194500Y22873D01*
X195309Y22980D01*
X196063Y23292D01*
X196711Y23789D01*
X197208Y24437D01*
X197520Y25191D01*
X197627Y26000D01*
X197520Y26809D01*
X197208Y27563D01*
X196711Y28211D01*
X196160Y28633D01*
X196242Y29041D01*
X196291Y29133D01*
X248500D01*
X248832Y29199D01*
X249113Y29387D01*
X250613Y30887D01*
X250801Y31168D01*
X250867Y31500D01*
Y36775D01*
X251081Y36919D01*
X251413Y37415D01*
X251529Y38000D01*
X251470Y38297D01*
X251931Y38543D01*
X256133Y34341D01*
Y24859D01*
X255387Y24113D01*
X255199Y23832D01*
X255133Y23500D01*
Y23225D01*
X254919Y23081D01*
X254587Y22585D01*
X254471Y22000D01*
X254587Y21415D01*
X254919Y20919D01*
X255415Y20587D01*
X256000Y20471D01*
X256585Y20587D01*
X257081Y20919D01*
X257413Y21415D01*
X257529Y22000D01*
X257413Y22585D01*
X257081Y23081D01*
X257057Y23331D01*
X257613Y23887D01*
X257801Y24168D01*
X257867Y24500D01*
Y34700D01*
X257801Y35032D01*
X257613Y35313D01*
X252463Y40463D01*
X252182Y40651D01*
X251850Y40717D01*
X249234D01*
X248902Y40651D01*
X248621Y40463D01*
X247537Y39379D01*
X247349Y39098D01*
X247283Y38766D01*
Y33709D01*
X245641Y32067D01*
X166972D01*
X166876Y32163D01*
X166595Y32351D01*
X166263Y32417D01*
X137355D01*
X137164Y32879D01*
X138613Y34327D01*
X138801Y34608D01*
X138867Y34940D01*
Y39890D01*
X139367Y40181D01*
X139461Y40162D01*
Y42000D01*
Y43838D01*
X139367Y43819D01*
X138867Y44110D01*
Y90641D01*
X141113Y92887D01*
X141301Y93168D01*
X141367Y93500D01*
Y94117D01*
X141633Y94323D01*
X142133Y94108D01*
Y88294D01*
X142199Y87962D01*
X142387Y87681D01*
X142973Y87095D01*
X143254Y86908D01*
X143586Y86842D01*
X147414D01*
X147746Y86908D01*
X148027Y87095D01*
X148500Y87568D01*
X148973Y87095D01*
X149254Y86908D01*
X149586Y86842D01*
X153414D01*
X153746Y86908D01*
X154027Y87095D01*
X154613Y87681D01*
X154801Y87962D01*
X155236Y88046D01*
X155325Y88035D01*
X155586Y87983D01*
X157231D01*
X157500Y87483D01*
X157404Y87000D01*
X157520Y86415D01*
X157852Y85919D01*
X158348Y85587D01*
X158933Y85471D01*
X159519Y85587D01*
X160015Y85919D01*
X160346Y86415D01*
X160463Y87000D01*
X160346Y87585D01*
X160015Y88081D01*
X160289Y88499D01*
X160613Y88823D01*
X160801Y89104D01*
X160867Y89436D01*
Y94357D01*
X161048Y94517D01*
X161516Y94619D01*
X161679Y94408D01*
X161792Y94133D01*
X161696Y93650D01*
X161813Y93065D01*
X162144Y92569D01*
X162640Y92237D01*
X163226Y92121D01*
X163811Y92237D01*
X164307Y92569D01*
X164639Y93065D01*
X164755Y93650D01*
X164659Y94133D01*
X164928Y94633D01*
X165414D01*
X165746Y94699D01*
X166027Y94887D01*
X166249Y95108D01*
X166866Y95107D01*
X166976Y94965D01*
X166894Y94843D01*
X166778Y94258D01*
X166894Y93672D01*
X167226Y93176D01*
X167722Y92845D01*
X168307Y92728D01*
X168892Y92845D01*
X169388Y93176D01*
X169720Y93672D01*
X169836Y94258D01*
X169740Y94741D01*
X170010Y95241D01*
X171414D01*
X171746Y95307D01*
X172027Y95495D01*
X172613Y96080D01*
X172801Y96362D01*
X172867Y96693D01*
Y98633D01*
X175541D01*
X178733Y95441D01*
Y89586D01*
X178799Y89254D01*
X178987Y88973D01*
X179460Y88500D01*
X178987Y88027D01*
X178799Y87746D01*
X178733Y87414D01*
Y83250D01*
X178799Y82918D01*
X178983Y82643D01*
Y81357D01*
X178799Y81082D01*
X178733Y80750D01*
Y75900D01*
X178799Y75568D01*
X178987Y75287D01*
X187633Y66641D01*
Y63998D01*
X187699Y63667D01*
X187887Y63386D01*
X193059Y58214D01*
X193340Y58026D01*
X193672Y57960D01*
X204155D01*
X204487Y58026D01*
X204768Y58214D01*
X213937Y67383D01*
X214979D01*
X215246Y66883D01*
X215131Y66711D01*
X215076Y66437D01*
X218924D01*
X218869Y66711D01*
X218754Y66883D01*
X219021Y67383D01*
X223475D01*
X223668Y67422D01*
X223772Y66900D01*
X224104Y66404D01*
X224600Y66072D01*
X225185Y65956D01*
X225770Y66072D01*
X226267Y66404D01*
X226598Y66900D01*
X226702Y67422D01*
X226895Y67383D01*
X253507D01*
X253563Y67315D01*
X253710Y66574D01*
X254130Y65945D01*
X254759Y65525D01*
X255000Y65477D01*
Y67315D01*
X256000D01*
Y65477D01*
X256241Y65525D01*
X256870Y65945D01*
X257087Y66270D01*
X257716Y66348D01*
X257927Y66137D01*
X258208Y65949D01*
X258540Y65883D01*
X276410D01*
X276742Y65949D01*
X277023Y66137D01*
X278695Y67809D01*
X284469D01*
X284736Y67309D01*
X284587Y67085D01*
X284471Y66500D01*
X284587Y65915D01*
X284919Y65419D01*
X285415Y65087D01*
X286000Y64971D01*
X286585Y65087D01*
X287081Y65419D01*
X287413Y65915D01*
X287529Y66500D01*
X287413Y67085D01*
X287349Y67181D01*
X287593Y67644D01*
X287869Y67650D01*
X288183Y67237D01*
X288121Y66926D01*
X288237Y66340D01*
X288569Y65844D01*
X289065Y65513D01*
X289650Y65396D01*
X290235Y65513D01*
X290731Y65844D01*
X291063Y66340D01*
X291179Y66926D01*
X291063Y67511D01*
X290748Y67982D01*
X290869Y68063D01*
X291102Y68296D01*
X291415Y68087D01*
X292000Y67971D01*
X292585Y68087D01*
X293081Y68419D01*
X293413Y68915D01*
X293493Y69315D01*
X293900Y69593D01*
X294015Y69621D01*
X294049Y69605D01*
X294087Y69415D01*
X294419Y68919D01*
X294915Y68587D01*
X295500Y68471D01*
X296085Y68587D01*
X296581Y68919D01*
X296913Y69415D01*
X297029Y70000D01*
X296913Y70585D01*
X296581Y71081D01*
X296085Y71413D01*
X295500Y71529D01*
X295036Y71437D01*
X293710Y72763D01*
X293429Y72951D01*
X293098Y73017D01*
X290902D01*
X290571Y72951D01*
X290289Y72763D01*
X288643Y71117D01*
X258227D01*
X257666Y71678D01*
X257385Y71866D01*
X257053Y71932D01*
X253947D01*
X253615Y71866D01*
X253334Y71678D01*
X252773Y71117D01*
X228082D01*
X227351Y71848D01*
X227070Y72036D01*
X226738Y72102D01*
X223632D01*
X223300Y72036D01*
X223019Y71848D01*
X222288Y71117D01*
X221857D01*
X221582Y71301D01*
X221250Y71367D01*
X218750D01*
X218418Y71301D01*
X218143Y71117D01*
X212750D01*
X212418Y71051D01*
X212137Y70863D01*
X202968Y61693D01*
X194859D01*
X191367Y65186D01*
Y67828D01*
X191301Y68160D01*
X191113Y68441D01*
X182467Y77087D01*
Y85133D01*
X187930D01*
X188261Y85199D01*
X188542Y85387D01*
X189128Y85973D01*
X189316Y86254D01*
X189382Y86586D01*
Y90414D01*
X189316Y90746D01*
X189128Y91027D01*
X188542Y91613D01*
X188261Y91801D01*
X187930Y91867D01*
X186939D01*
X186672Y92367D01*
X186790Y92543D01*
X186838Y92784D01*
X183162D01*
X183210Y92543D01*
X183328Y92367D01*
X183061Y91867D01*
X182467D01*
Y96628D01*
X182401Y96960D01*
X182213Y97241D01*
X177341Y102113D01*
X177325Y102124D01*
X177477Y102624D01*
X188230D01*
X195624Y95230D01*
Y66577D01*
X195587Y66522D01*
X195471Y65937D01*
X195587Y65352D01*
X195919Y64856D01*
X196415Y64524D01*
X197000Y64408D01*
X197585Y64524D01*
X198081Y64856D01*
X198413Y65352D01*
X198529Y65937D01*
X198413Y66522D01*
X198376Y66577D01*
Y95800D01*
X198272Y96327D01*
X197973Y96773D01*
X189773Y104973D01*
X189327Y105272D01*
X188800Y105376D01*
X93070D01*
X91426Y107021D01*
X91413Y107085D01*
X91081Y107581D01*
X90585Y107913D01*
X90000Y108029D01*
X89415Y107913D01*
X88919Y107581D01*
X88587Y107085D01*
X88471Y106500D01*
X88587Y105915D01*
X88919Y105419D01*
X89415Y105087D01*
X89479Y105074D01*
X91527Y103027D01*
X91527Y103027D01*
X91973Y102728D01*
X92500Y102624D01*
X105184D01*
X105383Y102381D01*
Y96367D01*
X98172D01*
X97840Y96301D01*
X97559Y96113D01*
X95978Y94533D01*
X95791Y94251D01*
X95725Y93920D01*
Y91986D01*
X95356Y91913D01*
X94860Y91581D01*
X94556Y91127D01*
X94291Y91101D01*
X94027Y91127D01*
X93723Y91581D01*
X93227Y91913D01*
X92641Y92029D01*
X92056Y91913D01*
X91560Y91581D01*
X91228Y91085D01*
X91112Y90500D01*
X91228Y89915D01*
X91560Y89419D01*
X92056Y89087D01*
X92462Y89006D01*
X94231Y87237D01*
X94512Y87049D01*
X94844Y86983D01*
X97039D01*
X97371Y87049D01*
X97652Y87237D01*
X99204Y88789D01*
X99392Y89071D01*
X99458Y89402D01*
Y91978D01*
X99427Y92133D01*
X99689Y92563D01*
X99771Y92633D01*
X119000D01*
X119332Y92699D01*
X119613Y92887D01*
X125359Y98633D01*
X130133D01*
Y98336D01*
X130199Y98004D01*
X130215Y97980D01*
X129998Y97427D01*
X129926Y97413D01*
X129430Y97081D01*
X129099Y96585D01*
X128982Y96000D01*
X129099Y95415D01*
X129430Y94919D01*
X129645Y94775D01*
Y80110D01*
X129145Y79958D01*
X128870Y80370D01*
X128241Y80790D01*
X128000Y80838D01*
Y79000D01*
Y77162D01*
X128241Y77210D01*
X128870Y77630D01*
X129145Y78042D01*
X129645Y77890D01*
Y58871D01*
X122899Y52125D01*
X122711Y51843D01*
X122645Y51512D01*
Y43829D01*
X122145Y43562D01*
X121804Y43790D01*
X121563Y43838D01*
Y42000D01*
Y40162D01*
X121804Y40210D01*
X122145Y40438D01*
X122645Y40171D01*
Y38725D01*
X122430Y38581D01*
X122099Y38085D01*
X121982Y37500D01*
X122099Y36915D01*
X122430Y36419D01*
X122926Y36087D01*
X123512Y35971D01*
X124097Y36087D01*
X124593Y36419D01*
X124925Y36915D01*
X125001Y37298D01*
X125511D01*
X125587Y36915D01*
X125919Y36419D01*
X126415Y36087D01*
X127000Y35971D01*
X127585Y36087D01*
X128081Y36419D01*
X128413Y36915D01*
X128529Y37500D01*
X128413Y38085D01*
X128081Y38581D01*
X127867Y38725D01*
Y49708D01*
X134613Y56454D01*
X134801Y56735D01*
X134867Y57067D01*
Y94775D01*
X135081Y94919D01*
X135083Y94920D01*
X135643Y94956D01*
X135933Y94650D01*
Y36659D01*
X134091Y34817D01*
X96403D01*
X95257Y35963D01*
X94975Y36151D01*
X94644Y36217D01*
X85850D01*
X85518Y36151D01*
X85237Y35963D01*
X84887Y35613D01*
X84699Y35332D01*
X84633Y35000D01*
Y34725D01*
X84419Y34581D01*
X84087Y34085D01*
X83971Y33500D01*
X84087Y32915D01*
X83819Y32417D01*
X72506D01*
X71767Y33156D01*
Y58718D01*
X72267Y58985D01*
X72577Y58778D01*
X73425Y58609D01*
X74274Y58778D01*
X74993Y59259D01*
X75474Y59978D01*
X75643Y60827D01*
X75474Y61675D01*
X74993Y62395D01*
X74274Y62875D01*
X73662Y62997D01*
X73342Y63231D01*
X73217Y63512D01*
Y151805D01*
X73151Y152137D01*
X72963Y152418D01*
X72067Y153314D01*
Y168136D01*
X76071Y172141D01*
X76533Y171949D01*
Y166701D01*
X76102Y166413D01*
X75704Y165817D01*
X75565Y165115D01*
X75704Y164413D01*
X76102Y163817D01*
X76698Y163419D01*
X77400Y163280D01*
X78102Y163419D01*
X78698Y163817D01*
X79096Y164413D01*
X79235Y165115D01*
X79096Y165817D01*
X78698Y166413D01*
X78267Y166701D01*
Y172639D01*
X91130Y185502D01*
X91318Y185783D01*
X91384Y186115D01*
Y190302D01*
X91884Y190472D01*
X91954Y190380D01*
X92696Y189810D01*
X93561Y189452D01*
X93621Y189444D01*
Y185284D01*
X91990Y183653D01*
X91802Y183371D01*
X91736Y183040D01*
Y138040D01*
X91521Y137896D01*
X91190Y137400D01*
X91073Y136815D01*
X91190Y136230D01*
X91521Y135733D01*
X92018Y135402D01*
X92603Y135286D01*
X93188Y135402D01*
X93684Y135733D01*
X94021D01*
X94517Y135402D01*
X95103Y135286D01*
X95688Y135402D01*
X96184Y135733D01*
X96516Y136230D01*
X96632Y136815D01*
X96516Y137400D01*
X96184Y137896D01*
X95969Y138040D01*
Y181302D01*
X102975Y188308D01*
X103163Y188589D01*
X103229Y188921D01*
Y189444D01*
X103290Y189452D01*
X104154Y189810D01*
X104896Y190380D01*
X105465Y191122D01*
X105824Y191986D01*
X105946Y192913D01*
X105824Y193841D01*
X105465Y194705D01*
X104896Y195447D01*
X104154Y196017D01*
X103290Y196375D01*
X102362Y196497D01*
X101435Y196375D01*
X100570Y196017D01*
X99828Y195447D01*
X99259Y194705D01*
X98901Y193841D01*
X98779Y192913D01*
X98901Y191986D01*
X99259Y191122D01*
X99828Y190380D01*
X100570Y189810D01*
X101100Y189591D01*
X101217Y189001D01*
X94490Y182274D01*
X94302Y181993D01*
X94236Y181661D01*
Y138262D01*
X93853Y138039D01*
X93469Y138262D01*
Y182681D01*
X95101Y184312D01*
X95289Y184593D01*
X95355Y184925D01*
Y189444D01*
X95416Y189452D01*
X96280Y189810D01*
X97022Y190380D01*
X97592Y191122D01*
X97949Y191986D01*
X98072Y192913D01*
X97949Y193841D01*
X97592Y194705D01*
X97022Y195447D01*
X96280Y196017D01*
X95416Y196375D01*
X94488Y196497D01*
X93561Y196375D01*
X92696Y196017D01*
X91954Y195447D01*
X91867Y195333D01*
X91367Y195503D01*
Y196440D01*
X92648Y197721D01*
X92696Y197684D01*
X93561Y197326D01*
X94488Y197204D01*
X95416Y197326D01*
X96280Y197684D01*
X97022Y198254D01*
X97592Y198996D01*
X97949Y199860D01*
X98072Y200787D01*
X97949Y201715D01*
X97592Y202579D01*
X97022Y203321D01*
X96280Y203891D01*
X95416Y204249D01*
X94488Y204371D01*
X93561Y204249D01*
X92696Y203891D01*
X91954Y203321D01*
X91385Y202579D01*
X91027Y201715D01*
X90905Y200787D01*
X91027Y199860D01*
X91385Y198996D01*
X91422Y198947D01*
X89887Y197412D01*
X89699Y197131D01*
X89633Y196799D01*
Y195592D01*
X89316Y195485D01*
X89133Y195458D01*
X88406Y196017D01*
X87542Y196375D01*
X86614Y196497D01*
X85687Y196375D01*
X84822Y196017D01*
X84080Y195447D01*
X83511Y194705D01*
X83153Y193841D01*
X83031Y192913D01*
X83153Y191986D01*
X83511Y191122D01*
X84080Y190380D01*
X84822Y189810D01*
X85687Y189452D01*
X85747Y189444D01*
Y184268D01*
X80069Y178589D01*
X79607Y178781D01*
Y189444D01*
X79668Y189452D01*
X80532Y189810D01*
X81274Y190380D01*
X81843Y191122D01*
X82201Y191986D01*
X82323Y192913D01*
X82201Y193841D01*
X81843Y194705D01*
X81274Y195447D01*
X80532Y196017D01*
X79668Y196375D01*
X78740Y196497D01*
X77813Y196375D01*
X76948Y196017D01*
X76206Y195447D01*
X76135Y195355D01*
X75635Y195525D01*
Y196457D01*
X76900Y197721D01*
X76948Y197684D01*
X77813Y197326D01*
X78740Y197204D01*
X79668Y197326D01*
X80532Y197684D01*
X81274Y198254D01*
X81843Y198996D01*
X82201Y199860D01*
X82323Y200787D01*
X82201Y201715D01*
X81843Y202579D01*
X81274Y203321D01*
X80532Y203891D01*
X79668Y204249D01*
X78740Y204371D01*
X77813Y204249D01*
X76948Y203891D01*
X76206Y203321D01*
X75637Y202579D01*
X75279Y201715D01*
X75157Y200787D01*
X75279Y199860D01*
X75637Y198996D01*
X75674Y198947D01*
X74156Y197429D01*
X73968Y197148D01*
X73902Y196816D01*
Y195570D01*
X73429Y195410D01*
X73400Y195447D01*
X72658Y196017D01*
X71794Y196375D01*
X70866Y196497D01*
X69939Y196375D01*
X69074Y196017D01*
X68332Y195447D01*
X67763Y194705D01*
X67405Y193841D01*
X67283Y192913D01*
X67405Y191986D01*
X67763Y191122D01*
X68332Y190380D01*
X69074Y189810D01*
X69939Y189452D01*
X70866Y189330D01*
X71794Y189452D01*
X72658Y189810D01*
X73400Y190380D01*
X73429Y190417D01*
X73902Y190256D01*
Y175817D01*
X66787Y168702D01*
X66599Y168421D01*
X66533Y168089D01*
Y161201D01*
X66102Y160913D01*
X65704Y160317D01*
X65565Y159615D01*
X65704Y158913D01*
X66102Y158317D01*
X66698Y157919D01*
X67400Y157780D01*
X68102Y157919D01*
X68633Y158274D01*
X68902Y158201D01*
X69133Y158069D01*
Y154114D01*
X67437Y152418D01*
X67249Y152137D01*
X67183Y151805D01*
Y33950D01*
X67249Y33618D01*
X67437Y33337D01*
X70746Y30029D01*
X70554Y29567D01*
X65972D01*
X55985Y39554D01*
Y189444D01*
X56046Y189452D01*
X56910Y189810D01*
X57652Y190380D01*
X58221Y191122D01*
X58579Y191986D01*
X58701Y192913D01*
X58579Y193841D01*
X58221Y194705D01*
X57652Y195447D01*
X56910Y196017D01*
X56046Y196375D01*
X55118Y196497D01*
X54191Y196375D01*
X53326Y196017D01*
X52584Y195447D01*
X52556Y195410D01*
X52082Y195570D01*
Y196526D01*
X53278Y197721D01*
X53326Y197684D01*
X54191Y197326D01*
X55118Y197204D01*
X56046Y197326D01*
X56910Y197684D01*
X57652Y198254D01*
X58221Y198996D01*
X58579Y199860D01*
X58701Y200787D01*
X58579Y201715D01*
X58221Y202579D01*
X57652Y203321D01*
X56910Y203891D01*
X56046Y204249D01*
X55118Y204371D01*
X54191Y204249D01*
X53326Y203891D01*
X52584Y203321D01*
X52015Y202579D01*
X51657Y201715D01*
X51535Y200787D01*
X51657Y199860D01*
X52015Y198996D01*
X52052Y198947D01*
X50603Y197497D01*
X50415Y197216D01*
X50349Y196885D01*
Y195525D01*
X49849Y195355D01*
X49778Y195447D01*
X49036Y196017D01*
X48171Y196375D01*
X47244Y196497D01*
X46317Y196375D01*
X45452Y196017D01*
X44710Y195447D01*
X44682Y195410D01*
X44208Y195570D01*
Y196526D01*
X45404Y197721D01*
X45452Y197684D01*
X46317Y197326D01*
X47244Y197204D01*
X48171Y197326D01*
X49036Y197684D01*
X49778Y198254D01*
X50347Y198996D01*
X50705Y199860D01*
X50827Y200787D01*
X50705Y201715D01*
X50347Y202579D01*
X49778Y203321D01*
X49036Y203891D01*
X48171Y204249D01*
X47244Y204371D01*
X46317Y204249D01*
X45452Y203891D01*
X44710Y203321D01*
X44141Y202579D01*
X43783Y201715D01*
X43761Y201549D01*
X43257D01*
X43221Y201819D01*
X42823Y202781D01*
X42189Y203607D01*
X41363Y204240D01*
X40402Y204638D01*
X39870Y204708D01*
Y200787D01*
X39370D01*
Y200287D01*
X35449D01*
X35519Y199756D01*
X35917Y198794D01*
X36551Y197968D01*
X37336Y197366D01*
X37336Y197310D01*
X37001Y196866D01*
X35417D01*
Y193413D01*
X39370D01*
Y192913D01*
X39870D01*
Y188961D01*
X42475D01*
Y187374D01*
X42350Y187282D01*
X41975Y187153D01*
X41585Y187413D01*
X41000Y187529D01*
X40415Y187413D01*
X39919Y187081D01*
X39775Y186867D01*
X35500D01*
X35381Y186843D01*
X35118Y186860D01*
X34842Y187184D01*
X34787Y187459D01*
X34455Y187955D01*
X33959Y188287D01*
X33374Y188403D01*
X33270Y188892D01*
X33132Y189584D01*
X32712Y190212D01*
X32084Y190632D01*
X31842Y190680D01*
Y188842D01*
X31343D01*
Y188342D01*
X29505D01*
X29525Y188241D01*
X29238Y187741D01*
X4324D01*
X3992Y187675D01*
X3711Y187487D01*
X1584Y185359D01*
X1122Y185550D01*
Y211379D01*
X73000D01*
X73191Y210916D01*
X66282Y204008D01*
X66094Y203727D01*
X66043Y203469D01*
X65618Y203256D01*
X65585Y203244D01*
X65526Y203321D01*
X64784Y203891D01*
X63920Y204249D01*
X62992Y204371D01*
X62065Y204249D01*
X61200Y203891D01*
X60458Y203321D01*
X59889Y202579D01*
X59531Y201715D01*
X59409Y200787D01*
X59531Y199860D01*
X59889Y198996D01*
X60458Y198254D01*
X61200Y197684D01*
X62065Y197326D01*
X62992Y197204D01*
X63920Y197326D01*
X64280Y197475D01*
X64429Y197383D01*
X64676Y197098D01*
X64633Y196885D01*
Y196529D01*
X64218Y196251D01*
X63920Y196375D01*
X62992Y196497D01*
X62065Y196375D01*
X61200Y196017D01*
X60458Y195447D01*
X59889Y194705D01*
X59531Y193841D01*
X59409Y192913D01*
X59531Y191986D01*
X59889Y191122D01*
X60458Y190380D01*
X61200Y189810D01*
X62065Y189452D01*
X62992Y189330D01*
X63920Y189452D01*
X64784Y189810D01*
X65526Y190380D01*
X66095Y191122D01*
X66453Y191986D01*
X66575Y192913D01*
X66453Y193841D01*
X66095Y194705D01*
X66058Y194754D01*
X66113Y194808D01*
X66301Y195090D01*
X66367Y195421D01*
Y196526D01*
X67508Y197667D01*
X67696Y197948D01*
X67745Y198197D01*
X67972Y198307D01*
X68261Y198346D01*
X68332Y198254D01*
X69074Y197684D01*
X69939Y197326D01*
X70866Y197204D01*
X71794Y197326D01*
X72658Y197684D01*
X73400Y198254D01*
X73969Y198996D01*
X74327Y199860D01*
X74449Y200787D01*
X74327Y201715D01*
X73969Y202579D01*
X73400Y203321D01*
X72658Y203891D01*
X71794Y204249D01*
X70866Y204371D01*
X69939Y204249D01*
X69500Y204067D01*
X69216Y204491D01*
X74909Y210183D01*
X241591D01*
X243633Y208141D01*
Y199725D01*
X243419Y199581D01*
X243087Y199085D01*
X242971Y198500D01*
X243087Y197915D01*
X243419Y197419D01*
X243915Y197087D01*
X244500Y196971D01*
X245085Y197087D01*
X245581Y197419D01*
X245913Y197915D01*
X246029Y198500D01*
X245913Y199085D01*
X245581Y199581D01*
X245367Y199725D01*
Y208500D01*
X245301Y208832D01*
X245113Y209113D01*
X243309Y210916D01*
X243500Y211379D01*
X333379D01*
Y1122D01*
D02*
G37*
G36*
X50625Y190662D02*
X51633Y189653D01*
Y165295D01*
X51133Y165028D01*
X50741Y165290D01*
X50500Y165338D01*
Y163500D01*
Y161662D01*
X50741Y161710D01*
X51133Y161972D01*
X51633Y161705D01*
Y141100D01*
X51419Y140956D01*
X51087Y140460D01*
X50971Y139875D01*
X51087Y139289D01*
X51419Y138793D01*
X51915Y138462D01*
X52500Y138345D01*
X53085Y138462D01*
X53581Y138793D01*
X53751Y139048D01*
X54251Y138896D01*
Y121064D01*
X53751Y120797D01*
X53577Y120913D01*
X52992Y121029D01*
X52407Y120913D01*
X51911Y120581D01*
X51579Y120085D01*
X51463Y119500D01*
X51579Y118915D01*
X51911Y118419D01*
X52407Y118087D01*
X52992Y117971D01*
X53577Y118087D01*
X53751Y118203D01*
X54251Y117936D01*
Y40244D01*
X53790Y40052D01*
X49367Y44475D01*
Y149666D01*
X49863Y150162D01*
X50051Y150443D01*
X50117Y150775D01*
Y152225D01*
X50051Y152557D01*
X49863Y152838D01*
X48838Y153863D01*
X48557Y154051D01*
X48225Y154117D01*
X48111D01*
Y162008D01*
X48611Y162159D01*
X48630Y162130D01*
X49259Y161710D01*
X49500Y161662D01*
Y163500D01*
Y165338D01*
X49259Y165290D01*
X48630Y164870D01*
X48611Y164841D01*
X48111Y164992D01*
Y181885D01*
X49113Y182887D01*
X49301Y183168D01*
X49367Y183500D01*
Y186244D01*
X49301Y186576D01*
X49113Y186857D01*
X48111Y187859D01*
Y189444D01*
X48171Y189452D01*
X49036Y189810D01*
X49778Y190380D01*
X50006Y190677D01*
X50592Y190684D01*
X50625Y190662D01*
D02*
G37*
%LPC*%
G36*
X292295Y75300D02*
X290957D01*
Y73962D01*
X291199Y74010D01*
X291827Y74430D01*
X292247Y75059D01*
X292295Y75300D01*
D02*
G37*
G36*
X268724Y77465D02*
X264876D01*
X264931Y77191D01*
X265369Y76535D01*
X266026Y76096D01*
X266234Y76055D01*
Y75545D01*
X266026Y75504D01*
X265369Y75065D01*
X264931Y74409D01*
X264876Y74135D01*
X268724D01*
X268669Y74409D01*
X268231Y75065D01*
X267574Y75504D01*
X267366Y75545D01*
Y76055D01*
X267574Y76096D01*
X268231Y76535D01*
X268669Y77191D01*
X268724Y77465D01*
D02*
G37*
G36*
X289957Y77638D02*
X289716Y77590D01*
X289088Y77170D01*
X288668Y76541D01*
X288620Y76300D01*
X289957D01*
Y77638D01*
D02*
G37*
G36*
X209000Y79029D02*
X208415Y78913D01*
X207919Y78581D01*
X207587Y78085D01*
X207471Y77500D01*
X207587Y76915D01*
X207919Y76419D01*
X208415Y76087D01*
X209000Y75971D01*
X209585Y76087D01*
X210081Y76419D01*
X210413Y76915D01*
X210529Y77500D01*
X210413Y78085D01*
X210081Y78581D01*
X209585Y78913D01*
X209000Y79029D01*
D02*
G37*
G36*
X244500Y79029D02*
X243915Y78913D01*
X243419Y78581D01*
X243087Y78085D01*
X242971Y77500D01*
X243087Y76915D01*
X243419Y76419D01*
X243915Y76087D01*
X244500Y75971D01*
X245085Y76087D01*
X245581Y76419D01*
X245913Y76915D01*
X246029Y77500D01*
X245913Y78085D01*
X245581Y78581D01*
X245085Y78913D01*
X244500Y79029D01*
D02*
G37*
G36*
X266300Y73135D02*
X264876D01*
X264931Y72860D01*
X265369Y72204D01*
X266026Y71766D01*
X266300Y71711D01*
Y73135D01*
D02*
G37*
G36*
X62315Y70734D02*
Y69396D01*
X63653D01*
X63605Y69637D01*
X63185Y70266D01*
X62556Y70686D01*
X62315Y70734D01*
D02*
G37*
G36*
X61315D02*
X61074Y70686D01*
X60445Y70266D01*
X60025Y69637D01*
X59977Y69396D01*
X61315D01*
Y70734D01*
D02*
G37*
G36*
X289957Y75300D02*
X288620D01*
X288668Y75059D01*
X289088Y74430D01*
X289716Y74010D01*
X289957Y73962D01*
Y75300D01*
D02*
G37*
G36*
X43000Y78087D02*
X42191Y77981D01*
X41437Y77668D01*
X40789Y77172D01*
X40292Y76524D01*
X39980Y75770D01*
X39873Y74961D01*
X39980Y74151D01*
X40292Y73397D01*
X40789Y72750D01*
X41437Y72253D01*
X42191Y71940D01*
X43000Y71834D01*
X43809Y71940D01*
X44563Y72253D01*
X45211Y72750D01*
X45708Y73397D01*
X46020Y74151D01*
X46127Y74961D01*
X46020Y75770D01*
X45708Y76524D01*
X45211Y77172D01*
X44563Y77668D01*
X43809Y77981D01*
X43000Y78087D01*
D02*
G37*
G36*
X268724Y73135D02*
X267300D01*
Y71711D01*
X267574Y71766D01*
X268231Y72204D01*
X268669Y72860D01*
X268724Y73135D01*
D02*
G37*
G36*
X119838Y78500D02*
X118500D01*
Y77162D01*
X118741Y77210D01*
X119370Y77630D01*
X119790Y78259D01*
X119838Y78500D01*
D02*
G37*
G36*
X117500D02*
X116162D01*
X116210Y78259D01*
X116630Y77630D01*
X117259Y77210D01*
X117500Y77162D01*
Y78500D01*
D02*
G37*
G36*
X110302D02*
X108965D01*
Y77162D01*
X109206Y77210D01*
X109834Y77630D01*
X110254Y78259D01*
X110302Y78500D01*
D02*
G37*
G36*
X144948D02*
X143610D01*
Y77162D01*
X143851Y77210D01*
X144480Y77630D01*
X144900Y78259D01*
X144948Y78500D01*
D02*
G37*
G36*
X142610D02*
X141272D01*
X141320Y78259D01*
X141740Y77630D01*
X142369Y77210D01*
X142610Y77162D01*
Y78500D01*
D02*
G37*
G36*
X127000D02*
X125662D01*
X125710Y78259D01*
X126130Y77630D01*
X126759Y77210D01*
X127000Y77162D01*
Y78500D01*
D02*
G37*
G36*
X91405D02*
X90067D01*
Y77162D01*
X90308Y77210D01*
X90937Y77630D01*
X91357Y78259D01*
X91405Y78500D01*
D02*
G37*
G36*
X89067D02*
X87729D01*
X87777Y78259D01*
X88197Y77630D01*
X88826Y77210D01*
X89067Y77162D01*
Y78500D01*
D02*
G37*
G36*
X290957Y77638D02*
Y76300D01*
X292295D01*
X292247Y76541D01*
X291827Y77170D01*
X291199Y77590D01*
X290957Y77638D01*
D02*
G37*
G36*
X107965Y78500D02*
X106627D01*
X106675Y78259D01*
X107095Y77630D01*
X107723Y77210D01*
X107965Y77162D01*
Y78500D01*
D02*
G37*
G36*
X100854D02*
X99516D01*
Y77162D01*
X99757Y77210D01*
X100385Y77630D01*
X100805Y78259D01*
X100854Y78500D01*
D02*
G37*
G36*
X98516D02*
X97178D01*
X97226Y78259D01*
X97646Y77630D01*
X98274Y77210D01*
X98516Y77162D01*
Y78500D01*
D02*
G37*
G36*
X302386Y57886D02*
X301048D01*
X301096Y57644D01*
X301516Y57016D01*
X302145Y56596D01*
X302386Y56548D01*
Y57886D01*
D02*
G37*
G36*
X298041Y57947D02*
X297456Y57830D01*
X296959Y57499D01*
X296628Y57003D01*
X296512Y56417D01*
X296628Y55832D01*
X296959Y55336D01*
X297456Y55004D01*
X298041Y54888D01*
X298626Y55004D01*
X299122Y55336D01*
X299454Y55832D01*
X299570Y56417D01*
X299454Y57003D01*
X299122Y57499D01*
X298626Y57830D01*
X298041Y57947D01*
D02*
G37*
G36*
X39063Y57029D02*
X38478Y56913D01*
X37982Y56581D01*
X37650Y56085D01*
X37534Y55500D01*
X37650Y54915D01*
X37982Y54419D01*
X38478Y54087D01*
X39063Y53971D01*
X39648Y54087D01*
X40144Y54419D01*
X40476Y54915D01*
X40592Y55500D01*
X40476Y56085D01*
X40144Y56581D01*
X39648Y56913D01*
X39063Y57029D01*
D02*
G37*
G36*
X237653Y59000D02*
X236315D01*
Y57662D01*
X236556Y57710D01*
X237185Y58130D01*
X237605Y58759D01*
X237653Y59000D01*
D02*
G37*
G36*
X235315D02*
X233977D01*
X234025Y58759D01*
X234445Y58130D01*
X235074Y57710D01*
X235315Y57662D01*
Y59000D01*
D02*
G37*
G36*
X304724Y57886D02*
X303386D01*
Y56548D01*
X303627Y56596D01*
X304256Y57016D01*
X304676Y57644D01*
X304724Y57886D01*
D02*
G37*
G36*
X265900Y53793D02*
X264476D01*
X264531Y53519D01*
X264969Y52862D01*
X265626Y52424D01*
X265900Y52369D01*
Y53793D01*
D02*
G37*
G36*
X330000Y54832D02*
X329415Y54716D01*
X328919Y54384D01*
X328587Y53888D01*
X328471Y53303D01*
X328587Y52718D01*
X328919Y52222D01*
X329415Y51890D01*
X330000Y51774D01*
X330585Y51890D01*
X331081Y52222D01*
X331413Y52718D01*
X331529Y53303D01*
X331413Y53888D01*
X331081Y54384D01*
X330585Y54716D01*
X330000Y54832D01*
D02*
G37*
G36*
X297000Y54529D02*
X296415Y54413D01*
X295919Y54081D01*
X295587Y53585D01*
X295471Y53000D01*
X295587Y52415D01*
X295919Y51919D01*
X296415Y51587D01*
X297000Y51471D01*
X297585Y51587D01*
X298081Y51919D01*
X298413Y52415D01*
X298529Y53000D01*
X298413Y53585D01*
X298081Y54081D01*
X297585Y54413D01*
X297000Y54529D01*
D02*
G37*
G36*
X203000Y54318D02*
Y52980D01*
X204338D01*
X204290Y53222D01*
X203870Y53850D01*
X203241Y54270D01*
X203000Y54318D01*
D02*
G37*
G36*
X202000D02*
X201759Y54270D01*
X201130Y53850D01*
X200710Y53222D01*
X200662Y52980D01*
X202000D01*
Y54318D01*
D02*
G37*
G36*
X268324Y53793D02*
X266900D01*
Y52369D01*
X267174Y52424D01*
X267831Y52862D01*
X268269Y53519D01*
X268324Y53793D01*
D02*
G37*
G36*
X61315Y68396D02*
X59977D01*
X60025Y68155D01*
X60445Y67526D01*
X61074Y67106D01*
X61315Y67058D01*
Y68396D01*
D02*
G37*
G36*
X284500Y64838D02*
Y63500D01*
X285838D01*
X285790Y63741D01*
X285370Y64370D01*
X284741Y64790D01*
X284500Y64838D01*
D02*
G37*
G36*
X283500D02*
X283259Y64790D01*
X282630Y64370D01*
X282210Y63741D01*
X282162Y63500D01*
X283500D01*
Y64838D01*
D02*
G37*
G36*
X40000Y72029D02*
X39415Y71913D01*
X38919Y71581D01*
X38587Y71085D01*
X38471Y70500D01*
X38587Y69915D01*
X38919Y69419D01*
X39415Y69087D01*
X40000Y68971D01*
X40585Y69087D01*
X41081Y69419D01*
X41413Y69915D01*
X41529Y70500D01*
X41413Y71085D01*
X41081Y71581D01*
X40585Y71913D01*
X40000Y72029D01*
D02*
G37*
G36*
X328650Y74029D02*
X328065Y73913D01*
X327569Y73581D01*
X327237Y73085D01*
X327121Y72500D01*
X327237Y71915D01*
X327569Y71419D01*
X328065Y71087D01*
X328650Y70971D01*
X329187Y71077D01*
X329392Y70909D01*
X329561Y70703D01*
X329454Y70166D01*
X329571Y69581D01*
X329902Y69085D01*
X330398Y68754D01*
X330983Y68637D01*
X331569Y68754D01*
X332065Y69085D01*
X332396Y69581D01*
X332513Y70166D01*
X332396Y70752D01*
X332065Y71248D01*
X331569Y71579D01*
X330983Y71696D01*
X330447Y71589D01*
X330241Y71758D01*
X330073Y71963D01*
X330179Y72500D01*
X330063Y73085D01*
X329731Y73581D01*
X329235Y73913D01*
X328650Y74029D01*
D02*
G37*
G36*
X63653Y68396D02*
X62315D01*
Y67058D01*
X62556Y67106D01*
X63185Y67526D01*
X63605Y68155D01*
X63653Y68396D01*
D02*
G37*
G36*
X218924Y65437D02*
X215076D01*
X215131Y65163D01*
X215569Y64506D01*
X216226Y64068D01*
X216434Y64026D01*
Y63517D01*
X216226Y63475D01*
X215569Y63037D01*
X215131Y62380D01*
X215076Y62106D01*
X217000D01*
Y61106D01*
X215076D01*
X215131Y60832D01*
X215569Y60176D01*
X215973Y59906D01*
X216071Y59297D01*
X207641Y50867D01*
X204308D01*
X204041Y51367D01*
X204290Y51739D01*
X204338Y51980D01*
X200662D01*
X200710Y51739D01*
X200959Y51367D01*
X200692Y50867D01*
X192577D01*
X192245Y50801D01*
X191964Y50613D01*
X181218Y39867D01*
X178725D01*
X178581Y40081D01*
X178085Y40413D01*
X177500Y40529D01*
X176915Y40413D01*
X176419Y40081D01*
X176087Y39585D01*
X175971Y39000D01*
X176087Y38415D01*
X176419Y37919D01*
X176915Y37587D01*
X177500Y37471D01*
X178085Y37587D01*
X178581Y37919D01*
X178725Y38133D01*
X181577D01*
X181909Y38199D01*
X182190Y38387D01*
X192936Y49133D01*
X208000D01*
X208332Y49199D01*
X208613Y49387D01*
X218088Y58863D01*
X218133Y58871D01*
X218414Y59059D01*
X219838Y60483D01*
X233631D01*
X233962Y60000D01*
X237667D01*
X237999Y60483D01*
X242120D01*
X242199Y60381D01*
X242341Y59983D01*
X242087Y59603D01*
X241971Y59017D01*
X242087Y58432D01*
X242419Y57936D01*
X242915Y57604D01*
X243500Y57488D01*
X244085Y57604D01*
X244581Y57936D01*
X244913Y58432D01*
X245029Y59017D01*
X244913Y59603D01*
X244659Y59983D01*
X244801Y60381D01*
X244880Y60483D01*
X264780D01*
X264922Y59983D01*
X264531Y59398D01*
X264476Y59124D01*
X266400D01*
Y58124D01*
X264476D01*
X264531Y57849D01*
X264969Y57193D01*
X265626Y56754D01*
X265834Y56713D01*
Y56203D01*
X265626Y56162D01*
X264969Y55724D01*
X264531Y55067D01*
X264476Y54793D01*
X268324D01*
X268269Y55067D01*
X267831Y55724D01*
X267174Y56162D01*
X266966Y56203D01*
Y56713D01*
X267174Y56754D01*
X267831Y57193D01*
X268269Y57849D01*
X268423Y58624D01*
X268724Y58990D01*
X287856D01*
X288188Y59056D01*
X288469Y59244D01*
X288832Y59606D01*
X289987D01*
X290131Y59391D01*
X290627Y59060D01*
X291212Y58943D01*
X291797Y59060D01*
X292294Y59391D01*
X292625Y59888D01*
X292742Y60473D01*
X292625Y61058D01*
X292294Y61554D01*
X291797Y61886D01*
X291212Y62002D01*
X290627Y61886D01*
X290131Y61554D01*
X289987Y61339D01*
X288473D01*
X288141Y61273D01*
X287860Y61086D01*
X287497Y60723D01*
X284869D01*
X284753Y61185D01*
X284760Y61223D01*
X285370Y61630D01*
X285790Y62259D01*
X285838Y62500D01*
X282162D01*
X282210Y62259D01*
X282630Y61630D01*
X283240Y61223D01*
X283247Y61185D01*
X283131Y60723D01*
X268262D01*
X267022Y61963D01*
X266741Y62151D01*
X266409Y62217D01*
X219479D01*
X219414Y62204D01*
X218936Y62359D01*
X218783Y62509D01*
X218431Y63037D01*
X217774Y63475D01*
X217566Y63517D01*
Y64026D01*
X217774Y64068D01*
X218431Y64506D01*
X218869Y65163D01*
X218924Y65437D01*
D02*
G37*
G36*
X304554Y61823D02*
X300879D01*
X300927Y61581D01*
X301347Y60953D01*
X301883Y60595D01*
X301947Y60223D01*
X301930Y60032D01*
X301516Y59756D01*
X301096Y59127D01*
X301048Y58886D01*
X304724D01*
X304676Y59127D01*
X304256Y59756D01*
X303719Y60114D01*
X303655Y60486D01*
X303672Y60676D01*
X304086Y60953D01*
X304506Y61581D01*
X304554Y61823D01*
D02*
G37*
G36*
X184449Y63815D02*
X183676Y63713D01*
X182955Y63414D01*
X182336Y62939D01*
X181861Y62321D01*
X181563Y61600D01*
X181461Y60827D01*
X181563Y60053D01*
X181861Y59333D01*
X182336Y58714D01*
X182955Y58239D01*
X183676Y57941D01*
X184449Y57839D01*
X185222Y57941D01*
X185943Y58239D01*
X186562Y58714D01*
X187036Y59333D01*
X187335Y60053D01*
X187437Y60827D01*
X187335Y61600D01*
X187036Y62321D01*
X186562Y62939D01*
X185943Y63414D01*
X185222Y63713D01*
X184449Y63815D01*
D02*
G37*
G36*
X303217Y64161D02*
Y62823D01*
X304554D01*
X304506Y63064D01*
X304086Y63693D01*
X303458Y64113D01*
X303217Y64161D01*
D02*
G37*
G36*
X302217D02*
X301975Y64113D01*
X301347Y63693D01*
X300927Y63064D01*
X300879Y62823D01*
X302217D01*
Y64161D01*
D02*
G37*
G36*
X329000Y62029D02*
X328415Y61913D01*
X327919Y61581D01*
X327587Y61085D01*
X327471Y60500D01*
X327587Y59915D01*
X327919Y59419D01*
X328415Y59087D01*
X329000Y58971D01*
X329585Y59087D01*
X330081Y59419D01*
X330413Y59915D01*
X330529Y60500D01*
X330413Y61085D01*
X330081Y61581D01*
X329585Y61913D01*
X329000Y62029D01*
D02*
G37*
G36*
X152059Y78500D02*
X150721D01*
X150769Y78259D01*
X151189Y77630D01*
X151818Y77210D01*
X152059Y77162D01*
Y78500D01*
D02*
G37*
G36*
X304508Y83537D02*
X303923Y83421D01*
X303426Y83089D01*
X303095Y82593D01*
X302978Y82008D01*
X303095Y81423D01*
X303426Y80926D01*
X303923Y80595D01*
X304508Y80479D01*
X305093Y80595D01*
X305589Y80926D01*
X305921Y81423D01*
X306037Y82008D01*
X305921Y82593D01*
X305589Y83089D01*
X305093Y83421D01*
X304508Y83537D01*
D02*
G37*
G36*
X326830Y81500D02*
X325492D01*
Y80162D01*
X325733Y80210D01*
X326362Y80630D01*
X326782Y81259D01*
X326830Y81500D01*
D02*
G37*
G36*
X324492D02*
X323154D01*
X323202Y81259D01*
X323622Y80630D01*
X324251Y80210D01*
X324492Y80162D01*
Y81500D01*
D02*
G37*
G36*
X33063Y84592D02*
X32478Y84476D01*
X31982Y84144D01*
X31650Y83648D01*
X31534Y83063D01*
X31650Y82478D01*
X31982Y81982D01*
X32478Y81650D01*
X33063Y81534D01*
X33648Y81650D01*
X34144Y81982D01*
X34476Y82478D01*
X34592Y83063D01*
X34476Y83648D01*
X34144Y84144D01*
X33648Y84476D01*
X33063Y84592D01*
D02*
G37*
G36*
X14723Y82338D02*
Y81000D01*
X16061D01*
X16013Y81241D01*
X15593Y81870D01*
X14964Y82290D01*
X14723Y82338D01*
D02*
G37*
G36*
X13723D02*
X13482Y82290D01*
X12853Y81870D01*
X12433Y81241D01*
X12385Y81000D01*
X13723D01*
Y82338D01*
D02*
G37*
G36*
X162508Y80838D02*
Y79500D01*
X163846D01*
X163797Y79741D01*
X163377Y80370D01*
X162749Y80790D01*
X162508Y80838D01*
D02*
G37*
G36*
X161508D02*
X161266Y80790D01*
X160638Y80370D01*
X160218Y79741D01*
X160170Y79500D01*
X161508D01*
Y80838D01*
D02*
G37*
G36*
X153059D02*
Y79500D01*
X154397D01*
X154349Y79741D01*
X153929Y80370D01*
X153300Y80790D01*
X153059Y80838D01*
D02*
G37*
G36*
X241000Y83029D02*
X240415Y82913D01*
X239919Y82581D01*
X239587Y82085D01*
X239471Y81500D01*
X239587Y80915D01*
X239919Y80419D01*
X240415Y80087D01*
X241000Y79971D01*
X241585Y80087D01*
X242081Y80419D01*
X242413Y80915D01*
X242529Y81500D01*
X242413Y82085D01*
X242081Y82581D01*
X241585Y82913D01*
X241000Y83029D01*
D02*
G37*
G36*
X171957Y80838D02*
Y79500D01*
X173294D01*
X173246Y79741D01*
X172826Y80370D01*
X172198Y80790D01*
X171957Y80838D01*
D02*
G37*
G36*
X170957D02*
X170715Y80790D01*
X170087Y80370D01*
X169667Y79741D01*
X169619Y79500D01*
X170957D01*
Y80838D01*
D02*
G37*
G36*
X299524Y85814D02*
Y84476D01*
X300861D01*
X300813Y84718D01*
X300393Y85346D01*
X299765Y85766D01*
X299524Y85814D01*
D02*
G37*
G36*
X252338Y85000D02*
X251000D01*
Y83662D01*
X251241Y83710D01*
X251870Y84130D01*
X252290Y84759D01*
X252338Y85000D01*
D02*
G37*
G36*
X250000D02*
X248662D01*
X248710Y84759D01*
X249130Y84130D01*
X249759Y83710D01*
X250000Y83662D01*
Y85000D01*
D02*
G37*
G36*
Y87338D02*
X249759Y87290D01*
X249130Y86870D01*
X248710Y86241D01*
X248662Y86000D01*
X250000D01*
Y87338D01*
D02*
G37*
G36*
X32838Y86500D02*
X31500D01*
Y85162D01*
X31741Y85210D01*
X32370Y85630D01*
X32790Y86259D01*
X32838Y86500D01*
D02*
G37*
G36*
X30500D02*
X29162D01*
X29210Y86259D01*
X29630Y85630D01*
X30259Y85210D01*
X30500Y85162D01*
Y86500D01*
D02*
G37*
G36*
X155709Y85029D02*
X155123Y84913D01*
X154627Y84581D01*
X154296Y84085D01*
X154179Y83500D01*
X154296Y82915D01*
X154627Y82419D01*
X155123Y82087D01*
X155709Y81971D01*
X156294Y82087D01*
X156790Y82419D01*
X157122Y82915D01*
X157238Y83500D01*
X157122Y84085D01*
X156790Y84581D01*
X156294Y84913D01*
X155709Y85029D01*
D02*
G37*
G36*
X62303Y82972D02*
Y81634D01*
X63640D01*
X63592Y81875D01*
X63173Y82504D01*
X62544Y82924D01*
X62303Y82972D01*
D02*
G37*
G36*
X61303D02*
X61061Y82924D01*
X60433Y82504D01*
X60013Y81875D01*
X59965Y81634D01*
X61303D01*
Y82972D01*
D02*
G37*
G36*
X325492Y83838D02*
Y82500D01*
X326830D01*
X326782Y82741D01*
X326362Y83370D01*
X325733Y83790D01*
X325492Y83838D01*
D02*
G37*
G36*
X324492D02*
X324251Y83790D01*
X323622Y83370D01*
X323202Y82741D01*
X323154Y82500D01*
X324492D01*
Y83838D01*
D02*
G37*
G36*
X300861Y83476D02*
X299524D01*
Y82139D01*
X299765Y82187D01*
X300393Y82607D01*
X300813Y83235D01*
X300861Y83476D01*
D02*
G37*
G36*
X16061Y80000D02*
X14723D01*
Y78662D01*
X14964Y78710D01*
X15593Y79130D01*
X16013Y79759D01*
X16061Y80000D01*
D02*
G37*
G36*
X13723D02*
X12385D01*
X12433Y79759D01*
X12853Y79130D01*
X13482Y78710D01*
X13723Y78662D01*
Y80000D01*
D02*
G37*
G36*
X267300Y79889D02*
Y78465D01*
X268724D01*
X268669Y78740D01*
X268231Y79396D01*
X267574Y79835D01*
X267300Y79889D01*
D02*
G37*
G36*
X44500Y82529D02*
X43915Y82413D01*
X43419Y82081D01*
X43087Y81585D01*
X42971Y81000D01*
X43087Y80415D01*
X43419Y79919D01*
X43915Y79587D01*
X44500Y79471D01*
X45085Y79587D01*
X45581Y79919D01*
X45913Y80415D01*
X46029Y81000D01*
X45913Y81585D01*
X45581Y82081D01*
X45085Y82413D01*
X44500Y82529D01*
D02*
G37*
G36*
X63640Y80634D02*
X62303D01*
Y79296D01*
X62544Y79344D01*
X63173Y79764D01*
X63592Y80392D01*
X63640Y80634D01*
D02*
G37*
G36*
X61303D02*
X59965D01*
X60013Y80392D01*
X60433Y79764D01*
X61061Y79344D01*
X61303Y79296D01*
Y80634D01*
D02*
G37*
G36*
X163846Y78500D02*
X162508D01*
Y77162D01*
X162749Y77210D01*
X163377Y77630D01*
X163797Y78259D01*
X163846Y78500D01*
D02*
G37*
G36*
X161508D02*
X160170D01*
X160218Y78259D01*
X160638Y77630D01*
X161266Y77210D01*
X161508Y77162D01*
Y78500D01*
D02*
G37*
G36*
X154397D02*
X153059D01*
Y77162D01*
X153300Y77210D01*
X153929Y77630D01*
X154349Y78259D01*
X154397Y78500D01*
D02*
G37*
G36*
X266300Y79889D02*
X266026Y79835D01*
X265369Y79396D01*
X264931Y78740D01*
X264876Y78465D01*
X266300D01*
Y79889D01*
D02*
G37*
G36*
X173294Y78500D02*
X171957D01*
Y77162D01*
X172198Y77210D01*
X172826Y77630D01*
X173246Y78259D01*
X173294Y78500D01*
D02*
G37*
G36*
X170957D02*
X169619D01*
X169667Y78259D01*
X170087Y77630D01*
X170715Y77210D01*
X170957Y77162D01*
Y78500D01*
D02*
G37*
G36*
X127000Y80838D02*
X126759Y80790D01*
X126130Y80370D01*
X125710Y79741D01*
X125662Y79500D01*
X127000D01*
Y80838D01*
D02*
G37*
G36*
X118500D02*
Y79500D01*
X119838D01*
X119790Y79741D01*
X119370Y80370D01*
X118741Y80790D01*
X118500Y80838D01*
D02*
G37*
G36*
X117500D02*
X117259Y80790D01*
X116630Y80370D01*
X116210Y79741D01*
X116162Y79500D01*
X117500D01*
Y80838D01*
D02*
G37*
G36*
X152059D02*
X151818Y80790D01*
X151189Y80370D01*
X150769Y79741D01*
X150721Y79500D01*
X152059D01*
Y80838D01*
D02*
G37*
G36*
X143610D02*
Y79500D01*
X144948D01*
X144900Y79741D01*
X144480Y80370D01*
X143851Y80790D01*
X143610Y80838D01*
D02*
G37*
G36*
X142610D02*
X142369Y80790D01*
X141740Y80370D01*
X141320Y79741D01*
X141272Y79500D01*
X142610D01*
Y80838D01*
D02*
G37*
G36*
X98516D02*
X98274Y80790D01*
X97646Y80370D01*
X97226Y79741D01*
X97178Y79500D01*
X98516D01*
Y80838D01*
D02*
G37*
G36*
X90067D02*
Y79500D01*
X91405D01*
X91357Y79741D01*
X90937Y80370D01*
X90308Y80790D01*
X90067Y80838D01*
D02*
G37*
G36*
X89067D02*
X88826Y80790D01*
X88197Y80370D01*
X87777Y79741D01*
X87729Y79500D01*
X89067D01*
Y80838D01*
D02*
G37*
G36*
X108965D02*
Y79500D01*
X110302D01*
X110254Y79741D01*
X109834Y80370D01*
X109206Y80790D01*
X108965Y80838D01*
D02*
G37*
G36*
X107965D02*
X107723Y80790D01*
X107095Y80370D01*
X106675Y79741D01*
X106627Y79500D01*
X107965D01*
Y80838D01*
D02*
G37*
G36*
X99516D02*
Y79500D01*
X100854D01*
X100805Y79741D01*
X100385Y80370D01*
X99757Y80790D01*
X99516Y80838D01*
D02*
G37*
G36*
X74500Y23279D02*
X73915Y23163D01*
X73419Y22831D01*
X73087Y22335D01*
X72971Y21750D01*
X73087Y21165D01*
X73419Y20669D01*
Y20331D01*
X73087Y19835D01*
X72971Y19250D01*
X73087Y18665D01*
X73419Y18169D01*
X73915Y17837D01*
X74500Y17721D01*
X75085Y17837D01*
X75581Y18169D01*
X75913Y18665D01*
X76029Y19250D01*
X75913Y19835D01*
X75581Y20331D01*
Y20669D01*
X75913Y21165D01*
X76029Y21750D01*
X75913Y22335D01*
X75581Y22831D01*
X75085Y23163D01*
X74500Y23279D01*
D02*
G37*
G36*
X262961Y20029D02*
X262376Y19913D01*
X261880Y19581D01*
X261548Y19085D01*
X261432Y18500D01*
X261548Y17915D01*
X261880Y17419D01*
X262376Y17087D01*
X262961Y16971D01*
X263547Y17087D01*
X264043Y17419D01*
X264374Y17915D01*
X264491Y18500D01*
X264374Y19085D01*
X264043Y19581D01*
X263547Y19913D01*
X262961Y20029D01*
D02*
G37*
G36*
X144338Y17425D02*
X143000D01*
Y16087D01*
X143241Y16135D01*
X143870Y16555D01*
X144290Y17184D01*
X144338Y17425D01*
D02*
G37*
G36*
X110500Y19263D02*
X110259Y19215D01*
X109630Y18795D01*
X109210Y18167D01*
X109162Y17925D01*
X110500D01*
Y19263D01*
D02*
G37*
G36*
X94988D02*
Y17925D01*
X96326D01*
X96278Y18167D01*
X95858Y18795D01*
X95230Y19215D01*
X94988Y19263D01*
D02*
G37*
G36*
X93988D02*
X93747Y19215D01*
X93118Y18795D01*
X92698Y18167D01*
X92650Y17925D01*
X93988D01*
Y19263D01*
D02*
G37*
G36*
X313000Y18955D02*
X312415Y18838D01*
X311919Y18507D01*
X311587Y18011D01*
X311471Y17425D01*
X311587Y16840D01*
X311919Y16344D01*
X312415Y16012D01*
X313000Y15896D01*
X313585Y16012D01*
X314081Y16344D01*
X314413Y16840D01*
X314529Y17425D01*
X314413Y18011D01*
X314081Y18507D01*
X313585Y18838D01*
X313000Y18955D01*
D02*
G37*
G36*
X128338Y16925D02*
X127000D01*
Y15587D01*
X127241Y15635D01*
X127870Y16055D01*
X128290Y16684D01*
X128338Y16925D01*
D02*
G37*
G36*
X126000D02*
X124662D01*
X124710Y16684D01*
X125130Y16055D01*
X125759Y15635D01*
X126000Y15587D01*
Y16925D01*
D02*
G37*
G36*
X142000Y17425D02*
X140662D01*
X140710Y17184D01*
X141130Y16555D01*
X141759Y16135D01*
X142000Y16087D01*
Y17425D01*
D02*
G37*
G36*
X308328Y19029D02*
X307743Y18913D01*
X307247Y18581D01*
X306915Y18085D01*
X306799Y17500D01*
X306915Y16915D01*
X307247Y16419D01*
X307743Y16087D01*
X308328Y15971D01*
X308914Y16087D01*
X309410Y16419D01*
X309741Y16915D01*
X309858Y17500D01*
X309741Y18085D01*
X309410Y18581D01*
X308914Y18913D01*
X308328Y19029D01*
D02*
G37*
G36*
X318000Y18955D02*
X317415Y18838D01*
X316919Y18507D01*
X316587Y18011D01*
X316471Y17425D01*
X316587Y16840D01*
X316919Y16344D01*
X317415Y16012D01*
X318000Y15896D01*
X318585Y16012D01*
X319081Y16344D01*
X319413Y16840D01*
X319529Y17425D01*
X319413Y18011D01*
X319081Y18507D01*
X318585Y18838D01*
X318000Y18955D01*
D02*
G37*
G36*
X7000Y23029D02*
X6415Y22913D01*
X5919Y22581D01*
X5587Y22085D01*
X5471Y21500D01*
X5587Y20915D01*
X5919Y20419D01*
X6415Y20087D01*
X7000Y19971D01*
X7585Y20087D01*
X8081Y20419D01*
X8413Y20915D01*
X8529Y21500D01*
X8413Y22085D01*
X8081Y22581D01*
X7585Y22913D01*
X7000Y23029D01*
D02*
G37*
G36*
X24898Y22755D02*
X24312Y22638D01*
X23816Y22307D01*
X23485Y21811D01*
X23368Y21225D01*
X23485Y20640D01*
X23816Y20144D01*
X24312Y19812D01*
X24898Y19696D01*
X25483Y19812D01*
X25979Y20144D01*
X26311Y20640D01*
X26427Y21225D01*
X26311Y21811D01*
X25979Y22307D01*
X25483Y22638D01*
X24898Y22755D01*
D02*
G37*
G36*
X163464Y21500D02*
X160500D01*
Y18536D01*
X160914Y18590D01*
X161765Y18943D01*
X162496Y19504D01*
X163057Y20235D01*
X163410Y21086D01*
X163464Y21500D01*
D02*
G37*
G36*
X160500Y25464D02*
Y22500D01*
X163464D01*
X163410Y22914D01*
X163057Y23765D01*
X162496Y24496D01*
X161765Y25057D01*
X160914Y25410D01*
X160500Y25464D01*
D02*
G37*
G36*
X159500D02*
X159086Y25410D01*
X158235Y25057D01*
X157504Y24496D01*
X156943Y23765D01*
X156590Y22914D01*
X156536Y22500D01*
X159500D01*
Y25464D01*
D02*
G37*
G36*
X185500Y25529D02*
X184915Y25413D01*
X184419Y25081D01*
X184087Y24585D01*
X183971Y24000D01*
X184087Y23415D01*
X184419Y22919D01*
Y22581D01*
X184087Y22085D01*
X183971Y21500D01*
X184087Y20915D01*
X184419Y20419D01*
X184915Y20087D01*
X185500Y19971D01*
X186085Y20087D01*
X186581Y20419D01*
X186913Y20915D01*
X187029Y21500D01*
X186913Y22085D01*
X186581Y22581D01*
Y22919D01*
X186913Y23415D01*
X187029Y24000D01*
X186913Y24585D01*
X186581Y25081D01*
X186085Y25413D01*
X185500Y25529D01*
D02*
G37*
G36*
X127000Y19263D02*
Y17925D01*
X128338D01*
X128290Y18167D01*
X127870Y18795D01*
X127241Y19215D01*
X127000Y19263D01*
D02*
G37*
G36*
X126000D02*
X125759Y19215D01*
X125130Y18795D01*
X124710Y18167D01*
X124662Y17925D01*
X126000D01*
Y19263D01*
D02*
G37*
G36*
X111500D02*
Y17925D01*
X112838D01*
X112790Y18167D01*
X112370Y18795D01*
X111741Y19215D01*
X111500Y19263D01*
D02*
G37*
G36*
X159500Y21500D02*
X156536D01*
X156590Y21086D01*
X156943Y20235D01*
X157504Y19504D01*
X158235Y18943D01*
X159086Y18590D01*
X159500Y18536D01*
Y21500D01*
D02*
G37*
G36*
X143000Y19763D02*
Y18425D01*
X144338D01*
X144290Y18666D01*
X143870Y19295D01*
X143241Y19715D01*
X143000Y19763D01*
D02*
G37*
G36*
X142000D02*
X141759Y19715D01*
X141130Y19295D01*
X140710Y18666D01*
X140662Y18425D01*
X142000D01*
Y19763D01*
D02*
G37*
G36*
X199500Y12183D02*
X198573Y12061D01*
X197708Y11703D01*
X196966Y11134D01*
X196397Y10392D01*
X196039Y9527D01*
X195917Y8600D01*
X196039Y7672D01*
X196397Y6808D01*
X196966Y6066D01*
X197708Y5497D01*
X198573Y5139D01*
X199500Y5017D01*
X200427Y5139D01*
X201292Y5497D01*
X202034Y6066D01*
X202603Y6808D01*
X202961Y7672D01*
X203083Y8600D01*
X202961Y9527D01*
X202603Y10392D01*
X202034Y11134D01*
X201292Y11703D01*
X200427Y12061D01*
X199500Y12183D01*
D02*
G37*
G36*
X189500D02*
X188573Y12061D01*
X187708Y11703D01*
X186966Y11134D01*
X186397Y10392D01*
X186039Y9527D01*
X185917Y8600D01*
X186039Y7672D01*
X186397Y6808D01*
X186966Y6066D01*
X187708Y5497D01*
X188573Y5139D01*
X189500Y5017D01*
X190427Y5139D01*
X191292Y5497D01*
X192034Y6066D01*
X192603Y6808D01*
X192961Y7672D01*
X193083Y8600D01*
X192961Y9527D01*
X192603Y10392D01*
X192034Y11134D01*
X191292Y11703D01*
X190427Y12061D01*
X189500Y12183D01*
D02*
G37*
G36*
X179500D02*
X178573Y12061D01*
X177708Y11703D01*
X176966Y11134D01*
X176397Y10392D01*
X176039Y9527D01*
X175917Y8600D01*
X176039Y7672D01*
X176397Y6808D01*
X176966Y6066D01*
X177708Y5497D01*
X178573Y5139D01*
X179500Y5017D01*
X180427Y5139D01*
X181292Y5497D01*
X182034Y6066D01*
X182603Y6808D01*
X182961Y7672D01*
X183083Y8600D01*
X182961Y9527D01*
X182603Y10392D01*
X182034Y11134D01*
X181292Y11703D01*
X180427Y12061D01*
X179500Y12183D01*
D02*
G37*
G36*
X303500Y9529D02*
X302915Y9413D01*
X302419Y9081D01*
X302087Y8585D01*
X301971Y8000D01*
X302087Y7415D01*
X302419Y6919D01*
X302915Y6587D01*
X303500Y6471D01*
X304085Y6587D01*
X304581Y6919D01*
X304913Y7415D01*
X305029Y8000D01*
X304913Y8585D01*
X304581Y9081D01*
X304085Y9413D01*
X303500Y9529D01*
D02*
G37*
G36*
X219500Y12183D02*
X218573Y12061D01*
X217708Y11703D01*
X216966Y11134D01*
X216397Y10392D01*
X216039Y9527D01*
X215917Y8600D01*
X216039Y7672D01*
X216397Y6808D01*
X216966Y6066D01*
X217708Y5497D01*
X218573Y5139D01*
X219500Y5017D01*
X220427Y5139D01*
X221292Y5497D01*
X222034Y6066D01*
X222603Y6808D01*
X222961Y7672D01*
X223083Y8600D01*
X222961Y9527D01*
X222603Y10392D01*
X222034Y11134D01*
X221292Y11703D01*
X220427Y12061D01*
X219500Y12183D01*
D02*
G37*
G36*
X209500D02*
X208573Y12061D01*
X207708Y11703D01*
X206966Y11134D01*
X206397Y10392D01*
X206039Y9527D01*
X205917Y8600D01*
X206039Y7672D01*
X206397Y6808D01*
X206966Y6066D01*
X207708Y5497D01*
X208573Y5139D01*
X209500Y5017D01*
X210427Y5139D01*
X211292Y5497D01*
X212034Y6066D01*
X212603Y6808D01*
X212961Y7672D01*
X213083Y8600D01*
X212961Y9527D01*
X212603Y10392D01*
X212034Y11134D01*
X211292Y11703D01*
X210427Y12061D01*
X209500Y12183D01*
D02*
G37*
G36*
X229000Y8100D02*
X225547D01*
Y4647D01*
X229000D01*
Y8100D01*
D02*
G37*
G36*
X257000Y6792D02*
X256415Y6676D01*
X255919Y6344D01*
X255587Y5848D01*
X255471Y5263D01*
X255587Y4678D01*
X255919Y4182D01*
X256415Y3850D01*
X257000Y3734D01*
X257585Y3850D01*
X258081Y4182D01*
X258413Y4678D01*
X258529Y5263D01*
X258413Y5848D01*
X258081Y6344D01*
X257585Y6676D01*
X257000Y6792D01*
D02*
G37*
G36*
X326000Y5529D02*
X325415Y5413D01*
X324919Y5081D01*
X324587Y4585D01*
X324471Y4000D01*
X324587Y3415D01*
X324919Y2919D01*
X325415Y2587D01*
X326000Y2471D01*
X326585Y2587D01*
X327081Y2919D01*
X327413Y3415D01*
X327529Y4000D01*
X327413Y4585D01*
X327081Y5081D01*
X326585Y5413D01*
X326000Y5529D01*
D02*
G37*
G36*
X319587Y8029D02*
X319001Y7913D01*
X318505Y7581D01*
X318174Y7085D01*
X318057Y6500D01*
X318174Y5915D01*
X318505Y5419D01*
X319001Y5087D01*
X319587Y4971D01*
X320172Y5087D01*
X320668Y5419D01*
X321000Y5915D01*
X321116Y6500D01*
X321000Y7085D01*
X320668Y7581D01*
X320172Y7913D01*
X319587Y8029D01*
D02*
G37*
G36*
X31000D02*
X30415Y7913D01*
X29919Y7581D01*
X29587Y7085D01*
X29471Y6500D01*
X29587Y5915D01*
X29919Y5419D01*
X30415Y5087D01*
X31000Y4971D01*
X31585Y5087D01*
X32081Y5419D01*
X32413Y5915D01*
X32529Y6500D01*
X32413Y7085D01*
X32081Y7581D01*
X31585Y7913D01*
X31000Y8029D01*
D02*
G37*
G36*
X233453Y8100D02*
X230000D01*
Y4647D01*
X233453D01*
Y8100D01*
D02*
G37*
G36*
X93988Y16925D02*
X92650D01*
X92698Y16684D01*
X93118Y16055D01*
X93747Y15635D01*
X93988Y15587D01*
Y16925D01*
D02*
G37*
G36*
X297000Y11838D02*
Y10500D01*
X298338D01*
X298290Y10741D01*
X297870Y11370D01*
X297241Y11790D01*
X297000Y11838D01*
D02*
G37*
G36*
X296000D02*
X295759Y11790D01*
X295130Y11370D01*
X294710Y10741D01*
X294662Y10500D01*
X296000D01*
Y11838D01*
D02*
G37*
G36*
X112838Y16925D02*
X111500D01*
Y15587D01*
X111741Y15635D01*
X112370Y16055D01*
X112790Y16684D01*
X112838Y16925D01*
D02*
G37*
G36*
X110500D02*
X109162D01*
X109210Y16684D01*
X109630Y16055D01*
X110259Y15635D01*
X110500Y15587D01*
Y16925D01*
D02*
G37*
G36*
X96326D02*
X94988D01*
Y15587D01*
X95230Y15635D01*
X95858Y16055D01*
X96278Y16684D01*
X96326Y16925D01*
D02*
G37*
G36*
X298338Y9500D02*
X297000D01*
Y8162D01*
X297241Y8210D01*
X297870Y8630D01*
X298290Y9259D01*
X298338Y9500D01*
D02*
G37*
G36*
X296000D02*
X294662D01*
X294710Y9259D01*
X295130Y8630D01*
X295759Y8210D01*
X296000Y8162D01*
Y9500D01*
D02*
G37*
G36*
X264032Y11029D02*
X263446Y10913D01*
X262950Y10581D01*
X262618Y10085D01*
X262502Y9500D01*
X262618Y8915D01*
X262950Y8419D01*
X263446Y8087D01*
X264032Y7971D01*
X264617Y8087D01*
X265113Y8419D01*
X265444Y8915D01*
X265561Y9500D01*
X265444Y10085D01*
X265113Y10581D01*
X264617Y10913D01*
X264032Y11029D01*
D02*
G37*
G36*
X233453Y12553D02*
X230000D01*
Y9100D01*
X233453D01*
Y12553D01*
D02*
G37*
G36*
X229000D02*
X225547D01*
Y9100D01*
X229000D01*
Y12553D01*
D02*
G37*
G36*
X287363Y14666D02*
X286778Y14550D01*
X286282Y14219D01*
X285950Y13722D01*
X285834Y13137D01*
X285950Y12552D01*
X286282Y12056D01*
X286778Y11724D01*
X287363Y11608D01*
X287907Y11716D01*
X288021Y11625D01*
X288244Y11320D01*
X288087Y11085D01*
X287971Y10500D01*
X288087Y9915D01*
X288419Y9419D01*
X288915Y9087D01*
X289500Y8971D01*
X290085Y9087D01*
X290581Y9419D01*
X290913Y9915D01*
X291029Y10500D01*
X290913Y11085D01*
X290581Y11581D01*
X290085Y11913D01*
X289500Y12029D01*
X288956Y11921D01*
X288842Y12012D01*
X288619Y12317D01*
X288776Y12552D01*
X288892Y13137D01*
X288776Y13722D01*
X288444Y14219D01*
X287948Y14550D01*
X287363Y14666D01*
D02*
G37*
G36*
X101665Y43838D02*
X101424Y43790D01*
X100795Y43370D01*
X100376Y42741D01*
X100328Y42500D01*
X101665D01*
Y43838D01*
D02*
G37*
G36*
X170145Y41500D02*
X168807D01*
Y40162D01*
X169048Y40210D01*
X169677Y40630D01*
X170097Y41259D01*
X170145Y41500D01*
D02*
G37*
G36*
X167807D02*
X166469D01*
X166517Y41259D01*
X166937Y40630D01*
X167566Y40210D01*
X167807Y40162D01*
Y41500D01*
D02*
G37*
G36*
X112114Y43838D02*
Y42500D01*
X113452D01*
X113404Y42741D01*
X112984Y43370D01*
X112355Y43790D01*
X112114Y43838D01*
D02*
G37*
G36*
X111114D02*
X110873Y43790D01*
X110244Y43370D01*
X109824Y42741D01*
X109776Y42500D01*
X111114D01*
Y43838D01*
D02*
G37*
G36*
X102665D02*
Y42500D01*
X104003D01*
X103955Y42741D01*
X103535Y43370D01*
X102907Y43790D01*
X102665Y43838D01*
D02*
G37*
G36*
X148909Y41500D02*
X147572D01*
X147620Y41259D01*
X148039Y40630D01*
X148668Y40210D01*
X148909Y40162D01*
Y41500D01*
D02*
G37*
G36*
X141798D02*
X140461D01*
Y40162D01*
X140702Y40210D01*
X141330Y40630D01*
X141750Y41259D01*
X141798Y41500D01*
D02*
G37*
G36*
X132350D02*
X131012D01*
Y40162D01*
X131253Y40210D01*
X131881Y40630D01*
X132301Y41259D01*
X132350Y41500D01*
D02*
G37*
G36*
X160696D02*
X159358D01*
Y40162D01*
X159599Y40210D01*
X160228Y40630D01*
X160648Y41259D01*
X160696Y41500D01*
D02*
G37*
G36*
X158358D02*
X157020D01*
X157068Y41259D01*
X157488Y40630D01*
X158117Y40210D01*
X158358Y40162D01*
Y41500D01*
D02*
G37*
G36*
X151247D02*
X149909D01*
Y40162D01*
X150151Y40210D01*
X150779Y40630D01*
X151199Y41259D01*
X151247Y41500D01*
D02*
G37*
G36*
X167807Y43838D02*
X167566Y43790D01*
X166937Y43370D01*
X166517Y42741D01*
X166469Y42500D01*
X167807D01*
Y43838D01*
D02*
G37*
G36*
X159358D02*
Y42500D01*
X160696D01*
X160648Y42741D01*
X160228Y43370D01*
X159599Y43790D01*
X159358Y43838D01*
D02*
G37*
G36*
X158358D02*
X158117Y43790D01*
X157488Y43370D01*
X157068Y42741D01*
X157020Y42500D01*
X158358D01*
Y43838D01*
D02*
G37*
G36*
X302000Y52529D02*
X301415Y52413D01*
X300919Y52081D01*
X300587Y51585D01*
X300471Y51000D01*
X300587Y50415D01*
X300919Y49919D01*
X301415Y49587D01*
X302000Y49471D01*
X302585Y49587D01*
X303081Y49919D01*
X303413Y50415D01*
X303529Y51000D01*
X303413Y51585D01*
X303081Y52081D01*
X302585Y52413D01*
X302000Y52529D01*
D02*
G37*
G36*
X294094D02*
X293509Y52413D01*
X293013Y52081D01*
X292682Y51585D01*
X292565Y51000D01*
X292682Y50415D01*
X293013Y49919D01*
X293509Y49587D01*
X294094Y49471D01*
X294680Y49587D01*
X295176Y49919D01*
X295508Y50415D01*
X295624Y51000D01*
X295508Y51585D01*
X295176Y52081D01*
X294680Y52413D01*
X294094Y52529D01*
D02*
G37*
G36*
X168807Y43838D02*
Y42500D01*
X170145D01*
X170097Y42741D01*
X169677Y43370D01*
X169048Y43790D01*
X168807Y43838D01*
D02*
G37*
G36*
X131012D02*
Y42500D01*
X132350D01*
X132301Y42741D01*
X131881Y43370D01*
X131253Y43790D01*
X131012Y43838D01*
D02*
G37*
G36*
X130012D02*
X129770Y43790D01*
X129142Y43370D01*
X128722Y42741D01*
X128674Y42500D01*
X130012D01*
Y43838D01*
D02*
G37*
G36*
X120563D02*
X120322Y43790D01*
X119693Y43370D01*
X119273Y42741D01*
X119225Y42500D01*
X120563D01*
Y43838D01*
D02*
G37*
G36*
X149909D02*
Y42500D01*
X151247D01*
X151199Y42741D01*
X150779Y43370D01*
X150151Y43790D01*
X149909Y43838D01*
D02*
G37*
G36*
X148909D02*
X148668Y43790D01*
X148039Y43370D01*
X147620Y42741D01*
X147572Y42500D01*
X148909D01*
Y43838D01*
D02*
G37*
G36*
X140461D02*
Y42500D01*
X141798D01*
X141750Y42741D01*
X141330Y43370D01*
X140702Y43790D01*
X140461Y43838D01*
D02*
G37*
G36*
X288500Y38179D02*
X287915Y38063D01*
X287419Y37731D01*
X287087Y37235D01*
X286971Y36650D01*
X287087Y36065D01*
X287419Y35569D01*
X287874Y35265D01*
X287899Y35000D01*
X287874Y34735D01*
X287419Y34431D01*
X287087Y33935D01*
X286971Y33350D01*
X287087Y32765D01*
X287419Y32269D01*
X287915Y31937D01*
X288500Y31821D01*
X289085Y31937D01*
X289581Y32269D01*
X289913Y32765D01*
X290029Y33350D01*
X289913Y33935D01*
X289581Y34431D01*
X289126Y34735D01*
X289101Y35000D01*
X289126Y35265D01*
X289581Y35569D01*
X289913Y36065D01*
X290029Y36650D01*
X289913Y37235D01*
X289581Y37731D01*
X289085Y38063D01*
X288500Y38179D01*
D02*
G37*
G36*
X296700Y31838D02*
Y30500D01*
X298038D01*
X297990Y30741D01*
X297570Y31370D01*
X296941Y31790D01*
X296700Y31838D01*
D02*
G37*
G36*
X295700D02*
X295459Y31790D01*
X294830Y31370D01*
X294410Y30741D01*
X294362Y30500D01*
X295700D01*
Y31838D01*
D02*
G37*
G36*
X197985Y36823D02*
X197744Y36775D01*
X197115Y36355D01*
X196695Y35726D01*
X196647Y35485D01*
X197985D01*
Y36823D01*
D02*
G37*
G36*
X200323Y34485D02*
X198985D01*
Y33147D01*
X199226Y33195D01*
X199855Y33615D01*
X200275Y34244D01*
X200323Y34485D01*
D02*
G37*
G36*
X197985D02*
X196647D01*
X196695Y34244D01*
X197115Y33615D01*
X197744Y33195D01*
X197985Y33147D01*
Y34485D01*
D02*
G37*
G36*
X54000Y27529D02*
X53415Y27413D01*
X52919Y27081D01*
X52587Y26585D01*
X52471Y26000D01*
X52587Y25415D01*
X52919Y24919D01*
X53415Y24587D01*
X54000Y24471D01*
X54585Y24587D01*
X55081Y24919D01*
X55413Y25415D01*
X55529Y26000D01*
X55413Y26585D01*
X55081Y27081D01*
X54585Y27413D01*
X54000Y27529D01*
D02*
G37*
G36*
X108500Y27029D02*
X107915Y26913D01*
X107419Y26581D01*
X107087Y26085D01*
X106971Y25500D01*
X107087Y24915D01*
X107419Y24419D01*
X107915Y24087D01*
X108500Y23971D01*
X109085Y24087D01*
X109581Y24419D01*
X109913Y24915D01*
X110029Y25500D01*
X109913Y26085D01*
X109581Y26581D01*
X109085Y26913D01*
X108500Y27029D01*
D02*
G37*
G36*
X5000Y25000D02*
X3662D01*
X3710Y24759D01*
X4130Y24130D01*
X4759Y23710D01*
X5000Y23662D01*
Y25000D01*
D02*
G37*
G36*
X298038Y29500D02*
X296700D01*
Y28162D01*
X296941Y28210D01*
X297570Y28630D01*
X297990Y29259D01*
X298038Y29500D01*
D02*
G37*
G36*
X295700D02*
X294362D01*
X294410Y29259D01*
X294830Y28630D01*
X295459Y28210D01*
X295700Y28162D01*
Y29500D01*
D02*
G37*
G36*
X282000Y33127D02*
X281191Y33020D01*
X280437Y32708D01*
X279789Y32211D01*
X279292Y31563D01*
X278980Y30809D01*
X278873Y30000D01*
X278980Y29191D01*
X279292Y28437D01*
X279789Y27789D01*
X280437Y27292D01*
X281191Y26980D01*
X282000Y26873D01*
X282809Y26980D01*
X283563Y27292D01*
X284211Y27789D01*
X284708Y28437D01*
X285020Y29191D01*
X285127Y30000D01*
X285020Y30809D01*
X284708Y31563D01*
X284211Y32211D01*
X283563Y32708D01*
X282809Y33020D01*
X282000Y33127D01*
D02*
G37*
G36*
X111114Y41500D02*
X109776D01*
X109824Y41259D01*
X110244Y40630D01*
X110873Y40210D01*
X111114Y40162D01*
Y41500D01*
D02*
G37*
G36*
X104003D02*
X102665D01*
Y40162D01*
X102907Y40210D01*
X103535Y40630D01*
X103955Y41259D01*
X104003Y41500D01*
D02*
G37*
G36*
X101665D02*
X100328D01*
X100376Y41259D01*
X100795Y40630D01*
X101424Y40210D01*
X101665Y40162D01*
Y41500D01*
D02*
G37*
G36*
X130012D02*
X128674D01*
X128722Y41259D01*
X129142Y40630D01*
X129770Y40210D01*
X130012Y40162D01*
Y41500D01*
D02*
G37*
G36*
X120563D02*
X119225D01*
X119273Y41259D01*
X119693Y40630D01*
X120322Y40210D01*
X120563Y40162D01*
Y41500D01*
D02*
G37*
G36*
X113452D02*
X112114D01*
Y40162D01*
X112355Y40210D01*
X112984Y40630D01*
X113404Y41259D01*
X113452Y41500D01*
D02*
G37*
G36*
X105315Y40529D02*
X104730Y40413D01*
X104234Y40081D01*
X103902Y39585D01*
X103786Y39000D01*
X103902Y38415D01*
X104234Y37919D01*
X104730Y37587D01*
X105315Y37471D01*
X105568Y37521D01*
X105702Y37387D01*
X105983Y37199D01*
X106315Y37133D01*
X110775D01*
X110919Y36919D01*
X111415Y36587D01*
X112000Y36471D01*
X112585Y36587D01*
X113081Y36919D01*
X113413Y37415D01*
X113529Y38000D01*
X113413Y38585D01*
X113081Y39081D01*
X112585Y39413D01*
X112000Y39529D01*
X111415Y39413D01*
X110919Y39081D01*
X110775Y38867D01*
X106954D01*
X106844Y39000D01*
X106728Y39585D01*
X106396Y40081D01*
X105900Y40413D01*
X105315Y40529D01*
D02*
G37*
G36*
X261000Y42127D02*
X260191Y42020D01*
X259437Y41708D01*
X258789Y41211D01*
X258292Y40563D01*
X257980Y39809D01*
X257873Y39000D01*
X257980Y38191D01*
X258292Y37437D01*
X258789Y36789D01*
X259437Y36292D01*
X260191Y35980D01*
X261000Y35873D01*
X261809Y35980D01*
X262563Y36292D01*
X263211Y36789D01*
X263708Y37437D01*
X264020Y38191D01*
X264127Y39000D01*
X264020Y39809D01*
X263708Y40563D01*
X263211Y41211D01*
X262563Y41708D01*
X261809Y42020D01*
X261000Y42127D01*
D02*
G37*
G36*
X198985Y36823D02*
Y35485D01*
X200323D01*
X200275Y35726D01*
X199855Y36355D01*
X199226Y36775D01*
X198985Y36823D01*
D02*
G37*
G36*
X217424Y40000D02*
X216000D01*
Y38576D01*
X216274Y38631D01*
X216931Y39069D01*
X217369Y39726D01*
X217424Y40000D01*
D02*
G37*
G36*
X215000D02*
X213576D01*
X213631Y39726D01*
X214069Y39069D01*
X214726Y38631D01*
X215000Y38576D01*
Y40000D01*
D02*
G37*
G36*
X225500Y39529D02*
X224915Y39413D01*
X224419Y39081D01*
X224087Y38585D01*
X223971Y38000D01*
X224087Y37415D01*
X224419Y36919D01*
X224915Y36587D01*
X225500Y36471D01*
X226085Y36587D01*
X226581Y36919D01*
X226913Y37415D01*
X227029Y38000D01*
X226913Y38585D01*
X226581Y39081D01*
X226085Y39413D01*
X225500Y39529D01*
D02*
G37*
G36*
X251000Y87338D02*
Y86000D01*
X252338D01*
X252290Y86241D01*
X251870Y86870D01*
X251241Y87290D01*
X251000Y87338D01*
D02*
G37*
G36*
X170079Y161790D02*
Y160146D01*
X171722D01*
X171651Y160505D01*
X171165Y161233D01*
X170437Y161719D01*
X170079Y161790D01*
D02*
G37*
G36*
X169079D02*
X168720Y161719D01*
X167993Y161233D01*
X167506Y160505D01*
X167435Y160146D01*
X169079D01*
Y161790D01*
D02*
G37*
G36*
X301818Y167068D02*
X301233Y166952D01*
X300737Y166620D01*
X300406Y166124D01*
X300289Y165539D01*
X300406Y164954D01*
X300737Y164457D01*
X301233Y164126D01*
X301818Y164010D01*
X302404Y164126D01*
X302900Y164457D01*
X303232Y164954D01*
X303348Y165539D01*
X303232Y166124D01*
X302900Y166620D01*
X302404Y166952D01*
X301818Y167068D01*
D02*
G37*
G36*
X261933Y169689D02*
X257496D01*
Y164071D01*
X261933D01*
Y169689D01*
D02*
G37*
G36*
X256496D02*
X252059D01*
Y164071D01*
X256496D01*
Y169689D01*
D02*
G37*
G36*
X301500Y163127D02*
X300915Y163011D01*
X300419Y162680D01*
X300087Y162183D01*
X299971Y161598D01*
X300087Y161013D01*
X300419Y160517D01*
X300915Y160185D01*
X301500Y160069D01*
X302085Y160185D01*
X302581Y160517D01*
X302913Y161013D01*
X303029Y161598D01*
X302913Y162183D01*
X302581Y162680D01*
X302085Y163011D01*
X301500Y163127D01*
D02*
G37*
G36*
X327653Y159000D02*
X326315D01*
Y157662D01*
X326556Y157710D01*
X327185Y158130D01*
X327605Y158759D01*
X327653Y159000D01*
D02*
G37*
G36*
X325315D02*
X323977D01*
X324025Y158759D01*
X324445Y158130D01*
X325074Y157710D01*
X325315Y157662D01*
Y159000D01*
D02*
G37*
G36*
X39000Y162494D02*
X38415Y162378D01*
X37919Y162046D01*
X37587Y161550D01*
X37471Y160965D01*
X37587Y160380D01*
X37919Y159883D01*
X38415Y159552D01*
X39000Y159436D01*
X39585Y159552D01*
X40081Y159883D01*
X40413Y160380D01*
X40529Y160965D01*
X40413Y161550D01*
X40081Y162046D01*
X39585Y162378D01*
X39000Y162494D01*
D02*
G37*
G36*
X326315Y161338D02*
Y160000D01*
X327653D01*
X327605Y160241D01*
X327185Y160870D01*
X326556Y161290D01*
X326315Y161338D01*
D02*
G37*
G36*
X325315D02*
X325074Y161290D01*
X324445Y160870D01*
X324025Y160241D01*
X323977Y160000D01*
X325315D01*
Y161338D01*
D02*
G37*
G36*
X173700Y167950D02*
X172998Y167810D01*
X172402Y167413D01*
X172004Y166817D01*
X171865Y166115D01*
X172004Y165413D01*
X172402Y164817D01*
X172998Y164419D01*
X173700Y164280D01*
X174402Y164419D01*
X174998Y164817D01*
X175396Y165413D01*
X175535Y166115D01*
X175396Y166817D01*
X174998Y167413D01*
X174402Y167810D01*
X173700Y167950D01*
D02*
G37*
G36*
X99900Y170759D02*
Y169115D01*
X101544D01*
X101472Y169473D01*
X100986Y170201D01*
X100258Y170687D01*
X99900Y170759D01*
D02*
G37*
G36*
X98900D02*
X98542Y170687D01*
X97814Y170201D01*
X97328Y169473D01*
X97256Y169115D01*
X98900D01*
Y170759D01*
D02*
G37*
G36*
X173272Y173258D02*
X172687Y173141D01*
X172190Y172810D01*
X171859Y172313D01*
X171742Y171728D01*
X171859Y171143D01*
X172190Y170647D01*
X172687Y170315D01*
X173272Y170199D01*
X173857Y170315D01*
X174353Y170647D01*
X174685Y171143D01*
X174801Y171728D01*
X174685Y172313D01*
X174353Y172810D01*
X173857Y173141D01*
X173272Y173258D01*
D02*
G37*
G36*
X256496Y176307D02*
X252059D01*
Y170689D01*
X256496D01*
Y176307D01*
D02*
G37*
G36*
X60000Y176627D02*
X59191Y176520D01*
X58437Y176208D01*
X57789Y175711D01*
X57292Y175063D01*
X56980Y174309D01*
X56873Y173500D01*
X56980Y172691D01*
X57292Y171937D01*
X57789Y171289D01*
X58437Y170792D01*
X59191Y170480D01*
X60000Y170373D01*
X60809Y170480D01*
X61563Y170792D01*
X62211Y171289D01*
X62708Y171937D01*
X63020Y172691D01*
X63127Y173500D01*
X63020Y174309D01*
X62708Y175063D01*
X62211Y175711D01*
X61563Y176208D01*
X60809Y176520D01*
X60000Y176627D01*
D02*
G37*
G36*
X206242Y169727D02*
Y168389D01*
X207579D01*
X207531Y168630D01*
X207112Y169259D01*
X206483Y169679D01*
X206242Y169727D01*
D02*
G37*
G36*
X207579Y167389D02*
X206242D01*
Y166051D01*
X206483Y166099D01*
X207112Y166519D01*
X207531Y167148D01*
X207579Y167389D01*
D02*
G37*
G36*
X205242D02*
X203904D01*
X203952Y167148D01*
X204372Y166519D01*
X205000Y166099D01*
X205242Y166051D01*
Y167389D01*
D02*
G37*
G36*
X98900Y168115D02*
X97256D01*
X97328Y167757D01*
X97814Y167029D01*
X98542Y166543D01*
X98900Y166471D01*
Y168115D01*
D02*
G37*
G36*
X205242Y169727D02*
X205000Y169679D01*
X204372Y169259D01*
X203952Y168630D01*
X203904Y168389D01*
X205242D01*
Y169727D01*
D02*
G37*
G36*
X101544Y168115D02*
X99900D01*
Y166471D01*
X100258Y166543D01*
X100986Y167029D01*
X101472Y167757D01*
X101544Y168115D01*
D02*
G37*
G36*
X171722Y159146D02*
X170079D01*
Y157503D01*
X170437Y157574D01*
X171165Y158060D01*
X171651Y158788D01*
X171722Y159146D01*
D02*
G37*
G36*
X223500Y150029D02*
X222915Y149913D01*
X222419Y149581D01*
X222087Y149085D01*
X221971Y148500D01*
X222087Y147915D01*
X222419Y147419D01*
X222915Y147087D01*
X223500Y146971D01*
X224085Y147087D01*
X224581Y147419D01*
X224913Y147915D01*
X225029Y148500D01*
X224913Y149085D01*
X224581Y149581D01*
X224085Y149913D01*
X223500Y150029D01*
D02*
G37*
G36*
X33500Y149029D02*
X32915Y148913D01*
X32419Y148581D01*
X32087Y148085D01*
X31971Y147500D01*
X32087Y146915D01*
X32419Y146419D01*
X32915Y146087D01*
X33500Y145971D01*
X34085Y146087D01*
X34581Y146419D01*
X34913Y146915D01*
X35029Y147500D01*
X34913Y148085D01*
X34581Y148581D01*
X34085Y148913D01*
X33500Y149029D01*
D02*
G37*
G36*
X289500Y148709D02*
X288162D01*
X288210Y148468D01*
X288630Y147840D01*
X289259Y147420D01*
X289500Y147372D01*
Y148709D01*
D02*
G37*
G36*
X169579Y150646D02*
X167935D01*
X168006Y150288D01*
X168493Y149560D01*
X169220Y149074D01*
X169579Y149003D01*
Y150646D01*
D02*
G37*
G36*
X291838Y148709D02*
X290500D01*
Y147372D01*
X290741Y147420D01*
X291370Y147840D01*
X291790Y148468D01*
X291838Y148709D01*
D02*
G37*
G36*
X192500Y146338D02*
Y145000D01*
X193838D01*
X193790Y145241D01*
X193370Y145870D01*
X192741Y146290D01*
X192500Y146338D01*
D02*
G37*
G36*
X78900Y144759D02*
Y143115D01*
X80544D01*
X80472Y143473D01*
X79986Y144201D01*
X79258Y144687D01*
X78900Y144759D01*
D02*
G37*
G36*
X77900D02*
X77542Y144687D01*
X76814Y144201D01*
X76328Y143473D01*
X76256Y143115D01*
X77900D01*
Y144759D01*
D02*
G37*
G36*
X181185Y146529D02*
X180600Y146413D01*
X180104Y146081D01*
X179772Y145585D01*
X179656Y145000D01*
X179772Y144415D01*
X180104Y143919D01*
X180600Y143587D01*
X181185Y143471D01*
X181770Y143587D01*
X182266Y143919D01*
X182598Y144415D01*
X182714Y145000D01*
X182598Y145585D01*
X182266Y146081D01*
X181770Y146413D01*
X181185Y146529D01*
D02*
G37*
G36*
X191500Y146338D02*
X191259Y146290D01*
X190630Y145870D01*
X190210Y145241D01*
X190162Y145000D01*
X191500D01*
Y146338D01*
D02*
G37*
G36*
X36941Y147065D02*
X36356Y146948D01*
X35860Y146617D01*
X35528Y146121D01*
X35412Y145535D01*
X35528Y144950D01*
X35860Y144454D01*
X36356Y144123D01*
X36941Y144006D01*
X37526Y144123D01*
X38022Y144454D01*
X38354Y144950D01*
X38470Y145535D01*
X38354Y146121D01*
X38022Y146617D01*
X37526Y146948D01*
X36941Y147065D01*
D02*
G37*
G36*
X172222Y150646D02*
X170579D01*
Y149003D01*
X170937Y149074D01*
X171665Y149560D01*
X172151Y150288D01*
X172222Y150646D01*
D02*
G37*
G36*
X60402Y162340D02*
X59593Y162233D01*
X58839Y161921D01*
X58191Y161424D01*
X57694Y160776D01*
X57382Y160022D01*
X57275Y159213D01*
X57382Y158404D01*
X57694Y157650D01*
X58191Y157002D01*
X58839Y156505D01*
X59593Y156193D01*
X60402Y156086D01*
X61211Y156193D01*
X61965Y156505D01*
X62613Y157002D01*
X63110Y157650D01*
X63422Y158404D01*
X63529Y159213D01*
X63422Y160022D01*
X63110Y160776D01*
X62613Y161424D01*
X61965Y161921D01*
X61211Y162233D01*
X60402Y162340D01*
D02*
G37*
G36*
X281218Y162915D02*
X269782D01*
Y153841D01*
X281218D01*
Y162915D01*
D02*
G37*
G36*
X39000Y158529D02*
X38415Y158413D01*
X37919Y158081D01*
X37587Y157585D01*
X37471Y157000D01*
X37501Y156845D01*
X37048Y156563D01*
X36707Y156791D01*
X36122Y156907D01*
X35537Y156791D01*
X35041Y156459D01*
X34709Y155963D01*
X34593Y155378D01*
X34709Y154793D01*
X35041Y154297D01*
X35537Y153965D01*
X36122Y153849D01*
X36707Y153965D01*
X37203Y154297D01*
X37535Y154793D01*
X37651Y155378D01*
X37621Y155533D01*
X38074Y155814D01*
X38415Y155587D01*
X39000Y155471D01*
X39585Y155587D01*
X40081Y155919D01*
X40413Y156415D01*
X40529Y157000D01*
X40413Y157585D01*
X40081Y158081D01*
X39585Y158413D01*
X39000Y158529D01*
D02*
G37*
G36*
X169079Y159146D02*
X167435D01*
X167506Y158788D01*
X167993Y158060D01*
X168720Y157574D01*
X169079Y157503D01*
Y159146D01*
D02*
G37*
G36*
X104900Y160887D02*
X104198Y160748D01*
X103602Y160350D01*
X103204Y159754D01*
X103065Y159052D01*
X103204Y158350D01*
X103602Y157754D01*
X104198Y157356D01*
X104900Y157217D01*
X105602Y157356D01*
X106198Y157754D01*
X106596Y158350D01*
X106735Y159052D01*
X106596Y159754D01*
X106198Y160350D01*
X105602Y160748D01*
X104900Y160887D01*
D02*
G37*
G36*
X173579Y156982D02*
X172876Y156842D01*
X172281Y156444D01*
X171883Y155849D01*
X171744Y155147D01*
X171883Y154444D01*
X172281Y153849D01*
X172876Y153451D01*
X173579Y153311D01*
X174281Y153451D01*
X174876Y153849D01*
X175274Y154444D01*
X175414Y155147D01*
X175274Y155849D01*
X174876Y156444D01*
X174281Y156842D01*
X173579Y156982D01*
D02*
G37*
G36*
X290500Y151047D02*
Y149709D01*
X291838D01*
X291790Y149951D01*
X291370Y150579D01*
X290741Y150999D01*
X290500Y151047D01*
D02*
G37*
G36*
X289500D02*
X289259Y150999D01*
X288630Y150579D01*
X288210Y149951D01*
X288162Y149709D01*
X289500D01*
Y151047D01*
D02*
G37*
G36*
X169579Y153290D02*
X169220Y153219D01*
X168493Y152733D01*
X168006Y152005D01*
X167935Y151646D01*
X169579D01*
Y153290D01*
D02*
G37*
G36*
X121300Y156050D02*
X120598Y155911D01*
X120002Y155513D01*
X119604Y154917D01*
X119465Y154215D01*
X119604Y153513D01*
X120002Y152917D01*
X120598Y152519D01*
X121300Y152380D01*
X122002Y152519D01*
X122598Y152917D01*
X122996Y153513D01*
X123135Y154215D01*
X122996Y154917D01*
X122598Y155513D01*
X122002Y155911D01*
X121300Y156050D01*
D02*
G37*
G36*
X170579Y153290D02*
Y151646D01*
X172222D01*
X172151Y152005D01*
X171665Y152733D01*
X170937Y153219D01*
X170579Y153290D01*
D02*
G37*
G36*
X149606Y204371D02*
X148679Y204249D01*
X147815Y203891D01*
X147072Y203321D01*
X146503Y202579D01*
X146145Y201715D01*
X146023Y200787D01*
X146145Y199860D01*
X146503Y198996D01*
X147072Y198254D01*
X147815Y197684D01*
X148679Y197326D01*
X149606Y197204D01*
X150534Y197326D01*
X151398Y197684D01*
X152140Y198254D01*
X152709Y198996D01*
X153068Y199860D01*
X153190Y200787D01*
X153068Y201715D01*
X152709Y202579D01*
X152140Y203321D01*
X151398Y203891D01*
X150534Y204249D01*
X149606Y204371D01*
D02*
G37*
G36*
X141732D02*
X140805Y204249D01*
X139941Y203891D01*
X139198Y203321D01*
X138629Y202579D01*
X138271Y201715D01*
X138149Y200787D01*
X138271Y199860D01*
X138629Y198996D01*
X139198Y198254D01*
X139941Y197684D01*
X140805Y197326D01*
X141732Y197204D01*
X142660Y197326D01*
X143524Y197684D01*
X144266Y198254D01*
X144835Y198996D01*
X145194Y199860D01*
X145316Y200787D01*
X145194Y201715D01*
X144835Y202579D01*
X144266Y203321D01*
X143524Y203891D01*
X142660Y204249D01*
X141732Y204371D01*
D02*
G37*
G36*
X165354D02*
X164427Y204249D01*
X163563Y203891D01*
X162820Y203321D01*
X162251Y202579D01*
X161893Y201715D01*
X161771Y200787D01*
X161893Y199860D01*
X162251Y198996D01*
X162820Y198254D01*
X163563Y197684D01*
X164427Y197326D01*
X165354Y197204D01*
X166282Y197326D01*
X167146Y197684D01*
X167888Y198254D01*
X168458Y198996D01*
X168816Y199860D01*
X168938Y200787D01*
X168816Y201715D01*
X168458Y202579D01*
X167888Y203321D01*
X167146Y203891D01*
X166282Y204249D01*
X165354Y204371D01*
D02*
G37*
G36*
X321000Y201029D02*
X320415Y200913D01*
X319919Y200581D01*
X319587Y200085D01*
X319471Y199500D01*
X319587Y198915D01*
X319919Y198419D01*
X320415Y198087D01*
X321000Y197971D01*
X321585Y198087D01*
X322081Y198419D01*
X322413Y198915D01*
X322529Y199500D01*
X322413Y200085D01*
X322081Y200581D01*
X321585Y200913D01*
X321000Y201029D01*
D02*
G37*
G36*
X173228Y204371D02*
X172301Y204249D01*
X171437Y203891D01*
X170694Y203321D01*
X170125Y202579D01*
X169767Y201715D01*
X169645Y200787D01*
X169767Y199860D01*
X170125Y198996D01*
X170694Y198254D01*
X171437Y197684D01*
X172301Y197326D01*
X173228Y197204D01*
X174156Y197326D01*
X175020Y197684D01*
X175762Y198254D01*
X176332Y198996D01*
X176690Y199860D01*
X176812Y200787D01*
X176690Y201715D01*
X176332Y202579D01*
X175762Y203321D01*
X175020Y203891D01*
X174156Y204249D01*
X173228Y204371D01*
D02*
G37*
G36*
X157480D02*
X156553Y204249D01*
X155689Y203891D01*
X154946Y203321D01*
X154377Y202579D01*
X154019Y201715D01*
X153897Y200787D01*
X154019Y199860D01*
X154377Y198996D01*
X154946Y198254D01*
X155689Y197684D01*
X156553Y197326D01*
X157480Y197204D01*
X158408Y197326D01*
X159272Y197684D01*
X159321Y197721D01*
X160533Y196509D01*
Y195548D01*
X160060Y195388D01*
X160014Y195447D01*
X159272Y196017D01*
X158408Y196375D01*
X157480Y196497D01*
X156553Y196375D01*
X155689Y196017D01*
X154946Y195447D01*
X154377Y194705D01*
X154019Y193841D01*
X153897Y192913D01*
X154019Y191986D01*
X154377Y191122D01*
X154946Y190380D01*
X155689Y189810D01*
X156553Y189452D01*
X156614Y189444D01*
Y173948D01*
X155316Y172650D01*
X155128Y172369D01*
X155062Y172037D01*
Y168997D01*
X155128Y168665D01*
X155316Y168384D01*
X156614Y167086D01*
Y132060D01*
X156328Y131974D01*
X156114Y131931D01*
X155406Y132404D01*
X155047Y132475D01*
Y130332D01*
Y128188D01*
X155406Y128259D01*
X156114Y128732D01*
X156328Y128690D01*
X156614Y128603D01*
Y122520D01*
X156679Y122188D01*
X156867Y121907D01*
X160887Y117887D01*
X161168Y117699D01*
X161500Y117633D01*
X175641D01*
X178246Y115029D01*
X178054Y114567D01*
X134243D01*
X132434Y116375D01*
Y121209D01*
X134471Y123245D01*
X134659Y123527D01*
X134725Y123858D01*
Y160465D01*
X134660Y160790D01*
X135313Y160919D01*
X135908Y161317D01*
X136306Y161913D01*
X136445Y162615D01*
X136306Y163317D01*
X135908Y163913D01*
X135313Y164311D01*
X134969Y164379D01*
Y164889D01*
X135281Y164951D01*
X135877Y165349D01*
X136274Y165944D01*
X136414Y166647D01*
X136274Y167349D01*
X135877Y167944D01*
X135281Y168342D01*
X134579Y168482D01*
X133876Y168342D01*
X133281Y167944D01*
X132883Y167349D01*
X132867Y167266D01*
X132367Y167315D01*
Y170767D01*
X134067Y172468D01*
X134255Y172749D01*
X134321Y173081D01*
Y189391D01*
X134786Y189452D01*
X135650Y189810D01*
X136392Y190380D01*
X136961Y191122D01*
X137320Y191986D01*
X137442Y192913D01*
X137320Y193841D01*
X136961Y194705D01*
X136392Y195447D01*
X135650Y196017D01*
X134786Y196375D01*
X133858Y196497D01*
X132931Y196375D01*
X132067Y196017D01*
X131324Y195447D01*
X131296Y195410D01*
X130822Y195570D01*
Y197097D01*
X131695Y197969D01*
X132067Y197684D01*
X132931Y197326D01*
X133858Y197204D01*
X134786Y197326D01*
X135650Y197684D01*
X136392Y198254D01*
X136961Y198996D01*
X137320Y199860D01*
X137442Y200787D01*
X137320Y201715D01*
X136961Y202579D01*
X136392Y203321D01*
X135650Y203891D01*
X134786Y204249D01*
X133858Y204371D01*
X132931Y204249D01*
X132067Y203891D01*
X131324Y203321D01*
X130755Y202579D01*
X130397Y201715D01*
X130275Y200787D01*
X130397Y199860D01*
X130613Y199338D01*
X129343Y198068D01*
X129155Y197787D01*
X129089Y197455D01*
Y195525D01*
X128589Y195355D01*
X128518Y195447D01*
X127776Y196017D01*
X126912Y196375D01*
X125984Y196497D01*
X125057Y196375D01*
X124193Y196017D01*
X123450Y195447D01*
X122881Y194705D01*
X122523Y193841D01*
X122401Y192913D01*
X122523Y191986D01*
X122881Y191122D01*
X123450Y190380D01*
X124193Y189810D01*
X125057Y189452D01*
X125118Y189444D01*
Y159451D01*
X124816Y159150D01*
X124628Y158869D01*
X124562Y158537D01*
Y156756D01*
X124628Y156424D01*
X124816Y156143D01*
X125118Y155842D01*
Y154451D01*
X124816Y154150D01*
X124628Y153869D01*
X124562Y153537D01*
Y151756D01*
X124628Y151424D01*
X124816Y151143D01*
X125118Y150841D01*
Y116016D01*
X125133Y115936D01*
Y113341D01*
X125199Y113009D01*
X125387Y112728D01*
X126228Y111887D01*
X126509Y111699D01*
X126841Y111633D01*
X204197D01*
X204529Y111699D01*
X204810Y111887D01*
X212208Y119285D01*
X241141D01*
X243133Y117292D01*
Y90359D01*
X235508Y82734D01*
X235000Y82835D01*
X234298Y82696D01*
X233702Y82298D01*
X233304Y81702D01*
X233165Y81000D01*
X233304Y80298D01*
X233702Y79702D01*
X234298Y79304D01*
X235000Y79165D01*
X235702Y79304D01*
X236298Y79702D01*
X236696Y80298D01*
X236835Y81000D01*
X236734Y81508D01*
X244613Y89387D01*
X244801Y89668D01*
X244867Y90000D01*
Y97352D01*
X245367Y97619D01*
X245415Y97587D01*
X246000Y97471D01*
X246585Y97587D01*
X247081Y97919D01*
X247413Y98415D01*
X247529Y99000D01*
X247413Y99585D01*
X247081Y100081D01*
X246585Y100413D01*
X246000Y100529D01*
X245415Y100413D01*
X245367Y100381D01*
X244867Y100648D01*
Y117651D01*
X244801Y117983D01*
X244613Y118264D01*
X242854Y120023D01*
X243046Y120485D01*
X290987D01*
X294113Y117359D01*
Y103987D01*
X293651Y103796D01*
X292926Y104521D01*
X292913Y104585D01*
X292581Y105081D01*
X292085Y105413D01*
X291500Y105529D01*
X290915Y105413D01*
X290419Y105081D01*
X290087Y104585D01*
X289971Y104000D01*
X290087Y103415D01*
X290419Y102919D01*
X290915Y102587D01*
X290979Y102574D01*
X291903Y101650D01*
Y98749D01*
X291403Y98482D01*
X291241Y98590D01*
X291000Y98638D01*
Y96800D01*
Y94962D01*
X291241Y95010D01*
X291403Y95118D01*
X291903Y94851D01*
Y83894D01*
X291848Y83846D01*
X291403Y83672D01*
X291043Y83913D01*
X290458Y84029D01*
X289872Y83913D01*
X289376Y83581D01*
X289044Y83085D01*
X288928Y82500D01*
X289044Y81915D01*
X289376Y81419D01*
X289872Y81087D01*
X290458Y80971D01*
X291043Y81087D01*
X291403Y81328D01*
X291848Y81154D01*
X291903Y81106D01*
Y78602D01*
X292008Y78075D01*
X292306Y77628D01*
X297156Y72779D01*
X297156Y72779D01*
X297602Y72481D01*
X298129Y72376D01*
X298129Y72376D01*
X300076D01*
X300603Y72481D01*
X301049Y72779D01*
X303473Y75203D01*
X303473Y75203D01*
X303772Y75650D01*
X303876Y76177D01*
Y77360D01*
X303913Y77415D01*
X304029Y78000D01*
X303913Y78585D01*
X303581Y79081D01*
X303085Y79413D01*
X302500Y79529D01*
X301915Y79413D01*
X301419Y79081D01*
X301087Y78585D01*
X300971Y78000D01*
X301087Y77415D01*
X300876Y77303D01*
X300623Y77246D01*
X300472Y77472D01*
X299844Y77892D01*
X299602Y77940D01*
Y76102D01*
X298602D01*
Y77940D01*
X298361Y77892D01*
X297732Y77472D01*
X297464Y77071D01*
X296865Y76963D01*
X294656Y79172D01*
Y86355D01*
X295118Y86546D01*
X295466Y86198D01*
X295415Y85945D01*
X295532Y85360D01*
X295863Y84863D01*
X296360Y84532D01*
X296945Y84416D01*
X297094Y83935D01*
X297234Y83235D01*
X297654Y82607D01*
X298282Y82187D01*
X298524Y82139D01*
Y83976D01*
Y85896D01*
X298474Y85945D01*
X298358Y86530D01*
X298026Y87026D01*
X297530Y87358D01*
X296945Y87474D01*
X296691Y87424D01*
X295846Y88269D01*
Y117718D01*
X295780Y118049D01*
X295592Y118330D01*
X291958Y121964D01*
X291677Y122152D01*
X291346Y122218D01*
X255546D01*
X255354Y122680D01*
X255807Y123133D01*
X284059D01*
X284391Y123199D01*
X284672Y123387D01*
X291349Y130064D01*
X291822Y129954D01*
X291883Y129891D01*
X292198Y129419D01*
X292694Y129087D01*
X292787Y128559D01*
X292682Y128400D01*
X292565Y127815D01*
X292682Y127230D01*
X293013Y126734D01*
X293509Y126402D01*
X294094Y126286D01*
X294680Y126402D01*
X295176Y126734D01*
X295508Y127230D01*
X295624Y127815D01*
X295508Y128400D01*
X295176Y128896D01*
X294680Y129228D01*
X294587Y129756D01*
X294692Y129915D01*
X294809Y130500D01*
X294692Y131085D01*
X294361Y131581D01*
X294112Y131747D01*
X294218Y132278D01*
X294365Y132308D01*
X294861Y132639D01*
X295193Y133135D01*
X295309Y133721D01*
X295193Y134306D01*
X294861Y134802D01*
X294365Y135133D01*
X294340Y135138D01*
X294175Y135681D01*
X294673Y136179D01*
X294812Y136151D01*
X295248Y135779D01*
X295231Y135689D01*
X295347Y135104D01*
X295678Y134608D01*
X296175Y134276D01*
X296760Y134160D01*
X297345Y134276D01*
X297841Y134608D01*
X298173Y135104D01*
X298289Y135689D01*
X298173Y136274D01*
X297841Y136770D01*
X297345Y137102D01*
X296873Y137196D01*
X296437Y137567D01*
X296455Y137657D01*
X296339Y138243D01*
X296007Y138739D01*
X295511Y139070D01*
X294926Y139187D01*
X294828Y139500D01*
X295287Y139837D01*
X302217D01*
X308624Y133430D01*
Y54570D01*
X305177Y51123D01*
X304878Y50677D01*
X304773Y50150D01*
Y47834D01*
X303316Y46376D01*
X277239D01*
X276972Y46876D01*
X277098Y47065D01*
X277214Y47650D01*
X277098Y48235D01*
X276766Y48731D01*
X276270Y49063D01*
X275685Y49179D01*
X275100Y49063D01*
X274604Y48731D01*
X274272Y48235D01*
X274156Y47650D01*
X274272Y47065D01*
X274398Y46876D01*
X274131Y46376D01*
X245252D01*
X244905Y46723D01*
X244459Y47022D01*
X243932Y47126D01*
X242068D01*
X241541Y47022D01*
X241095Y46723D01*
X240748Y46376D01*
X218136D01*
X217901Y46330D01*
X217369Y46440D01*
X216931Y47096D01*
X216274Y47534D01*
X216000Y47589D01*
Y45665D01*
X215000D01*
Y47589D01*
X214726Y47534D01*
X214069Y47096D01*
X213631Y46440D01*
X213099Y46330D01*
X212864Y46376D01*
X210070D01*
X209973Y46473D01*
X209527Y46772D01*
X209000Y46876D01*
X197140D01*
X197085Y46913D01*
X196500Y47029D01*
X195915Y46913D01*
X195419Y46581D01*
X195087Y46085D01*
X194971Y45500D01*
X195087Y44915D01*
X195419Y44419D01*
X195915Y44087D01*
X196500Y43971D01*
X197085Y44087D01*
X197140Y44124D01*
X208430D01*
X208527Y44027D01*
X208527Y44027D01*
X208973Y43728D01*
X209500Y43624D01*
X209500Y43624D01*
X212294D01*
X213560Y42358D01*
X213719Y42252D01*
X213859Y41624D01*
X213853Y41606D01*
X213631Y41274D01*
X213576Y41000D01*
X217424D01*
X217369Y41274D01*
X217147Y41606D01*
X217141Y41624D01*
X217281Y42252D01*
X217440Y42358D01*
X218706Y43624D01*
X240961D01*
X241063Y43500D01*
X241210Y42759D01*
X241630Y42130D01*
X242259Y41710D01*
X242500Y41662D01*
Y43500D01*
X243500D01*
Y41662D01*
X243741Y41710D01*
X244370Y42130D01*
X244790Y42759D01*
X244937Y43500D01*
X245039Y43624D01*
X303886D01*
X304413Y43728D01*
X304859Y44027D01*
X307123Y46291D01*
X307123Y46291D01*
X307422Y46737D01*
X307526Y47264D01*
Y49580D01*
X310973Y53027D01*
X311272Y53473D01*
X311377Y54000D01*
Y134000D01*
X311377Y134000D01*
X311272Y134527D01*
X310973Y134973D01*
X303760Y142186D01*
X303314Y142485D01*
X302787Y142589D01*
X299793D01*
X299519Y143089D01*
X299613Y143563D01*
X299496Y144148D01*
X299404Y144287D01*
X299671Y144787D01*
X304266D01*
X304598Y144853D01*
X304879Y145041D01*
X305471Y145633D01*
X307656D01*
X313133Y140156D01*
Y47212D01*
X313199Y46880D01*
X313387Y46599D01*
X320724Y39262D01*
X320710Y39241D01*
X320563Y38500D01*
X320710Y37759D01*
X321130Y37130D01*
X321759Y36710D01*
X322182Y36626D01*
X322133Y36384D01*
Y27367D01*
X293591D01*
X293259Y27301D01*
X292978Y27113D01*
X290232Y24367D01*
X287225D01*
X287081Y24581D01*
X286585Y24913D01*
X286000Y25029D01*
X285415Y24913D01*
X284919Y24581D01*
X284587Y24085D01*
X284471Y23500D01*
X284587Y22915D01*
X284919Y22419D01*
X285415Y22087D01*
X286000Y21971D01*
X286585Y22087D01*
X287081Y22419D01*
X287225Y22633D01*
X290591D01*
X290627Y22641D01*
X290873Y22180D01*
X290398Y21704D01*
X290085Y21913D01*
X289500Y22029D01*
X288915Y21913D01*
X288419Y21581D01*
X288087Y21085D01*
X287971Y20500D01*
X288087Y19915D01*
X288419Y19419D01*
X288915Y19087D01*
X289500Y18971D01*
X290085Y19087D01*
X290581Y19419D01*
X290784Y19721D01*
X291032Y19887D01*
X294778Y23633D01*
X323500D01*
X323832Y23699D01*
X324113Y23887D01*
X325613Y25387D01*
X325801Y25668D01*
X325867Y26000D01*
Y28632D01*
X326016Y28738D01*
X326367Y28853D01*
X326765Y28587D01*
X327350Y28471D01*
X327936Y28587D01*
X328432Y28919D01*
X328763Y29415D01*
X328880Y30000D01*
X328763Y30585D01*
X328432Y31081D01*
X327936Y31413D01*
X327350Y31529D01*
X326765Y31413D01*
X326367Y31147D01*
X326016Y31262D01*
X325867Y31368D01*
Y35196D01*
X326963Y36292D01*
X327151Y36574D01*
X327217Y36905D01*
Y37690D01*
X327151Y38022D01*
X327117Y38073D01*
Y40053D01*
X327051Y40385D01*
X326863Y40666D01*
X324666Y42863D01*
X324385Y43051D01*
X324053Y43117D01*
X322149D01*
X316867Y48399D01*
Y53319D01*
X317365Y53587D01*
X317950Y53471D01*
X318535Y53587D01*
X319031Y53919D01*
X319335Y54374D01*
X319600Y54399D01*
X319865Y54374D01*
X320169Y53919D01*
X320665Y53587D01*
X321250Y53471D01*
X321835Y53587D01*
X322331Y53919D01*
X322663Y54415D01*
X322779Y55000D01*
X322663Y55585D01*
X322331Y56081D01*
X321835Y56413D01*
X321467Y56486D01*
Y143102D01*
X321401Y143434D01*
X321213Y143715D01*
X307941Y156987D01*
X307660Y157175D01*
X307328Y157241D01*
X304460D01*
X303964Y157737D01*
X303682Y157925D01*
X303351Y157991D01*
X298658D01*
X298581Y158105D01*
X298085Y158437D01*
X297500Y158553D01*
X296915Y158437D01*
X296419Y158105D01*
X296087Y157609D01*
X295971Y157024D01*
X296087Y156439D01*
X296419Y155943D01*
X296873Y155639D01*
X296899Y155374D01*
X296873Y155109D01*
X296419Y154805D01*
X296087Y154309D01*
X295971Y153724D01*
X296087Y153139D01*
X296419Y152643D01*
X296915Y152311D01*
X297500Y152195D01*
X298085Y152311D01*
X298581Y152643D01*
X298658Y152757D01*
X303351D01*
X303682Y152823D01*
X303964Y153011D01*
X304460Y153507D01*
X306141D01*
X317733Y141915D01*
Y56692D01*
X317295Y56508D01*
X316867Y56768D01*
Y141343D01*
X316801Y141675D01*
X316613Y141956D01*
X309456Y149113D01*
X309175Y149301D01*
X308843Y149367D01*
X305479D01*
X304879Y149967D01*
X304598Y150155D01*
X304266Y150221D01*
X296589D01*
X296581Y150231D01*
X296085Y150563D01*
X295500Y150679D01*
X294915Y150563D01*
X294419Y150231D01*
X294087Y149735D01*
X293971Y149150D01*
X294087Y148565D01*
X294419Y148069D01*
X294873Y147765D01*
X294899Y147500D01*
X294873Y147235D01*
X294419Y146931D01*
X294087Y146435D01*
X293971Y145850D01*
X294087Y145265D01*
X294419Y144769D01*
X294113Y144395D01*
X294085Y144413D01*
X293500Y144529D01*
X292915Y144413D01*
X292419Y144081D01*
X292087Y143585D01*
X291971Y143000D01*
X292087Y142415D01*
X292419Y141919D01*
X292848Y141631D01*
X292811Y141280D01*
X292721Y141125D01*
X292289Y141039D01*
X291793Y140707D01*
X291461Y140211D01*
X291345Y139626D01*
X291461Y139041D01*
X291793Y138544D01*
X292289Y138213D01*
X292874Y138097D01*
X292978Y138117D01*
X293404Y137692D01*
X293397Y137657D01*
X293447Y137404D01*
X290887Y134844D01*
X290699Y134563D01*
X290633Y134231D01*
Y133497D01*
X283203Y126067D01*
X254952D01*
X254620Y126001D01*
X254339Y125813D01*
X253144Y124618D01*
X210357D01*
X210026Y124552D01*
X209745Y124364D01*
X202347Y116967D01*
X180456D01*
X177110Y120313D01*
X176829Y120501D01*
X176497Y120567D01*
X163159D01*
X163095Y120630D01*
Y144537D01*
X163029Y144869D01*
X162842Y145150D01*
X162267Y145725D01*
Y190323D01*
X162740Y190484D01*
X162820Y190380D01*
X163563Y189810D01*
X164427Y189452D01*
X165354Y189330D01*
X166282Y189452D01*
X167146Y189810D01*
X167888Y190380D01*
X168458Y191122D01*
X168816Y191986D01*
X168938Y192913D01*
X168816Y193841D01*
X168458Y194705D01*
X167888Y195447D01*
X167146Y196017D01*
X166282Y196375D01*
X165354Y196497D01*
X164427Y196375D01*
X163563Y196017D01*
X162820Y195447D01*
X162740Y195343D01*
X162267Y195503D01*
Y196868D01*
X162201Y197199D01*
X162013Y197480D01*
X160546Y198947D01*
X160583Y198996D01*
X160942Y199860D01*
X161064Y200787D01*
X160942Y201715D01*
X160583Y202579D01*
X160014Y203321D01*
X159272Y203891D01*
X158408Y204249D01*
X157480Y204371D01*
D02*
G37*
G36*
X86614D02*
X85687Y204249D01*
X84822Y203891D01*
X84080Y203321D01*
X83511Y202579D01*
X83153Y201715D01*
X83031Y200787D01*
X83153Y199860D01*
X83511Y198996D01*
X84080Y198254D01*
X84822Y197684D01*
X85687Y197326D01*
X86614Y197204D01*
X87542Y197326D01*
X88406Y197684D01*
X89148Y198254D01*
X89718Y198996D01*
X90075Y199860D01*
X90198Y200787D01*
X90075Y201715D01*
X89718Y202579D01*
X89148Y203321D01*
X88406Y203891D01*
X87542Y204249D01*
X86614Y204371D01*
D02*
G37*
G36*
X316269Y197569D02*
X314932D01*
Y196231D01*
X315173Y196279D01*
X315801Y196699D01*
X316221Y197327D01*
X316269Y197569D01*
D02*
G37*
G36*
X102362Y204371D02*
X101435Y204249D01*
X100570Y203891D01*
X99828Y203321D01*
X99259Y202579D01*
X98901Y201715D01*
X98779Y200787D01*
X98901Y199860D01*
X99259Y198996D01*
X99828Y198254D01*
X100570Y197684D01*
X101435Y197326D01*
X102362Y197204D01*
X103290Y197326D01*
X104154Y197684D01*
X104896Y198254D01*
X105465Y198996D01*
X105824Y199860D01*
X105946Y200787D01*
X105824Y201715D01*
X105465Y202579D01*
X104896Y203321D01*
X104154Y203891D01*
X103290Y204249D01*
X102362Y204371D01*
D02*
G37*
G36*
X118110D02*
X117183Y204249D01*
X116319Y203891D01*
X115576Y203321D01*
X115007Y202579D01*
X114649Y201715D01*
X114527Y200787D01*
X114649Y199860D01*
X115007Y198996D01*
X115576Y198254D01*
X116319Y197684D01*
X117183Y197326D01*
X118110Y197204D01*
X119038Y197326D01*
X119902Y197684D01*
X120644Y198254D01*
X121213Y198996D01*
X121572Y199860D01*
X121694Y200787D01*
X121572Y201715D01*
X121213Y202579D01*
X120644Y203321D01*
X119902Y203891D01*
X119038Y204249D01*
X118110Y204371D01*
D02*
G37*
G36*
X110236D02*
X109309Y204249D01*
X108444Y203891D01*
X107702Y203321D01*
X107133Y202579D01*
X106775Y201715D01*
X106653Y200787D01*
X106775Y199860D01*
X107133Y198996D01*
X107702Y198254D01*
X108444Y197684D01*
X109309Y197326D01*
X110236Y197204D01*
X111164Y197326D01*
X112028Y197684D01*
X112770Y198254D01*
X113339Y198996D01*
X113698Y199860D01*
X113820Y200787D01*
X113698Y201715D01*
X113339Y202579D01*
X112770Y203321D01*
X112028Y203891D01*
X111164Y204249D01*
X110236Y204371D01*
D02*
G37*
G36*
X313931Y199906D02*
X313690Y199858D01*
X313062Y199438D01*
X312642Y198810D01*
X312594Y198568D01*
X313931D01*
Y199906D01*
D02*
G37*
G36*
X230000Y208867D02*
X129500D01*
X129168Y208801D01*
X128887Y208613D01*
X125371Y205097D01*
X125183Y204816D01*
X125118Y204484D01*
Y204257D01*
X125057Y204249D01*
X124193Y203891D01*
X123450Y203321D01*
X122881Y202579D01*
X122523Y201715D01*
X122401Y200787D01*
X122523Y199860D01*
X122881Y198996D01*
X123450Y198254D01*
X124193Y197684D01*
X125057Y197326D01*
X125984Y197204D01*
X126912Y197326D01*
X127776Y197684D01*
X128518Y198254D01*
X129087Y198996D01*
X129446Y199860D01*
X129568Y200787D01*
X129446Y201715D01*
X129087Y202579D01*
X128518Y203321D01*
X127776Y203891D01*
X127372Y204058D01*
X127274Y204549D01*
X129859Y207133D01*
X229633D01*
Y204725D01*
X229419Y204581D01*
X229087Y204085D01*
X228971Y203500D01*
X229087Y202915D01*
X229419Y202419D01*
X229915Y202087D01*
X230500Y201971D01*
X231085Y202087D01*
X231581Y202419D01*
X231913Y202915D01*
X232029Y203500D01*
X231913Y204085D01*
X231581Y204581D01*
X231367Y204725D01*
Y207500D01*
X231301Y207832D01*
X231113Y208113D01*
X230613Y208613D01*
X230332Y208801D01*
X230000Y208867D01*
D02*
G37*
G36*
X202299Y203039D02*
X200961D01*
Y201701D01*
X201203Y201749D01*
X201831Y202169D01*
X202251Y202797D01*
X202299Y203039D01*
D02*
G37*
G36*
X199961Y205376D02*
X199720Y205328D01*
X199092Y204908D01*
X198672Y204280D01*
X198624Y204039D01*
X199961D01*
Y205376D01*
D02*
G37*
G36*
X14500Y207529D02*
X13915Y207413D01*
X13419Y207081D01*
X13081D01*
X12585Y207413D01*
X12000Y207529D01*
X11415Y207413D01*
X10919Y207081D01*
X10587Y206585D01*
X10471Y206000D01*
X10587Y205415D01*
X10919Y204919D01*
X11415Y204587D01*
X12000Y204471D01*
X12585Y204587D01*
X13081Y204919D01*
X13419D01*
X13915Y204587D01*
X14500Y204471D01*
X15085Y204587D01*
X15581Y204919D01*
X15913Y205415D01*
X16029Y206000D01*
X15913Y206585D01*
X15581Y207081D01*
X15085Y207413D01*
X14500Y207529D01*
D02*
G37*
G36*
X200961Y205376D02*
Y204039D01*
X202299D01*
X202251Y204280D01*
X201831Y204908D01*
X201203Y205328D01*
X200961Y205376D01*
D02*
G37*
G36*
X199961Y203039D02*
X198624D01*
X198672Y202797D01*
X199092Y202169D01*
X199720Y201749D01*
X199961Y201701D01*
Y203039D01*
D02*
G37*
G36*
X301500Y206627D02*
X300691Y206520D01*
X299937Y206208D01*
X299289Y205711D01*
X298792Y205063D01*
X298480Y204309D01*
X298373Y203500D01*
X298480Y202691D01*
X298792Y201937D01*
X299289Y201289D01*
X299937Y200792D01*
X300691Y200480D01*
X301500Y200373D01*
X302309Y200480D01*
X303063Y200792D01*
X303711Y201289D01*
X304208Y201937D01*
X304520Y202691D01*
X304627Y203500D01*
X304520Y204309D01*
X304208Y205063D01*
X303711Y205711D01*
X303063Y206208D01*
X302309Y206520D01*
X301500Y206627D01*
D02*
G37*
G36*
X314932Y199906D02*
Y198568D01*
X316269D01*
X316221Y198810D01*
X315801Y199438D01*
X315173Y199858D01*
X314932Y199906D01*
D02*
G37*
G36*
X38870Y204708D02*
X38338Y204638D01*
X37377Y204240D01*
X36551Y203607D01*
X35917Y202781D01*
X35519Y201819D01*
X35449Y201287D01*
X38870D01*
Y204708D01*
D02*
G37*
G36*
X188476D02*
X187944Y204638D01*
X186983Y204240D01*
X186157Y203607D01*
X185524Y202781D01*
X185125Y201819D01*
X185090Y201549D01*
X184585D01*
X184564Y201715D01*
X184206Y202579D01*
X183636Y203321D01*
X182894Y203891D01*
X182030Y204249D01*
X181102Y204371D01*
X180175Y204249D01*
X179311Y203891D01*
X178568Y203321D01*
X177999Y202579D01*
X177641Y201715D01*
X177519Y200787D01*
X177641Y199860D01*
X177999Y198996D01*
X178568Y198254D01*
X179311Y197684D01*
X180175Y197326D01*
X181102Y197204D01*
X182030Y197326D01*
X182894Y197684D01*
X183636Y198254D01*
X184206Y198996D01*
X184564Y199860D01*
X184585Y200026D01*
X185090D01*
X185125Y199756D01*
X185524Y198794D01*
X186157Y197968D01*
X186983Y197335D01*
X187499Y197121D01*
Y196580D01*
X186983Y196366D01*
X186157Y195732D01*
X185524Y194907D01*
X185125Y193945D01*
X185090Y193675D01*
X184585D01*
X184564Y193841D01*
X184206Y194705D01*
X183636Y195447D01*
X182894Y196017D01*
X182030Y196375D01*
X181102Y196497D01*
X180175Y196375D01*
X179311Y196017D01*
X178568Y195447D01*
X177999Y194705D01*
X177641Y193841D01*
X177519Y192913D01*
X177641Y191986D01*
X177999Y191122D01*
X178568Y190380D01*
X179311Y189810D01*
X180175Y189452D01*
X181102Y189330D01*
X182030Y189452D01*
X182894Y189810D01*
X183636Y190380D01*
X184206Y191122D01*
X184564Y191986D01*
X184585Y192152D01*
X185090D01*
X185125Y191882D01*
X185524Y190920D01*
X186157Y190094D01*
X186983Y189461D01*
X187944Y189062D01*
X188476Y188992D01*
Y192913D01*
X188976D01*
Y193413D01*
X192897D01*
X192827Y193945D01*
X192429Y194907D01*
X191795Y195732D01*
X190970Y196366D01*
X190454Y196580D01*
Y197121D01*
X190970Y197335D01*
X191795Y197968D01*
X192429Y198794D01*
X192827Y199756D01*
X192897Y200287D01*
X188976D01*
Y200787D01*
X188476D01*
Y204708D01*
D02*
G37*
G36*
X189476D02*
Y201287D01*
X192897D01*
X192827Y201819D01*
X192429Y202781D01*
X191795Y203607D01*
X190970Y204240D01*
X190008Y204638D01*
X189476Y204708D01*
D02*
G37*
G36*
X313931Y197569D02*
X312594D01*
X312642Y197327D01*
X313062Y196699D01*
X313690Y196279D01*
X313931Y196231D01*
Y197569D01*
D02*
G37*
G36*
X176376Y183039D02*
X175039D01*
Y181701D01*
X175280Y181749D01*
X175908Y182169D01*
X176328Y182797D01*
X176376Y183039D01*
D02*
G37*
G36*
X174039D02*
X172701D01*
X172749Y182797D01*
X173169Y182169D01*
X173797Y181749D01*
X174039Y181701D01*
Y183039D01*
D02*
G37*
G36*
X275000Y186937D02*
X269382D01*
Y182500D01*
X275000D01*
Y186937D01*
D02*
G37*
G36*
X174039Y185376D02*
X173797Y185328D01*
X173169Y184908D01*
X172749Y184280D01*
X172701Y184039D01*
X174039D01*
Y185376D01*
D02*
G37*
G36*
X281618Y186937D02*
X276000D01*
Y182500D01*
X281618D01*
Y186937D01*
D02*
G37*
G36*
X301500Y186127D02*
X300691Y186020D01*
X299937Y185708D01*
X299289Y185211D01*
X298792Y184563D01*
X298480Y183809D01*
X298373Y183000D01*
X298480Y182191D01*
X298792Y181437D01*
X299289Y180789D01*
X299937Y180292D01*
X300691Y179980D01*
X301500Y179873D01*
X302309Y179980D01*
X303063Y180292D01*
X303711Y180789D01*
X304208Y181437D01*
X304520Y182191D01*
X304627Y183000D01*
X304520Y183809D01*
X304208Y184563D01*
X303711Y185211D01*
X303063Y185708D01*
X302309Y186020D01*
X301500Y186127D01*
D02*
G37*
G36*
X67400Y178627D02*
X66591Y178520D01*
X65837Y178208D01*
X65189Y177711D01*
X64692Y177063D01*
X64380Y176309D01*
X64273Y175500D01*
X64380Y174691D01*
X64692Y173937D01*
X65189Y173289D01*
X65837Y172792D01*
X66591Y172480D01*
X67400Y172373D01*
X68209Y172480D01*
X68963Y172792D01*
X69611Y173289D01*
X70108Y173937D01*
X70420Y174691D01*
X70527Y175500D01*
X70420Y176309D01*
X70108Y177063D01*
X69611Y177711D01*
X68963Y178208D01*
X68209Y178520D01*
X67400Y178627D01*
D02*
G37*
G36*
X261933Y176307D02*
X257496D01*
Y170689D01*
X261933D01*
Y176307D01*
D02*
G37*
G36*
X118110Y196497D02*
X117183Y196375D01*
X116319Y196017D01*
X115576Y195447D01*
X115007Y194705D01*
X114649Y193841D01*
X114527Y192913D01*
X114649Y191986D01*
X115007Y191122D01*
X115576Y190380D01*
X116319Y189810D01*
X117183Y189452D01*
X117244Y189444D01*
Y179659D01*
X111565Y173980D01*
X111103Y174172D01*
Y189444D01*
X111164Y189452D01*
X112028Y189810D01*
X112770Y190380D01*
X113339Y191122D01*
X113698Y191986D01*
X113820Y192913D01*
X113698Y193841D01*
X113339Y194705D01*
X112770Y195447D01*
X112028Y196017D01*
X111164Y196375D01*
X110236Y196497D01*
X109309Y196375D01*
X108444Y196017D01*
X107702Y195447D01*
X107133Y194705D01*
X106775Y193841D01*
X106653Y192913D01*
X106775Y191986D01*
X107133Y191122D01*
X107702Y190380D01*
X108444Y189810D01*
X109309Y189452D01*
X109370Y189444D01*
Y143095D01*
X77787Y111513D01*
X77599Y111232D01*
X77533Y110900D01*
Y43759D01*
X75477Y41703D01*
X75000Y41798D01*
X74415Y41682D01*
X73919Y41350D01*
X73587Y40854D01*
X73471Y40268D01*
X73587Y39683D01*
X73919Y39187D01*
X74415Y38855D01*
X75000Y38739D01*
X75202Y38537D01*
X75318Y37952D01*
X75650Y37456D01*
X76146Y37124D01*
X76731Y37008D01*
X77317Y37124D01*
X77813Y37456D01*
X78145Y37952D01*
X78261Y38537D01*
X78211Y38790D01*
X78844Y39424D01*
X79063Y39468D01*
X79344Y39656D01*
X80213Y40524D01*
X80401Y40805D01*
X80467Y41137D01*
Y110044D01*
X112049Y141626D01*
X112237Y141908D01*
X112303Y142239D01*
Y172267D01*
X118723Y178687D01*
X118911Y178968D01*
X118977Y179300D01*
Y189444D01*
X119038Y189452D01*
X119902Y189810D01*
X120644Y190380D01*
X121213Y191122D01*
X121572Y191986D01*
X121694Y192913D01*
X121572Y193841D01*
X121213Y194705D01*
X120644Y195447D01*
X119902Y196017D01*
X119038Y196375D01*
X118110Y196497D01*
D02*
G37*
G36*
X281618Y181500D02*
X276000D01*
Y177063D01*
X281618D01*
Y181500D01*
D02*
G37*
G36*
X275000D02*
X269382D01*
Y177063D01*
X275000D01*
Y181500D01*
D02*
G37*
G36*
X175039Y185376D02*
Y184039D01*
X176376D01*
X176328Y184280D01*
X175908Y184908D01*
X175280Y185328D01*
X175039Y185376D01*
D02*
G37*
G36*
X30843Y190680D02*
X30601Y190632D01*
X29973Y190212D01*
X29553Y189584D01*
X29505Y189342D01*
X30843D01*
Y190680D01*
D02*
G37*
G36*
X173228Y196497D02*
X172301Y196375D01*
X171437Y196017D01*
X170694Y195447D01*
X170125Y194705D01*
X169767Y193841D01*
X169645Y192913D01*
X169767Y191986D01*
X170125Y191122D01*
X170694Y190380D01*
X171437Y189810D01*
X172301Y189452D01*
X173228Y189330D01*
X174156Y189452D01*
X175020Y189810D01*
X175762Y190380D01*
X176332Y191122D01*
X176690Y191986D01*
X176812Y192913D01*
X176690Y193841D01*
X176332Y194705D01*
X175762Y195447D01*
X175020Y196017D01*
X174156Y196375D01*
X173228Y196497D01*
D02*
G37*
G36*
X301500Y196627D02*
X300691Y196520D01*
X299937Y196208D01*
X299289Y195711D01*
X298792Y195063D01*
X298480Y194309D01*
X298373Y193500D01*
X298480Y192691D01*
X298792Y191937D01*
X299289Y191289D01*
X299937Y190792D01*
X300691Y190480D01*
X301500Y190373D01*
X302309Y190480D01*
X303063Y190792D01*
X303711Y191289D01*
X304208Y191937D01*
X304520Y192691D01*
X304627Y193500D01*
X304520Y194309D01*
X304208Y195063D01*
X303711Y195711D01*
X303063Y196208D01*
X302309Y196520D01*
X301500Y196627D01*
D02*
G37*
G36*
X231242Y192838D02*
Y191500D01*
X232579D01*
X232531Y191741D01*
X232112Y192370D01*
X231483Y192790D01*
X231242Y192838D01*
D02*
G37*
G36*
X230242D02*
X230000Y192790D01*
X229372Y192370D01*
X228952Y191741D01*
X228904Y191500D01*
X230242D01*
Y192838D01*
D02*
G37*
G36*
X232579Y190500D02*
X231242D01*
Y189162D01*
X231483Y189210D01*
X232112Y189630D01*
X232531Y190259D01*
X232579Y190500D01*
D02*
G37*
G36*
X198500Y190029D02*
X197915Y189913D01*
X197419Y189581D01*
X197087Y189085D01*
X196971Y188500D01*
X197087Y187915D01*
X197419Y187419D01*
X197915Y187087D01*
X198500Y186971D01*
X199085Y187087D01*
X199581Y187419D01*
X199913Y187915D01*
X200029Y188500D01*
X199913Y189085D01*
X199581Y189581D01*
X199085Y189913D01*
X198500Y190029D01*
D02*
G37*
G36*
X321496Y188029D02*
X320911Y187913D01*
X320415Y187581D01*
X320083Y187085D01*
X319967Y186500D01*
X320083Y185915D01*
X320415Y185419D01*
X320911Y185087D01*
X321496Y184971D01*
X322081Y185087D01*
X322578Y185419D01*
X322909Y185915D01*
X323025Y186500D01*
X322909Y187085D01*
X322578Y187581D01*
X322081Y187913D01*
X321496Y188029D01*
D02*
G37*
G36*
X38870Y192413D02*
X35417D01*
Y188961D01*
X38870D01*
Y192413D01*
D02*
G37*
G36*
X230242Y190500D02*
X228904D01*
X228952Y190259D01*
X229372Y189630D01*
X230000Y189210D01*
X230242Y189162D01*
Y190500D01*
D02*
G37*
G36*
X192897Y192413D02*
X189476D01*
Y188992D01*
X190008Y189062D01*
X190970Y189461D01*
X191795Y190094D01*
X192429Y190920D01*
X192827Y191882D01*
X192897Y192413D01*
D02*
G37*
G36*
X193838Y144000D02*
X192500D01*
Y142662D01*
X192741Y142710D01*
X193370Y143130D01*
X193790Y143759D01*
X193838Y144000D01*
D02*
G37*
G36*
X33554Y104217D02*
X32217D01*
Y102879D01*
X32458Y102927D01*
X33086Y103347D01*
X33506Y103975D01*
X33554Y104217D01*
D02*
G37*
G36*
X31216D02*
X29879D01*
X29927Y103975D01*
X30347Y103347D01*
X30975Y102927D01*
X31216Y102879D01*
Y104217D01*
D02*
G37*
G36*
X240000Y106335D02*
X239298Y106196D01*
X238702Y105798D01*
X238304Y105202D01*
X238165Y104500D01*
X238304Y103798D01*
X238702Y103202D01*
X239298Y102804D01*
X240000Y102665D01*
X240702Y102804D01*
X241298Y103202D01*
X241696Y103798D01*
X241835Y104500D01*
X241696Y105202D01*
X241298Y105798D01*
X240702Y106196D01*
X240000Y106335D01*
D02*
G37*
G36*
X254000Y106000D02*
X252662D01*
X252710Y105759D01*
X253130Y105130D01*
X253759Y104710D01*
X254000Y104662D01*
Y106000D01*
D02*
G37*
G36*
X275685Y107029D02*
X275100Y106913D01*
X274604Y106581D01*
X274272Y106085D01*
X274156Y105500D01*
X274272Y104915D01*
X274604Y104419D01*
X275100Y104087D01*
X275685Y103971D01*
X276270Y104087D01*
X276766Y104419D01*
X277098Y104915D01*
X277214Y105500D01*
X277098Y106085D01*
X276766Y106581D01*
X276270Y106913D01*
X275685Y107029D01*
D02*
G37*
G36*
X39370D02*
X38785Y106913D01*
X38289Y106581D01*
X37957Y106085D01*
X37841Y105500D01*
X37957Y104915D01*
X38289Y104419D01*
X38785Y104087D01*
X39370Y103971D01*
X39955Y104087D01*
X40451Y104419D01*
X40783Y104915D01*
X40900Y105500D01*
X40783Y106085D01*
X40451Y106581D01*
X39955Y106913D01*
X39370Y107029D01*
D02*
G37*
G36*
X324713Y103029D02*
X324128Y102913D01*
X323632Y102581D01*
X323300Y102085D01*
X323184Y101500D01*
X323300Y100915D01*
X323632Y100419D01*
X324128Y100087D01*
X324713Y99971D01*
X325298Y100087D01*
X325794Y100419D01*
X326126Y100915D01*
X326242Y101500D01*
X326126Y102085D01*
X325794Y102581D01*
X325298Y102913D01*
X324713Y103029D01*
D02*
G37*
G36*
X267500Y100924D02*
Y99500D01*
X268924D01*
X268869Y99774D01*
X268431Y100431D01*
X267774Y100869D01*
X267500Y100924D01*
D02*
G37*
G36*
X266500D02*
X266226Y100869D01*
X265569Y100431D01*
X265131Y99774D01*
X265076Y99500D01*
X266500D01*
Y100924D01*
D02*
G37*
G36*
X283000Y105529D02*
X282415Y105413D01*
X281919Y105081D01*
X281587Y104585D01*
X281471Y104000D01*
X281587Y103415D01*
X281919Y102919D01*
X282415Y102587D01*
X283000Y102471D01*
X283585Y102587D01*
X284081Y102919D01*
X284413Y103415D01*
X284529Y104000D01*
X284413Y104585D01*
X284081Y105081D01*
X283585Y105413D01*
X283000Y105529D01*
D02*
G37*
G36*
X305429Y103529D02*
X304844Y103413D01*
X304348Y103081D01*
X304016Y102585D01*
X303900Y102000D01*
X304016Y101415D01*
X304348Y100919D01*
X304844Y100587D01*
X305429Y100471D01*
X306014Y100587D01*
X306511Y100919D01*
X306842Y101415D01*
X306959Y102000D01*
X306842Y102585D01*
X306511Y103081D01*
X306014Y103413D01*
X305429Y103529D01*
D02*
G37*
G36*
X199500Y106627D02*
X198691Y106520D01*
X197937Y106208D01*
X197289Y105711D01*
X196792Y105063D01*
X196480Y104309D01*
X196373Y103500D01*
X196480Y102691D01*
X196792Y101937D01*
X197289Y101289D01*
X197937Y100792D01*
X198691Y100480D01*
X199500Y100373D01*
X200309Y100480D01*
X201063Y100792D01*
X201711Y101289D01*
X202208Y101937D01*
X202520Y102691D01*
X202627Y103500D01*
X202520Y104309D01*
X202208Y105063D01*
X201711Y105711D01*
X201063Y106208D01*
X200309Y106520D01*
X199500Y106627D01*
D02*
G37*
G36*
X266100Y112341D02*
X264676D01*
X264731Y112067D01*
X265169Y111410D01*
X265826Y110972D01*
X266100Y110917D01*
Y112341D01*
D02*
G37*
G36*
X235000Y117127D02*
X234191Y117020D01*
X233437Y116708D01*
X232789Y116211D01*
X232292Y115563D01*
X231980Y114809D01*
X231873Y114000D01*
X231980Y113191D01*
X232292Y112437D01*
X232789Y111789D01*
X233437Y111292D01*
X234191Y110980D01*
X235000Y110873D01*
X235809Y110980D01*
X236563Y111292D01*
X237211Y111789D01*
X237708Y112437D01*
X238020Y113191D01*
X238127Y114000D01*
X238020Y114809D01*
X237708Y115563D01*
X237211Y116211D01*
X236563Y116708D01*
X235809Y117020D01*
X235000Y117127D01*
D02*
G37*
G36*
X216144Y112300D02*
X214500D01*
Y110656D01*
X214858Y110728D01*
X215586Y111214D01*
X216072Y111942D01*
X216144Y112300D01*
D02*
G37*
G36*
X64145Y113537D02*
X62807D01*
Y112199D01*
X63048Y112247D01*
X63677Y112667D01*
X64097Y113296D01*
X64145Y113537D01*
D02*
G37*
G36*
X61807D02*
X60469D01*
X60517Y113296D01*
X60937Y112667D01*
X61566Y112247D01*
X61807Y112199D01*
Y113537D01*
D02*
G37*
G36*
X268524Y112341D02*
X267100D01*
Y110917D01*
X267374Y110972D01*
X268031Y111410D01*
X268469Y112067D01*
X268524Y112341D01*
D02*
G37*
G36*
X32217Y106554D02*
Y105217D01*
X33554D01*
X33506Y105458D01*
X33086Y106086D01*
X32458Y106506D01*
X32217Y106554D01*
D02*
G37*
G36*
X31216D02*
X30975Y106506D01*
X30347Y106086D01*
X29927Y105458D01*
X29879Y105217D01*
X31216D01*
Y106554D01*
D02*
G37*
G36*
X256338Y106000D02*
X255000D01*
Y104662D01*
X255241Y104710D01*
X255870Y105130D01*
X256290Y105759D01*
X256338Y106000D01*
D02*
G37*
G36*
X213500Y112300D02*
X211856D01*
X211928Y111942D01*
X212414Y111214D01*
X213142Y110728D01*
X213500Y110656D01*
Y112300D01*
D02*
G37*
G36*
X255000Y108338D02*
Y107000D01*
X256338D01*
X256290Y107241D01*
X255870Y107870D01*
X255241Y108290D01*
X255000Y108338D01*
D02*
G37*
G36*
X254000D02*
X253759Y108290D01*
X253130Y107870D01*
X252710Y107241D01*
X252662Y107000D01*
X254000D01*
Y108338D01*
D02*
G37*
G36*
X13723Y93776D02*
X13482Y93728D01*
X12853Y93308D01*
X12433Y92680D01*
X12385Y92439D01*
X13723D01*
Y93776D01*
D02*
G37*
G36*
X16061Y91439D02*
X14723D01*
Y90101D01*
X14964Y90149D01*
X15593Y90569D01*
X16013Y91197D01*
X16061Y91439D01*
D02*
G37*
G36*
X13723D02*
X12385D01*
X12433Y91197D01*
X12853Y90569D01*
X13482Y90149D01*
X13723Y90101D01*
Y91439D01*
D02*
G37*
G36*
X213144Y94300D02*
X211500D01*
Y92656D01*
X211858Y92728D01*
X212586Y93214D01*
X213072Y93942D01*
X213144Y94300D01*
D02*
G37*
G36*
X210500D02*
X208856D01*
X208928Y93942D01*
X209414Y93214D01*
X210142Y92728D01*
X210500Y92656D01*
Y94300D01*
D02*
G37*
G36*
X14723Y93776D02*
Y92439D01*
X16061D01*
X16013Y92680D01*
X15593Y93308D01*
X14964Y93728D01*
X14723Y93776D01*
D02*
G37*
G36*
X31500Y88838D02*
Y87500D01*
X32838D01*
X32790Y87741D01*
X32370Y88370D01*
X31741Y88790D01*
X31500Y88838D01*
D02*
G37*
G36*
X213144Y88800D02*
X211500D01*
Y87156D01*
X211858Y87228D01*
X212586Y87714D01*
X213072Y88442D01*
X213144Y88800D01*
D02*
G37*
G36*
X210500D02*
X208856D01*
X208928Y88442D01*
X209414Y87714D01*
X210142Y87228D01*
X210500Y87156D01*
Y88800D01*
D02*
G37*
G36*
X211500Y91444D02*
Y89800D01*
X213144D01*
X213072Y90158D01*
X212586Y90886D01*
X211858Y91372D01*
X211500Y91444D01*
D02*
G37*
G36*
X210500D02*
X210142Y91372D01*
X209414Y90886D01*
X208928Y90158D01*
X208856Y89800D01*
X210500D01*
Y91444D01*
D02*
G37*
G36*
X105390Y90029D02*
X104805Y89913D01*
X104309Y89581D01*
X104005Y89126D01*
X103740Y89101D01*
X103475Y89126D01*
X103172Y89581D01*
X102675Y89913D01*
X102090Y90029D01*
X101505Y89913D01*
X101009Y89581D01*
X100677Y89085D01*
X100561Y88500D01*
X100677Y87915D01*
X101009Y87419D01*
X101505Y87087D01*
X102090Y86971D01*
X102675Y87087D01*
X103172Y87419D01*
X103475Y87874D01*
X103740Y87899D01*
X104005Y87874D01*
X104309Y87419D01*
X104805Y87087D01*
X105390Y86971D01*
X105975Y87087D01*
X106472Y87419D01*
X106803Y87915D01*
X106920Y88500D01*
X106803Y89085D01*
X106472Y89581D01*
X105975Y89913D01*
X105390Y90029D01*
D02*
G37*
G36*
X268924Y98500D02*
X265076D01*
X265131Y98226D01*
X265569Y97569D01*
X266226Y97131D01*
X266434Y97089D01*
Y96580D01*
X266226Y96538D01*
X265569Y96100D01*
X265131Y95443D01*
X265076Y95169D01*
X268924D01*
X268869Y95443D01*
X268431Y96100D01*
X267774Y96538D01*
X267566Y96580D01*
Y97089D01*
X267774Y97131D01*
X268431Y97569D01*
X268869Y98226D01*
X268924Y98500D01*
D02*
G37*
G36*
X224000Y98635D02*
X223298Y98496D01*
X222702Y98098D01*
X222304Y97502D01*
X222165Y96800D01*
X222304Y96098D01*
X222702Y95502D01*
X223298Y95104D01*
X224000Y94965D01*
X224702Y95104D01*
X225298Y95502D01*
X225696Y96098D01*
X225835Y96800D01*
X225696Y97502D01*
X225298Y98098D01*
X224702Y98496D01*
X224000Y98635D01*
D02*
G37*
G36*
X290000Y96300D02*
X288662D01*
X288710Y96059D01*
X289130Y95430D01*
X289759Y95010D01*
X290000Y94962D01*
Y96300D01*
D02*
G37*
G36*
Y98638D02*
X289759Y98590D01*
X289130Y98170D01*
X288710Y97541D01*
X288662Y97300D01*
X290000D01*
Y98638D01*
D02*
G37*
G36*
X211500Y96944D02*
Y95300D01*
X213144D01*
X213072Y95658D01*
X212586Y96386D01*
X211858Y96872D01*
X211500Y96944D01*
D02*
G37*
G36*
X210500D02*
X210142Y96872D01*
X209414Y96386D01*
X208928Y95658D01*
X208856Y95300D01*
X210500D01*
Y96944D01*
D02*
G37*
G36*
X184500Y95122D02*
X184259Y95074D01*
X183630Y94654D01*
X183210Y94026D01*
X183162Y93784D01*
X184500D01*
Y95122D01*
D02*
G37*
G36*
X268924Y94169D02*
X267500D01*
Y92746D01*
X267774Y92800D01*
X268431Y93239D01*
X268869Y93895D01*
X268924Y94169D01*
D02*
G37*
G36*
X266500D02*
X265076D01*
X265131Y93895D01*
X265569Y93239D01*
X266226Y92800D01*
X266500Y92746D01*
Y94169D01*
D02*
G37*
G36*
X41338Y96000D02*
X40000D01*
Y94662D01*
X40241Y94710D01*
X40870Y95130D01*
X41290Y95759D01*
X41338Y96000D01*
D02*
G37*
G36*
X39000D02*
X37662D01*
X37710Y95759D01*
X38130Y95130D01*
X38759Y94710D01*
X39000Y94662D01*
Y96000D01*
D02*
G37*
G36*
X185500Y95122D02*
Y93784D01*
X186838D01*
X186790Y94026D01*
X186370Y94654D01*
X185741Y95074D01*
X185500Y95122D01*
D02*
G37*
G36*
X103000Y119127D02*
X102191Y119020D01*
X101437Y118708D01*
X100789Y118211D01*
X100292Y117563D01*
X99980Y116809D01*
X99873Y116000D01*
X99980Y115191D01*
X100292Y114437D01*
X100789Y113789D01*
X101437Y113292D01*
X102191Y112980D01*
X103000Y112873D01*
X103809Y112980D01*
X104563Y113292D01*
X105211Y113789D01*
X105708Y114437D01*
X106020Y115191D01*
X106127Y116000D01*
X106020Y116809D01*
X105708Y117563D01*
X105211Y118211D01*
X104563Y118708D01*
X103809Y119020D01*
X103000Y119127D01*
D02*
G37*
G36*
X234000Y135127D02*
X233191Y135020D01*
X232437Y134708D01*
X231789Y134211D01*
X231292Y133563D01*
X230980Y132809D01*
X230873Y132000D01*
X230980Y131191D01*
X231292Y130437D01*
X231789Y129789D01*
X232437Y129292D01*
X233191Y128980D01*
X234000Y128873D01*
X234809Y128980D01*
X235563Y129292D01*
X236211Y129789D01*
X236708Y130437D01*
X237020Y131191D01*
X237127Y132000D01*
X237020Y132809D01*
X236708Y133563D01*
X236211Y134211D01*
X235563Y134708D01*
X234809Y135020D01*
X234000Y135127D01*
D02*
G37*
G36*
X206000Y129653D02*
Y128315D01*
X207338D01*
X207290Y128556D01*
X206870Y129185D01*
X206241Y129605D01*
X206000Y129653D01*
D02*
G37*
G36*
X249900Y132029D02*
X249315Y131913D01*
X248819Y131581D01*
X248487Y131085D01*
X248371Y130500D01*
X248487Y129915D01*
X248819Y129419D01*
X249315Y129087D01*
X249900Y128971D01*
X250485Y129087D01*
X250981Y129419D01*
X251313Y129915D01*
X251429Y130500D01*
X251313Y131085D01*
X250981Y131581D01*
X250485Y131913D01*
X249900Y132029D01*
D02*
G37*
G36*
X273553Y136553D02*
X266447D01*
Y129447D01*
X273553D01*
Y136553D01*
D02*
G37*
G36*
X280000Y136583D02*
X279073Y136461D01*
X278208Y136103D01*
X277466Y135534D01*
X276897Y134792D01*
X276539Y133927D01*
X276417Y133000D01*
X276539Y132073D01*
X276897Y131208D01*
X277466Y130466D01*
X278208Y129897D01*
X279073Y129539D01*
X280000Y129417D01*
X280927Y129539D01*
X281792Y129897D01*
X282534Y130466D01*
X283103Y131208D01*
X283461Y132073D01*
X283583Y133000D01*
X283461Y133927D01*
X283103Y134792D01*
X282534Y135534D01*
X281792Y136103D01*
X280927Y136461D01*
X280000Y136583D01*
D02*
G37*
G36*
X205000Y129653D02*
X204759Y129605D01*
X204130Y129185D01*
X203710Y128556D01*
X203662Y128315D01*
X205000D01*
Y129653D01*
D02*
G37*
G36*
X303518Y127684D02*
X303276Y127636D01*
X302648Y127216D01*
X302228Y126588D01*
X302180Y126347D01*
X303518D01*
Y127684D01*
D02*
G37*
G36*
X207338Y127315D02*
X206000D01*
Y125977D01*
X206241Y126025D01*
X206870Y126445D01*
X207290Y127074D01*
X207338Y127315D01*
D02*
G37*
G36*
X304518Y127684D02*
Y126347D01*
X305855D01*
X305807Y126588D01*
X305387Y127216D01*
X304759Y127636D01*
X304518Y127684D01*
D02*
G37*
G36*
X303171Y131313D02*
X302586Y131196D01*
X302090Y130865D01*
X301758Y130369D01*
X301642Y129783D01*
X301758Y129198D01*
X302090Y128702D01*
X302586Y128370D01*
X303171Y128254D01*
X303756Y128370D01*
X304253Y128702D01*
X304584Y129198D01*
X304700Y129783D01*
X304584Y130369D01*
X304253Y130865D01*
X303756Y131196D01*
X303171Y131313D01*
D02*
G37*
G36*
X154047Y129832D02*
X152404D01*
X152475Y129473D01*
X152961Y128745D01*
X153689Y128259D01*
X154047Y128188D01*
Y129832D01*
D02*
G37*
G36*
Y132475D02*
X153689Y132404D01*
X152961Y131918D01*
X152475Y131190D01*
X152404Y130832D01*
X154047D01*
Y132475D01*
D02*
G37*
G36*
X273553Y147884D02*
X266447D01*
Y140779D01*
X273553D01*
Y147884D01*
D02*
G37*
G36*
X280000Y147915D02*
X279073Y147793D01*
X278208Y147435D01*
X277466Y146865D01*
X276897Y146123D01*
X276539Y145259D01*
X276417Y144332D01*
X276539Y143404D01*
X276897Y142540D01*
X277466Y141798D01*
X278208Y141228D01*
X279073Y140870D01*
X280000Y140748D01*
X280927Y140870D01*
X281792Y141228D01*
X282534Y141798D01*
X283103Y142540D01*
X283461Y143404D01*
X283583Y144332D01*
X283461Y145259D01*
X283103Y146123D01*
X282534Y146865D01*
X281792Y147435D01*
X280927Y147793D01*
X280000Y147915D01*
D02*
G37*
G36*
X116900Y143259D02*
X116542Y143187D01*
X115814Y142701D01*
X115328Y141973D01*
X115256Y141615D01*
X116900D01*
Y143259D01*
D02*
G37*
G36*
X191500Y144000D02*
X190162D01*
X190210Y143759D01*
X190630Y143130D01*
X191259Y142710D01*
X191500Y142662D01*
Y144000D01*
D02*
G37*
G36*
X117900Y143259D02*
Y141615D01*
X119544D01*
X119472Y141973D01*
X118986Y142701D01*
X118258Y143187D01*
X117900Y143259D01*
D02*
G37*
G36*
X80544Y142115D02*
X78900D01*
Y140471D01*
X79258Y140543D01*
X79986Y141029D01*
X80472Y141757D01*
X80544Y142115D01*
D02*
G37*
G36*
X116900Y140615D02*
X115256D01*
X115328Y140257D01*
X115814Y139529D01*
X116542Y139043D01*
X116900Y138971D01*
Y140615D01*
D02*
G37*
G36*
X254000Y143627D02*
X253191Y143520D01*
X252437Y143208D01*
X251789Y142711D01*
X251292Y142063D01*
X250980Y141309D01*
X250873Y140500D01*
X250980Y139691D01*
X251292Y138937D01*
X251789Y138289D01*
X252437Y137792D01*
X253191Y137480D01*
X254000Y137373D01*
X254809Y137480D01*
X255563Y137792D01*
X256211Y138289D01*
X256708Y138937D01*
X257020Y139691D01*
X257127Y140500D01*
X257020Y141309D01*
X256708Y142063D01*
X256211Y142711D01*
X255563Y143208D01*
X254809Y143520D01*
X254000Y143627D01*
D02*
G37*
G36*
X119544Y140615D02*
X117900D01*
Y138971D01*
X118258Y139043D01*
X118986Y139529D01*
X119472Y140257D01*
X119544Y140615D01*
D02*
G37*
G36*
X77900Y142115D02*
X76256D01*
X76328Y141757D01*
X76814Y141029D01*
X77542Y140543D01*
X77900Y140471D01*
Y142115D01*
D02*
G37*
G36*
X137600Y143050D02*
X136898Y142911D01*
X136302Y142513D01*
X135904Y141917D01*
X135765Y141215D01*
X135904Y140513D01*
X136302Y139917D01*
X136898Y139519D01*
X137600Y139380D01*
X138302Y139519D01*
X138898Y139917D01*
X139296Y140513D01*
X139435Y141215D01*
X139296Y141917D01*
X138898Y142513D01*
X138302Y142911D01*
X137600Y143050D01*
D02*
G37*
G36*
X290500Y116844D02*
Y115506D01*
X291838D01*
X291790Y115748D01*
X291370Y116376D01*
X290741Y116796D01*
X290500Y116844D01*
D02*
G37*
G36*
X289500D02*
X289259Y116796D01*
X288630Y116376D01*
X288210Y115748D01*
X288162Y115506D01*
X289500D01*
Y116844D01*
D02*
G37*
G36*
X62807Y115875D02*
Y114537D01*
X64145D01*
X64097Y114778D01*
X63677Y115407D01*
X63048Y115827D01*
X62807Y115875D01*
D02*
G37*
G36*
X267100Y119095D02*
Y117672D01*
X268524D01*
X268469Y117946D01*
X268031Y118602D01*
X267374Y119041D01*
X267100Y119095D01*
D02*
G37*
G36*
X266100D02*
X265826Y119041D01*
X265169Y118602D01*
X264731Y117946D01*
X264676Y117672D01*
X266100D01*
Y119095D01*
D02*
G37*
G36*
X137500Y119529D02*
X136915Y119413D01*
X136419Y119081D01*
X136087Y118585D01*
X135971Y118000D01*
X136087Y117415D01*
X136419Y116919D01*
X136915Y116587D01*
X137500Y116471D01*
X138085Y116587D01*
X138581Y116919D01*
X138913Y117415D01*
X139029Y118000D01*
X138913Y118585D01*
X138581Y119081D01*
X138085Y119413D01*
X137500Y119529D01*
D02*
G37*
G36*
X213500Y114944D02*
X213142Y114872D01*
X212414Y114386D01*
X211928Y113658D01*
X211856Y113300D01*
X213500D01*
Y114944D01*
D02*
G37*
G36*
X291838Y114506D02*
X290500D01*
Y113169D01*
X290741Y113216D01*
X291370Y113637D01*
X291790Y114265D01*
X291838Y114506D01*
D02*
G37*
G36*
X289500D02*
X288162D01*
X288210Y114265D01*
X288630Y113637D01*
X289259Y113216D01*
X289500Y113169D01*
Y114506D01*
D02*
G37*
G36*
X61807Y115875D02*
X61566Y115827D01*
X60937Y115407D01*
X60517Y114778D01*
X60469Y114537D01*
X61807D01*
Y115875D01*
D02*
G37*
G36*
X268524Y116672D02*
X264676D01*
X264731Y116397D01*
X265169Y115741D01*
X265826Y115303D01*
X266034Y115261D01*
Y114751D01*
X265826Y114710D01*
X265169Y114271D01*
X264731Y113615D01*
X264676Y113341D01*
X268524D01*
X268469Y113615D01*
X268031Y114271D01*
X267374Y114710D01*
X267166Y114751D01*
Y115261D01*
X267374Y115303D01*
X268031Y115741D01*
X268469Y116397D01*
X268524Y116672D01*
D02*
G37*
G36*
X214500Y114944D02*
Y113300D01*
X216144D01*
X216072Y113658D01*
X215586Y114386D01*
X214858Y114872D01*
X214500Y114944D01*
D02*
G37*
G36*
X149606Y196497D02*
X148679Y196375D01*
X147815Y196017D01*
X147072Y195447D01*
X146503Y194705D01*
X146145Y193841D01*
X146023Y192913D01*
X146145Y191986D01*
X146503Y191122D01*
X147072Y190380D01*
X147815Y189810D01*
X148679Y189452D01*
X148740Y189444D01*
Y179659D01*
X144816Y175735D01*
X144628Y175454D01*
X144562Y175122D01*
Y172756D01*
X144628Y172424D01*
X144816Y172143D01*
X145983Y170976D01*
Y120414D01*
X145519Y120140D01*
X145249Y120203D01*
X145017Y120359D01*
Y150100D01*
X144951Y150432D01*
X144763Y150713D01*
X142599Y152877D01*
Y189444D01*
X142660Y189452D01*
X143524Y189810D01*
X144266Y190380D01*
X144835Y191122D01*
X145194Y191986D01*
X145316Y192913D01*
X145194Y193841D01*
X144835Y194705D01*
X144266Y195447D01*
X143524Y196017D01*
X142660Y196375D01*
X141732Y196497D01*
X140805Y196375D01*
X139941Y196017D01*
X139198Y195447D01*
X138629Y194705D01*
X138271Y193841D01*
X138149Y192913D01*
X138271Y191986D01*
X138629Y191122D01*
X139198Y190380D01*
X139941Y189810D01*
X140805Y189452D01*
X140866Y189444D01*
Y152518D01*
X140931Y152186D01*
X141119Y151905D01*
X141278Y151746D01*
X141078Y151239D01*
X140414Y150796D01*
X139966Y150125D01*
X139673Y150108D01*
X139433Y150145D01*
X139129Y150601D01*
X138633Y150933D01*
X138047Y151049D01*
X137462Y150933D01*
X136966Y150601D01*
X136634Y150105D01*
X136518Y149520D01*
X136634Y148934D01*
X136966Y148438D01*
X137462Y148107D01*
X138047Y147990D01*
X138633Y148107D01*
X139129Y148438D01*
X139338Y148752D01*
X139869Y148646D01*
X139928Y148351D01*
X140414Y147623D01*
X141142Y147137D01*
X141500Y147066D01*
Y149209D01*
X142500D01*
Y147066D01*
X142783Y147122D01*
X143283Y146906D01*
Y120091D01*
X143269Y120081D01*
X142937Y119585D01*
X142821Y119000D01*
X142937Y118415D01*
X143269Y117919D01*
X143765Y117587D01*
X144350Y117471D01*
X144935Y117587D01*
X145431Y117919D01*
X145769D01*
X146265Y117587D01*
X146850Y117471D01*
X147435Y117587D01*
X147931Y117919D01*
X148263Y118415D01*
X148379Y119000D01*
X148263Y119585D01*
X147931Y120081D01*
X147717Y120225D01*
Y171335D01*
X147698Y171427D01*
X148437Y171574D01*
X149165Y172060D01*
X149651Y172788D01*
X149722Y173146D01*
X147579D01*
Y174146D01*
X149722D01*
X149651Y174505D01*
X149165Y175233D01*
X148437Y175719D01*
X148037Y175798D01*
X147873Y176341D01*
X150219Y178687D01*
X150407Y178968D01*
X150473Y179300D01*
Y189444D01*
X150534Y189452D01*
X151398Y189810D01*
X152140Y190380D01*
X152709Y191122D01*
X153068Y191986D01*
X153190Y192913D01*
X153068Y193841D01*
X152709Y194705D01*
X152140Y195447D01*
X151398Y196017D01*
X150534Y196375D01*
X149606Y196497D01*
D02*
G37*
G36*
X76658Y123996D02*
Y122658D01*
X77996D01*
X77948Y122900D01*
X77528Y123528D01*
X76900Y123948D01*
X76658Y123996D01*
D02*
G37*
G36*
X75658D02*
X75417Y123948D01*
X74788Y123528D01*
X74369Y122900D01*
X74321Y122658D01*
X75658D01*
Y123996D01*
D02*
G37*
G36*
X303518Y125347D02*
X302180D01*
X302228Y125105D01*
X302648Y124477D01*
X303276Y124057D01*
X303518Y124009D01*
Y125347D01*
D02*
G37*
G36*
X205000Y127315D02*
X203662D01*
X203710Y127074D01*
X204130Y126445D01*
X204759Y126025D01*
X205000Y125977D01*
Y127315D01*
D02*
G37*
G36*
X305855Y125347D02*
X304518D01*
Y124009D01*
X304759Y124057D01*
X305387Y124477D01*
X305807Y125105D01*
X305855Y125347D01*
D02*
G37*
G36*
X75658Y121658D02*
X74321D01*
X74369Y121417D01*
X74788Y120788D01*
X75417Y120369D01*
X75658Y120320D01*
Y121658D01*
D02*
G37*
G36*
X77996D02*
X76658D01*
Y120320D01*
X76900Y120369D01*
X77528Y120788D01*
X77948Y121417D01*
X77996Y121658D01*
D02*
G37*
G36*
X44842Y123996D02*
Y122658D01*
X46180D01*
X46132Y122900D01*
X45711Y123528D01*
X45083Y123948D01*
X44842Y123996D01*
D02*
G37*
G36*
X203500Y124529D02*
X202915Y124413D01*
X202419Y124081D01*
X202087Y123585D01*
X201971Y123000D01*
X202087Y122415D01*
X202419Y121919D01*
X202915Y121587D01*
X203500Y121471D01*
X204085Y121587D01*
X204581Y121919D01*
X204913Y122415D01*
X205029Y123000D01*
X204913Y123585D01*
X204581Y124081D01*
X204085Y124413D01*
X203500Y124529D01*
D02*
G37*
%LPD*%
G36*
X129089Y190302D02*
Y162532D01*
X129155Y162200D01*
X129343Y161919D01*
X131792Y159470D01*
Y124714D01*
X128887Y121810D01*
X128699Y121529D01*
X128633Y121197D01*
Y119225D01*
X128419Y119081D01*
X128087Y118585D01*
X127971Y118000D01*
X128087Y117415D01*
X128419Y116919D01*
X128915Y116587D01*
X129500Y116471D01*
X130085Y116587D01*
X130201Y116664D01*
X130701Y116397D01*
Y116016D01*
X130767Y115684D01*
X130955Y115403D01*
X132529Y113829D01*
X132338Y113367D01*
X127200D01*
X126867Y113700D01*
Y116000D01*
X126851Y116079D01*
Y150446D01*
X127351Y150856D01*
X127579Y150811D01*
X128281Y150951D01*
X128876Y151349D01*
X129274Y151944D01*
X129414Y152647D01*
X129274Y153349D01*
X128876Y153944D01*
X128281Y154342D01*
X127579Y154482D01*
X127393Y154445D01*
X127007Y154762D01*
Y155070D01*
X127079Y155129D01*
Y157647D01*
Y159952D01*
X126851Y160139D01*
Y189444D01*
X126912Y189452D01*
X127776Y189810D01*
X128518Y190380D01*
X128589Y190472D01*
X129089Y190302D01*
D02*
G37*
%LPC*%
G36*
X129722Y157147D02*
X128079D01*
Y155503D01*
X128437Y155574D01*
X129165Y156060D01*
X129651Y156788D01*
X129722Y157147D01*
D02*
G37*
G36*
X128079Y159790D02*
Y158147D01*
X129722D01*
X129651Y158505D01*
X129165Y159233D01*
X128437Y159719D01*
X128079Y159790D01*
D02*
G37*
%LPD*%
D41*
X38809Y79967D02*
X44342Y85500D01*
X35618Y79967D02*
X38809D01*
X34652Y79000D02*
X35618Y79967D01*
X31000Y79000D02*
X34652D01*
X45494Y128994D02*
Y183500D01*
X42500Y126000D02*
X45494Y128994D01*
X42500Y124117D02*
Y126000D01*
X42442Y124058D02*
X42500Y124117D01*
X42442Y121371D02*
Y124058D01*
Y121371D02*
X44342Y119471D01*
Y85500D02*
Y119471D01*
D42*
X36753Y108086D02*
X37333Y108667D01*
X28086Y108086D02*
X36753D01*
X33500Y109500D02*
X35000Y111000D01*
X29500Y109500D02*
X33500D01*
X42214Y135000D02*
Y146973D01*
X21200Y114972D02*
X28086Y108086D01*
X21200Y114972D02*
Y126028D01*
X23000Y116000D02*
X29500Y109500D01*
X23000Y116000D02*
Y125000D01*
X21200Y126028D02*
X24166Y128994D01*
X23000Y125000D02*
X24994Y126994D01*
X38691D01*
X24166Y128994D02*
X37863D01*
X40800Y131931D01*
Y133586D01*
X38691Y126994D02*
X42241Y130544D01*
Y134973D01*
X42214Y135000D02*
X42241Y134973D01*
X40800Y133586D02*
X41000Y133786D01*
Y147500D01*
X42214Y146973D02*
X42241Y147000D01*
Y152259D01*
X41000Y153500D02*
X42241Y152259D01*
X39500Y149000D02*
X41000Y147500D01*
X43341Y130089D02*
Y196885D01*
X35753Y122500D02*
X43341Y130089D01*
X27000Y122500D02*
X35753D01*
X95941Y90500D02*
X96591Y91150D01*
X92641Y90052D02*
Y90500D01*
X291081Y69500D02*
X292000D01*
X295248Y70000D02*
X295500D01*
X76731Y38537D02*
X78463Y40268D01*
X78732D01*
X75000Y40268D02*
X75269D01*
X78400Y43400D01*
X78732Y40268D02*
X79600Y41137D01*
Y110403D01*
X78400Y43400D02*
Y110900D01*
X35500Y51595D02*
Y54794D01*
X33906Y50000D02*
X35500Y51595D01*
X31961Y52483D02*
Y53127D01*
Y52483D02*
X31972Y52472D01*
X34517Y55778D02*
X35500Y54794D01*
X26926Y55778D02*
X34517D01*
X26926D02*
Y84226D01*
X25200Y54676D02*
X27404Y52472D01*
X26653Y84500D02*
X26926Y84226D01*
X25200Y54676D02*
Y88376D01*
X26653Y84500D02*
Y87000D01*
X25200Y88376D02*
X30824Y94000D01*
X26653Y87000D02*
X31653Y92000D01*
X30824Y94000D02*
X37248D01*
X40800Y90448D01*
Y90000D02*
Y90448D01*
X31653Y92000D02*
X35500D01*
X37500Y90000D01*
X320600Y55650D02*
X321250Y55000D01*
X317950D02*
X318600Y55650D01*
Y142274D01*
X308015Y146500D02*
X314000Y140515D01*
Y47212D02*
Y140515D01*
Y47212D02*
X321368Y39843D01*
X308843Y148500D02*
X316000Y141343D01*
Y48040D02*
Y141343D01*
Y48040D02*
X321790Y42250D01*
X326250Y37790D02*
X326350Y37690D01*
X326250Y37790D02*
Y40053D01*
X324053Y42250D02*
X326250Y40053D01*
X321790Y42250D02*
X324053D01*
X323843Y37368D02*
X323914Y37298D01*
X323843Y37368D02*
X324250Y37775D01*
Y39225D01*
X323225Y40250D02*
X324250Y39225D01*
X321775Y40250D02*
X323225D01*
X321368Y39843D02*
X321775Y40250D01*
X323000Y36384D02*
X323914Y37298D01*
X326350Y36905D02*
Y37690D01*
X320600Y55650D02*
Y143102D01*
X307328Y156374D02*
X320600Y143102D01*
X304101Y156374D02*
X307328D01*
X306500Y154374D02*
X318600Y142274D01*
X297600Y157124D02*
X303351D01*
X297500Y157024D02*
X297600Y157124D01*
X303351D02*
X304101Y156374D01*
X297600Y153624D02*
X303351D01*
X297500Y153724D02*
X297600Y153624D01*
X304101Y154374D02*
X306500D01*
X303351Y153624D02*
X304101Y154374D01*
X288473Y60473D02*
X291212D01*
X287856Y59856D02*
X288473Y60473D01*
X267903Y59856D02*
X287856D01*
X266409Y61350D02*
X267903Y59856D01*
X219479Y61350D02*
X266409D01*
X47244Y187500D02*
Y192913D01*
Y187500D02*
X48500Y186244D01*
Y183500D02*
Y186244D01*
X47244Y182244D02*
X48500Y183500D01*
X47244Y153250D02*
Y182244D01*
Y153250D02*
X48225D01*
X49250Y152225D01*
Y150775D02*
Y152225D01*
X48500Y150025D02*
X49250Y150775D01*
X85850Y35350D02*
X94644D01*
X85500Y35000D02*
X85850Y35350D01*
X322672Y26500D02*
X323000Y26828D01*
X293591Y26500D02*
X322672D01*
X290591Y23500D02*
X293591Y26500D01*
X286000Y23500D02*
X290591D01*
X323500Y24500D02*
X325000Y26000D01*
X294419Y24500D02*
X323500D01*
X290419Y20500D02*
X294419Y24500D01*
X289500Y20500D02*
X290419D01*
X48500Y44116D02*
Y150025D01*
Y44116D02*
X65116Y27500D01*
X43341Y196885D02*
X47244Y200787D01*
X18000Y47500D02*
Y169000D01*
X20000Y48328D02*
Y165650D01*
X24000Y54178D02*
Y91172D01*
X32218Y182718D02*
X35500Y186000D01*
X5306Y182718D02*
X32218D01*
X4500Y181912D02*
X5306Y182718D01*
X4500Y111116D02*
Y181912D01*
X5803Y181500D02*
X34504D01*
X5700Y181397D02*
X5803Y181500D01*
X5700Y113300D02*
Y181397D01*
X5850Y107255D02*
Y109766D01*
X5096Y106500D02*
X5850Y107255D01*
X4500Y106500D02*
X5096D01*
X1450Y109000D02*
X4000D01*
X35500Y186000D02*
X41000D01*
X157480Y173589D02*
Y192913D01*
X149606Y179300D02*
Y192913D01*
X141732Y152518D02*
Y192913D01*
X118110Y179300D02*
Y192913D01*
X78740Y177732D02*
Y192913D01*
X110236Y142736D02*
Y192913D01*
X157480Y200787D02*
X161400Y196868D01*
X30839Y168839D02*
X38185D01*
X36850Y45000D02*
X37500Y44350D01*
X26081Y93253D02*
X27481D01*
X31028Y96800D01*
X32154D01*
X32650Y19850D02*
X38500D01*
X32178Y23150D02*
X38500D01*
X19500Y33000D02*
X32650Y19850D01*
X21500Y33828D02*
X32178Y23150D01*
X37535Y166189D02*
X38185Y165539D01*
X36630Y166647D02*
X37087Y166189D01*
X37535D01*
X4324Y186874D02*
X33374D01*
X35941Y182937D02*
X39063D01*
X34504Y181500D02*
X35941Y182937D01*
X36800Y180300D02*
X37000Y180500D01*
X21470Y168647D02*
X30646D01*
X30839Y168839D01*
X20766Y165650D02*
X21763Y166647D01*
X36630D01*
X20766Y169350D02*
X21470Y168647D01*
X1450Y184000D02*
X4324Y186874D01*
X24000Y91172D02*
X26081Y93253D01*
X10000Y31500D02*
X24262Y17238D01*
X16500Y5500D02*
Y17363D01*
X1450Y32413D02*
X16500Y17363D01*
X16780Y18780D02*
Y18780D01*
Y18780D02*
X17700Y17860D01*
Y13800D02*
Y17860D01*
Y13800D02*
X19500Y12000D01*
Y4000D02*
Y12000D01*
X21500Y6817D02*
Y16428D01*
X24262Y6817D02*
Y17238D01*
X19500Y33000D02*
Y46000D01*
X21500Y33828D02*
Y46828D01*
X18000Y47500D02*
X19500Y46000D01*
X323000Y26828D02*
Y36384D01*
X325000Y26000D02*
Y35555D01*
X326350Y36905D01*
X304266Y145654D02*
X305112Y146500D01*
X295500Y145850D02*
X295696Y145654D01*
X304266D01*
Y149354D02*
X305120Y148500D01*
X295500Y149150D02*
X295704Y149354D01*
X304266D01*
X305120Y148500D02*
X308843D01*
X305112Y146500D02*
X308015D01*
X51215Y191297D02*
Y196885D01*
X55118Y200787D01*
X125984D02*
Y204484D01*
X129500Y208000D01*
X230000D01*
X230500Y203500D02*
Y207500D01*
X230000Y208000D02*
X230500Y207500D01*
X66895Y203395D02*
X74550Y211050D01*
X241950D01*
X244500Y208500D01*
Y198500D02*
Y208500D01*
X62992Y192913D02*
X65500Y195421D01*
Y196885D01*
X66895Y198280D01*
Y203395D01*
X74769Y196816D02*
X78740Y200787D01*
X74769Y175458D02*
Y196816D01*
X67400Y168089D02*
X74769Y175458D01*
X67400Y159615D02*
Y168089D01*
X70000Y168992D02*
X78740Y177732D01*
X70000Y153755D02*
Y168992D01*
X68050Y151805D02*
X70000Y153755D01*
X68050Y33950D02*
Y151805D01*
X248500Y30000D02*
X250000Y31500D01*
Y38000D01*
X71200Y152955D02*
Y168495D01*
Y152955D02*
X72350Y151805D01*
Y63322D02*
Y151805D01*
X70900Y61873D02*
X72350Y63322D01*
X70900Y32797D02*
Y61873D01*
X166613Y31200D02*
X246000D01*
X248150Y33350D01*
Y38766D01*
X249234Y39850D01*
X251850D01*
X257000Y34700D01*
Y24500D02*
Y34700D01*
X256000Y23500D02*
X257000Y24500D01*
X256000Y22000D02*
Y23500D01*
X71200Y168495D02*
X86705Y184000D01*
X86614D02*
X86705D01*
X86614D02*
Y192913D01*
X77400Y165115D02*
Y172998D01*
X90517Y186115D01*
Y194547D01*
X90500Y194564D02*
X90517Y194547D01*
X90500Y194564D02*
Y196799D01*
X94488Y200787D01*
Y184925D02*
Y192913D01*
X92603Y183040D02*
X94488Y184925D01*
X92603Y136815D02*
Y183040D01*
X95103Y136815D02*
Y181661D01*
X102362Y188921D01*
Y192913D01*
X78400Y110900D02*
X110236Y142736D01*
X111436Y172626D02*
X118110Y179300D01*
X111436Y142239D02*
Y172626D01*
X79600Y110403D02*
X111436Y142239D01*
X92097Y29900D02*
X92297Y29700D01*
X163584D01*
X166263Y31550D02*
X166613Y31200D01*
X91800Y28500D02*
X114610D01*
X91600Y28700D02*
X91800Y28500D01*
X68050Y33950D02*
X72100Y29900D01*
X65116Y27500D02*
X91103D01*
X65613Y28700D02*
X91600D01*
X72100Y29900D02*
X92097D01*
X70900Y32797D02*
X72147Y31550D01*
X166263D01*
X95547Y32750D02*
X135810D01*
X89500Y33500D02*
X94797D01*
X95547Y32750D01*
X85500Y33500D02*
Y35000D01*
X135810Y32750D02*
X138000Y34940D01*
X136800Y95800D02*
X137000Y96000D01*
X136800Y36300D02*
Y95800D01*
X138000Y34940D02*
Y91000D01*
X140500Y93500D01*
Y95500D01*
X131568Y121568D02*
X133858Y123858D01*
X132658Y124355D02*
Y159829D01*
X126000Y113341D02*
Y116000D01*
X129955Y197455D02*
X133858Y201358D01*
Y123858D02*
Y160465D01*
X133720D02*
X133858D01*
X125984Y116016D02*
X126000Y116000D01*
X125984Y116016D02*
Y151200D01*
X125429Y151756D02*
X125984Y151200D01*
X125429Y151756D02*
Y153537D01*
X125984Y154093D01*
Y156201D01*
X125429Y156756D02*
X125984Y156201D01*
X125429Y156756D02*
Y158537D01*
X125984Y159092D01*
Y192913D01*
X133455Y192510D02*
X133858Y192913D01*
X133455Y173081D02*
Y192510D01*
X129955Y162532D02*
X132658Y159829D01*
X129955Y162532D02*
Y197455D01*
X131500Y162685D02*
X133720Y160465D01*
X131500Y162685D02*
Y171126D01*
X133455Y173081D01*
X131568Y116016D02*
Y121568D01*
X129500Y118000D02*
Y121197D01*
X132658Y124355D01*
X126000Y113341D02*
X126841Y112500D01*
X131568Y116016D02*
X133884Y113700D01*
X203700D01*
X204197Y112500D02*
X211848Y120151D01*
X203700Y113700D02*
X211351Y121352D01*
X291346D01*
X294980Y117718D01*
X126841Y112500D02*
X204197D01*
X294980Y87910D02*
X296945Y85945D01*
X294980Y87910D02*
Y117718D01*
X235000Y81000D02*
X244000Y90000D01*
Y117651D01*
X241500Y120151D02*
X244000Y117651D01*
X211848Y120151D02*
X241500D01*
X141732Y152518D02*
X144150Y150100D01*
Y119200D02*
Y150100D01*
Y119200D02*
X144350Y119000D01*
X146850D02*
Y171335D01*
X145429Y172756D02*
X146850Y171335D01*
X145429Y172756D02*
Y175122D01*
X149606Y179300D01*
X284059Y124000D02*
X293779Y133721D01*
X155929Y172037D02*
X157480Y173589D01*
X155929Y168997D02*
Y172037D01*
Y168997D02*
X157480Y167445D01*
Y122520D02*
Y167445D01*
Y122520D02*
X161500Y118500D01*
X176000D01*
X161400Y145366D02*
Y196868D01*
Y145366D02*
X162229Y144537D01*
Y120271D02*
Y144537D01*
Y120271D02*
X162800Y119700D01*
X255449Y124000D02*
X284059D01*
X254000Y122552D02*
X255449Y124000D01*
X210854Y122552D02*
X254000D01*
X203203Y114900D02*
X210854Y122552D01*
X179600Y114900D02*
X203203D01*
X176000Y118500D02*
X179600Y114900D01*
X162800Y119700D02*
X176497D01*
X180097Y116100D01*
X202706D01*
X210357Y123751D01*
X253503D01*
X254952Y125200D01*
X283562D01*
X291500Y133138D01*
Y134231D01*
X294926Y137657D01*
X6000Y29560D02*
X16780Y18780D01*
X7200Y30728D02*
X21500Y16428D01*
X7200Y30728D02*
Y63684D01*
X6000Y29560D02*
Y63187D01*
X6150Y64734D02*
Y65653D01*
Y64734D02*
X7200Y63684D01*
X4950Y64237D02*
X6000Y63187D01*
X4950Y64237D02*
Y65156D01*
X6900Y180300D02*
X36800D01*
X6900Y66600D02*
X8000Y65500D01*
X5700Y66103D02*
X6150Y65653D01*
X4500Y65606D02*
X4950Y65156D01*
X1450Y109000D02*
Y184000D01*
X4500Y111116D02*
X5850Y109766D01*
X1450Y32413D02*
Y109000D01*
X5700Y66103D02*
Y102917D01*
X6900Y66600D02*
Y102419D01*
X5700Y102917D02*
X8000Y105217D01*
X10000Y31500D02*
Y103822D01*
X5700Y113300D02*
X8000Y111000D01*
Y105217D02*
Y111000D01*
X4500Y65606D02*
Y106500D01*
X51215Y191297D02*
X52500Y190012D01*
X10000Y176000D02*
X11500Y177500D01*
X55118Y39195D02*
X65613Y28700D01*
X11500Y177500D02*
X38185D01*
X52500Y139875D02*
Y190012D01*
X55118Y39195D02*
Y192913D01*
X96044Y33950D02*
X134450D01*
X136800Y36300D01*
X94644Y35350D02*
X96044Y33950D01*
X130512Y58512D02*
Y96000D01*
X123512Y51512D02*
X130512Y58512D01*
X134000Y57067D02*
Y96000D01*
X127000Y50067D02*
X134000Y57067D01*
X123512Y37500D02*
Y51512D01*
X127000Y37500D02*
Y50067D01*
X18000Y169000D02*
X18350Y169350D01*
X20766D01*
X20000Y48328D02*
X21500Y46828D01*
X20000Y165650D02*
X20766D01*
X114610Y28500D02*
X118110Y25000D01*
X91103Y27500D02*
X95103Y23500D01*
X163584Y29700D02*
X163884Y30000D01*
X248500D01*
X217801Y59672D02*
X219479Y61350D01*
X217672Y59672D02*
X217801D01*
X192577Y50000D02*
X208000D01*
X217672Y59672D01*
X181577Y39000D02*
X192577Y50000D01*
X177500Y39000D02*
X181577D01*
X105315D02*
X106315Y38000D01*
X112000D01*
X32154Y96800D02*
X34165Y98811D01*
X6900Y121606D02*
Y180300D01*
X10000Y120062D02*
Y176000D01*
Y120062D02*
X13202Y116860D01*
X10000Y103822D02*
X13202Y107025D01*
X6900Y121606D02*
X12102Y116404D01*
X6900Y102419D02*
X12102Y107622D01*
X13202Y107025D02*
Y116860D01*
X12102Y107622D02*
Y116404D01*
X36850Y47000D02*
X37500Y47650D01*
X24000Y54178D02*
X31178Y47000D01*
X36850D01*
X33500Y50000D02*
X33906D01*
X92641Y90052D02*
X94844Y87850D01*
X97039D01*
X96591Y91150D02*
Y93920D01*
X98172Y95500D01*
X105000D02*
X106250D01*
Y102381D01*
X108750D01*
Y95500D02*
Y102381D01*
Y94819D02*
Y95500D01*
Y94819D02*
X111250D01*
Y95500D01*
Y97131D01*
X113750D01*
Y95500D02*
Y97131D01*
Y95500D02*
X115500D01*
X98172D02*
X105000D01*
X217500Y70250D02*
X218750D01*
Y70500D01*
X221250D01*
Y70250D02*
Y70500D01*
Y70250D02*
X222647D01*
X223632Y71235D01*
X226738D01*
X227723Y70250D01*
X253132D01*
X253947Y71065D01*
X257053D01*
X257868Y70250D01*
X289002D01*
X290902Y72150D01*
X293098D01*
X295248Y70000D01*
X97039Y87850D02*
X98591Y89402D01*
Y91978D01*
X98500Y92070D02*
X98591Y91978D01*
X98500Y92070D02*
Y93000D01*
X30350Y45000D02*
X36850D01*
X22000Y53350D02*
X22884Y52466D01*
X23379Y52961D01*
X25147Y51193D01*
X24652Y50698D02*
X25147Y51193D01*
X24652Y50698D02*
X30350Y45000D01*
X22000Y53350D02*
Y54500D01*
Y92000D01*
X25253Y95253D01*
X26653D01*
X32861Y101461D01*
X37539D01*
X39000Y100000D01*
X115500Y95500D02*
X118172D01*
X124172Y101500D01*
X132414D01*
X133000Y100914D01*
Y99750D02*
Y100914D01*
Y99750D02*
X134000D01*
Y100914D01*
X134586Y101500D01*
X138414D01*
X139000Y100914D01*
Y99649D02*
Y100914D01*
Y99649D02*
X140000D01*
Y100914D01*
X140586Y101500D01*
X144414D01*
X145000Y100914D01*
Y89708D02*
Y100914D01*
Y89708D02*
X146000D01*
Y100914D01*
X146586Y101500D01*
X150414D01*
X151000Y100914D01*
Y89708D02*
Y100914D01*
Y89708D02*
X152000D01*
Y100914D01*
X152586Y101500D01*
X156414D01*
X157000Y100914D01*
Y90850D02*
Y100914D01*
Y90850D02*
X158000D01*
Y100914D01*
X158586Y101500D01*
X162414D01*
X163000Y100914D01*
Y97500D02*
Y100914D01*
Y97500D02*
X164000D01*
Y100914D01*
X164586Y101500D01*
X168414D01*
X169000Y100914D01*
Y98107D02*
Y100914D01*
Y98107D02*
X170000D01*
Y100914D01*
X170586Y101500D01*
X176728D01*
X181600Y96628D01*
Y91000D02*
Y96628D01*
Y91000D02*
X187930D01*
X188515Y90414D01*
Y86586D02*
Y90414D01*
X187930Y86000D02*
X188515Y86586D01*
X181600Y86000D02*
X187930D01*
X181600Y76728D02*
Y86000D01*
Y76728D02*
X190500Y67828D01*
Y64827D02*
Y67828D01*
Y64827D02*
X194500Y60827D01*
X203327D01*
X212750Y70250D01*
X217500D01*
X290256Y68676D02*
X291081Y69500D01*
X278335Y68676D02*
X290256D01*
X276410Y66750D02*
X278335Y68676D01*
X258540Y66750D02*
X276410D01*
X256225Y69065D02*
X258540Y66750D01*
X254775Y69065D02*
X256225D01*
X253960Y68250D02*
X254775Y69065D01*
X226895Y68250D02*
X253960D01*
X225910Y69235D02*
X226895Y68250D01*
X224460Y69235D02*
X225910D01*
X223475Y68250D02*
X224460Y69235D01*
X213578Y68250D02*
X223475D01*
X204155Y58827D02*
X213578Y68250D01*
X193672Y58827D02*
X204155D01*
X188500Y63998D02*
X193672Y58827D01*
X188500Y63998D02*
Y67000D01*
X179600Y75900D02*
X188500Y67000D01*
X179600Y83250D02*
Y84500D01*
Y83250D02*
X179850D01*
Y80750D02*
Y83250D01*
X179600Y80750D02*
X179850D01*
X179600Y79000D02*
Y80750D01*
Y75900D02*
Y79000D01*
Y84500D02*
Y87414D01*
X180186Y88000D01*
X186515D01*
Y89000D01*
X180186D02*
X186515D01*
X179600Y89586D02*
X180186Y89000D01*
X179600Y89586D02*
Y95800D01*
X175900Y99500D02*
X179600Y95800D01*
X172000Y99500D02*
X175900D01*
X172000Y96693D02*
Y99500D01*
X171414Y96108D02*
X172000Y96693D01*
X167586Y96108D02*
X171414D01*
X167000Y96693D02*
X167586Y96108D01*
X167000Y96693D02*
Y99500D01*
X166000D02*
X167000D01*
X166000Y96086D02*
Y99500D01*
X165414Y95500D02*
X166000Y96086D01*
X161586Y95500D02*
X165414D01*
X161000Y96086D02*
X161586Y95500D01*
X161000Y96086D02*
Y99500D01*
X160000D02*
X161000D01*
X160000Y89436D02*
Y99500D01*
X159414Y88850D02*
X160000Y89436D01*
X155586Y88850D02*
X159414D01*
X155000Y89436D02*
X155586Y88850D01*
X155000Y89436D02*
Y99500D01*
X154000D02*
X155000D01*
X154000Y88294D02*
Y99500D01*
X153414Y87708D02*
X154000Y88294D01*
X149586Y87708D02*
X153414D01*
X149000Y88294D02*
X149586Y87708D01*
X149000Y88294D02*
Y99500D01*
X148000D02*
X149000D01*
X148000Y88294D02*
Y99500D01*
X147414Y87708D02*
X148000Y88294D01*
X143586Y87708D02*
X147414D01*
X143000Y88294D02*
X143586Y87708D01*
X143000Y88294D02*
Y99500D01*
X142000D02*
X143000D01*
X142000Y98235D02*
Y99500D01*
X141414Y97649D02*
X142000Y98235D01*
X137586Y97649D02*
X141414D01*
X137000Y98235D02*
X137586Y97649D01*
X137000Y98235D02*
Y99500D01*
X136000D02*
X137000D01*
X136000Y98336D02*
Y99500D01*
X135414Y97750D02*
X136000Y98336D01*
X131586Y97750D02*
X135414D01*
X131000Y98336D02*
X131586Y97750D01*
X131000Y98336D02*
Y99500D01*
X125000D02*
X131000D01*
X119000Y93500D02*
X125000Y99500D01*
X99000Y93500D02*
X119000D01*
X98591Y93091D02*
X99000Y93500D01*
X27404Y52472D02*
X31961D01*
X31972D01*
X4380Y37900D02*
X41900D01*
X1900Y10302D02*
Y37900D01*
Y7900D02*
X37550D01*
X41900D01*
Y36286D02*
Y37900D01*
X1900D02*
X4380D01*
X1900Y7900D02*
Y10302D01*
X41900Y7900D02*
Y36286D01*
X21900Y21916D02*
Y23884D01*
X20916Y22900D02*
X22884D01*
X53000Y130017D02*
Y132017D01*
X52000Y131017D02*
X54000D01*
X65205Y119017D02*
Y142517D01*
X40795D02*
X65205D01*
X40795Y119017D02*
Y142517D01*
Y119017D02*
X65205D01*
X60500Y104500D02*
Y106500D01*
X59500Y105500D02*
X61500D01*
X48295Y94000D02*
Y117500D01*
Y94000D02*
X72705D01*
Y117500D01*
X48295D02*
X72705D01*
X213600Y147889D02*
X215600D01*
X214600Y146889D02*
Y148889D01*
X202600Y135684D02*
X226100D01*
Y160094D01*
X202600D02*
X226100D01*
X202600Y135684D02*
Y160094D01*
X238600Y167889D02*
X240600D01*
X239600Y166889D02*
Y168889D01*
X227600Y155684D02*
X251100D01*
Y180094D01*
X227600D02*
X251100D01*
X227600Y155684D02*
Y180094D01*
X188600Y167889D02*
X190600D01*
X189600Y166889D02*
Y168889D01*
X177600Y155684D02*
X201100D01*
Y180094D01*
X177600D02*
X201100D01*
X177600Y155684D02*
Y180094D01*
X213600Y187889D02*
X215600D01*
X214600Y186889D02*
Y188889D01*
X202600Y175684D02*
X226100D01*
Y200094D01*
X202600D02*
X226100D01*
X202600Y175684D02*
Y200094D01*
X104925Y18500D02*
Y19500D01*
X104425Y19000D02*
X105425D01*
X108425Y15500D02*
Y22500D01*
X101425Y15500D02*
X108425D01*
X101425D02*
Y22500D01*
X108425D01*
X294980Y36000D02*
X332500D01*
X292500Y8402D02*
Y36000D01*
Y6000D02*
X328150D01*
X332500D01*
Y34386D02*
Y36000D01*
X292500D02*
X294980D01*
X292500Y6000D02*
Y8402D01*
X332500Y6000D02*
Y34386D01*
X312500Y20016D02*
Y21984D01*
X311516Y21000D02*
X313484D01*
X152500Y19000D02*
Y20000D01*
X152000Y19500D02*
X153000D01*
X156000Y16000D02*
Y23000D01*
X149000Y16000D02*
X156000D01*
X149000D02*
Y23000D01*
X156000D01*
X121075Y19075D02*
Y20075D01*
X120575Y19575D02*
X121575D01*
X124575Y16075D02*
Y23075D01*
X117575Y16075D02*
X124575D01*
X117575D02*
Y23075D01*
X124575D01*
X135685Y19425D02*
Y20425D01*
X135185Y19925D02*
X136185D01*
X139185Y16425D02*
Y23425D01*
X132185Y16425D02*
X139185D01*
X132185D02*
Y23425D01*
X139185D01*
D43*
X244682Y45000D02*
X303886D01*
X306150Y47264D01*
Y50150D02*
X310000Y54000D01*
Y134000D01*
X302787Y141213D02*
X310000Y134000D01*
X293500Y143000D02*
X295287Y141213D01*
X302787D01*
X291500Y104000D02*
X293280Y102220D01*
X302500Y76177D02*
Y78000D01*
X90000Y106500D02*
X92500Y104000D01*
X188800D02*
X197000Y95800D01*
Y65937D02*
Y95800D01*
X92500Y104000D02*
X166981D01*
X188800D01*
X196500Y45500D02*
X209000D01*
X293280Y78602D02*
Y102220D01*
X209000Y45500D02*
X209500Y45000D01*
X214533Y43331D02*
X216467D01*
X241318Y45000D02*
X242068Y45750D01*
X243932D01*
X244682Y45000D01*
X218136D02*
X241318D01*
X209500D02*
X212864D01*
X214533Y43331D01*
X216467D02*
X218136Y45000D01*
X306150Y47264D02*
Y50150D01*
X300076Y73752D02*
X302500Y76177D01*
X293280Y78602D02*
X298129Y73752D01*
X300076D01*
D44*
X56500Y85363D02*
Y89300D01*
X54532Y87331D02*
X58469D01*
X48626Y91072D02*
X64374D01*
X48626Y83591D02*
X64374D01*
Y91072D01*
X48626Y83591D02*
Y91072D01*
X55713Y92453D02*
Y95209D01*
X48626Y92453D02*
Y95209D01*
X55713D01*
X48626Y92453D02*
X55713D01*
X50988Y93831D02*
X53350D01*
X52169Y92650D02*
Y95013D01*
X194374Y159760D02*
Y167240D01*
X178626Y159760D02*
X194374D01*
X178626Y167240D02*
X194374D01*
X178626Y159760D02*
Y167240D01*
X184531Y163500D02*
X188469D01*
X186500Y161531D02*
Y165469D01*
Y178032D02*
Y181968D01*
X184531Y180000D02*
X188469D01*
X178626Y176260D02*
X194374D01*
X178626Y183740D02*
X194374D01*
X178626Y176260D02*
Y183740D01*
X194374Y176260D02*
Y183740D01*
Y151760D02*
Y159240D01*
X178626Y151760D02*
X194374D01*
X178626Y159240D02*
X194374D01*
X178626Y151760D02*
Y159240D01*
X184531Y155500D02*
X188469D01*
X186500Y153532D02*
Y157468D01*
Y169760D02*
Y173697D01*
X184531Y171728D02*
X188469D01*
X178626Y167988D02*
X194374D01*
X178626Y175468D02*
X194374D01*
X178626Y167988D02*
Y175468D01*
X194374Y167988D02*
Y175468D01*
X56500Y60863D02*
Y64800D01*
X54532Y62831D02*
X58469D01*
X48626Y66572D02*
X64374D01*
X48626Y59091D02*
X64374D01*
Y66572D01*
X48626Y59091D02*
Y66572D01*
X55713Y67622D02*
Y70378D01*
X48626Y67622D02*
Y70378D01*
X55713D01*
X48626Y67622D02*
X55713D01*
X50988Y69000D02*
X53350D01*
X52169Y67819D02*
Y70181D01*
X56205Y112659D02*
Y115415D01*
X49118Y112659D02*
Y115415D01*
X56205D01*
X49118Y112659D02*
X56205D01*
X51480Y114037D02*
X53843D01*
X52661Y112856D02*
Y115218D01*
X56992Y105569D02*
Y109505D01*
X55024Y107537D02*
X58961D01*
X49118Y111277D02*
X64866D01*
X49118Y103797D02*
X64866D01*
Y111277D01*
X49118Y103797D02*
Y111277D01*
X55713Y79756D02*
Y82512D01*
X48626Y79756D02*
Y82512D01*
X55713D01*
X48626Y79756D02*
X55713D01*
X50988Y81134D02*
X53350D01*
X52169Y79953D02*
Y82315D01*
X56500Y72992D02*
Y76929D01*
X54532Y74961D02*
X58469D01*
X48626Y78701D02*
X64374D01*
X48626Y71220D02*
X64374D01*
Y78701D01*
X48626Y71220D02*
Y78701D01*
X313724Y164122D02*
Y166878D01*
X306638Y164122D02*
Y166878D01*
X313724D01*
X306638Y164122D02*
X313724D01*
X309000Y165500D02*
X311362D01*
X310181Y164319D02*
Y166681D01*
X314512Y157531D02*
Y161469D01*
X312543Y159500D02*
X316480D01*
X306638Y163240D02*
X322386D01*
X306638Y155760D02*
X322386D01*
Y163240D01*
X306638Y155760D02*
Y163240D01*
X313724Y152122D02*
Y154878D01*
X306638Y152122D02*
Y154878D01*
X313724D01*
X306638Y152122D02*
X313724D01*
X309000Y153500D02*
X311362D01*
X310181Y152319D02*
Y154681D01*
X314512Y145031D02*
Y148969D01*
X312543Y147000D02*
X316480D01*
X306638Y150740D02*
X322386D01*
X306638Y143260D02*
X322386D01*
Y150740D01*
X306638Y143260D02*
Y150740D01*
X313724Y139122D02*
Y141878D01*
X306638Y139122D02*
Y141878D01*
X313724D01*
X306638Y139122D02*
X313724D01*
X309000Y140500D02*
X311362D01*
X310181Y139319D02*
Y141681D01*
X314512Y132647D02*
Y136583D01*
X312543Y134615D02*
X316480D01*
X306638Y138355D02*
X322386D01*
X306638Y130875D02*
X322386D01*
Y138355D01*
X306638Y130875D02*
Y138355D01*
X255122Y94457D02*
X257878D01*
X255122Y101543D02*
X257878D01*
Y94457D02*
Y101543D01*
X255122Y94457D02*
Y101543D01*
X256500Y96819D02*
Y99181D01*
X255319Y98000D02*
X257681D01*
X248532Y93685D02*
X252468D01*
X250500Y91716D02*
Y95653D01*
X254240Y85811D02*
Y101559D01*
X246760Y85811D02*
Y101559D01*
Y85811D02*
X254240D01*
X246760Y101559D02*
X254240D01*
X64279Y17861D02*
X74121D01*
X64279Y539D02*
X74121D01*
Y17861D01*
X64279Y539D02*
Y17861D01*
X69200Y7231D02*
Y11169D01*
X67232Y9200D02*
X71169D01*
X74679Y17861D02*
X84521D01*
X74679Y539D02*
X84521D01*
Y17861D01*
X74679Y539D02*
Y17861D01*
X79600Y7231D02*
Y11169D01*
X77631Y9200D02*
X81568D01*
X53079Y18161D02*
X62921D01*
X53079Y839D02*
X62921D01*
Y18161D01*
X53079Y839D02*
Y18161D01*
X58000Y7531D02*
Y11468D01*
X56032Y9500D02*
X59969D01*
X265839Y3079D02*
Y12921D01*
X283161Y3079D02*
Y12921D01*
X265839D02*
X283161D01*
X265839Y3079D02*
X283161D01*
X272532Y8000D02*
X276468D01*
X274500Y6032D02*
Y9968D01*
X42579Y18161D02*
X52421D01*
X42579Y839D02*
X52421D01*
Y18161D01*
X42579Y839D02*
Y18161D01*
X47500Y7531D02*
Y11468D01*
X45531Y9500D02*
X49468D01*
X265839Y13542D02*
Y23384D01*
X283161Y13542D02*
Y23384D01*
X265839D02*
X283161D01*
X265839Y13542D02*
X283161D01*
X272532Y18463D02*
X276468D01*
X274500Y16495D02*
Y20432D01*
X265032Y96835D02*
X268969D01*
X267000Y94866D02*
Y98803D01*
X248532Y93835D02*
X252468D01*
X250500Y91866D02*
Y95803D01*
X254240Y85961D02*
Y101709D01*
X246760Y85961D02*
Y101709D01*
X254240D01*
X246760Y85961D02*
X254240D01*
X281500Y94874D02*
Y98811D01*
X279532Y96842D02*
X283469D01*
X273626Y100583D02*
X289374D01*
X273626Y93102D02*
X289374D01*
X273626D02*
Y100583D01*
X289374Y93102D02*
Y100583D01*
X103156Y143115D02*
X105518D01*
X104337Y141934D02*
Y144296D01*
X102959Y139572D02*
Y146658D01*
X105715Y139572D02*
Y146658D01*
X102959Y139572D02*
X105715D01*
X102959Y146658D02*
X105715D01*
X71719Y153084D02*
X74081D01*
X72900Y151902D02*
Y154265D01*
X74278Y149540D02*
Y156627D01*
X71522Y149540D02*
Y156627D01*
X74278D01*
X71522Y149540D02*
X74278D01*
X115530Y151178D02*
X119270D01*
X117400Y149308D02*
Y153048D01*
X115235Y146453D02*
Y155902D01*
X119565Y146453D02*
Y155902D01*
X115235Y146453D02*
X119565D01*
X115235Y155902D02*
X119565D01*
X109432Y151115D02*
X111794D01*
X110613Y149934D02*
Y152296D01*
X111990Y147572D02*
Y154658D01*
X109235Y147572D02*
Y154658D01*
X111990D01*
X109235Y147572D02*
X111990D01*
X103719Y166615D02*
X106081D01*
X104900Y165434D02*
Y167796D01*
X103522Y163072D02*
Y170158D01*
X106278Y163072D02*
Y170158D01*
X103522Y163072D02*
X106278D01*
X103522Y170158D02*
X106278D01*
X108219Y166615D02*
X110581D01*
X109400Y165434D02*
Y167796D01*
X110778Y163072D02*
Y170158D01*
X108022Y163072D02*
Y170158D01*
X110778D01*
X108022Y163072D02*
X110778D01*
X152579Y151178D02*
Y155115D01*
X150610Y153147D02*
X154547D01*
X139122Y156269D02*
Y159024D01*
X132035Y156269D02*
Y159024D01*
Y156269D02*
X139122D01*
X132035Y159024D02*
X139122D01*
X134398Y157647D02*
X136760D01*
X135579Y156465D02*
Y158827D01*
X151201Y165603D02*
X153957D01*
X151201Y172690D02*
X153957D01*
X151201Y165603D02*
Y172690D01*
X153957Y165603D02*
Y172690D01*
X152579Y167965D02*
Y170328D01*
X151398Y169147D02*
X153760D01*
X153169Y136103D02*
X155925D01*
X153169Y143190D02*
X155925D01*
X153169Y136103D02*
Y143190D01*
X155925Y136103D02*
Y143190D01*
X154547Y138465D02*
Y140828D01*
X153366Y139646D02*
X155728D01*
X132535Y151268D02*
Y154024D01*
X139622Y151268D02*
Y154024D01*
X132535D02*
X139622D01*
X132535Y151268D02*
X139622D01*
X134898Y152647D02*
X137260D01*
X136079Y151465D02*
Y153828D01*
X140201Y168190D02*
X142957D01*
X140201Y161103D02*
X142957D01*
Y168190D01*
X140201Y161103D02*
Y168190D01*
X141579Y163465D02*
Y165828D01*
X140398Y164646D02*
X142760D01*
X141110Y135646D02*
X145047D01*
X143079Y133678D02*
Y137615D01*
X146819Y127772D02*
Y143520D01*
X139339Y127772D02*
Y143520D01*
X146819D01*
X139339Y127772D02*
X146819D01*
X149232Y136103D02*
X151988D01*
X149232Y143190D02*
X151988D01*
X149232Y136103D02*
Y143190D01*
X151988Y136103D02*
Y143190D01*
X150610Y138465D02*
Y140828D01*
X149429Y139646D02*
X151791D01*
X158701Y133603D02*
X161457D01*
X158701Y140690D02*
X161457D01*
X158701Y133603D02*
Y140690D01*
X161457Y133603D02*
Y140690D01*
X160079Y135965D02*
Y138328D01*
X158898Y137146D02*
X161260D01*
X164201Y148690D02*
X166957D01*
X164201Y141603D02*
X166957D01*
Y148690D01*
X164201Y141603D02*
Y148690D01*
X165579Y143965D02*
Y146328D01*
X164398Y145147D02*
X166760D01*
X146201Y162603D02*
X148957D01*
X146201Y169690D02*
X148957D01*
X146201Y162603D02*
Y169690D01*
X148957Y162603D02*
Y169690D01*
X147579Y164965D02*
Y167328D01*
X146398Y166147D02*
X148760D01*
X145622Y14043D02*
X148378D01*
X145622Y6957D02*
X148378D01*
Y14043D01*
X145622Y6957D02*
Y14043D01*
X147000Y9319D02*
Y11681D01*
X145819Y10500D02*
X148181D01*
X149547Y4188D02*
Y15212D01*
X155453Y4188D02*
Y15212D01*
X149547Y4188D02*
X155453D01*
X149547Y15212D02*
X155453D01*
X152500Y9200D02*
Y10200D01*
X152000Y9700D02*
X153000D01*
X195531Y139000D02*
X199469D01*
X197500Y137031D02*
Y140969D01*
X237000Y194532D02*
Y198468D01*
X235032Y196500D02*
X238968D01*
X211000Y90332D02*
Y94269D01*
X209032Y92300D02*
X212968D01*
X320443Y192522D02*
Y195278D01*
X313357Y192522D02*
Y195278D01*
Y192522D02*
X320443D01*
X313357Y195278D02*
X320443D01*
X315719Y193900D02*
X318081D01*
X316900Y192719D02*
Y195081D01*
X319943Y203322D02*
Y206078D01*
X312857Y203322D02*
Y206078D01*
Y203322D02*
X319943D01*
X312857Y206078D02*
X319943D01*
X315219Y204700D02*
X317581D01*
X316400Y203519D02*
Y205881D01*
X128622Y15043D02*
X131378D01*
X128622Y7957D02*
X131378D01*
Y15043D01*
X128622Y7957D02*
Y15043D01*
X130000Y10319D02*
Y12681D01*
X128819Y11500D02*
X131181D01*
X113201Y14543D02*
X115957D01*
X113201Y7457D02*
X115957D01*
Y14543D01*
X113201Y7457D02*
Y14543D01*
X114579Y9819D02*
Y12181D01*
X113398Y11000D02*
X115760D01*
X97122Y14543D02*
X99878D01*
X97122Y7457D02*
X99878D01*
Y14543D01*
X97122Y7457D02*
Y14543D01*
X98500Y9819D02*
Y12181D01*
X97319Y11000D02*
X99681D01*
X219579Y93961D02*
X229421D01*
X219579Y76639D02*
X229421D01*
Y93961D01*
X219579Y76639D02*
Y93961D01*
X224500Y83332D02*
Y87269D01*
X222532Y85300D02*
X226468D01*
X230579Y84639D02*
X240421D01*
X230579Y101961D02*
X240421D01*
X230579Y84639D02*
Y101961D01*
X240421Y84639D02*
Y101961D01*
X235500Y91331D02*
Y95268D01*
X233531Y93300D02*
X237469D01*
X132714Y4688D02*
Y15712D01*
X138619Y4688D02*
Y15712D01*
X132714Y4688D02*
X138619D01*
X132714Y15712D02*
X138619D01*
X135667Y9700D02*
Y10700D01*
X135167Y10200D02*
X136167D01*
X117381Y4188D02*
Y15212D01*
X123286Y4188D02*
Y15212D01*
X117381Y4188D02*
X123286D01*
X117381Y15212D02*
X123286D01*
X120333Y9200D02*
Y10200D01*
X119833Y9700D02*
X120833D01*
X101847Y4188D02*
Y15212D01*
X107753Y4188D02*
Y15212D01*
X101847Y4188D02*
X107753D01*
X101847Y15212D02*
X107753D01*
X104800Y9200D02*
Y10200D01*
X104300Y9700D02*
X105300D01*
X194000Y91316D02*
Y95253D01*
X192032Y93284D02*
X195968D01*
X186126Y87773D02*
X201874D01*
X186126Y98796D02*
X201874D01*
Y87773D02*
Y98796D01*
X186126Y87773D02*
Y98796D01*
X222031Y107300D02*
X225969D01*
X224000Y105332D02*
Y109268D01*
X218488Y99426D02*
Y115174D01*
X229512Y99426D02*
Y115174D01*
X218488Y99426D02*
X229512D01*
X218488Y115174D02*
X229512D01*
X320688Y208053D02*
X331712D01*
X320688Y202147D02*
X331712D01*
X320688D02*
Y208053D01*
X331712Y202147D02*
Y208053D01*
X325700Y205100D02*
X326700D01*
X326200Y204600D02*
Y205600D01*
X320988Y197053D02*
X332012D01*
X320988Y191147D02*
X332012D01*
X320988D02*
Y197053D01*
X332012Y191147D02*
Y197053D01*
X326000Y194100D02*
X327000D01*
X326500Y193600D02*
Y194600D01*
X281000Y113038D02*
Y116975D01*
X279031Y115006D02*
X282968D01*
X273126Y118746D02*
X288874D01*
X273126Y111266D02*
X288874D01*
X273126D02*
Y118746D01*
X288874Y111266D02*
Y118746D01*
X248131Y112006D02*
X252068D01*
X250100Y110038D02*
Y113975D01*
X253840Y104132D02*
Y119880D01*
X246360Y104132D02*
Y119880D01*
X253840D01*
X246360Y104132D02*
X253840D01*
X264632Y115006D02*
X268568D01*
X266600Y113038D02*
Y116975D01*
X264432Y56458D02*
X268369D01*
X266400Y54490D02*
Y58427D01*
X256522Y60502D02*
X259278D01*
X256522Y53415D02*
X259278D01*
Y60502D01*
X256522Y53415D02*
Y60502D01*
X257900Y55777D02*
Y58139D01*
X256719Y56958D02*
X259081D01*
X247932Y53458D02*
X251869D01*
X249900Y51490D02*
Y55427D01*
X253640Y45584D02*
Y61332D01*
X246160Y45584D02*
Y61332D01*
X253640D01*
X246160Y45584D02*
X253640D01*
X281000Y54532D02*
Y58469D01*
X279031Y56500D02*
X282968D01*
X273126Y60240D02*
X288874D01*
X273126Y52760D02*
X288874D01*
X273126D02*
Y60240D01*
X288874Y52760D02*
Y60240D01*
X281500Y73831D02*
Y77768D01*
X279532Y75800D02*
X283469D01*
X273626Y79540D02*
X289374D01*
X273626Y72060D02*
X289374D01*
X273626D02*
Y79540D01*
X289374Y72060D02*
Y79540D01*
X248331Y72800D02*
X252269D01*
X250300Y70832D02*
Y74769D01*
X254040Y64926D02*
Y80674D01*
X246560Y64926D02*
Y80674D01*
X254040D01*
X246560Y64926D02*
X254040D01*
X264831Y75800D02*
X268769D01*
X266800Y73831D02*
Y77768D01*
X16532Y87000D02*
X20469D01*
X18500Y85031D02*
Y88968D01*
X314134Y76102D02*
X318071D01*
X316102Y74134D02*
Y78071D01*
X316000Y145531D02*
Y149469D01*
X314032Y147500D02*
X317969D01*
X207122Y47394D02*
X209878D01*
X207122Y40307D02*
X209878D01*
Y47394D01*
X207122Y40307D02*
Y47394D01*
X208500Y42669D02*
Y45031D01*
X207319Y43850D02*
X209681D01*
X213531Y43500D02*
X217469D01*
X215500Y41532D02*
Y45469D01*
X207622Y67043D02*
X210378D01*
X207622Y59957D02*
X210378D01*
Y67043D01*
X207622Y59957D02*
Y67043D01*
X209000Y62319D02*
Y64681D01*
X207819Y63500D02*
X210181D01*
X200532Y60538D02*
X204468D01*
X202500Y58569D02*
Y62506D01*
X206240Y52664D02*
Y68412D01*
X198760Y52664D02*
Y68412D01*
X206240D01*
X198760Y52664D02*
X206240D01*
X257122Y100878D02*
X259878D01*
X257122Y93791D02*
X259878D01*
Y100878D01*
X257122Y93791D02*
Y100878D01*
X258500Y96153D02*
Y98516D01*
X257319Y97335D02*
X259681D01*
X256722Y119050D02*
X259478D01*
X256722Y111963D02*
X259478D01*
Y119050D01*
X256722Y111963D02*
Y119050D01*
X258100Y114325D02*
Y116687D01*
X256919Y115506D02*
X259281D01*
X256922Y79843D02*
X259678D01*
X256922Y72757D02*
X259678D01*
Y79843D01*
X256922Y72757D02*
Y79843D01*
X258300Y75119D02*
Y77481D01*
X257119Y76300D02*
X259481D01*
X200532Y40300D02*
X204468D01*
X202500Y38331D02*
Y42268D01*
X206240Y32426D02*
Y48174D01*
X198760Y32426D02*
Y48174D01*
X206240D01*
X198760Y32426D02*
X206240D01*
X230500Y61803D02*
Y65740D01*
X228532Y63772D02*
X232469D01*
X222626Y67512D02*
X238374D01*
X222626Y60031D02*
X238374D01*
X222626D02*
Y67512D01*
X238374Y60031D02*
Y67512D01*
X215032Y63772D02*
X218969D01*
X217000Y61803D02*
Y65740D01*
X229815Y41532D02*
Y45469D01*
X227847Y43500D02*
X231784D01*
X221941Y47240D02*
X237689D01*
X221941Y39760D02*
X237689D01*
X221941D02*
Y47240D01*
X237689Y39760D02*
Y47240D01*
X26961Y127075D02*
X30898D01*
X28929Y125106D02*
Y129043D01*
X18500Y165220D02*
Y169158D01*
X16532Y167189D02*
X20469D01*
X314937Y67575D02*
Y71512D01*
X312968Y69543D02*
X316905D01*
X307063Y73283D02*
X322811D01*
X307063Y65803D02*
X322811D01*
Y73283D01*
X307063Y65803D02*
Y73283D01*
X315043Y74165D02*
Y76921D01*
X307957Y74165D02*
Y76921D01*
X315043D01*
X307957Y74165D02*
X315043D01*
X310319Y75543D02*
X312681D01*
X311500Y74362D02*
Y76724D01*
X315185Y80032D02*
Y83969D01*
X313216Y82000D02*
X317154D01*
X307311Y85740D02*
X323059D01*
X307311Y78260D02*
X323059D01*
Y85740D01*
X307311Y78260D02*
Y85740D01*
X315543Y87122D02*
Y89878D01*
X308457Y87122D02*
Y89878D01*
X315543D01*
X308457Y87122D02*
X315543D01*
X310819Y88500D02*
X313181D01*
X312000Y87319D02*
Y89681D01*
X19957Y93067D02*
Y95823D01*
X27043Y93067D02*
Y95823D01*
X19957Y93067D02*
X27043D01*
X19957Y95823D02*
X27043D01*
X22319Y94445D02*
X24681D01*
X23500Y93264D02*
Y95626D01*
X20214Y98476D02*
Y102413D01*
X18246Y100445D02*
X22183D01*
X12340Y96705D02*
X28088D01*
X12340Y104185D02*
X28088D01*
X12340Y96705D02*
Y104185D01*
X28088Y96705D02*
Y104185D01*
X18957Y76122D02*
Y78878D01*
X26043Y76122D02*
Y78878D01*
X18957Y76122D02*
X26043D01*
X18957Y78878D02*
X26043D01*
X21319Y77500D02*
X23681D01*
X22500Y76319D02*
Y78681D01*
X19500Y82032D02*
Y85969D01*
X17531Y84000D02*
X21468D01*
X11626Y80260D02*
X27374D01*
X11626Y87740D02*
X27374D01*
X11626Y80260D02*
Y87740D01*
X27374Y80260D02*
Y87740D01*
X19494Y64622D02*
Y67378D01*
X26581Y64622D02*
Y67378D01*
X19494Y64622D02*
X26581D01*
X19494Y67378D02*
X26581D01*
X21857Y66000D02*
X24219D01*
X23038Y64819D02*
Y67181D01*
X19538Y70031D02*
Y73968D01*
X17569Y72000D02*
X21506D01*
X11664Y68260D02*
X27412D01*
X11664Y75740D02*
X27412D01*
X11664Y68260D02*
Y75740D01*
X27412Y68260D02*
Y75740D01*
X315713Y100622D02*
Y103378D01*
X308626Y100622D02*
Y103378D01*
X315713D01*
X308626Y100622D02*
X315713D01*
X310988Y102000D02*
X313350D01*
X312169Y100819D02*
Y103181D01*
X316500Y92532D02*
Y96469D01*
X314531Y94500D02*
X318468D01*
X308626Y98240D02*
X324374D01*
X308626Y90760D02*
X324374D01*
Y98240D01*
X308626Y90760D02*
Y98240D01*
X237339Y3079D02*
Y12921D01*
X254661Y3079D02*
Y12921D01*
X237339D02*
X254661D01*
X237339Y3079D02*
X254661D01*
X244032Y8000D02*
X247969D01*
X246000Y6032D02*
Y9968D01*
X237339Y13579D02*
Y23421D01*
X254661Y13579D02*
Y23421D01*
X237339D02*
X254661D01*
X237339Y13579D02*
X254661D01*
X244032Y18500D02*
X247969D01*
X246000Y16532D02*
Y20469D01*
X237339Y24079D02*
Y33921D01*
X254661Y24079D02*
Y33921D01*
X237339D02*
X254661D01*
X237339Y24079D02*
X254661D01*
X244032Y29000D02*
X247969D01*
X246000Y27031D02*
Y30968D01*
X265327Y99197D02*
G03*
X265327Y99197I-787J0D01*
G01*
X156909Y150784D02*
G03*
X156909Y150784I-1969J0D01*
G01*
X210606Y94662D02*
G03*
X210606Y94662I-1969J0D01*
G01*
X264927Y117368D02*
G03*
X264927Y117368I-787J0D01*
G01*
X264727Y58820D02*
G03*
X264727Y58820I-787J0D01*
G01*
X265127Y78162D02*
G03*
X265127Y78162I-787J0D01*
G01*
X213827Y45862D02*
G03*
X213827Y45862I-787J0D01*
G01*
X215327Y66134D02*
G03*
X215327Y66134I-787J0D01*
G01*
X49807Y90875D02*
X63193D01*
X49807Y83788D02*
X63193D01*
Y90875D01*
X49807Y83788D02*
Y90875D01*
X54335Y92650D02*
Y95013D01*
X50004Y92650D02*
Y95013D01*
X54335D01*
X50004Y92650D02*
X54335D01*
X193193Y159957D02*
Y167043D01*
X179807Y159957D02*
X193193D01*
X179807D02*
Y167043D01*
X193193D01*
X179807Y176457D02*
X193193D01*
X179807Y183543D02*
X193193D01*
X179807Y176457D02*
Y183543D01*
X193193Y176457D02*
Y183543D01*
Y151957D02*
Y159043D01*
X179807Y151957D02*
X193193D01*
X179807D02*
Y159043D01*
X193193D01*
X179807Y168185D02*
X193193D01*
X179807Y175272D02*
X193193D01*
X179807Y168185D02*
Y175272D01*
X193193Y168185D02*
Y175272D01*
X49807Y66375D02*
X63193D01*
X49807Y59288D02*
X63193D01*
Y66375D01*
X49807Y59288D02*
Y66375D01*
X54335Y67819D02*
Y70181D01*
X50004Y67819D02*
Y70181D01*
X54335D01*
X50004Y67819D02*
X54335D01*
X54827Y112856D02*
Y115218D01*
X50496Y112856D02*
Y115218D01*
X54827D01*
X50496Y112856D02*
X54827D01*
X50299Y111080D02*
X63685D01*
X50299Y103994D02*
X63685D01*
Y111080D01*
X50299Y103994D02*
Y111080D01*
X54335Y79953D02*
Y82315D01*
X50004Y79953D02*
Y82315D01*
X54335D01*
X50004Y79953D02*
X54335D01*
X49807Y78504D02*
X63193D01*
X49807Y71417D02*
X63193D01*
Y78504D01*
X49807Y71417D02*
Y78504D01*
X312346Y164319D02*
Y166681D01*
X308016Y164319D02*
Y166681D01*
X312346D01*
X308016Y164319D02*
X312346D01*
X307819Y163043D02*
X321205D01*
X307819Y155957D02*
X321205D01*
Y163043D01*
X307819Y155957D02*
Y163043D01*
X312346Y152319D02*
Y154681D01*
X308016Y152319D02*
Y154681D01*
X312346D01*
X308016Y152319D02*
X312346D01*
X307819Y150543D02*
X321205D01*
X307819Y143457D02*
X321205D01*
Y150543D01*
X307819Y143457D02*
Y150543D01*
X312346Y139319D02*
Y141681D01*
X308016Y139319D02*
Y141681D01*
X312346D01*
X308016Y139319D02*
X312346D01*
X307819Y138158D02*
X321205D01*
X307819Y131072D02*
X321205D01*
Y138158D01*
X307819Y131072D02*
Y138158D01*
X255319Y95835D02*
X257681D01*
X255319Y100165D02*
X257681D01*
Y95835D02*
Y100165D01*
X255319Y95835D02*
Y100165D01*
X254043Y86992D02*
Y100378D01*
X246957Y86992D02*
Y100378D01*
Y86992D02*
X254043D01*
X246957Y100378D02*
X254043D01*
X66444Y13432D02*
X71956D01*
X66444Y4968D02*
X71956D01*
Y13432D01*
X66444Y4968D02*
Y13432D01*
X76844D02*
X82356D01*
X76844Y4968D02*
X82356D01*
Y13432D01*
X76844Y4968D02*
Y13432D01*
X55244Y13732D02*
X60756D01*
X55244Y5268D02*
X60756D01*
Y13732D01*
X55244Y5268D02*
Y13732D01*
X270268Y5244D02*
Y10756D01*
X278732Y5244D02*
Y10756D01*
X270268D02*
X278732D01*
X270268Y5244D02*
X278732D01*
X44744Y13732D02*
X50256D01*
X44744Y5268D02*
X50256D01*
Y13732D01*
X44744Y5268D02*
Y13732D01*
X270268Y15707D02*
Y21219D01*
X278732Y15707D02*
Y21219D01*
X270268D02*
X278732D01*
X270268Y15707D02*
X278732D01*
X262866Y92701D02*
Y100969D01*
X271134Y92701D02*
Y100969D01*
X262866D02*
X271134D01*
X262866Y92701D02*
X271134D01*
X254043Y87142D02*
Y100528D01*
X246957Y87142D02*
Y100528D01*
X254043D01*
X246957Y87142D02*
X254043D01*
X274807Y100386D02*
X288193D01*
X274807Y93299D02*
X288193D01*
X274807D02*
Y100386D01*
X288193Y93299D02*
Y100386D01*
X103156Y140950D02*
Y145280D01*
X105518Y140950D02*
Y145280D01*
X103156Y140950D02*
X105518D01*
X103156Y145280D02*
X105518D01*
X74081Y150918D02*
Y155249D01*
X71719Y150918D02*
Y155249D01*
X74081D01*
X71719Y150918D02*
X74081D01*
X115530Y147733D02*
Y154623D01*
X119270Y147733D02*
Y154623D01*
X115530Y147733D02*
X119270D01*
X115530Y154623D02*
X119270D01*
X111794Y148950D02*
Y153280D01*
X109432Y148950D02*
Y153280D01*
X111794D01*
X109432Y148950D02*
X111794D01*
X103719Y164450D02*
Y168780D01*
X106081Y164450D02*
Y168780D01*
X103719Y164450D02*
X106081D01*
X103719Y168780D02*
X106081D01*
X110581Y164450D02*
Y168780D01*
X108219Y164450D02*
Y168780D01*
X110581D01*
X108219Y164450D02*
X110581D01*
X146673Y159052D02*
X158484D01*
X146673Y147241D02*
X158484D01*
X146673D02*
Y159052D01*
X158484Y147241D02*
Y159052D01*
X137744Y156465D02*
Y158827D01*
X133413Y156465D02*
Y158827D01*
Y156465D02*
X137744D01*
X133413Y158827D02*
X137744D01*
X151398Y166981D02*
X153760D01*
X151398Y171312D02*
X153760D01*
X151398Y166981D02*
Y171312D01*
X153760Y166981D02*
Y171312D01*
X153366Y137481D02*
X155728D01*
X153366Y141812D02*
X155728D01*
X153366Y137481D02*
Y141812D01*
X155728Y137481D02*
Y141812D01*
X133913Y151465D02*
Y153828D01*
X138244Y151465D02*
Y153828D01*
X133913D02*
X138244D01*
X133913Y151465D02*
X138244D01*
X140398Y166812D02*
X142760D01*
X140398Y162481D02*
X142760D01*
Y166812D01*
X140398Y162481D02*
Y166812D01*
X146622Y128954D02*
Y142339D01*
X139535Y128954D02*
Y142339D01*
X146622D01*
X139535Y128954D02*
X146622D01*
X149429Y137481D02*
X151791D01*
X149429Y141812D02*
X151791D01*
X149429Y137481D02*
Y141812D01*
X151791Y137481D02*
Y141812D01*
X158898Y134981D02*
X161260D01*
X158898Y139312D02*
X161260D01*
X158898Y134981D02*
Y139312D01*
X161260Y134981D02*
Y139312D01*
X164398Y147312D02*
X166760D01*
X164398Y142981D02*
X166760D01*
Y147312D01*
X164398Y142981D02*
Y147312D01*
X146398Y163981D02*
X148760D01*
X146398Y168312D02*
X148760D01*
X146398Y163981D02*
Y168312D01*
X148760Y163981D02*
Y168312D01*
X145819Y12665D02*
X148181D01*
X145819Y8335D02*
X148181D01*
Y12665D01*
X145819Y8335D02*
Y12665D01*
X149744Y5468D02*
Y13932D01*
X155256Y5468D02*
Y13932D01*
X149744Y5468D02*
X155256D01*
X149744Y13932D02*
X155256D01*
X195925Y136638D02*
Y141362D01*
X199075D01*
Y136638D02*
Y141362D01*
X195925Y136638D02*
X199075D01*
X234638Y198075D02*
X239362D01*
Y194925D02*
Y198075D01*
X234638Y194925D02*
X239362D01*
X234638D02*
Y198075D01*
X205095Y86395D02*
X216905D01*
X205095Y98206D02*
X216905D01*
Y86395D02*
Y98206D01*
X205095Y86395D02*
Y98206D01*
X319065Y192719D02*
Y195081D01*
X314735Y192719D02*
Y195081D01*
Y192719D02*
X319065D01*
X314735Y195081D02*
X319065D01*
X318565Y203519D02*
Y205881D01*
X314235Y203519D02*
Y205881D01*
Y203519D02*
X318565D01*
X314235Y205881D02*
X318565D01*
X128819Y13665D02*
X131181D01*
X128819Y9335D02*
X131181D01*
Y13665D01*
X128819Y9335D02*
Y13665D01*
X113398Y13165D02*
X115760D01*
X113398Y8835D02*
X115760D01*
Y13165D01*
X113398Y8835D02*
Y13165D01*
X97319D02*
X99681D01*
X97319Y8835D02*
X99681D01*
Y13165D01*
X97319Y8835D02*
Y13165D01*
X221744Y89532D02*
X227256D01*
X221744Y81068D02*
X227256D01*
Y89532D01*
X221744Y81068D02*
Y89532D01*
X232744Y89068D02*
X238256D01*
X232744Y97532D02*
X238256D01*
X232744Y89068D02*
Y97532D01*
X238256Y89068D02*
Y97532D01*
X132911Y5968D02*
Y14432D01*
X138423Y5968D02*
Y14432D01*
X132911Y5968D02*
X138423D01*
X132911Y14432D02*
X138423D01*
X117577Y5468D02*
Y13932D01*
X123089Y5468D02*
Y13932D01*
X117577Y5468D02*
X123089D01*
X117577Y13932D02*
X123089D01*
X102044Y5468D02*
Y13932D01*
X107556Y5468D02*
Y13932D01*
X102044Y5468D02*
X107556D01*
X102044Y13932D02*
X107556D01*
X187307Y87969D02*
X200693D01*
X187307Y98599D02*
X200693D01*
Y87969D02*
Y98599D01*
X187307Y87969D02*
Y98599D01*
X218685Y100607D02*
Y113993D01*
X229315Y100607D02*
Y113993D01*
X218685Y100607D02*
X229315D01*
X218685Y113993D02*
X229315D01*
X321968Y207856D02*
X330432D01*
X321968Y202344D02*
X330432D01*
X321968D02*
Y207856D01*
X330432Y202344D02*
Y207856D01*
X322268Y196856D02*
X330732D01*
X322268Y191344D02*
X330732D01*
X322268D02*
Y196856D01*
X330732Y191344D02*
Y196856D01*
X274307Y118550D02*
X287693D01*
X274307Y111463D02*
X287693D01*
X274307D02*
Y118550D01*
X287693Y111463D02*
Y118550D01*
X253643Y105313D02*
Y118699D01*
X246557Y105313D02*
Y118699D01*
X253643D01*
X246557Y105313D02*
X253643D01*
X262466Y110872D02*
Y119140D01*
X270734Y110872D02*
Y119140D01*
X262466D02*
X270734D01*
X262466Y110872D02*
X270734D01*
X262266Y52324D02*
Y60592D01*
X270534Y52324D02*
Y60592D01*
X262266D02*
X270534D01*
X262266Y52324D02*
X270534D01*
X256719Y59124D02*
X259081D01*
X256719Y54793D02*
X259081D01*
Y59124D01*
X256719Y54793D02*
Y59124D01*
X253443Y46765D02*
Y60151D01*
X246357Y46765D02*
Y60151D01*
X253443D01*
X246357Y46765D02*
X253443D01*
X274307Y60043D02*
X287693D01*
X274307Y52957D02*
X287693D01*
X274307D02*
Y60043D01*
X287693Y52957D02*
Y60043D01*
X274807Y79343D02*
X288193D01*
X274807Y72257D02*
X288193D01*
X274807D02*
Y79343D01*
X288193Y72257D02*
Y79343D01*
X253843Y66107D02*
Y79493D01*
X246757Y66107D02*
Y79493D01*
X253843D01*
X246757Y66107D02*
X253843D01*
X262666Y71666D02*
Y79934D01*
X270934Y71666D02*
Y79934D01*
X262666D02*
X270934D01*
X262666Y71666D02*
X270934D01*
X14465Y56291D02*
X22339D01*
X9741Y54323D02*
X14465D01*
X4229Y56291D02*
Y58652D01*
X3048D02*
X4229D01*
X3048Y57078D02*
Y58652D01*
X292Y57078D02*
X3048D01*
X14465Y54323D02*
Y56291D01*
X9741Y54323D02*
Y56291D01*
X4230D02*
X9741D01*
X4230Y117709D02*
X9741D01*
Y119677D01*
X14465Y117709D02*
Y119677D01*
X292Y116922D02*
X3048D01*
Y115348D02*
Y116922D01*
Y115348D02*
X4229D01*
Y117710D01*
X9741Y119677D02*
X14465D01*
X14465Y117710D02*
X22339D01*
X292Y57079D02*
Y116922D01*
X22339Y57079D02*
Y117710D01*
X312263Y106812D02*
X320138D01*
X320137Y108780D02*
X324862D01*
X330373Y104450D02*
Y106812D01*
Y104450D02*
X331554D01*
Y106025D01*
X334310D01*
X320137Y106811D02*
Y108780D01*
X324862Y106811D02*
Y108780D01*
Y106811D02*
X330372D01*
X324862Y45394D02*
X330372D01*
X324862Y43425D02*
Y45394D01*
X320137Y43425D02*
Y45394D01*
X331554Y46180D02*
X334310D01*
X331554D02*
Y47755D01*
X330373D02*
X331554D01*
X330373Y45393D02*
Y47755D01*
X320137Y43425D02*
X324862D01*
X312263Y45393D02*
X320138D01*
X334310Y46180D02*
Y106024D01*
X312263Y45393D02*
Y106024D01*
X312161Y116790D02*
Y177421D01*
X334208Y117578D02*
Y177421D01*
X312161Y116790D02*
X320035D01*
X320035Y114823D02*
X324759D01*
X330271Y116790D02*
Y119152D01*
X331452D01*
Y117578D02*
Y119152D01*
Y117578D02*
X334208D01*
X320035Y114823D02*
Y116791D01*
X324759Y114823D02*
Y116791D01*
X330270D01*
X324759Y178209D02*
X330270D01*
X324759D02*
Y180177D01*
X320035Y178209D02*
Y180177D01*
X331452Y177422D02*
X334208D01*
X331452Y175848D02*
Y177422D01*
X330271Y175848D02*
X331452D01*
X330271D02*
Y178209D01*
X320035Y180177D02*
X324759D01*
X312161Y178209D02*
X320035D01*
X207319Y46016D02*
X209681D01*
X207319Y41685D02*
X209681D01*
Y46016D01*
X207319Y41685D02*
Y46016D01*
X211366Y39366D02*
Y47634D01*
X219634Y39366D02*
Y47634D01*
X211366D02*
X219634D01*
X211366Y39366D02*
X219634D01*
X207819Y65665D02*
X210181D01*
X207819Y61335D02*
X210181D01*
Y65665D01*
X207819Y61335D02*
Y65665D01*
X206043Y53845D02*
Y67231D01*
X198957Y53845D02*
Y67231D01*
X206043D01*
X198957Y53845D02*
X206043D01*
X257319Y99500D02*
X259681D01*
X257319Y95169D02*
X259681D01*
Y99500D01*
X257319Y95169D02*
Y99500D01*
X256919Y117672D02*
X259281D01*
X256919Y113341D02*
X259281D01*
Y117672D01*
X256919Y113341D02*
Y117672D01*
X257119Y78465D02*
X259481D01*
X257119Y74135D02*
X259481D01*
Y78465D01*
X257119Y74135D02*
Y78465D01*
X206043Y33607D02*
Y46993D01*
X198957Y33607D02*
Y46993D01*
X206043D01*
X198957Y33607D02*
X206043D01*
X223807Y67315D02*
X237193D01*
X223807Y60228D02*
X237193D01*
X223807D02*
Y67315D01*
X237193Y60228D02*
Y67315D01*
X212866Y59638D02*
Y67905D01*
X221134Y59638D02*
Y67905D01*
X212866D02*
X221134D01*
X212866Y59638D02*
X221134D01*
X223122Y47043D02*
X236508D01*
X223122Y39957D02*
X236508D01*
X223122D02*
Y47043D01*
X236508Y39957D02*
Y47043D01*
X27354Y124713D02*
Y129437D01*
X30504D01*
Y124713D02*
Y129437D01*
X27354Y124713D02*
X30504D01*
X22339Y137268D02*
Y197898D01*
X292Y137268D02*
Y197111D01*
X14465Y197898D02*
X22339D01*
X9741Y199866D02*
X14465D01*
X4229Y195537D02*
Y197898D01*
X3048Y195537D02*
X4229D01*
X3048D02*
Y197111D01*
X292D02*
X3048D01*
X14465Y197898D02*
Y199866D01*
X9741Y197898D02*
Y199866D01*
X4230Y197898D02*
X9741D01*
X4230Y136480D02*
X9741D01*
Y134512D02*
Y136480D01*
X14465Y134512D02*
Y136480D01*
X292Y137267D02*
X3048D01*
Y138841D01*
X4229D01*
Y136479D02*
Y138841D01*
X9741Y134512D02*
X14465D01*
X14465Y136479D02*
X22339D01*
X308244Y73087D02*
X321630D01*
X308244Y66000D02*
X321630D01*
Y73087D01*
X308244Y66000D02*
Y73087D01*
X313665Y74362D02*
Y76724D01*
X309335Y74362D02*
Y76724D01*
X313665D01*
X309335Y74362D02*
X313665D01*
X308492Y85543D02*
X321878D01*
X308492Y78457D02*
X321878D01*
Y85543D01*
X308492Y78457D02*
Y85543D01*
X314165Y87319D02*
Y89681D01*
X309835Y87319D02*
Y89681D01*
X314165D01*
X309835Y87319D02*
X314165D01*
X21335Y93264D02*
Y95626D01*
X25665Y93264D02*
Y95626D01*
X21335Y93264D02*
X25665D01*
X21335Y95626D02*
X25665D01*
X13521Y96902D02*
X26907D01*
X13521Y103988D02*
X26907D01*
X13521Y96902D02*
Y103988D01*
X26907Y96902D02*
Y103988D01*
X20335Y76319D02*
Y78681D01*
X24665Y76319D02*
Y78681D01*
X20335Y76319D02*
X24665D01*
X20335Y78681D02*
X24665D01*
X12807Y80457D02*
X26193D01*
X12807Y87543D02*
X26193D01*
X12807Y80457D02*
Y87543D01*
X26193Y80457D02*
Y87543D01*
X20873Y64819D02*
Y67181D01*
X25203Y64819D02*
Y67181D01*
X20873Y64819D02*
X25203D01*
X20873Y67181D02*
X25203D01*
X12845Y68457D02*
X26231D01*
X12845Y75543D02*
X26231D01*
X12845Y68457D02*
Y75543D01*
X26231Y68457D02*
Y75543D01*
X314335Y100819D02*
Y103181D01*
X310004Y100819D02*
Y103181D01*
X314335D01*
X310004Y100819D02*
X314335D01*
X309807Y98043D02*
X323193D01*
X309807Y90957D02*
X323193D01*
Y98043D01*
X309807Y90957D02*
Y98043D01*
X241768Y5244D02*
Y10756D01*
X250232Y5244D02*
Y10756D01*
X241768D02*
X250232D01*
X241768Y5244D02*
X250232D01*
X241768Y15744D02*
Y21256D01*
X250232Y15744D02*
Y21256D01*
X241768D02*
X250232D01*
X241768Y15744D02*
X250232D01*
X241768Y26244D02*
Y31756D01*
X250232Y26244D02*
Y31756D01*
X241768D02*
X250232D01*
X241768Y26244D02*
X250232D01*
D45*
X66437Y35827D02*
Y85827D01*
Y35827D02*
X191437D01*
Y85827D01*
X66437D02*
X191437D01*
X251878Y213496D02*
X297153D01*
Y152472D02*
Y213496D01*
X251878Y152472D02*
X297153D01*
X251878D02*
Y213496D01*
X273532Y170189D02*
X277468D01*
X275500Y168220D02*
Y172158D01*
X334646Y-19500D02*
Y-1394D01*
X0Y-19500D02*
Y-1394D01*
X180818Y-18500D02*
X334646D01*
X0D02*
X150627D01*
X328646Y-16500D02*
X334646Y-18500D01*
X328646Y-20500D02*
X334646Y-18500D01*
X0D02*
X6000Y-20500D01*
X0Y-18500D02*
X6000Y-16500D01*
X-12500Y212598D02*
X-1394D01*
X-12500Y0D02*
X-1394D01*
X-11500Y106299D02*
Y212598D01*
Y0D02*
Y106299D01*
X-13500Y206598D02*
X-11500Y212598D01*
X-9500Y206598D01*
X-11500Y0D02*
X-9500Y6000D01*
X-13500D02*
X-11500Y0D01*
D46*
X261882Y101953D02*
X272118D01*
X261882Y91716D02*
Y101953D01*
X272118Y91716D02*
Y101953D01*
X261882Y91716D02*
X272118D01*
X145689Y160036D02*
X159468D01*
Y146257D02*
Y160036D01*
X145689Y146257D02*
Y160036D01*
Y146257D02*
X159468D01*
X194153Y136244D02*
Y141756D01*
X200847D01*
Y136244D02*
Y141756D01*
X194153Y136244D02*
X200847D01*
X234244Y199846D02*
X239756D01*
Y193154D02*
Y199846D01*
X234244Y193154D02*
X239756D01*
X234244D02*
Y199846D01*
X203716Y85804D02*
X218284D01*
X203716Y98796D02*
X218284D01*
Y85804D02*
Y98796D01*
X203716Y85804D02*
Y98796D01*
X261482Y120124D02*
X271718D01*
X261482Y109888D02*
Y120124D01*
X271718Y109888D02*
Y120124D01*
X261482Y109888D02*
X271718D01*
X261282Y61576D02*
X271518D01*
X261282Y51340D02*
Y61576D01*
X271518Y51340D02*
Y61576D01*
X261282Y51340D02*
X271518D01*
X261682Y80918D02*
X271918D01*
X261682Y70682D02*
Y80918D01*
X271918Y70682D02*
Y80918D01*
X261682Y70682D02*
X271918D01*
X-102Y51961D02*
X27850D01*
X-102D02*
Y122039D01*
X27850Y51961D02*
Y122039D01*
X-102D02*
X27850D01*
X306752Y111142D02*
X334705D01*
Y41063D02*
Y111142D01*
X306752Y41063D02*
Y111142D01*
Y41063D02*
X334705D01*
X306650Y112461D02*
X334602D01*
X306650D02*
Y182539D01*
X334602Y112461D02*
Y182539D01*
X306650D02*
X334602D01*
X210382Y48618D02*
X220618D01*
X210382Y38382D02*
Y48618D01*
X220618Y38382D02*
Y48618D01*
X210382Y38382D02*
X220618D01*
X211882Y68890D02*
X222118D01*
X211882Y58653D02*
Y68890D01*
X222118Y58653D02*
Y68890D01*
X211882Y58653D02*
X222118D01*
X25583Y124319D02*
Y129831D01*
X32276D01*
Y124319D02*
Y129831D01*
X25583Y124319D02*
X32276D01*
X-102Y202228D02*
X27850D01*
Y132150D02*
Y202228D01*
X-102Y132150D02*
Y202228D01*
Y132150D02*
X27850D01*
D47*
X0Y0D02*
Y212598D01*
X334646D01*
Y0D02*
Y212598D01*
X0Y0D02*
X334646D01*
D48*
X152227Y-17101D02*
X153227Y-16101D01*
X155226D01*
X156226Y-17101D01*
Y-18100D01*
X155226Y-19100D01*
X156226Y-20100D01*
Y-21099D01*
X155226Y-22099D01*
X153227D01*
X152227Y-21099D01*
Y-20100D01*
X153227Y-19100D01*
X152227Y-18100D01*
Y-17101D01*
X153227Y-19100D02*
X155226D01*
X162224Y-16101D02*
X158225D01*
Y-19100D01*
X160225Y-18100D01*
X161224D01*
X162224Y-19100D01*
Y-21099D01*
X161224Y-22099D01*
X159225D01*
X158225Y-21099D01*
X164223Y-22099D02*
Y-21099D01*
X165223D01*
Y-22099D01*
X164223D01*
X169222Y-17101D02*
X170221Y-16101D01*
X172221D01*
X173220Y-17101D01*
Y-21099D01*
X172221Y-22099D01*
X170221D01*
X169222Y-21099D01*
Y-17101D01*
X175220D02*
X176219Y-16101D01*
X178219D01*
X179218Y-17101D01*
Y-21099D01*
X178219Y-22099D01*
X176219D01*
X175220Y-21099D01*
Y-17101D01*
X-20998Y48499D02*
Y44500D01*
X-17999D01*
X-18999Y46499D01*
Y47499D01*
X-17999Y48499D01*
X-16000D01*
X-15000Y47499D01*
Y45500D01*
X-16000Y44500D01*
X-15000Y53497D02*
X-20998D01*
X-17999Y50498D01*
Y54497D01*
X-15000Y56496D02*
X-16000D01*
Y57496D01*
X-15000D01*
Y56496D01*
X-19998Y61494D02*
X-20998Y62494D01*
Y64494D01*
X-19998Y65493D01*
X-16000D01*
X-15000Y64494D01*
Y62494D01*
X-16000Y61494D01*
X-19998D01*
Y67493D02*
X-20998Y68492D01*
Y70492D01*
X-19998Y71491D01*
X-16000D01*
X-15000Y70492D01*
Y68492D01*
X-16000Y67493D01*
X-19998D01*
D49*
X188976Y200787D02*
D03*
Y192913D02*
D03*
X157480Y200787D02*
D03*
Y192913D02*
D03*
X149606D02*
D03*
X141732D02*
D03*
X133858Y200787D02*
D03*
Y192913D02*
D03*
X125984Y200787D02*
D03*
Y192913D02*
D03*
X118110D02*
D03*
X110236D02*
D03*
X102362D02*
D03*
X94488Y200787D02*
D03*
Y192913D02*
D03*
X86614D02*
D03*
X78740Y200787D02*
D03*
Y192913D02*
D03*
X62992D02*
D03*
X55118Y200787D02*
D03*
Y192913D02*
D03*
X47244Y200787D02*
D03*
Y192913D02*
D03*
X39370Y200787D02*
D03*
D50*
Y192913D02*
D03*
X229500Y8600D02*
D03*
D53*
X160000Y22000D02*
D03*
D54*
X275500Y182000D02*
D03*
D55*
X256996Y170189D02*
D03*
D56*
X50000Y163500D02*
D03*
X37500Y90000D02*
D03*
X40800D02*
D03*
X37333Y108667D02*
D03*
X35000Y111000D02*
D03*
X39500Y149000D02*
D03*
X41000Y153500D02*
D03*
X76731Y38537D02*
D03*
X75000Y40268D02*
D03*
X31961Y53127D02*
D03*
X95941Y90500D02*
D03*
X92641D02*
D03*
X31000Y79000D02*
D03*
X321250Y55000D02*
D03*
X317950D02*
D03*
X297500Y157024D02*
D03*
Y153724D02*
D03*
X292000Y69500D02*
D03*
X295500Y70000D02*
D03*
X291212Y60473D02*
D03*
X14223Y80500D02*
D03*
X302716Y62323D02*
D03*
X296500Y10000D02*
D03*
X196500Y45500D02*
D03*
X4000Y109000D02*
D03*
X41000Y186000D02*
D03*
X45494Y183500D02*
D03*
X111000Y17425D02*
D03*
X126500D02*
D03*
X95103Y136815D02*
D03*
X92603D02*
D03*
X171457Y79000D02*
D03*
X162008D02*
D03*
X152559D02*
D03*
X89567D02*
D03*
X99016D02*
D03*
X108465D02*
D03*
X158858Y42000D02*
D03*
X149409D02*
D03*
X139961D02*
D03*
X102165D02*
D03*
X111614D02*
D03*
X121063D02*
D03*
X130512D02*
D03*
X118000Y79000D02*
D03*
X127500D02*
D03*
X143110D02*
D03*
X5500Y25500D02*
D03*
X31000Y87000D02*
D03*
X37000Y180500D02*
D03*
X39063Y182937D02*
D03*
X31343Y188842D02*
D03*
X33374Y186874D02*
D03*
X293500Y143000D02*
D03*
X294926Y137657D02*
D03*
X293779Y133721D02*
D03*
X304017Y125847D02*
D03*
X296945Y85945D02*
D03*
X299024Y83976D02*
D03*
X38500Y23150D02*
D03*
Y19850D02*
D03*
X38185Y168839D02*
D03*
Y165539D02*
D03*
X325815Y159500D02*
D03*
X37500Y44350D02*
D03*
X140500Y95500D02*
D03*
X137000Y96000D02*
D03*
X134000D02*
D03*
X130512D02*
D03*
X39000Y100000D02*
D03*
X8000Y65500D02*
D03*
X16500Y5500D02*
D03*
X19500Y4000D02*
D03*
X24262Y6817D02*
D03*
X21500D02*
D03*
X290000Y149209D02*
D03*
X286000Y23500D02*
D03*
X289500Y20500D02*
D03*
X295500Y149150D02*
D03*
Y145850D02*
D03*
X299102Y76102D02*
D03*
X302500Y78000D02*
D03*
X302886Y58386D02*
D03*
X324992Y82000D02*
D03*
X61815Y68896D02*
D03*
X61803Y81134D02*
D03*
X14223Y91939D02*
D03*
X192000Y144500D02*
D03*
X314432Y198068D02*
D03*
X230742Y191000D02*
D03*
X200461Y203539D02*
D03*
X205742Y167889D02*
D03*
X205500Y127815D02*
D03*
X230500Y203500D02*
D03*
X174539Y183539D02*
D03*
X44342Y122158D02*
D03*
X76158D02*
D03*
X27000Y122500D02*
D03*
X94488Y17425D02*
D03*
X52500Y139875D02*
D03*
X244500Y198500D02*
D03*
X250000Y38000D02*
D03*
X256000Y22000D02*
D03*
X85500Y33500D02*
D03*
X89500D02*
D03*
X129500Y118000D02*
D03*
X144350Y119000D02*
D03*
X146850D02*
D03*
X202500Y52480D02*
D03*
X243000Y43500D02*
D03*
X250500Y85500D02*
D03*
X31716Y104717D02*
D03*
X4500Y106500D02*
D03*
X185000Y93284D02*
D03*
X38185Y177500D02*
D03*
X123512Y37500D02*
D03*
X127000D02*
D03*
X197000Y65937D02*
D03*
X254500Y106500D02*
D03*
X290500Y96800D02*
D03*
X290000Y115006D02*
D03*
X290458Y75800D02*
D03*
X284000Y63000D02*
D03*
X62307Y114037D02*
D03*
X142500Y17925D02*
D03*
X118110Y25000D02*
D03*
X95103Y23500D02*
D03*
X255500Y67315D02*
D03*
X235815Y59500D02*
D03*
X291500Y104000D02*
D03*
X90000Y106500D02*
D03*
X168307Y42000D02*
D03*
X198485Y34985D02*
D03*
X177500Y39000D02*
D03*
X112000Y38000D02*
D03*
X105315Y39000D02*
D03*
X34165Y98811D02*
D03*
X39500Y96500D02*
D03*
X8000Y111000D02*
D03*
X296200Y30000D02*
D03*
X37500Y47650D02*
D03*
X33500Y50000D02*
D03*
D57*
X67400Y159615D02*
D03*
X77400Y165115D02*
D03*
X78400Y142615D02*
D03*
X99400Y168615D02*
D03*
X117400Y141115D02*
D03*
X154547Y130332D02*
D03*
X170079Y151146D02*
D03*
X169579Y159646D02*
D03*
X127579Y157647D02*
D03*
X147579Y173646D02*
D03*
X211000Y89300D02*
D03*
Y94800D02*
D03*
X214000Y112800D02*
D03*
X235000Y81000D02*
D03*
X142000Y149209D02*
D03*
D58*
X267000Y99000D02*
D03*
Y94669D02*
D03*
X266600Y117172D02*
D03*
Y112841D02*
D03*
X266400Y58624D02*
D03*
Y54293D02*
D03*
X266800Y77965D02*
D03*
Y73635D02*
D03*
X215500Y45665D02*
D03*
X217000Y65937D02*
D03*
Y61606D02*
D03*
X215500Y40500D02*
D03*
M02*
