G04 Layer_Color=16711935*
%FSLAX24Y24*%
%MOIN*%
G70*
G01*
G75*
%ADD66C,0.1222*%
%ADD67R,0.0867X0.1104*%
%ADD68R,0.1104X0.0867*%
%ADD69C,0.0552*%
%ADD70C,0.0395*%
%ADD71C,0.0671*%
%ADD72R,0.0671X0.0671*%
%ADD73C,0.0277*%
%ADD74R,0.0277X0.0867*%
D66*
X11575Y17283D02*
D03*
Y29685D02*
D03*
X41890D02*
D03*
Y17283D02*
D03*
D67*
X31250Y26900D02*
D03*
D68*
X33100Y28081D02*
D03*
Y25719D02*
D03*
D69*
X28445Y16083D02*
D03*
D70*
X17343D02*
D03*
D71*
X28898Y30079D02*
D03*
Y29291D02*
D03*
X28110Y30079D02*
D03*
Y29291D02*
D03*
X27323Y30079D02*
D03*
Y29291D02*
D03*
X26535Y30079D02*
D03*
Y29291D02*
D03*
X25748Y30079D02*
D03*
Y29291D02*
D03*
X24961Y30079D02*
D03*
Y29291D02*
D03*
X24173Y30079D02*
D03*
Y29291D02*
D03*
X23386Y30079D02*
D03*
Y29291D02*
D03*
X22598Y30079D02*
D03*
Y29291D02*
D03*
X21811Y30079D02*
D03*
Y29291D02*
D03*
X21024Y30079D02*
D03*
Y29291D02*
D03*
X20236Y30079D02*
D03*
Y29291D02*
D03*
X19449Y30079D02*
D03*
Y29291D02*
D03*
X18661Y30079D02*
D03*
Y29291D02*
D03*
X17874Y30079D02*
D03*
Y29291D02*
D03*
X17087Y30079D02*
D03*
Y29291D02*
D03*
X16299Y30079D02*
D03*
Y29291D02*
D03*
X15512Y30079D02*
D03*
Y29291D02*
D03*
X14724Y30079D02*
D03*
Y29291D02*
D03*
X13937Y30079D02*
D03*
X14650Y25000D02*
D03*
X13650D02*
D03*
X12650D02*
D03*
X11650D02*
D03*
X10650D02*
D03*
X19500Y28050D02*
D03*
X20500Y27050D02*
D03*
Y28050D02*
D03*
X16500Y28000D02*
D03*
X17500Y27000D02*
D03*
Y28000D02*
D03*
D72*
X13937Y29291D02*
D03*
X15650Y25000D02*
D03*
X19500Y27050D02*
D03*
X16500Y27000D02*
D03*
D73*
X28050Y27500D02*
D03*
X31500Y24312D02*
D03*
X30450Y23700D02*
D03*
X38200Y16550D02*
D03*
X26300Y28100D02*
D03*
X34797Y18703D02*
D03*
X34403D02*
D03*
X34797Y19097D02*
D03*
X34403D02*
D03*
X34000Y19750D02*
D03*
X35600Y19250D02*
D03*
X25627Y22877D02*
D03*
X30800Y23700D02*
D03*
X22600Y20800D02*
D03*
X22650Y20450D02*
D03*
X24200Y20800D02*
D03*
X23950Y21150D02*
D03*
X25850Y27350D02*
D03*
X26300Y26950D02*
D03*
X25200Y22100D02*
D03*
X24930Y24530D02*
D03*
X38700Y18900D02*
D03*
X28950Y21800D02*
D03*
X27144Y21444D02*
D03*
X25100Y20150D02*
D03*
X24950Y20950D02*
D03*
X30050Y18050D02*
D03*
X37353Y15200D02*
D03*
X34500D02*
D03*
X42822Y14800D02*
D03*
X32050Y15900D02*
D03*
X39750Y14850D02*
D03*
X36900Y14750D02*
D03*
X34350Y14650D02*
D03*
X30450Y15400D02*
D03*
X29250Y15350D02*
D03*
X36250Y20563D02*
D03*
X33431Y23381D02*
D03*
X25350Y27250D02*
D03*
X40900Y16300D02*
D03*
X35300Y16900D02*
D03*
X31050Y24000D02*
D03*
X31500Y21400D02*
D03*
X29784Y24500D02*
D03*
X30250Y18550D02*
D03*
X28150Y21650D02*
D03*
X32550Y15550D02*
D03*
X28050Y13900D02*
D03*
X20353Y23253D02*
D03*
X20700Y24050D02*
D03*
X18300Y20700D02*
D03*
Y20300D02*
D03*
X16650Y23450D02*
D03*
X18550Y22450D02*
D03*
X17550Y23500D02*
D03*
X17700Y21550D02*
D03*
X20150Y23750D02*
D03*
X21492Y22650D02*
D03*
X25730Y18230D02*
D03*
X26330Y18220D02*
D03*
X28900Y19450D02*
D03*
X29450Y20250D02*
D03*
X29700Y21050D02*
D03*
X24990Y26050D02*
D03*
X26800Y28550D02*
D03*
X20750Y25350D02*
D03*
X18100D02*
D03*
X19900Y24950D02*
D03*
X21400Y27650D02*
D03*
X39950Y15250D02*
D03*
X14050Y27800D02*
D03*
X22750Y21350D02*
D03*
D74*
X18327Y15217D02*
D03*
X18642D02*
D03*
X18957D02*
D03*
X19272D02*
D03*
X19587D02*
D03*
X19902D02*
D03*
X20217D02*
D03*
X20531D02*
D03*
X20846D02*
D03*
X21161D02*
D03*
X21476D02*
D03*
X21791D02*
D03*
X22106D02*
D03*
X22421D02*
D03*
X22736D02*
D03*
X23051D02*
D03*
X23366D02*
D03*
X23681D02*
D03*
X23996D02*
D03*
X24311D02*
D03*
X24626D02*
D03*
X24941D02*
D03*
X25256D02*
D03*
X25571D02*
D03*
X25886D02*
D03*
X26201D02*
D03*
X26516D02*
D03*
X26831D02*
D03*
X27146D02*
D03*
X27461D02*
D03*
X18327Y16949D02*
D03*
X18642D02*
D03*
X18957D02*
D03*
X19272D02*
D03*
X19587D02*
D03*
X19902D02*
D03*
X20217D02*
D03*
X20531D02*
D03*
X20846D02*
D03*
X21161D02*
D03*
X21476D02*
D03*
X21791D02*
D03*
X22106D02*
D03*
X22421D02*
D03*
X22736D02*
D03*
X23051D02*
D03*
X23366D02*
D03*
X23681D02*
D03*
X23996D02*
D03*
X24311D02*
D03*
X24626D02*
D03*
X24941D02*
D03*
X25256D02*
D03*
X25571D02*
D03*
X25886D02*
D03*
X26201D02*
D03*
X26516D02*
D03*
X26831D02*
D03*
X27146D02*
D03*
X27461D02*
D03*
M02*
