G04*
G04 #@! TF.GenerationSoftware,Altium Limited,Altium Designer,18.0.12 (696)*
G04*
G04 Layer_Color=16711935*
%FSLAX25Y25*%
%MOIN*%
G70*
G01*
G75*
%ADD56R,0.05131X0.07493*%
%ADD59R,0.07493X0.05131*%
%ADD60R,0.02769X0.03162*%
%ADD66R,0.03162X0.02769*%
%ADD77C,0.05800*%
%ADD78R,0.08674X0.11036*%
%ADD79R,0.11036X0.08674*%
%ADD80C,0.06706*%
%ADD81R,0.06706X0.06706*%
%ADD82C,0.03950*%
%ADD83C,0.05524*%
%ADD84C,0.02600*%
%ADD85C,0.02769*%
%ADD86C,0.03200*%
%ADD119R,0.02769X0.08674*%
D56*
X311185Y94500D02*
D03*
X321815D02*
D03*
X24853Y72000D02*
D03*
X14223D02*
D03*
X24815Y84000D02*
D03*
X14185D02*
D03*
X25529Y100445D02*
D03*
X14899D02*
D03*
X309870Y82000D02*
D03*
X320500D02*
D03*
X309622Y69543D02*
D03*
X320252D02*
D03*
X309197Y134615D02*
D03*
X319827D02*
D03*
X309197Y147000D02*
D03*
X319827D02*
D03*
X309197Y159500D02*
D03*
X319827D02*
D03*
X51185Y74961D02*
D03*
X61815D02*
D03*
X51677Y107537D02*
D03*
X62307D02*
D03*
X51185Y62831D02*
D03*
X61815D02*
D03*
X191815Y171728D02*
D03*
X181185D02*
D03*
Y155500D02*
D03*
X191815D02*
D03*
Y180000D02*
D03*
X181185D02*
D03*
Y163500D02*
D03*
X191815D02*
D03*
X51185Y87331D02*
D03*
X61815D02*
D03*
D59*
X250500Y99000D02*
D03*
Y88370D02*
D03*
D60*
X256500Y99968D02*
D03*
Y96031D02*
D03*
D66*
X310201Y102000D02*
D03*
X314138D02*
D03*
X25006Y66000D02*
D03*
X21069D02*
D03*
X24468Y77500D02*
D03*
X20531D02*
D03*
X25469Y94445D02*
D03*
X21531D02*
D03*
X310032Y88500D02*
D03*
X313968D02*
D03*
X309531Y75543D02*
D03*
X313469D02*
D03*
X308213Y140500D02*
D03*
X312150D02*
D03*
X308213Y153500D02*
D03*
X312150D02*
D03*
X308213Y165500D02*
D03*
X312150D02*
D03*
X50201Y81134D02*
D03*
X54138D02*
D03*
X50693Y114037D02*
D03*
X54630D02*
D03*
X50201Y69000D02*
D03*
X54138D02*
D03*
X50201Y93831D02*
D03*
X54138D02*
D03*
D77*
X160000Y22000D02*
D03*
X194500Y26000D02*
D03*
X261000Y39000D02*
D03*
X67400Y175500D02*
D03*
X60000Y173500D02*
D03*
X282000Y30000D02*
D03*
X254000Y140500D02*
D03*
X301500Y183000D02*
D03*
Y193500D02*
D03*
Y203500D02*
D03*
X199500Y103500D02*
D03*
X234000Y132000D02*
D03*
X235000Y114000D02*
D03*
X103000Y116000D02*
D03*
X43000Y74961D02*
D03*
X60402Y159213D02*
D03*
D78*
X256996Y170189D02*
D03*
D79*
X275500Y182000D02*
D03*
Y158378D02*
D03*
D80*
X280000Y133000D02*
D03*
Y144332D02*
D03*
X179500Y8600D02*
D03*
X189500D02*
D03*
X199500D02*
D03*
X209500D02*
D03*
X219500D02*
D03*
X39370Y200787D02*
D03*
X47244Y192913D02*
D03*
Y200787D02*
D03*
X55118Y192913D02*
D03*
Y200787D02*
D03*
X62992Y192913D02*
D03*
Y200787D02*
D03*
X70866Y192913D02*
D03*
Y200787D02*
D03*
X78740Y192913D02*
D03*
Y200787D02*
D03*
X86614Y192913D02*
D03*
Y200787D02*
D03*
X94488Y192913D02*
D03*
Y200787D02*
D03*
X102362Y192913D02*
D03*
Y200787D02*
D03*
X110236Y192913D02*
D03*
Y200787D02*
D03*
X118110Y192913D02*
D03*
Y200787D02*
D03*
X125984Y192913D02*
D03*
Y200787D02*
D03*
X133858Y192913D02*
D03*
Y200787D02*
D03*
X141732Y192913D02*
D03*
Y200787D02*
D03*
X149606Y192913D02*
D03*
Y200787D02*
D03*
X157480Y192913D02*
D03*
Y200787D02*
D03*
X165354Y192913D02*
D03*
Y200787D02*
D03*
X173228Y192913D02*
D03*
Y200787D02*
D03*
X181102Y192913D02*
D03*
Y200787D02*
D03*
X188976Y192913D02*
D03*
Y200787D02*
D03*
D81*
X270000Y133000D02*
D03*
Y144332D02*
D03*
X229500Y8600D02*
D03*
X39370Y192913D02*
D03*
D82*
X73425Y60827D02*
D03*
D83*
X184449D02*
D03*
D84*
X33500Y50000D02*
D03*
X37500Y47650D02*
D03*
X296200Y30000D02*
D03*
X225500Y38000D02*
D03*
X225185Y67485D02*
D03*
X8000Y111000D02*
D03*
X39500Y96500D02*
D03*
X34165Y98811D02*
D03*
X290458Y82500D02*
D03*
X304508Y82008D02*
D03*
X105315Y39000D02*
D03*
X112000Y38000D02*
D03*
X177500Y39000D02*
D03*
X198485Y34985D02*
D03*
X168307Y42000D02*
D03*
X275685Y47650D02*
D03*
X90000Y106500D02*
D03*
X291500Y104000D02*
D03*
X283000D02*
D03*
X235815Y59500D02*
D03*
X255500Y67315D02*
D03*
X241000Y81500D02*
D03*
X95103Y23500D02*
D03*
X108500Y25500D02*
D03*
X118110Y25000D02*
D03*
X74500Y21750D02*
D03*
Y19250D02*
D03*
X142500Y17925D02*
D03*
X243500Y59017D02*
D03*
X209000Y77500D02*
D03*
X305429Y102000D02*
D03*
X244500Y77500D02*
D03*
X44500Y81000D02*
D03*
X52992Y119500D02*
D03*
X62307Y114037D02*
D03*
X137500Y118000D02*
D03*
X284000Y63000D02*
D03*
X290458Y75800D02*
D03*
X290000Y115006D02*
D03*
X290500Y96800D02*
D03*
X254500Y106500D02*
D03*
X275685Y68500D02*
D03*
X246000Y99000D02*
D03*
X275685Y105500D02*
D03*
X249900Y130500D02*
D03*
X197000Y65937D02*
D03*
X257000Y5263D02*
D03*
X185500Y21500D02*
D03*
Y24000D02*
D03*
X127000Y37500D02*
D03*
X123512D02*
D03*
X40000Y70500D02*
D03*
X203500Y123000D02*
D03*
X38185Y177500D02*
D03*
X185000Y93284D02*
D03*
X4500Y106500D02*
D03*
X31716Y104717D02*
D03*
X250500Y85500D02*
D03*
X243000Y43500D02*
D03*
X202500Y52480D02*
D03*
X12000Y206000D02*
D03*
X14500D02*
D03*
X223500Y148500D02*
D03*
X146850Y119000D02*
D03*
X144350D02*
D03*
X129500Y118000D02*
D03*
X89500Y33500D02*
D03*
X85500D02*
D03*
X256000Y22000D02*
D03*
X250000Y38000D02*
D03*
X198500Y188500D02*
D03*
X244500Y198500D02*
D03*
X138047Y149520D02*
D03*
X52500Y139875D02*
D03*
X94488Y17425D02*
D03*
X27000Y122500D02*
D03*
X76158Y122158D02*
D03*
X44342D02*
D03*
X174539Y183539D02*
D03*
X230500Y203500D02*
D03*
X173272Y171728D02*
D03*
X205500Y127815D02*
D03*
X205742Y167889D02*
D03*
X200461Y203539D02*
D03*
X230742Y191000D02*
D03*
X301818Y165539D02*
D03*
X321000Y199500D02*
D03*
X321496Y186500D02*
D03*
X314432Y198068D02*
D03*
X181185Y145000D02*
D03*
X192000Y144500D02*
D03*
X14223Y91939D02*
D03*
X61803Y81134D02*
D03*
X61815Y68896D02*
D03*
X324992Y82000D02*
D03*
X298041Y56417D02*
D03*
X287363Y13137D02*
D03*
X289500Y10500D02*
D03*
X330000Y53303D02*
D03*
X329000Y60500D02*
D03*
X302886Y58386D02*
D03*
X330983Y70166D02*
D03*
X328650Y72500D02*
D03*
X302500Y78000D02*
D03*
X299102Y76102D02*
D03*
X326000Y4000D02*
D03*
X324713Y101500D02*
D03*
X295500Y145850D02*
D03*
Y149150D02*
D03*
X289500Y20500D02*
D03*
X286000Y23500D02*
D03*
X290000Y149209D02*
D03*
X39063Y55500D02*
D03*
X24898Y21225D02*
D03*
X21500Y6817D02*
D03*
X24262D02*
D03*
X19500Y4000D02*
D03*
X16500Y5500D02*
D03*
X8000Y65500D02*
D03*
X7000Y21500D02*
D03*
X39000Y100000D02*
D03*
X39370Y105500D02*
D03*
X20000Y167500D02*
D03*
X54000Y26000D02*
D03*
X264032Y9500D02*
D03*
X262961Y18500D02*
D03*
X130512Y96000D02*
D03*
X134000D02*
D03*
X137000D02*
D03*
X140500Y95500D02*
D03*
X37500Y44350D02*
D03*
X325815Y159500D02*
D03*
X38185Y165539D02*
D03*
Y168839D02*
D03*
X38500Y19850D02*
D03*
Y23150D02*
D03*
X155709Y83500D02*
D03*
X158933Y87000D02*
D03*
X299024Y83976D02*
D03*
X296945Y85945D02*
D03*
X304017Y125847D02*
D03*
X293280Y130500D02*
D03*
X294094Y127815D02*
D03*
X303171Y129783D02*
D03*
X293779Y133721D02*
D03*
X296760Y135689D02*
D03*
X294926Y137657D02*
D03*
X292874Y139626D02*
D03*
X293500Y143000D02*
D03*
X298083Y143563D02*
D03*
X303500Y147504D02*
D03*
X31000Y6500D02*
D03*
X27412D02*
D03*
X36406Y78067D02*
D03*
X30200Y184906D02*
D03*
X33374Y186874D02*
D03*
X31343Y188842D02*
D03*
X39063Y182937D02*
D03*
X37000Y180500D02*
D03*
X40374Y171126D02*
D03*
X31000Y87000D02*
D03*
X5500Y25500D02*
D03*
X143110Y79000D02*
D03*
X127500D02*
D03*
X118000D02*
D03*
X130512Y42000D02*
D03*
X121063D02*
D03*
X111614D02*
D03*
X102165D02*
D03*
X139961D02*
D03*
X149409D02*
D03*
X158858D02*
D03*
X108465Y79000D02*
D03*
X99016D02*
D03*
X89567D02*
D03*
X152559D02*
D03*
X162008D02*
D03*
X171457D02*
D03*
X92603Y136815D02*
D03*
X95103D02*
D03*
X322500Y38500D02*
D03*
X327350Y30000D02*
D03*
X126500Y17425D02*
D03*
X111000D02*
D03*
X45494Y183500D02*
D03*
X41000Y186000D02*
D03*
X4000Y109000D02*
D03*
X33063Y83063D02*
D03*
X196500Y45500D02*
D03*
X36122Y155378D02*
D03*
X39000Y160965D02*
D03*
Y157000D02*
D03*
X47500Y151500D02*
D03*
X36941Y145535D02*
D03*
X33500Y147500D02*
D03*
X296500Y10000D02*
D03*
X319587Y6500D02*
D03*
X318000Y17425D02*
D03*
X302716Y62323D02*
D03*
X303500Y8000D02*
D03*
X308328Y17500D02*
D03*
X313000Y17425D02*
D03*
X14223Y80500D02*
D03*
X302626Y155374D02*
D03*
X301500Y161598D02*
D03*
X168307Y94258D02*
D03*
X163226Y93650D02*
D03*
X105390Y88500D02*
D03*
X102090D02*
D03*
X291212Y60473D02*
D03*
X288500Y33350D02*
D03*
X295500Y70000D02*
D03*
X292000Y69500D02*
D03*
X288500Y36650D02*
D03*
X294094Y51000D02*
D03*
X289650Y66926D02*
D03*
X286000Y66500D02*
D03*
X297500Y153724D02*
D03*
Y157024D02*
D03*
X317950Y55000D02*
D03*
X321250D02*
D03*
X297000Y53000D02*
D03*
X302000Y51000D02*
D03*
X40374Y85500D02*
D03*
X31000Y79000D02*
D03*
X92641Y90500D02*
D03*
X95941D02*
D03*
X31961Y53127D02*
D03*
X113000Y99000D02*
D03*
X115333Y101333D02*
D03*
X75000Y40268D02*
D03*
X76731Y38537D02*
D03*
X41000Y153500D02*
D03*
X39500Y149000D02*
D03*
X35000Y111000D02*
D03*
X37333Y108667D02*
D03*
X40800Y90000D02*
D03*
X37500D02*
D03*
X50000Y163500D02*
D03*
D85*
X215500Y40500D02*
D03*
X217000Y61606D02*
D03*
Y65937D02*
D03*
X215500Y45665D02*
D03*
X266800Y73635D02*
D03*
Y77965D02*
D03*
X266400Y54293D02*
D03*
Y58624D02*
D03*
X266600Y112841D02*
D03*
Y117172D02*
D03*
X267000Y94669D02*
D03*
Y99000D02*
D03*
D86*
X142000Y149209D02*
D03*
X235000Y81000D02*
D03*
X214000Y112800D02*
D03*
X224000Y96800D02*
D03*
X211000Y94800D02*
D03*
Y89300D02*
D03*
X147579Y173646D02*
D03*
X134610Y162615D02*
D03*
X134579Y166647D02*
D03*
X127579Y152647D02*
D03*
X127579Y157647D02*
D03*
X158079Y171147D02*
D03*
X169579Y159646D02*
D03*
X173579Y155147D02*
D03*
X170079Y151146D02*
D03*
X160079Y143647D02*
D03*
X154547Y130332D02*
D03*
X117400Y141115D02*
D03*
X104900Y159052D02*
D03*
X99400Y168615D02*
D03*
X78400Y142615D02*
D03*
X77400Y165115D02*
D03*
X67400Y159615D02*
D03*
X173700Y166115D02*
D03*
X70200Y150915D02*
D03*
X121300Y154215D02*
D03*
X137600Y141215D02*
D03*
X240000Y104500D02*
D03*
D119*
X165157Y69488D02*
D03*
X168307D02*
D03*
X158858D02*
D03*
X102165D02*
D03*
X105315D02*
D03*
X155709D02*
D03*
X174606D02*
D03*
X171457D02*
D03*
X162008D02*
D03*
X152559D02*
D03*
X143110D02*
D03*
X139961D02*
D03*
X136811D02*
D03*
X133661D02*
D03*
X130512D02*
D03*
X127362D02*
D03*
X124213D02*
D03*
X121063D02*
D03*
X117913D02*
D03*
X114764D02*
D03*
X111614D02*
D03*
X108465D02*
D03*
X99016D02*
D03*
X89567D02*
D03*
X174606Y52165D02*
D03*
X171457D02*
D03*
X168307D02*
D03*
X165157D02*
D03*
X162008D02*
D03*
X158858D02*
D03*
X155709D02*
D03*
X152559D02*
D03*
X149409D02*
D03*
X146260D02*
D03*
X143110D02*
D03*
X139961D02*
D03*
X136811D02*
D03*
X133661D02*
D03*
X130512D02*
D03*
X127362D02*
D03*
X124213D02*
D03*
X121063D02*
D03*
X117913D02*
D03*
X114764D02*
D03*
X111614D02*
D03*
X108465D02*
D03*
X105315D02*
D03*
X102165D02*
D03*
X99016D02*
D03*
X95866D02*
D03*
X92716D02*
D03*
X89567D02*
D03*
X86417D02*
D03*
X83268D02*
D03*
X86417Y69488D02*
D03*
X83268D02*
D03*
X95866D02*
D03*
X92716D02*
D03*
X149409D02*
D03*
X146260D02*
D03*
M02*
