G04*
G04 #@! TF.GenerationSoftware,Altium Limited,Altium Designer,18.0.12 (696)*
G04*
G04 Layer_Color=8421504*
%FSLAX25Y25*%
%MOIN*%
G70*
G01*
G75*
G04:AMPARAMS|DCode=15|XSize=39.37mil|YSize=27.56mil|CornerRadius=1.93mil|HoleSize=0mil|Usage=FLASHONLY|Rotation=0.000|XOffset=0mil|YOffset=0mil|HoleType=Round|Shape=RoundedRectangle|*
%AMROUNDEDRECTD15*
21,1,0.03937,0.02370,0,0,0.0*
21,1,0.03551,0.02756,0,0,0.0*
1,1,0.00386,0.01776,-0.01185*
1,1,0.00386,-0.01776,-0.01185*
1,1,0.00386,-0.01776,0.01185*
1,1,0.00386,0.01776,0.01185*
%
%ADD15ROUNDEDRECTD15*%
%ADD16R,0.05118X0.01181*%
%ADD17R,0.01968X0.01457*%
%ADD18R,0.01968X0.01850*%
%ADD19R,0.00906X0.04331*%
%ADD20R,0.01575X0.04331*%
%ADD21R,0.05512X0.05906*%
%ADD22R,0.08661X0.07087*%
%ADD23R,0.02047X0.01417*%
%ADD24R,0.02047X0.01063*%
%ADD25R,0.05118X0.06102*%
%ADD26R,0.04331X0.06693*%
G04:AMPARAMS|DCode=27|XSize=11.81mil|YSize=17.72mil|CornerRadius=1.95mil|HoleSize=0mil|Usage=FLASHONLY|Rotation=90.000|XOffset=0mil|YOffset=0mil|HoleType=Round|Shape=RoundedRectangle|*
%AMROUNDEDRECTD27*
21,1,0.01181,0.01382,0,0,90.0*
21,1,0.00791,0.01772,0,0,90.0*
1,1,0.00390,0.00691,0.00396*
1,1,0.00390,0.00691,-0.00396*
1,1,0.00390,-0.00691,-0.00396*
1,1,0.00390,-0.00691,0.00396*
%
%ADD27ROUNDEDRECTD27*%
%ADD28R,0.06693X0.04331*%
%ADD29R,0.01968X0.02362*%
%ADD30R,0.03937X0.05118*%
%ADD31R,0.10236X0.04331*%
%ADD32R,0.04331X0.10236*%
%ADD33R,0.05118X0.03937*%
%ADD34R,0.05906X0.05512*%
%ADD35R,0.02362X0.01968*%
%ADD36R,0.02756X0.00984*%
%ADD37R,0.06496X0.09370*%
%ADD38R,0.01417X0.02047*%
%ADD39R,0.01063X0.02047*%
%ADD40R,0.03150X0.01181*%
%ADD41R,0.01181X0.03150*%
%ADD42R,0.03543X0.03150*%
%ADD43R,0.03937X0.01181*%
%ADD44R,0.01181X0.03937*%
%ADD45R,0.06102X0.05118*%
D15*
X217000Y62000D02*
D03*
Y65543D02*
D03*
X215500Y41728D02*
D03*
Y45272D02*
D03*
X266800Y74028D02*
D03*
Y77572D02*
D03*
X266400Y54687D02*
D03*
Y58230D02*
D03*
X266600Y113235D02*
D03*
Y116778D02*
D03*
X267000Y95063D02*
D03*
Y98606D02*
D03*
D16*
X309705Y72165D02*
D03*
X24898Y96842D02*
D03*
Y98811D02*
D03*
X309705Y64291D02*
D03*
X309602Y145531D02*
D03*
Y149469D02*
D03*
Y153405D02*
D03*
X24898Y90937D02*
D03*
Y92905D02*
D03*
Y157346D02*
D03*
Y161284D02*
D03*
Y165220D02*
D03*
Y169158D02*
D03*
Y190811D02*
D03*
Y188842D02*
D03*
Y186874D02*
D03*
Y184906D02*
D03*
Y182937D02*
D03*
Y180968D02*
D03*
Y179000D02*
D03*
Y177032D02*
D03*
Y175063D02*
D03*
Y173094D02*
D03*
Y171126D02*
D03*
Y167189D02*
D03*
Y163252D02*
D03*
Y159315D02*
D03*
Y155378D02*
D03*
Y151441D02*
D03*
Y147504D02*
D03*
Y145535D02*
D03*
X309602Y123878D02*
D03*
Y125847D02*
D03*
Y127815D02*
D03*
Y129783D02*
D03*
Y131752D02*
D03*
Y133721D02*
D03*
Y135689D02*
D03*
Y137657D02*
D03*
Y139626D02*
D03*
Y141595D02*
D03*
Y143563D02*
D03*
Y147500D02*
D03*
Y151437D02*
D03*
Y155374D02*
D03*
Y159311D02*
D03*
Y161279D02*
D03*
Y163248D02*
D03*
Y165217D02*
D03*
Y167185D02*
D03*
Y169153D02*
D03*
X309705Y97756D02*
D03*
Y95787D02*
D03*
Y93819D02*
D03*
Y91850D02*
D03*
Y89882D02*
D03*
Y87913D02*
D03*
Y85945D02*
D03*
Y83976D02*
D03*
Y82008D02*
D03*
Y80039D02*
D03*
Y78071D02*
D03*
Y76102D02*
D03*
Y74134D02*
D03*
Y70197D02*
D03*
Y68228D02*
D03*
Y62323D02*
D03*
Y60354D02*
D03*
Y58386D02*
D03*
Y56417D02*
D03*
Y54449D02*
D03*
Y52480D02*
D03*
X24898Y65346D02*
D03*
Y67315D02*
D03*
Y69283D02*
D03*
Y71252D02*
D03*
Y73220D02*
D03*
Y75189D02*
D03*
Y77157D02*
D03*
Y79126D02*
D03*
Y81094D02*
D03*
Y83063D02*
D03*
Y85031D02*
D03*
Y87000D02*
D03*
Y88968D02*
D03*
Y94874D02*
D03*
Y100779D02*
D03*
Y102748D02*
D03*
Y104717D02*
D03*
Y106685D02*
D03*
Y108653D02*
D03*
Y110622D02*
D03*
X309705Y66260D02*
D03*
X309602Y157343D02*
D03*
X24898Y153409D02*
D03*
Y149472D02*
D03*
D17*
X134110Y18350D02*
D03*
Y21500D02*
D03*
X119500Y18000D02*
D03*
Y21150D02*
D03*
X150925Y17925D02*
D03*
Y21075D02*
D03*
X103350Y17425D02*
D03*
Y20575D02*
D03*
D18*
X137260Y19925D02*
D03*
X122650Y19575D02*
D03*
X154075Y19500D02*
D03*
X106500Y19000D02*
D03*
D19*
X316437Y11945D02*
D03*
X313287D02*
D03*
X318012Y30055D02*
D03*
X314862D02*
D03*
X311713D02*
D03*
X308563D02*
D03*
X305413D02*
D03*
X319587D02*
D03*
Y11945D02*
D03*
X310138D02*
D03*
X308563D02*
D03*
X306988D02*
D03*
X305413D02*
D03*
X311713D02*
D03*
X314862D02*
D03*
X318012D02*
D03*
X310138Y30055D02*
D03*
X306988D02*
D03*
X316437D02*
D03*
X313287D02*
D03*
X28987Y31955D02*
D03*
X22687D02*
D03*
X25837D02*
D03*
X28987Y13845D02*
D03*
X27412D02*
D03*
X25837D02*
D03*
X24262D02*
D03*
X22687D02*
D03*
X21113D02*
D03*
X19538D02*
D03*
X17963D02*
D03*
X16388D02*
D03*
X14813D02*
D03*
X27412Y31955D02*
D03*
X24262D02*
D03*
X21113D02*
D03*
X17963D02*
D03*
X14813D02*
D03*
X19538D02*
D03*
X16388D02*
D03*
D20*
X303504Y30055D02*
D03*
X321496D02*
D03*
Y11945D02*
D03*
X303504D02*
D03*
X12904Y13845D02*
D03*
X12904Y31955D02*
D03*
X30896D02*
D03*
Y13845D02*
D03*
D21*
X249937Y29000D02*
D03*
X242063D02*
D03*
X249937Y18500D02*
D03*
X242063D02*
D03*
X249937Y8000D02*
D03*
X242063D02*
D03*
X278437Y18463D02*
D03*
X270563D02*
D03*
X278437Y8000D02*
D03*
X270563D02*
D03*
D22*
X12102Y198291D02*
D03*
Y136087D02*
D03*
X322398Y116398D02*
D03*
Y178602D02*
D03*
X322500Y107205D02*
D03*
Y45000D02*
D03*
X12102Y55898D02*
D03*
Y118102D02*
D03*
D23*
X30858Y127075D02*
D03*
X199429Y139000D02*
D03*
D24*
X27000Y125500D02*
D03*
Y128650D02*
D03*
X195571Y137425D02*
D03*
Y140575D02*
D03*
D25*
X205742Y203539D02*
D03*
X223458D02*
D03*
X205742Y172239D02*
D03*
X223458D02*
D03*
X180742Y183539D02*
D03*
X198458D02*
D03*
X180742Y152239D02*
D03*
X198458D02*
D03*
X230742Y183539D02*
D03*
X248458D02*
D03*
X230742Y152239D02*
D03*
X248458D02*
D03*
X205742Y163539D02*
D03*
X223458D02*
D03*
X205742Y132239D02*
D03*
X223458D02*
D03*
D26*
X235130Y43500D02*
D03*
X224500D02*
D03*
X235815Y63772D02*
D03*
X225185D02*
D03*
X286815Y75800D02*
D03*
X276185D02*
D03*
X286315Y56500D02*
D03*
X275685D02*
D03*
X286315Y115006D02*
D03*
X275685D02*
D03*
X286815Y96842D02*
D03*
X276185D02*
D03*
D27*
X220839Y66331D02*
D03*
Y63772D02*
D03*
Y61213D02*
D03*
X213161D02*
D03*
Y63772D02*
D03*
Y66331D02*
D03*
X219339Y46059D02*
D03*
Y43500D02*
D03*
Y40941D02*
D03*
X211661D02*
D03*
Y43500D02*
D03*
Y46059D02*
D03*
X270639Y78359D02*
D03*
Y75800D02*
D03*
Y73241D02*
D03*
X262961D02*
D03*
Y75800D02*
D03*
Y78359D02*
D03*
X270239Y59017D02*
D03*
Y56458D02*
D03*
Y53899D02*
D03*
X262561D02*
D03*
Y56458D02*
D03*
Y59017D02*
D03*
X270439Y117565D02*
D03*
Y115006D02*
D03*
Y112447D02*
D03*
X262761D02*
D03*
Y115006D02*
D03*
Y117565D02*
D03*
X270839Y99394D02*
D03*
Y96835D02*
D03*
Y94276D02*
D03*
X263161D02*
D03*
Y96835D02*
D03*
Y99394D02*
D03*
D28*
X202500Y34985D02*
D03*
Y45615D02*
D03*
Y55223D02*
D03*
Y65853D02*
D03*
X250300Y67485D02*
D03*
Y78115D02*
D03*
X249900Y48143D02*
D03*
Y58773D02*
D03*
X250100Y106691D02*
D03*
Y117321D02*
D03*
X143079Y130332D02*
D03*
Y140961D02*
D03*
X250500Y88520D02*
D03*
Y99150D02*
D03*
D29*
X258300Y74331D02*
D03*
Y78268D02*
D03*
X258100Y113538D02*
D03*
Y117475D02*
D03*
X258500Y95366D02*
D03*
Y99303D02*
D03*
X209000Y61532D02*
D03*
Y65469D02*
D03*
X208500Y41882D02*
D03*
Y45819D02*
D03*
X257900Y54990D02*
D03*
Y58927D02*
D03*
X98500Y9031D02*
D03*
Y12968D02*
D03*
X114579Y9031D02*
D03*
Y12968D02*
D03*
X130000Y9532D02*
D03*
Y13468D02*
D03*
X147000Y8531D02*
D03*
Y12468D02*
D03*
X147579Y168115D02*
D03*
Y164178D02*
D03*
X165579Y143178D02*
D03*
Y147115D02*
D03*
X160079Y139115D02*
D03*
Y135178D02*
D03*
X150610Y141615D02*
D03*
Y137678D02*
D03*
X141579Y162678D02*
D03*
Y166615D02*
D03*
X154547Y141615D02*
D03*
Y137678D02*
D03*
X152579Y171115D02*
D03*
Y167178D02*
D03*
X109400Y164646D02*
D03*
Y168584D02*
D03*
X104900Y168584D02*
D03*
Y164646D02*
D03*
X110613Y149146D02*
D03*
Y153084D02*
D03*
X72900Y151115D02*
D03*
Y155052D02*
D03*
X104337Y145083D02*
D03*
Y141147D02*
D03*
D30*
X329650Y194100D02*
D03*
X323350D02*
D03*
X329350Y205100D02*
D03*
X323050D02*
D03*
D31*
X224000Y112615D02*
D03*
Y101985D02*
D03*
D32*
X188685Y93284D02*
D03*
X199315D02*
D03*
D33*
X104800Y12850D02*
D03*
Y6550D02*
D03*
X120333Y12850D02*
D03*
Y6550D02*
D03*
X135667Y13350D02*
D03*
Y7050D02*
D03*
X152500Y12850D02*
D03*
Y6550D02*
D03*
D34*
X235500Y97237D02*
D03*
Y89363D02*
D03*
X224500Y81363D02*
D03*
Y89237D02*
D03*
X47500Y5563D02*
D03*
Y13437D02*
D03*
X58000Y5563D02*
D03*
Y13437D02*
D03*
X79600Y5263D02*
D03*
Y13137D02*
D03*
X69200Y5263D02*
D03*
Y13137D02*
D03*
D35*
X314432Y204700D02*
D03*
X318369D02*
D03*
X314932Y193900D02*
D03*
X318868D02*
D03*
X138047Y152647D02*
D03*
X134110D02*
D03*
X133610Y157647D02*
D03*
X137547D02*
D03*
D36*
X205488Y95253D02*
D03*
Y93284D02*
D03*
Y91316D02*
D03*
Y89347D02*
D03*
X216512Y95253D02*
D03*
Y93284D02*
D03*
Y91316D02*
D03*
Y89347D02*
D03*
D37*
X211000Y92300D02*
D03*
D38*
X237000Y194571D02*
D03*
D39*
X235425Y198429D02*
D03*
X238575D02*
D03*
D40*
X157500Y149209D02*
D03*
Y151178D02*
D03*
Y153147D02*
D03*
Y155115D02*
D03*
Y157083D02*
D03*
X147658D02*
D03*
Y155115D02*
D03*
Y153147D02*
D03*
Y151178D02*
D03*
Y149209D02*
D03*
D41*
X154547Y158068D02*
D03*
X152579D02*
D03*
X150610D02*
D03*
Y148225D02*
D03*
X152579D02*
D03*
X154547D02*
D03*
D42*
X117400Y153934D02*
D03*
Y148422D02*
D03*
D43*
X82435Y149209D02*
D03*
Y153147D02*
D03*
Y157083D02*
D03*
Y159052D02*
D03*
Y161021D02*
D03*
Y155115D02*
D03*
X99168Y151178D02*
D03*
Y155115D02*
D03*
Y157083D02*
D03*
Y159052D02*
D03*
Y161021D02*
D03*
Y153147D02*
D03*
X82435Y151178D02*
D03*
X99168Y149209D02*
D03*
D44*
X86963Y146650D02*
D03*
X88932D02*
D03*
X86963Y163579D02*
D03*
X88932D02*
D03*
X90900D02*
D03*
X94837Y146650D02*
D03*
X92869D02*
D03*
X90900D02*
D03*
X94837Y163579D02*
D03*
X92869D02*
D03*
D45*
X76150Y114358D02*
D03*
Y96642D02*
D03*
X44850Y114358D02*
D03*
Y96642D02*
D03*
X37350Y122158D02*
D03*
Y139875D02*
D03*
X68650Y122158D02*
D03*
Y139875D02*
D03*
M02*
