G04*
G04 #@! TF.GenerationSoftware,Altium Limited,Altium Designer,18.0.12 (696)*
G04*
G04 Layer_Color=255*
%FSLAX25Y25*%
%MOIN*%
G70*
G01*
G75*
%ADD26R,0.04331X0.06693*%
%ADD28R,0.06693X0.04331*%
%ADD29R,0.01968X0.02362*%
%ADD35R,0.02362X0.01968*%
%ADD90C,0.05000*%
%ADD91R,0.07874X0.10236*%
%ADD92R,0.10236X0.07874*%
%ADD93C,0.05906*%
%ADD94R,0.05906X0.05906*%
%ADD95C,0.03150*%
%ADD96C,0.04724*%
%ADD117R,0.01968X0.07874*%
D26*
X311185Y94500D02*
D03*
X321815D02*
D03*
X24853Y72000D02*
D03*
X14223D02*
D03*
X24815Y84000D02*
D03*
X14185D02*
D03*
X25529Y100445D02*
D03*
X14899D02*
D03*
X309870Y82000D02*
D03*
X320500D02*
D03*
X309622Y69543D02*
D03*
X320252D02*
D03*
X309197Y134615D02*
D03*
X319827D02*
D03*
X309197Y147000D02*
D03*
X319827D02*
D03*
X309197Y159500D02*
D03*
X319827D02*
D03*
X51185Y74961D02*
D03*
X61815D02*
D03*
X51677Y107537D02*
D03*
X62307D02*
D03*
X51185Y62831D02*
D03*
X61815D02*
D03*
X191815Y171728D02*
D03*
X181185D02*
D03*
Y155500D02*
D03*
X191815D02*
D03*
Y180000D02*
D03*
X181185D02*
D03*
Y163500D02*
D03*
X191815D02*
D03*
X51185Y87331D02*
D03*
X61815D02*
D03*
D28*
X250500Y99000D02*
D03*
Y88370D02*
D03*
D29*
X256500Y99968D02*
D03*
Y96031D02*
D03*
D35*
X310201Y102000D02*
D03*
X314138D02*
D03*
X25006Y66000D02*
D03*
X21069D02*
D03*
X24468Y77500D02*
D03*
X20531D02*
D03*
X25469Y94445D02*
D03*
X21531D02*
D03*
X310032Y88500D02*
D03*
X313968D02*
D03*
X309531Y75543D02*
D03*
X313469D02*
D03*
X308213Y140500D02*
D03*
X312150D02*
D03*
X308213Y153500D02*
D03*
X312150D02*
D03*
X308213Y165500D02*
D03*
X312150D02*
D03*
X50201Y81134D02*
D03*
X54138D02*
D03*
X50693Y114037D02*
D03*
X54630D02*
D03*
X50201Y69000D02*
D03*
X54138D02*
D03*
X50201Y93831D02*
D03*
X54138D02*
D03*
D90*
X160000Y22000D02*
D03*
X194500Y26000D02*
D03*
X261000Y39000D02*
D03*
X67400Y175500D02*
D03*
X60000Y173500D02*
D03*
X282000Y30000D02*
D03*
X254000Y140500D02*
D03*
X301500Y183000D02*
D03*
Y193500D02*
D03*
Y203500D02*
D03*
X199500Y103500D02*
D03*
X234000Y132000D02*
D03*
X235000Y114000D02*
D03*
X103000Y116000D02*
D03*
X43000Y74961D02*
D03*
X60402Y159213D02*
D03*
D91*
X256996Y170189D02*
D03*
D92*
X275500Y182000D02*
D03*
Y158378D02*
D03*
D93*
X280000Y133000D02*
D03*
Y144332D02*
D03*
X179500Y8600D02*
D03*
X189500D02*
D03*
X199500D02*
D03*
X209500D02*
D03*
X219500D02*
D03*
X39370Y200787D02*
D03*
X47244Y192913D02*
D03*
Y200787D02*
D03*
X55118Y192913D02*
D03*
Y200787D02*
D03*
X62992Y192913D02*
D03*
Y200787D02*
D03*
X70866Y192913D02*
D03*
Y200787D02*
D03*
X78740Y192913D02*
D03*
Y200787D02*
D03*
X86614Y192913D02*
D03*
Y200787D02*
D03*
X94488Y192913D02*
D03*
Y200787D02*
D03*
X102362Y192913D02*
D03*
Y200787D02*
D03*
X110236Y192913D02*
D03*
Y200787D02*
D03*
X118110Y192913D02*
D03*
Y200787D02*
D03*
X125984Y192913D02*
D03*
Y200787D02*
D03*
X133858Y192913D02*
D03*
Y200787D02*
D03*
X141732Y192913D02*
D03*
Y200787D02*
D03*
X149606Y192913D02*
D03*
Y200787D02*
D03*
X157480Y192913D02*
D03*
Y200787D02*
D03*
X165354Y192913D02*
D03*
Y200787D02*
D03*
X173228Y192913D02*
D03*
Y200787D02*
D03*
X181102Y192913D02*
D03*
Y200787D02*
D03*
X188976Y192913D02*
D03*
Y200787D02*
D03*
D94*
X270000Y133000D02*
D03*
Y144332D02*
D03*
X229500Y8600D02*
D03*
X39370Y192913D02*
D03*
D95*
X73425Y60827D02*
D03*
D96*
X184449D02*
D03*
D117*
X165157Y69488D02*
D03*
X168307D02*
D03*
X158858D02*
D03*
X102165D02*
D03*
X105315D02*
D03*
X155709D02*
D03*
X174606D02*
D03*
X171457D02*
D03*
X162008D02*
D03*
X152559D02*
D03*
X143110D02*
D03*
X139961D02*
D03*
X136811D02*
D03*
X133661D02*
D03*
X130512D02*
D03*
X127362D02*
D03*
X124213D02*
D03*
X121063D02*
D03*
X117913D02*
D03*
X114764D02*
D03*
X111614D02*
D03*
X108465D02*
D03*
X99016D02*
D03*
X89567D02*
D03*
X174606Y52165D02*
D03*
X171457D02*
D03*
X168307D02*
D03*
X165157D02*
D03*
X162008D02*
D03*
X158858D02*
D03*
X155709D02*
D03*
X152559D02*
D03*
X149409D02*
D03*
X146260D02*
D03*
X143110D02*
D03*
X139961D02*
D03*
X136811D02*
D03*
X133661D02*
D03*
X130512D02*
D03*
X127362D02*
D03*
X124213D02*
D03*
X121063D02*
D03*
X117913D02*
D03*
X114764D02*
D03*
X111614D02*
D03*
X108465D02*
D03*
X105315D02*
D03*
X102165D02*
D03*
X99016D02*
D03*
X95866D02*
D03*
X92716D02*
D03*
X89567D02*
D03*
X86417D02*
D03*
X83268D02*
D03*
X86417Y69488D02*
D03*
X83268D02*
D03*
X95866D02*
D03*
X92716D02*
D03*
X149409D02*
D03*
X146260D02*
D03*
M02*
