G04*
G04 #@! TF.GenerationSoftware,Altium Limited,Altium Designer,18.0.12 (696)*
G04*
G04 Layer_Color=16711935*
%FSLAX25Y25*%
%MOIN*%
G70*
G01*
G75*
%ADD13C,0.01000*%
%ADD14C,0.00787*%
%ADD122C,0.00600*%
D13*
X-13500Y6000D02*
X-11500Y0D01*
X-9500Y6000D01*
X-11500Y212598D02*
X-9500Y206598D01*
X-13500D02*
X-11500Y212598D01*
Y0D02*
Y106299D01*
Y212598D01*
X-12500Y0D02*
X-1394D01*
X-12500Y212598D02*
X-1394D01*
X0Y-18500D02*
X6000Y-16500D01*
X0Y-18500D02*
X6000Y-20500D01*
X328646D02*
X334646Y-18500D01*
X328646Y-16500D02*
X334646Y-18500D01*
X0D02*
X150627D01*
X180818D02*
X334646D01*
X0Y-19500D02*
Y-1394D01*
X334646Y-19500D02*
Y-1394D01*
D14*
X0Y0D02*
X334646D01*
Y212598D01*
X0D02*
X334646D01*
X0Y0D02*
Y212598D01*
D122*
X-20998Y48499D02*
Y44500D01*
X-17999D01*
X-18999Y46499D01*
Y47499D01*
X-17999Y48499D01*
X-16000D01*
X-15000Y47499D01*
Y45500D01*
X-16000Y44500D01*
X-15000Y53497D02*
X-20998D01*
X-17999Y50498D01*
Y54497D01*
X-15000Y56496D02*
X-16000D01*
Y57496D01*
X-15000D01*
Y56496D01*
X-19998Y61494D02*
X-20998Y62494D01*
Y64494D01*
X-19998Y65493D01*
X-16000D01*
X-15000Y64494D01*
Y62494D01*
X-16000Y61494D01*
X-19998D01*
Y67493D02*
X-20998Y68492D01*
Y70492D01*
X-19998Y71491D01*
X-16000D01*
X-15000Y70492D01*
Y68492D01*
X-16000Y67493D01*
X-19998D01*
X152227Y-17101D02*
X153227Y-16101D01*
X155226D01*
X156226Y-17101D01*
Y-18100D01*
X155226Y-19100D01*
X156226Y-20100D01*
Y-21099D01*
X155226Y-22099D01*
X153227D01*
X152227Y-21099D01*
Y-20100D01*
X153227Y-19100D01*
X152227Y-18100D01*
Y-17101D01*
X153227Y-19100D02*
X155226D01*
X162224Y-16101D02*
X158225D01*
Y-19100D01*
X160225Y-18100D01*
X161224D01*
X162224Y-19100D01*
Y-21099D01*
X161224Y-22099D01*
X159225D01*
X158225Y-21099D01*
X164223Y-22099D02*
Y-21099D01*
X165223D01*
Y-22099D01*
X164223D01*
X169222Y-17101D02*
X170221Y-16101D01*
X172221D01*
X173220Y-17101D01*
Y-21099D01*
X172221Y-22099D01*
X170221D01*
X169222Y-21099D01*
Y-17101D01*
X175220D02*
X176219Y-16101D01*
X178219D01*
X179218Y-17101D01*
Y-21099D01*
X178219Y-22099D01*
X176219D01*
X175220Y-21099D01*
Y-17101D01*
M02*
