M48
;Layer_Color=9474304
;FILE_FORMAT=2:5
INCH,LZ
;TYPE=PLATED
T1F00S00C0.00787
T2F00S00C0.00800
T3F00S00C0.01200
T4F00S00C0.02500
T5F00S00C0.03543
;TYPE=NON_PLATED
T7F00S00C0.03150
T8F00S00C0.04724
%
T01
X02155Y00405
Y0045665
X02664Y0054293
Y0058624
X02668Y0073635
Y0077965
X0267Y0094669
Y0099
X02666Y0112841
Y0117172
X0217Y0065937
Y0061606
T02
X00165Y00055
X00195Y0004
X00215Y0006817
X0024262
X0027412Y00065
X0031
X0024898Y0021225
X00385Y001985
Y002315
X0054Y0026
X00375Y004435
Y004765
X00335Y005
X0031961Y0053127
X0039063Y00555
X00055Y00255
X0007Y00215
X00745Y002175
Y001925
X0076731Y0038537
X0075Y0040268
X00855Y00335
X00895
X0095103Y00235
X0094488Y0017425
X0111
X01085Y00255
X011811Y0025
X01265Y0017425
X01425Y0017925
X0139961Y0042
X0149409
X0158858
X0168307
X01775Y0039
X01855Y0024
Y00215
X0198485Y0034985
X01965Y00455
X02025Y005248
X0130512Y0042
X0127Y00375
X0123512
X0121063Y0042
X0111614
X0112Y0038
X0105315Y0039
X0102165Y0042
X02255Y0038
X0243Y00435
X025Y0038
X0256Y0022
X0262961Y00185
X0264032Y00095
X0257Y0005263
X02895Y00105
X0287363Y0013137
X02895Y00205
X0286Y00235
X02885Y003335
Y003665
X02962Y003
X02965Y001
X03035Y0008
X0308328Y00175
X0313Y0017425
X0318
X0319587Y00065
X0326Y0004
X032735Y003
X03225Y00385
X032125Y0055
X031795
X033Y0053303
X0302Y0051
X0297Y0053
X0294094Y0051
X0275685Y004765
Y00685
X0286Y00665
X028965Y0066926
X0292Y00695
X02955Y007
X0299102Y0076102
X03025Y0078
X0304508Y0082008
X0299024Y0083976
X0296945Y0085945
X0290458Y00825
Y00758
X0291212Y0060473
X0284Y0063
X0302716Y0062323
X0302886Y0058386
X0298041Y0056417
X0329Y00605
X0330983Y0070166
X032865Y00725
X0324992Y0082
X0324713Y01015
X0305429Y0102
X02915Y0104
X02905Y00968
X0283Y0104
X0275685Y01055
X02545Y01065
X0246Y0099
X02505Y00855
X0241Y00815
X02445Y00775
X02435Y0059017
X0235815Y00595
X0225185Y0067485
X02555Y0067315
X02499Y01305
X029328
X0294094Y0127815
X0293779Y0133721
X029676Y0135689
X0294926Y0137657
X0292874Y0139626
X02935Y0143
X02955Y014585
Y014915
X029Y0149209
X02975Y0153724
Y0157024
X0302626Y0155374
X03015Y0161598
X0301818Y0165539
X03035Y0147504
X0298083Y0143563
X0303171Y0129783
X0304017Y0125847
X029Y0115006
X0325815Y01595
X0321496Y01865
X0321Y01995
X0314432Y0198068
X02445Y01985
X02305Y02035
X0230742Y0191
X02235Y01485
X0192Y01445
X0181185Y0145
X0173272Y0171728
X0174539Y0183539
X01985Y01885
X0200461Y0203539
X0205742Y0167889
X02055Y0127815
X02035Y0123
X0185Y0093284
X0168307Y0094258
X0163226Y009365
X0158933Y0087
X0155709Y00835
X0152559Y0079
X0162008
X0171457
X014311
X01275
X0118
X0108465
X0099016
X0089567
X0092641Y00905
X0095941
X010209Y00885
X010539
X0113Y0099
X0115333Y0101333
X0130512Y0096
X0134
X0137
X01405Y00955
X01375Y0118
X014435Y0119
X014685
X01295Y0118
X0138047Y014952
X0095103Y0136815
X0092603
X0076158Y0122158
X0062307Y0114037
X0061803Y0081134
X0061815Y0068896
X009Y01065
X0197Y0065937
X0209Y00775
X00445Y0081
X0040374Y00855
X00408Y009
X00375
X00395Y00965
X0039Y01
X003937Y01055
X0037333Y0108667
X0035Y0111
X0031716Y0104717
X0034165Y0098811
X0031Y0087
X0033063Y0083063
X0031Y0079
X0036406Y0078067
X004Y00705
X0014223Y00805
Y0091939
X00045Y01065
X0004Y0109
X0008Y0111
X0027Y01225
X0044342Y0122158
X0052992Y01195
X00525Y0139875
X00475Y01515
X0041Y01535
X0039Y0157
Y0160965
X0038185Y0165539
Y0168839
X0040374Y0171126
X0038185Y01775
X0037Y01805
X0039063Y0182937
X0041Y0186
X0045494Y01835
X0033374Y0186874
X0031343Y0188842
X00302Y0184906
X002Y01675
X0036122Y0155378
X00395Y0149
X0036941Y0145535
X00335Y01475
X005Y01635
X00145Y0206
X0012
X0008Y00655
T03
X0235Y0081
X0224Y00968
X024Y01045
X0214Y01128
X0211Y00948
Y00893
X0154547Y0130332
X0160079Y0143647
X0170079Y0151146
X0173579Y0155147
X0169579Y0159646
X01737Y0166115
X0158079Y0171147
X0147579Y0173646
X0134579Y0166647
X013461Y0162615
X0127579Y0157647
X0127579Y0152647
X01213Y0154215
X01174Y0141115
X01376Y0141215
X0142Y0149209
X01049Y0159052
X00994Y0168615
X00774Y0165115
X00674Y0159615
X00702Y0150915
X00784Y0142615
T04
X016Y0022
X01945Y0026
X0261Y0039
X0282Y003
X0235Y0114
X0234Y0132
X0254Y01405
X03015Y0183
Y01935
Y02035
X01995Y01035
X0103Y0116
X0060402Y0159213
X006Y01735
X00674Y01755
X0043Y0074961
T05
X01795Y00086
X01895
X01995
X02095
X02195
X02295
X027Y0133
X028
Y0144332
X027
X0188976Y0192913
X0181102
X0173228
X0165354
X015748
X0149606
X0141732
X0133858
X0125984
X011811
X0110236
X0102362
X0094488
X0086614
X007874
X0070866
X0062992
Y0200787
X0070866
X007874
X0086614
X0094488
X0102362
X0110236
X011811
X0125984
X0133858
X0141732
X0149606
X015748
X0165354
X0173228
X0181102
X0188976
X0055118
X0047244
X003937
Y0192913
X0047244
X0055118
T07
X0073425Y0060827
T08
X0184449Y0060827
M30
