G04 Layer_Color=65535*
%FSLAX24Y24*%
%MOIN*%
G70*
G01*
G75*
%ADD35C,0.0100*%
%ADD46C,0.0098*%
%ADD47C,0.0050*%
%ADD48C,0.0039*%
%ADD49C,0.0079*%
%ADD50C,0.0080*%
D35*
X21444Y20760D02*
G03*
X21444Y20760I-14J0D01*
G01*
X31150Y25419D02*
Y31119D01*
Y25419D02*
X34950D01*
Y31119D01*
X31150D02*
X34950D01*
X34350Y25050D02*
X34150D01*
X34250D01*
Y24550D01*
X34150Y24450D01*
X34050D01*
X33950Y24550D01*
X34550Y24950D02*
X34650Y25050D01*
X34850D01*
X34950Y24950D01*
Y24850D01*
X34850Y24750D01*
X34750D01*
X34850D01*
X34950Y24650D01*
Y24550D01*
X34850Y24450D01*
X34650D01*
X34550Y24550D01*
D46*
X25274Y21641D02*
G03*
X25274Y21641I-49J0D01*
G01*
D47*
X42625Y12435D02*
G03*
X42625Y12435I-689J0D01*
G01*
X39889Y12400D02*
G03*
X39889Y12400I-689J0D01*
G01*
X37075Y12385D02*
G03*
X37075Y12385I-689J0D01*
G01*
X34139Y12400D02*
G03*
X34139Y12400I-689J0D01*
G01*
X31439Y12450D02*
G03*
X31439Y12450I-689J0D01*
G01*
X23950Y26335D02*
X24450D01*
X23150D02*
X23650D01*
X22350D02*
X22850D01*
X21550Y26350D02*
X22050D01*
X33400Y21200D02*
Y21500D01*
X33550D01*
X33600Y21450D01*
Y21350D01*
X33550Y21300D01*
X33400D01*
X33500D02*
X33600Y21200D01*
X33700D02*
X33800D01*
X33750D01*
Y21500D01*
X33700Y21450D01*
X33950D02*
X34000Y21500D01*
X34100D01*
X34150Y21450D01*
Y21250D01*
X34100Y21200D01*
X34000D01*
X33950Y21250D01*
Y21450D01*
X34250Y21200D02*
X34350D01*
X34300D01*
Y21500D01*
X34250Y21450D01*
X31250Y20850D02*
Y21150D01*
X31400D01*
X31450Y21100D01*
Y21000D01*
X31400Y20950D01*
X31250D01*
X31350D02*
X31450Y20850D01*
X31550D02*
X31650D01*
X31600D01*
Y21150D01*
X31550Y21100D01*
X31800D02*
X31850Y21150D01*
X31950D01*
X32000Y21100D01*
Y20900D01*
X31950Y20850D01*
X31850D01*
X31800Y20900D01*
Y21100D01*
X32100D02*
X32150Y21150D01*
X32250D01*
X32300Y21100D01*
Y20900D01*
X32250Y20850D01*
X32150D01*
X32100Y20900D01*
Y21100D01*
X32800Y10050D02*
Y10350D01*
X32950D01*
X33000Y10300D01*
Y10200D01*
X32950Y10150D01*
X32800D01*
X32900D02*
X33000Y10050D01*
X33300Y10350D02*
X33100D01*
Y10050D01*
X33300D01*
X33100Y10200D02*
X33200D01*
X33600Y10300D02*
X33550Y10350D01*
X33450D01*
X33400Y10300D01*
Y10250D01*
X33450Y10200D01*
X33550D01*
X33600Y10150D01*
Y10100D01*
X33550Y10050D01*
X33450D01*
X33400Y10100D01*
X33900Y10350D02*
X33700D01*
Y10050D01*
X33900D01*
X33700Y10200D02*
X33800D01*
X34000Y10350D02*
X34200D01*
X34100D01*
Y10050D01*
X31650Y15150D02*
Y15450D01*
X31800D01*
X31850Y15400D01*
Y15300D01*
X31800Y15250D01*
X31650D01*
X31750D02*
X31850Y15150D01*
X31950D02*
X32050D01*
X32000D01*
Y15450D01*
X31950Y15400D01*
X32350Y15150D02*
Y15450D01*
X32200Y15300D01*
X32400D01*
X29450Y15150D02*
Y15450D01*
X29600D01*
X29650Y15400D01*
Y15300D01*
X29600Y15250D01*
X29450D01*
X29550D02*
X29650Y15150D01*
X29750D02*
X29850D01*
X29800D01*
Y15450D01*
X29750Y15400D01*
X30000D02*
X30050Y15450D01*
X30150D01*
X30200Y15400D01*
Y15350D01*
X30150Y15300D01*
X30100D01*
X30150D01*
X30200Y15250D01*
Y15200D01*
X30150Y15150D01*
X30050D01*
X30000Y15200D01*
X30050Y10050D02*
Y10350D01*
X30200D01*
X30250Y10300D01*
Y10200D01*
X30200Y10150D01*
X30050D01*
X30500Y10350D02*
X30400D01*
X30350Y10300D01*
Y10100D01*
X30400Y10050D01*
X30500D01*
X30550Y10100D01*
Y10300D01*
X30500Y10350D01*
X30650D02*
Y10050D01*
X30750Y10150D01*
X30850Y10050D01*
Y10350D01*
X31150D02*
X30950D01*
Y10050D01*
X31150D01*
X30950Y10200D02*
X31050D01*
X31250Y10050D02*
Y10350D01*
X31400D01*
X31450Y10300D01*
Y10200D01*
X31400Y10150D01*
X31250D01*
X31350D02*
X31450Y10050D01*
X33000Y15400D02*
X32950Y15450D01*
X32850D01*
X32800Y15400D01*
Y15200D01*
X32850Y15150D01*
X32950D01*
X33000Y15200D01*
X33300Y15450D02*
X33100D01*
Y15300D01*
X33200Y15350D01*
X33250D01*
X33300Y15300D01*
Y15200D01*
X33250Y15150D01*
X33150D01*
X33100Y15200D01*
X30900Y15000D02*
X30850Y15050D01*
X30750D01*
X30700Y15000D01*
Y14800D01*
X30750Y14750D01*
X30850D01*
X30900Y14800D01*
X31150Y14750D02*
Y15050D01*
X31000Y14900D01*
X31200D01*
X36200Y10300D02*
X36150Y10350D01*
X36050D01*
X36000Y10300D01*
Y10250D01*
X36050Y10200D01*
X36150D01*
X36200Y10150D01*
Y10100D01*
X36150Y10050D01*
X36050D01*
X36000Y10100D01*
X36300Y10350D02*
Y10050D01*
X36400Y10150D01*
X36500Y10050D01*
Y10350D01*
X36600Y10300D02*
X36650Y10350D01*
X36750D01*
X36800Y10300D01*
Y10250D01*
X36750Y10200D01*
X36700D01*
X36750D01*
X36800Y10150D01*
Y10100D01*
X36750Y10050D01*
X36650D01*
X36600Y10100D01*
X39000Y10300D02*
X38950Y10350D01*
X38850D01*
X38800Y10300D01*
Y10250D01*
X38850Y10200D01*
X38950D01*
X39000Y10150D01*
Y10100D01*
X38950Y10050D01*
X38850D01*
X38800Y10100D01*
X39100Y10350D02*
Y10050D01*
X39200Y10150D01*
X39300Y10050D01*
Y10350D01*
X39600Y10050D02*
X39400D01*
X39600Y10250D01*
Y10300D01*
X39550Y10350D01*
X39450D01*
X39400Y10300D01*
X41800D02*
X41750Y10350D01*
X41650D01*
X41600Y10300D01*
Y10250D01*
X41650Y10200D01*
X41750D01*
X41800Y10150D01*
Y10100D01*
X41750Y10050D01*
X41650D01*
X41600Y10100D01*
X41900Y10350D02*
Y10050D01*
X42000Y10150D01*
X42100Y10050D01*
Y10350D01*
X42200Y10050D02*
X42300D01*
X42250D01*
Y10350D01*
X42200Y10300D01*
X34750Y15150D02*
Y15450D01*
X34900D01*
X34950Y15400D01*
Y15300D01*
X34900Y15250D01*
X34750D01*
X34850D02*
X34950Y15150D01*
X35050D02*
X35150D01*
X35100D01*
Y15450D01*
X35050Y15400D01*
X35500Y15150D02*
X35300D01*
X35500Y15350D01*
Y15400D01*
X35450Y15450D01*
X35350D01*
X35300Y15400D01*
X14800Y27750D02*
X14500D01*
Y27900D01*
X14550Y27950D01*
X14650D01*
X14700Y27900D01*
Y27750D01*
Y27850D02*
X14800Y27950D01*
Y28050D02*
Y28150D01*
Y28100D01*
X14500D01*
X14550Y28050D01*
X14800Y28300D02*
Y28400D01*
Y28350D01*
X14500D01*
X14550Y28300D01*
X13800Y27750D02*
X13500D01*
Y27900D01*
X13550Y27950D01*
X13650D01*
X13700Y27900D01*
Y27750D01*
Y27850D02*
X13800Y27950D01*
Y28050D02*
Y28150D01*
Y28100D01*
X13500D01*
X13550Y28050D01*
Y28300D02*
X13500Y28350D01*
Y28450D01*
X13550Y28500D01*
X13750D01*
X13800Y28450D01*
Y28350D01*
X13750Y28300D01*
X13550D01*
X12800Y27850D02*
X12500D01*
Y28000D01*
X12550Y28050D01*
X12650D01*
X12700Y28000D01*
Y27850D01*
Y27950D02*
X12800Y28050D01*
X12750Y28150D02*
X12800Y28200D01*
Y28300D01*
X12750Y28350D01*
X12550D01*
X12500Y28300D01*
Y28200D01*
X12550Y28150D01*
X12600D01*
X12650Y28200D01*
Y28350D01*
X11800Y27800D02*
X11500D01*
Y27950D01*
X11550Y28000D01*
X11650D01*
X11700Y27950D01*
Y27800D01*
Y27900D02*
X11800Y28000D01*
X11550Y28100D02*
X11500Y28150D01*
Y28250D01*
X11550Y28300D01*
X11600D01*
X11650Y28250D01*
X11700Y28300D01*
X11750D01*
X11800Y28250D01*
Y28150D01*
X11750Y28100D01*
X11700D01*
X11650Y28150D01*
X11600Y28100D01*
X11550D01*
X11650Y28150D02*
Y28250D01*
X10750Y27850D02*
X10450D01*
Y28000D01*
X10500Y28050D01*
X10600D01*
X10650Y28000D01*
Y27850D01*
Y27950D02*
X10750Y28050D01*
X10450Y28150D02*
Y28350D01*
X10500D01*
X10700Y28150D01*
X10750D01*
X37650Y15100D02*
Y15400D01*
X37800D01*
X37850Y15350D01*
Y15250D01*
X37800Y15200D01*
X37650D01*
X37750D02*
X37850Y15100D01*
X38150Y15400D02*
X38050Y15350D01*
X37950Y15250D01*
Y15150D01*
X38000Y15100D01*
X38100D01*
X38150Y15150D01*
Y15200D01*
X38100Y15250D01*
X37950D01*
X40450Y15100D02*
Y15400D01*
X40600D01*
X40650Y15350D01*
Y15250D01*
X40600Y15200D01*
X40450D01*
X40550D02*
X40650Y15100D01*
X40950Y15400D02*
X40750D01*
Y15250D01*
X40850Y15300D01*
X40900D01*
X40950Y15250D01*
Y15150D01*
X40900Y15100D01*
X40800D01*
X40750Y15150D01*
X24350Y28035D02*
X24050D01*
Y28185D01*
X24100Y28235D01*
X24200D01*
X24250Y28185D01*
Y28035D01*
Y28135D02*
X24350Y28235D01*
Y28485D02*
X24050D01*
X24200Y28335D01*
Y28535D01*
X23550Y28085D02*
X23250D01*
Y28235D01*
X23300Y28285D01*
X23400D01*
X23450Y28235D01*
Y28085D01*
Y28185D02*
X23550Y28285D01*
X23300Y28385D02*
X23250Y28435D01*
Y28535D01*
X23300Y28585D01*
X23350D01*
X23400Y28535D01*
Y28485D01*
Y28535D01*
X23450Y28585D01*
X23500D01*
X23550Y28535D01*
Y28435D01*
X23500Y28385D01*
X22750Y28085D02*
X22450D01*
Y28235D01*
X22500Y28285D01*
X22600D01*
X22650Y28235D01*
Y28085D01*
Y28185D02*
X22750Y28285D01*
Y28585D02*
Y28385D01*
X22550Y28585D01*
X22500D01*
X22450Y28535D01*
Y28435D01*
X22500Y28385D01*
X21950Y28100D02*
X21650D01*
Y28250D01*
X21700Y28300D01*
X21800D01*
X21850Y28250D01*
Y28100D01*
Y28200D02*
X21950Y28300D01*
Y28400D02*
Y28500D01*
Y28450D01*
X21650D01*
X21700Y28400D01*
X10500Y24200D02*
X10400D01*
X10450D01*
Y23950D01*
X10400Y23900D01*
X10350D01*
X10300Y23950D01*
X10750Y23900D02*
Y24200D01*
X10600Y24050D01*
X10800D01*
X24050Y24600D02*
Y24700D01*
Y24650D01*
X24350D01*
Y24600D01*
Y24700D01*
Y24850D02*
X24050D01*
X24350Y25050D01*
X24050D01*
Y25150D02*
X24350D01*
Y25300D01*
X24300Y25350D01*
X24100D01*
X24050Y25300D01*
Y25150D01*
X24100Y25450D02*
X24050Y25500D01*
Y25600D01*
X24100Y25650D01*
X24150D01*
X24200Y25600D01*
Y25550D01*
Y25600D01*
X24250Y25650D01*
X24300D01*
X24350Y25600D01*
Y25500D01*
X24300Y25450D01*
X23250Y24600D02*
Y24700D01*
Y24650D01*
X23550D01*
Y24600D01*
Y24700D01*
Y24850D02*
X23250D01*
X23550Y25050D01*
X23250D01*
Y25150D02*
X23550D01*
Y25300D01*
X23500Y25350D01*
X23300D01*
X23250Y25300D01*
Y25150D01*
X23550Y25650D02*
Y25450D01*
X23350Y25650D01*
X23300D01*
X23250Y25600D01*
Y25500D01*
X23300Y25450D01*
X22450Y24635D02*
Y24735D01*
Y24685D01*
X22750D01*
Y24635D01*
Y24735D01*
Y24885D02*
X22450D01*
X22750Y25085D01*
X22450D01*
Y25185D02*
X22750D01*
Y25335D01*
X22700Y25385D01*
X22500D01*
X22450Y25335D01*
Y25185D01*
X22750Y25485D02*
Y25585D01*
Y25535D01*
X22450D01*
X22500Y25485D01*
X35850Y15400D02*
X35800Y15450D01*
X35700D01*
X35650Y15400D01*
Y15200D01*
X35700Y15150D01*
X35800D01*
X35850Y15200D01*
X35950Y15400D02*
X36000Y15450D01*
X36100D01*
X36150Y15400D01*
Y15350D01*
X36100Y15300D01*
X36050D01*
X36100D01*
X36150Y15250D01*
Y15200D01*
X36100Y15150D01*
X36000D01*
X35950Y15200D01*
X38650Y15350D02*
X38600Y15400D01*
X38500D01*
X38450Y15350D01*
Y15150D01*
X38500Y15100D01*
X38600D01*
X38650Y15150D01*
X38950Y15100D02*
X38750D01*
X38950Y15300D01*
Y15350D01*
X38900Y15400D01*
X38800D01*
X38750Y15350D01*
X41500D02*
X41450Y15400D01*
X41350D01*
X41300Y15350D01*
Y15150D01*
X41350Y15100D01*
X41450D01*
X41500Y15150D01*
X41600Y15100D02*
X41700D01*
X41650D01*
Y15400D01*
X41600Y15350D01*
X21950Y24900D02*
Y25000D01*
Y24950D01*
X21650D01*
X21700Y24900D01*
X21650Y25150D02*
X21850D01*
X21950Y25250D01*
X21850Y25350D01*
X21650D01*
X21700Y25450D02*
X21650Y25500D01*
Y25600D01*
X21700Y25650D01*
X21750D01*
X21800Y25600D01*
X21850Y25650D01*
X21900D01*
X21950Y25600D01*
Y25500D01*
X21900Y25450D01*
X21850D01*
X21800Y25500D01*
X21750Y25450D01*
X21700D01*
X21800Y25500D02*
Y25600D01*
X20700Y23250D02*
Y23000D01*
X20750Y22950D01*
X20850D01*
X20900Y23000D01*
Y23250D01*
X21200Y22950D02*
X21000D01*
X21200Y23150D01*
Y23200D01*
X21150Y23250D01*
X21050D01*
X21000Y23200D01*
X21500Y22950D02*
X21300D01*
X21500Y23150D01*
Y23200D01*
X21450Y23250D01*
X21350D01*
X21300Y23200D01*
X21600D02*
X21650Y23250D01*
X21750D01*
X21800Y23200D01*
Y23000D01*
X21750Y22950D01*
X21650D01*
X21600Y23000D01*
Y23200D01*
X25500Y23800D02*
X25200D01*
Y23950D01*
X25250Y24000D01*
X25350D01*
X25400Y23950D01*
Y23800D01*
Y23900D02*
X25500Y24000D01*
Y24300D02*
Y24100D01*
X25300Y24300D01*
X25250D01*
X25200Y24250D01*
Y24150D01*
X25250Y24100D01*
X25500Y24550D02*
X25200D01*
X25350Y24400D01*
Y24600D01*
X25500Y24850D02*
X25200D01*
X25350Y24700D01*
Y24900D01*
X23050Y21147D02*
X22750D01*
Y21297D01*
X22800Y21347D01*
X22900D01*
X22950Y21297D01*
Y21147D01*
Y21247D02*
X23050Y21347D01*
Y21647D02*
Y21447D01*
X22850Y21647D01*
X22800D01*
X22750Y21597D01*
Y21497D01*
X22800Y21447D01*
X23050Y21947D02*
Y21747D01*
X22850Y21947D01*
X22800D01*
X22750Y21897D01*
Y21797D01*
X22800Y21747D01*
X23050Y22047D02*
Y22147D01*
Y22097D01*
X22750D01*
X22800Y22047D01*
X34550Y20000D02*
Y19750D01*
X34600Y19700D01*
X34700D01*
X34750Y19750D01*
Y20000D01*
X34850Y19700D02*
X34950D01*
X34900D01*
Y20000D01*
X34850Y19950D01*
X35100D02*
X35150Y20000D01*
X35250D01*
X35300Y19950D01*
Y19750D01*
X35250Y19700D01*
X35150D01*
X35100Y19750D01*
Y19950D01*
X35400D02*
X35450Y20000D01*
X35550D01*
X35600Y19950D01*
Y19750D01*
X35550Y19700D01*
X35450D01*
X35400Y19750D01*
Y19950D01*
X36690Y19970D02*
X36640Y20020D01*
X36540D01*
X36490Y19970D01*
Y19770D01*
X36540Y19720D01*
X36640D01*
X36690Y19770D01*
X36790Y19720D02*
X36890D01*
X36840D01*
Y20020D01*
X36790Y19970D01*
X37040D02*
X37090Y20020D01*
X37190D01*
X37240Y19970D01*
Y19770D01*
X37190Y19720D01*
X37090D01*
X37040Y19770D01*
Y19970D01*
X37340Y19720D02*
X37440D01*
X37390D01*
Y20020D01*
X37340Y19970D01*
X30740Y19170D02*
X30690Y19220D01*
X30590D01*
X30540Y19170D01*
Y18970D01*
X30590Y18920D01*
X30690D01*
X30740Y18970D01*
X30840Y18920D02*
X30940D01*
X30890D01*
Y19220D01*
X30840Y19170D01*
X31090D02*
X31140Y19220D01*
X31240D01*
X31290Y19170D01*
Y18970D01*
X31240Y18920D01*
X31140D01*
X31090Y18970D01*
Y19170D01*
X31390D02*
X31440Y19220D01*
X31540D01*
X31590Y19170D01*
Y18970D01*
X31540Y18920D01*
X31440D01*
X31390Y18970D01*
Y19170D01*
X17550Y21250D02*
X17500Y21300D01*
X17400D01*
X17350Y21250D01*
Y21050D01*
X17400Y21000D01*
X17500D01*
X17550Y21050D01*
X17850Y21000D02*
X17650D01*
X17850Y21200D01*
Y21250D01*
X17800Y21300D01*
X17700D01*
X17650Y21250D01*
X18150Y21000D02*
X17950D01*
X18150Y21200D01*
Y21250D01*
X18100Y21300D01*
X18000D01*
X17950Y21250D01*
X18250D02*
X18300Y21300D01*
X18400D01*
X18450Y21250D01*
Y21050D01*
X18400Y21000D01*
X18300D01*
X18250Y21050D01*
Y21250D01*
X18700Y19200D02*
X18650Y19150D01*
Y19050D01*
X18700Y19000D01*
X18900D01*
X18950Y19050D01*
Y19150D01*
X18900Y19200D01*
X18950Y19500D02*
Y19300D01*
X18750Y19500D01*
X18700D01*
X18650Y19450D01*
Y19350D01*
X18700Y19300D01*
X18950Y19800D02*
Y19600D01*
X18750Y19800D01*
X18700D01*
X18650Y19750D01*
Y19650D01*
X18700Y19600D01*
X18950Y19900D02*
Y20000D01*
Y19950D01*
X18650D01*
X18700Y19900D01*
X17450Y22100D02*
X17400Y22050D01*
Y21950D01*
X17450Y21900D01*
X17650D01*
X17700Y21950D01*
Y22050D01*
X17650Y22100D01*
X17700Y22400D02*
Y22200D01*
X17500Y22400D01*
X17450D01*
X17400Y22350D01*
Y22250D01*
X17450Y22200D01*
X17700Y22700D02*
Y22500D01*
X17500Y22700D01*
X17450D01*
X17400Y22650D01*
Y22550D01*
X17450Y22500D01*
X17700Y23000D02*
Y22800D01*
X17500Y23000D01*
X17450D01*
X17400Y22950D01*
Y22850D01*
X17450Y22800D01*
X15900Y22400D02*
X15850Y22350D01*
Y22250D01*
X15900Y22200D01*
X16100D01*
X16150Y22250D01*
Y22350D01*
X16100Y22400D01*
X16150Y22700D02*
Y22500D01*
X15950Y22700D01*
X15900D01*
X15850Y22650D01*
Y22550D01*
X15900Y22500D01*
X16150Y23000D02*
Y22800D01*
X15950Y23000D01*
X15900D01*
X15850Y22950D01*
Y22850D01*
X15900Y22800D01*
Y23100D02*
X15850Y23150D01*
Y23250D01*
X15900Y23300D01*
X15950D01*
X16000Y23250D01*
Y23200D01*
Y23250D01*
X16050Y23300D01*
X16100D01*
X16150Y23250D01*
Y23150D01*
X16100Y23100D01*
X26680Y18800D02*
X26630Y18750D01*
Y18650D01*
X26680Y18600D01*
X26880D01*
X26930Y18650D01*
Y18750D01*
X26880Y18800D01*
X26930Y19100D02*
Y18900D01*
X26730Y19100D01*
X26680D01*
X26630Y19050D01*
Y18950D01*
X26680Y18900D01*
X26930Y19350D02*
X26630D01*
X26780Y19200D01*
Y19400D01*
X26680Y19500D02*
X26630Y19550D01*
Y19650D01*
X26680Y19700D01*
X26880D01*
X26930Y19650D01*
Y19550D01*
X26880Y19500D01*
X26680D01*
X24430Y21853D02*
X24380Y21803D01*
Y21703D01*
X24430Y21653D01*
X24630D01*
X24680Y21703D01*
Y21803D01*
X24630Y21853D01*
X24680Y22153D02*
Y21953D01*
X24480Y22153D01*
X24430D01*
X24380Y22103D01*
Y22003D01*
X24430Y21953D01*
X24680Y22403D02*
X24380D01*
X24530Y22253D01*
Y22453D01*
X24680Y22553D02*
Y22653D01*
Y22603D01*
X24380D01*
X24430Y22553D01*
X25310Y23210D02*
X25260Y23260D01*
X25160D01*
X25110Y23210D01*
Y23010D01*
X25160Y22960D01*
X25260D01*
X25310Y23010D01*
X25610Y22960D02*
X25410D01*
X25610Y23160D01*
Y23210D01*
X25560Y23260D01*
X25460D01*
X25410Y23210D01*
X25860Y22960D02*
Y23260D01*
X25710Y23110D01*
X25910D01*
X26210Y22960D02*
X26010D01*
X26210Y23160D01*
Y23210D01*
X26160Y23260D01*
X26060D01*
X26010Y23210D01*
X27130Y23097D02*
X27080Y23047D01*
Y22947D01*
X27130Y22897D01*
X27330D01*
X27380Y22947D01*
Y23047D01*
X27330Y23097D01*
X27380Y23397D02*
Y23197D01*
X27180Y23397D01*
X27130D01*
X27080Y23347D01*
Y23247D01*
X27130Y23197D01*
X27380Y23647D02*
X27080D01*
X27230Y23497D01*
Y23697D01*
X27130Y23797D02*
X27080Y23847D01*
Y23947D01*
X27130Y23996D01*
X27180D01*
X27230Y23947D01*
Y23897D01*
Y23947D01*
X27280Y23996D01*
X27330D01*
X27380Y23947D01*
Y23847D01*
X27330Y23797D01*
X29330Y22400D02*
X29280Y22350D01*
Y22250D01*
X29330Y22200D01*
X29530D01*
X29580Y22250D01*
Y22350D01*
X29530Y22400D01*
X29580Y22700D02*
Y22500D01*
X29380Y22700D01*
X29330D01*
X29280Y22650D01*
Y22550D01*
X29330Y22500D01*
X29580Y22950D02*
X29280D01*
X29430Y22800D01*
Y23000D01*
X29580Y23250D02*
X29280D01*
X29430Y23100D01*
Y23300D01*
X18300Y24750D02*
Y25050D01*
X18450D01*
X18500Y25000D01*
Y24900D01*
X18450Y24850D01*
X18300D01*
X18400D02*
X18500Y24750D01*
X18800D02*
X18600D01*
X18800Y24950D01*
Y25000D01*
X18750Y25050D01*
X18650D01*
X18600Y25000D01*
X18900D02*
X18950Y25050D01*
X19050D01*
X19100Y25000D01*
Y24800D01*
X19050Y24750D01*
X18950D01*
X18900Y24800D01*
Y25000D01*
X19200D02*
X19250Y25050D01*
X19350D01*
X19400Y25000D01*
Y24800D01*
X19350Y24750D01*
X19250D01*
X19200Y24800D01*
Y25000D01*
X20450Y24100D02*
X20150D01*
Y24250D01*
X20200Y24300D01*
X20300D01*
X20350Y24250D01*
Y24100D01*
Y24200D02*
X20450Y24300D01*
Y24600D02*
Y24400D01*
X20250Y24600D01*
X20200D01*
X20150Y24550D01*
Y24450D01*
X20200Y24400D01*
Y24700D02*
X20150Y24750D01*
Y24850D01*
X20200Y24900D01*
X20400D01*
X20450Y24850D01*
Y24750D01*
X20400Y24700D01*
X20200D01*
X20450Y25000D02*
Y25100D01*
Y25050D01*
X20150D01*
X20200Y25000D01*
X18650Y22900D02*
X18350D01*
Y23050D01*
X18400Y23100D01*
X18500D01*
X18550Y23050D01*
Y22900D01*
Y23000D02*
X18650Y23100D01*
Y23400D02*
Y23200D01*
X18450Y23400D01*
X18400D01*
X18350Y23350D01*
Y23250D01*
X18400Y23200D01*
X18650Y23700D02*
Y23500D01*
X18450Y23700D01*
X18400D01*
X18350Y23650D01*
Y23550D01*
X18400Y23500D01*
Y23800D02*
X18350Y23850D01*
Y23950D01*
X18400Y24000D01*
X18600D01*
X18650Y23950D01*
Y23850D01*
X18600Y23800D01*
X18400D01*
X28380Y18850D02*
Y19150D01*
X28530D01*
X28580Y19100D01*
Y19000D01*
X28530Y18950D01*
X28380D01*
X28480D02*
X28580Y18850D01*
X28880D02*
X28680D01*
X28880Y19050D01*
Y19100D01*
X28830Y19150D01*
X28730D01*
X28680Y19100D01*
X29130Y18850D02*
Y19150D01*
X28980Y19000D01*
X29180D01*
X29280Y19100D02*
X29330Y19150D01*
X29430D01*
X29480Y19100D01*
Y18900D01*
X29430Y18850D01*
X29330D01*
X29280Y18900D01*
Y19100D01*
X29327Y20500D02*
Y20800D01*
X29477D01*
X29527Y20750D01*
Y20650D01*
X29477Y20600D01*
X29327D01*
X29427D02*
X29527Y20500D01*
X29827D02*
X29627D01*
X29827Y20700D01*
Y20750D01*
X29777Y20800D01*
X29677D01*
X29627Y20750D01*
X30077Y20500D02*
Y20800D01*
X29927Y20650D01*
X30127D01*
X30227Y20500D02*
X30327D01*
X30277D01*
Y20800D01*
X30227Y20750D01*
X24350Y18950D02*
Y19250D01*
X24500D01*
X24550Y19200D01*
Y19100D01*
X24500Y19050D01*
X24350D01*
X24450D02*
X24550Y18950D01*
X24850D02*
X24650D01*
X24850Y19150D01*
Y19200D01*
X24800Y19250D01*
X24700D01*
X24650Y19200D01*
X25100Y18950D02*
Y19250D01*
X24950Y19100D01*
X25150D01*
X25450Y18950D02*
X25250D01*
X25450Y19150D01*
Y19200D01*
X25400Y19250D01*
X25300D01*
X25250Y19200D01*
X29083Y19700D02*
Y20000D01*
X29233D01*
X29283Y19950D01*
Y19850D01*
X29233Y19800D01*
X29083D01*
X29183D02*
X29283Y19700D01*
X29583D02*
X29383D01*
X29583Y19900D01*
Y19950D01*
X29533Y20000D01*
X29433D01*
X29383Y19950D01*
X29833Y19700D02*
Y20000D01*
X29683Y19850D01*
X29883D01*
X29983Y19950D02*
X30033Y20000D01*
X30133D01*
X30183Y19950D01*
Y19900D01*
X30133Y19850D01*
X30083D01*
X30133D01*
X30183Y19800D01*
Y19750D01*
X30133Y19700D01*
X30033D01*
X29983Y19750D01*
X26380Y22250D02*
Y22000D01*
X26430Y21950D01*
X26530D01*
X26580Y22000D01*
Y22250D01*
X26880Y21950D02*
X26680D01*
X26880Y22150D01*
Y22200D01*
X26830Y22250D01*
X26730D01*
X26680Y22200D01*
X27130Y21950D02*
Y22250D01*
X26980Y22100D01*
X27180D01*
X27280Y22200D02*
X27330Y22250D01*
X27430D01*
X27480Y22200D01*
Y22000D01*
X27430Y21950D01*
X27330D01*
X27280Y22000D01*
Y22200D01*
X16450Y26300D02*
X16350D01*
X16400D01*
Y26050D01*
X16350Y26000D01*
X16300D01*
X16250Y26050D01*
X16750Y26300D02*
X16550D01*
Y26150D01*
X16650Y26200D01*
X16700D01*
X16750Y26150D01*
Y26050D01*
X16700Y26000D01*
X16600D01*
X16550Y26050D01*
X19450Y26350D02*
X19350D01*
X19400D01*
Y26100D01*
X19350Y26050D01*
X19300D01*
X19250Y26100D01*
X19750Y26350D02*
X19650Y26300D01*
X19550Y26200D01*
Y26100D01*
X19600Y26050D01*
X19700D01*
X19750Y26100D01*
Y26150D01*
X19700Y26200D01*
X19550D01*
D48*
X35387Y18290D02*
G03*
X35387Y18290I-20J0D01*
G01*
D49*
X14394Y26850D02*
X14906D01*
X13394D02*
X13906D01*
X12394D02*
X12906D01*
X11394D02*
X11906D01*
X10394D02*
X10906D01*
X37093Y19372D02*
X37407D01*
X37093Y18428D02*
X37407D01*
X31143Y17628D02*
X31457D01*
X31143Y18572D02*
X31457D01*
X25480Y20400D02*
X25726D01*
X25480D02*
Y20450D01*
X26534Y20400D02*
X26780D01*
Y20450D01*
Y21650D02*
Y21700D01*
X26534D02*
X26780D01*
X25480D02*
X25726D01*
X25480Y21650D02*
Y21700D01*
X21318Y22339D02*
Y22418D01*
X21141D02*
X21318D01*
Y20882D02*
Y20961D01*
X21141Y20882D02*
X21318D01*
X19782Y22339D02*
Y22418D01*
X19959D01*
X19782Y20882D02*
Y20961D01*
Y20882D02*
X19959D01*
X31900Y20094D02*
Y20606D01*
X33950Y20444D02*
Y20956D01*
X10150Y24500D02*
Y25500D01*
X16150Y24500D02*
Y25500D01*
X10150Y24500D02*
X16150D01*
X10150Y25500D02*
X16150D01*
X19000Y26550D02*
X21000D01*
Y28550D01*
X19000Y26550D02*
Y28550D01*
X21000D01*
X16000Y26500D02*
X18000D01*
Y28500D01*
X16000Y26500D02*
Y28500D01*
X18000D01*
X33990Y19510D02*
X34147D01*
X35053D02*
X35210D01*
X33990Y18290D02*
X34147D01*
X35053D02*
X35210D01*
X33990Y19402D02*
Y19510D01*
Y18290D02*
Y18398D01*
X35210Y19402D02*
Y19510D01*
Y18290D02*
Y18398D01*
D50*
X21200Y27100D02*
X21250Y27150D01*
X21350D01*
X21400Y27100D01*
Y27050D01*
X21350Y27000D01*
X21300D01*
X21350D01*
X21400Y26950D01*
Y26900D01*
X21350Y26850D01*
X21250D01*
X21200Y26900D01*
X21350Y27900D02*
Y28200D01*
X21200Y28050D01*
X21400D01*
X18800Y27900D02*
X18600D01*
X18800Y28100D01*
Y28150D01*
X18750Y28200D01*
X18650D01*
X18600Y28150D01*
X18650Y26900D02*
X18750D01*
X18700D01*
Y27200D01*
X18650Y27150D01*
X18200Y27050D02*
X18250Y27100D01*
X18350D01*
X18400Y27050D01*
Y27000D01*
X18350Y26950D01*
X18300D01*
X18350D01*
X18400Y26900D01*
Y26850D01*
X18350Y26800D01*
X18250D01*
X18200Y26850D01*
X18350Y27800D02*
Y28100D01*
X18200Y27950D01*
X18400D01*
X15800Y27850D02*
X15600D01*
X15800Y28050D01*
Y28100D01*
X15750Y28150D01*
X15650D01*
X15600Y28100D01*
X15700Y26800D02*
X15800D01*
X15750D01*
Y27100D01*
X15700Y27050D01*
M02*
