G04*
G04 #@! TF.GenerationSoftware,Altium Limited,Altium Designer,18.0.12 (696)*
G04*
G04 Layer_Color=8388736*
%FSLAX25Y25*%
%MOIN*%
G70*
G01*
G75*
%ADD46R,0.05918X0.01981*%
%ADD47R,0.02769X0.02257*%
%ADD48R,0.02769X0.02650*%
%ADD49R,0.01706X0.05131*%
%ADD50R,0.02375X0.05131*%
%ADD51R,0.06312X0.06706*%
%ADD52R,0.09461X0.07887*%
%ADD53R,0.02847X0.02217*%
%ADD54R,0.02847X0.01863*%
%ADD55R,0.05918X0.06902*%
%ADD56R,0.05131X0.07493*%
G04:AMPARAMS|DCode=57|XSize=47.37mil|YSize=70.99mil|CornerRadius=5.97mil|HoleSize=0mil|Usage=FLASHONLY|Rotation=0.000|XOffset=0mil|YOffset=0mil|HoleType=Round|Shape=RoundedRectangle|*
%AMROUNDEDRECTD57*
21,1,0.04737,0.05906,0,0,0.0*
21,1,0.03543,0.07099,0,0,0.0*
1,1,0.01194,0.01772,-0.02953*
1,1,0.01194,-0.01772,-0.02953*
1,1,0.01194,-0.01772,0.02953*
1,1,0.01194,0.01772,0.02953*
%
%ADD57ROUNDEDRECTD57*%
G04:AMPARAMS|DCode=58|XSize=19.81mil|YSize=25.72mil|CornerRadius=5.95mil|HoleSize=0mil|Usage=FLASHONLY|Rotation=90.000|XOffset=0mil|YOffset=0mil|HoleType=Round|Shape=RoundedRectangle|*
%AMROUNDEDRECTD58*
21,1,0.01981,0.01382,0,0,90.0*
21,1,0.00791,0.02572,0,0,90.0*
1,1,0.01190,0.00691,0.00396*
1,1,0.01190,0.00691,-0.00396*
1,1,0.01190,-0.00691,-0.00396*
1,1,0.01190,-0.00691,0.00396*
%
%ADD58ROUNDEDRECTD58*%
%ADD59R,0.07493X0.05131*%
%ADD60R,0.02769X0.03162*%
%ADD61R,0.04737X0.05918*%
%ADD62R,0.11036X0.05131*%
%ADD63R,0.05131X0.11036*%
%ADD64R,0.05918X0.04737*%
%ADD65R,0.06706X0.06312*%
%ADD66R,0.03162X0.02769*%
%ADD67R,0.03559X0.01787*%
%ADD68R,0.07299X0.10173*%
%ADD69R,0.02217X0.02847*%
%ADD70R,0.01863X0.02847*%
%ADD71R,0.03950X0.01981*%
%ADD72R,0.01981X0.03950*%
%ADD73R,0.04343X0.03950*%
%ADD74R,0.04737X0.01981*%
%ADD75R,0.01981X0.04737*%
%ADD76R,0.06902X0.05918*%
%ADD77C,0.05800*%
%ADD78R,0.08674X0.11036*%
%ADD79R,0.11036X0.08674*%
%ADD80C,0.06706*%
%ADD81R,0.06706X0.06706*%
%ADD82C,0.03950*%
%ADD83C,0.05524*%
%ADD84C,0.02600*%
%ADD85C,0.02769*%
%ADD86C,0.03200*%
D46*
X309705Y72165D02*
D03*
X24898Y96842D02*
D03*
Y98811D02*
D03*
X309705Y64291D02*
D03*
X309602Y145531D02*
D03*
Y149469D02*
D03*
Y153405D02*
D03*
X24898Y90937D02*
D03*
Y92905D02*
D03*
Y157346D02*
D03*
Y161284D02*
D03*
Y165220D02*
D03*
Y169158D02*
D03*
Y190811D02*
D03*
Y188842D02*
D03*
Y186874D02*
D03*
Y184906D02*
D03*
Y182937D02*
D03*
Y180968D02*
D03*
Y179000D02*
D03*
Y177032D02*
D03*
Y175063D02*
D03*
Y173094D02*
D03*
Y171126D02*
D03*
Y167189D02*
D03*
Y163252D02*
D03*
Y159315D02*
D03*
Y155378D02*
D03*
Y151441D02*
D03*
Y147504D02*
D03*
Y145535D02*
D03*
X309602Y123878D02*
D03*
Y125847D02*
D03*
Y127815D02*
D03*
Y129783D02*
D03*
Y131752D02*
D03*
Y133721D02*
D03*
Y135689D02*
D03*
Y137657D02*
D03*
Y139626D02*
D03*
Y141595D02*
D03*
Y143563D02*
D03*
Y147500D02*
D03*
Y151437D02*
D03*
Y155374D02*
D03*
Y159311D02*
D03*
Y161279D02*
D03*
Y163248D02*
D03*
Y165217D02*
D03*
Y167185D02*
D03*
Y169153D02*
D03*
X309705Y97756D02*
D03*
Y95787D02*
D03*
Y93819D02*
D03*
Y91850D02*
D03*
Y89882D02*
D03*
Y87913D02*
D03*
Y85945D02*
D03*
Y83976D02*
D03*
Y82008D02*
D03*
Y80039D02*
D03*
Y78071D02*
D03*
Y76102D02*
D03*
Y74134D02*
D03*
Y70197D02*
D03*
Y68228D02*
D03*
Y62323D02*
D03*
Y60354D02*
D03*
Y58386D02*
D03*
Y56417D02*
D03*
Y54449D02*
D03*
Y52480D02*
D03*
X24898Y65346D02*
D03*
Y67315D02*
D03*
Y69283D02*
D03*
Y71252D02*
D03*
Y73220D02*
D03*
Y75189D02*
D03*
Y77157D02*
D03*
Y79126D02*
D03*
Y81094D02*
D03*
Y83063D02*
D03*
Y85031D02*
D03*
Y87000D02*
D03*
Y88968D02*
D03*
Y94874D02*
D03*
Y100779D02*
D03*
Y102748D02*
D03*
Y104717D02*
D03*
Y106685D02*
D03*
Y108653D02*
D03*
Y110622D02*
D03*
X309705Y66260D02*
D03*
X309602Y157343D02*
D03*
X24898Y153409D02*
D03*
Y149472D02*
D03*
D47*
X134110Y18350D02*
D03*
Y21500D02*
D03*
X119500Y18000D02*
D03*
Y21150D02*
D03*
X150925Y17925D02*
D03*
Y21075D02*
D03*
X103350Y17425D02*
D03*
Y20575D02*
D03*
D48*
X137260Y19925D02*
D03*
X122650Y19575D02*
D03*
X154075Y19500D02*
D03*
X106500Y19000D02*
D03*
D49*
X316437Y11945D02*
D03*
X313287D02*
D03*
X318012Y30055D02*
D03*
X314862D02*
D03*
X311713D02*
D03*
X308563D02*
D03*
X305413D02*
D03*
X319587D02*
D03*
Y11945D02*
D03*
X310138D02*
D03*
X308563D02*
D03*
X306988D02*
D03*
X305413D02*
D03*
X311713D02*
D03*
X314862D02*
D03*
X318012D02*
D03*
X310138Y30055D02*
D03*
X306988D02*
D03*
X316437D02*
D03*
X313287D02*
D03*
X28987Y31955D02*
D03*
X22687D02*
D03*
X25837D02*
D03*
X28987Y13845D02*
D03*
X27412D02*
D03*
X25837D02*
D03*
X24262D02*
D03*
X22687D02*
D03*
X21113D02*
D03*
X19538D02*
D03*
X17963D02*
D03*
X16388D02*
D03*
X14813D02*
D03*
X27412Y31955D02*
D03*
X24262D02*
D03*
X21113D02*
D03*
X17963D02*
D03*
X14813D02*
D03*
X19538D02*
D03*
X16388D02*
D03*
D50*
X303504Y30055D02*
D03*
X321496D02*
D03*
Y11945D02*
D03*
X303504D02*
D03*
X12904Y13845D02*
D03*
X12904Y31955D02*
D03*
X30896D02*
D03*
Y13845D02*
D03*
D51*
X249937Y29000D02*
D03*
X242063D02*
D03*
X249937Y18500D02*
D03*
X242063D02*
D03*
X249937Y8000D02*
D03*
X242063D02*
D03*
X278437Y18463D02*
D03*
X270563D02*
D03*
X278437Y8000D02*
D03*
X270563D02*
D03*
D52*
X12102Y198291D02*
D03*
Y136087D02*
D03*
X322398Y116398D02*
D03*
Y178602D02*
D03*
X322500Y107205D02*
D03*
Y45000D02*
D03*
X12102Y55898D02*
D03*
Y118102D02*
D03*
D53*
X30858Y127075D02*
D03*
X199429Y139000D02*
D03*
D54*
X27000Y125500D02*
D03*
Y128650D02*
D03*
X195571Y137425D02*
D03*
Y140575D02*
D03*
D55*
X205742Y203539D02*
D03*
X223458D02*
D03*
X205742Y172239D02*
D03*
X223458D02*
D03*
X180742Y183539D02*
D03*
X198458D02*
D03*
X180742Y152239D02*
D03*
X198458D02*
D03*
X230742Y183539D02*
D03*
X248458D02*
D03*
X230742Y152239D02*
D03*
X248458D02*
D03*
X205742Y163539D02*
D03*
X223458D02*
D03*
X205742Y132239D02*
D03*
X223458D02*
D03*
D56*
X235130Y43500D02*
D03*
X224500D02*
D03*
X235815Y63772D02*
D03*
X225185D02*
D03*
X286815Y75800D02*
D03*
X276185D02*
D03*
X286315Y56500D02*
D03*
X275685D02*
D03*
X286315Y115006D02*
D03*
X275685D02*
D03*
X286815Y96842D02*
D03*
X276185D02*
D03*
D57*
X217000Y63772D02*
D03*
X215500Y43500D02*
D03*
X266800Y75800D02*
D03*
X266400Y56458D02*
D03*
X266600Y115006D02*
D03*
X267000Y96835D02*
D03*
D58*
X220839Y66331D02*
D03*
Y63772D02*
D03*
Y61213D02*
D03*
X213161D02*
D03*
Y63772D02*
D03*
Y66331D02*
D03*
X219339Y46059D02*
D03*
Y43500D02*
D03*
Y40941D02*
D03*
X211661D02*
D03*
Y43500D02*
D03*
Y46059D02*
D03*
X270639Y78359D02*
D03*
Y75800D02*
D03*
Y73241D02*
D03*
X262961D02*
D03*
Y75800D02*
D03*
Y78359D02*
D03*
X270239Y59017D02*
D03*
Y56458D02*
D03*
Y53899D02*
D03*
X262561D02*
D03*
Y56458D02*
D03*
Y59017D02*
D03*
X270439Y117565D02*
D03*
Y115006D02*
D03*
Y112447D02*
D03*
X262761D02*
D03*
Y115006D02*
D03*
Y117565D02*
D03*
X270839Y99394D02*
D03*
Y96835D02*
D03*
Y94276D02*
D03*
X263161D02*
D03*
Y96835D02*
D03*
Y99394D02*
D03*
D59*
X202500Y34985D02*
D03*
Y45615D02*
D03*
Y55223D02*
D03*
Y65853D02*
D03*
X250300Y67485D02*
D03*
Y78115D02*
D03*
X249900Y48143D02*
D03*
Y58773D02*
D03*
X250100Y106691D02*
D03*
Y117321D02*
D03*
X143079Y130332D02*
D03*
Y140961D02*
D03*
X250500Y88520D02*
D03*
Y99150D02*
D03*
D60*
X258300Y74331D02*
D03*
Y78268D02*
D03*
X258100Y113538D02*
D03*
Y117475D02*
D03*
X258500Y95366D02*
D03*
Y99303D02*
D03*
X209000Y61532D02*
D03*
Y65469D02*
D03*
X208500Y41882D02*
D03*
Y45819D02*
D03*
X257900Y54990D02*
D03*
Y58927D02*
D03*
X98500Y9031D02*
D03*
Y12968D02*
D03*
X114579Y9031D02*
D03*
Y12968D02*
D03*
X130000Y9532D02*
D03*
Y13468D02*
D03*
X147000Y8531D02*
D03*
Y12468D02*
D03*
X147579Y168115D02*
D03*
Y164178D02*
D03*
X165579Y143178D02*
D03*
Y147115D02*
D03*
X160079Y139115D02*
D03*
Y135178D02*
D03*
X150610Y141615D02*
D03*
Y137678D02*
D03*
X141579Y162678D02*
D03*
Y166615D02*
D03*
X154547Y141615D02*
D03*
Y137678D02*
D03*
X152579Y171115D02*
D03*
Y167178D02*
D03*
X109400Y164646D02*
D03*
Y168584D02*
D03*
X104900Y168584D02*
D03*
Y164646D02*
D03*
X110613Y149146D02*
D03*
Y153084D02*
D03*
X72900Y151115D02*
D03*
Y155052D02*
D03*
X104337Y145083D02*
D03*
Y141147D02*
D03*
D61*
X329650Y194100D02*
D03*
X323350D02*
D03*
X329350Y205100D02*
D03*
X323050D02*
D03*
D62*
X224000Y112615D02*
D03*
Y101985D02*
D03*
D63*
X188685Y93284D02*
D03*
X199315D02*
D03*
D64*
X104800Y12850D02*
D03*
Y6550D02*
D03*
X120333Y12850D02*
D03*
Y6550D02*
D03*
X135667Y13350D02*
D03*
Y7050D02*
D03*
X152500Y12850D02*
D03*
Y6550D02*
D03*
D65*
X235500Y97237D02*
D03*
Y89363D02*
D03*
X224500Y81363D02*
D03*
Y89237D02*
D03*
X47500Y5563D02*
D03*
Y13437D02*
D03*
X58000Y5563D02*
D03*
Y13437D02*
D03*
X79600Y5263D02*
D03*
Y13137D02*
D03*
X69200Y5263D02*
D03*
Y13137D02*
D03*
D66*
X314432Y204700D02*
D03*
X318369D02*
D03*
X314932Y193900D02*
D03*
X318868D02*
D03*
X138047Y152647D02*
D03*
X134110D02*
D03*
X133610Y157647D02*
D03*
X137547D02*
D03*
D67*
X205488Y95253D02*
D03*
Y93284D02*
D03*
Y91316D02*
D03*
Y89347D02*
D03*
X216512Y95253D02*
D03*
Y93284D02*
D03*
Y91316D02*
D03*
Y89347D02*
D03*
D68*
X211000Y92300D02*
D03*
D69*
X237000Y194571D02*
D03*
D70*
X235425Y198429D02*
D03*
X238575D02*
D03*
D71*
X157500Y149209D02*
D03*
Y151178D02*
D03*
Y153147D02*
D03*
Y155115D02*
D03*
Y157083D02*
D03*
X147658D02*
D03*
Y155115D02*
D03*
Y153147D02*
D03*
Y151178D02*
D03*
Y149209D02*
D03*
D72*
X154547Y158068D02*
D03*
X152579D02*
D03*
X150610D02*
D03*
Y148225D02*
D03*
X152579D02*
D03*
X154547D02*
D03*
D73*
X117400Y153934D02*
D03*
Y148422D02*
D03*
D74*
X82435Y149209D02*
D03*
Y153147D02*
D03*
Y157083D02*
D03*
Y159052D02*
D03*
Y161021D02*
D03*
Y155115D02*
D03*
X99168Y151178D02*
D03*
Y155115D02*
D03*
Y157083D02*
D03*
Y159052D02*
D03*
Y161021D02*
D03*
Y153147D02*
D03*
X82435Y151178D02*
D03*
X99168Y149209D02*
D03*
D75*
X86963Y146650D02*
D03*
X88932D02*
D03*
X86963Y163579D02*
D03*
X88932D02*
D03*
X90900D02*
D03*
X94837Y146650D02*
D03*
X92869D02*
D03*
X90900D02*
D03*
X94837Y163579D02*
D03*
X92869D02*
D03*
D76*
X76150Y114358D02*
D03*
Y96642D02*
D03*
X44850Y114358D02*
D03*
Y96642D02*
D03*
X37350Y122158D02*
D03*
Y139875D02*
D03*
X68650Y122158D02*
D03*
Y139875D02*
D03*
D77*
X160000Y22000D02*
D03*
X194500Y26000D02*
D03*
X261000Y39000D02*
D03*
X67400Y175500D02*
D03*
X60000Y173500D02*
D03*
X282000Y30000D02*
D03*
X254000Y140500D02*
D03*
X301500Y183000D02*
D03*
Y193500D02*
D03*
Y203500D02*
D03*
X199500Y103500D02*
D03*
X234000Y132000D02*
D03*
X235000Y114000D02*
D03*
X103000Y116000D02*
D03*
X43000Y74961D02*
D03*
X60402Y159213D02*
D03*
D78*
X256996Y170189D02*
D03*
D79*
X275500Y182000D02*
D03*
Y158378D02*
D03*
D80*
X280000Y133000D02*
D03*
Y144332D02*
D03*
X179500Y8600D02*
D03*
X189500D02*
D03*
X199500D02*
D03*
X209500D02*
D03*
X219500D02*
D03*
X39370Y200787D02*
D03*
X47244Y192913D02*
D03*
Y200787D02*
D03*
X55118Y192913D02*
D03*
Y200787D02*
D03*
X62992Y192913D02*
D03*
Y200787D02*
D03*
X70866Y192913D02*
D03*
Y200787D02*
D03*
X78740Y192913D02*
D03*
Y200787D02*
D03*
X86614Y192913D02*
D03*
Y200787D02*
D03*
X94488Y192913D02*
D03*
Y200787D02*
D03*
X102362Y192913D02*
D03*
Y200787D02*
D03*
X110236Y192913D02*
D03*
Y200787D02*
D03*
X118110Y192913D02*
D03*
Y200787D02*
D03*
X125984Y192913D02*
D03*
Y200787D02*
D03*
X133858Y192913D02*
D03*
Y200787D02*
D03*
X141732Y192913D02*
D03*
Y200787D02*
D03*
X149606Y192913D02*
D03*
Y200787D02*
D03*
X157480Y192913D02*
D03*
Y200787D02*
D03*
X165354Y192913D02*
D03*
Y200787D02*
D03*
X173228Y192913D02*
D03*
Y200787D02*
D03*
X181102Y192913D02*
D03*
Y200787D02*
D03*
X188976Y192913D02*
D03*
Y200787D02*
D03*
D81*
X270000Y133000D02*
D03*
Y144332D02*
D03*
X229500Y8600D02*
D03*
X39370Y192913D02*
D03*
D82*
X73425Y60827D02*
D03*
D83*
X184449D02*
D03*
D84*
X33500Y50000D02*
D03*
X37500Y47650D02*
D03*
X296200Y30000D02*
D03*
X225500Y38000D02*
D03*
X225185Y67485D02*
D03*
X8000Y111000D02*
D03*
X39500Y96500D02*
D03*
X34165Y98811D02*
D03*
X290458Y82500D02*
D03*
X304508Y82008D02*
D03*
X105315Y39000D02*
D03*
X112000Y38000D02*
D03*
X177500Y39000D02*
D03*
X198485Y34985D02*
D03*
X168307Y42000D02*
D03*
X275685Y47650D02*
D03*
X90000Y106500D02*
D03*
X291500Y104000D02*
D03*
X283000D02*
D03*
X235815Y59500D02*
D03*
X255500Y67315D02*
D03*
X241000Y81500D02*
D03*
X95103Y23500D02*
D03*
X108500Y25500D02*
D03*
X118110Y25000D02*
D03*
X74500Y21750D02*
D03*
Y19250D02*
D03*
X142500Y17925D02*
D03*
X243500Y59017D02*
D03*
X209000Y77500D02*
D03*
X305429Y102000D02*
D03*
X244500Y77500D02*
D03*
X44500Y81000D02*
D03*
X52992Y119500D02*
D03*
X62307Y114037D02*
D03*
X137500Y118000D02*
D03*
X284000Y63000D02*
D03*
X290458Y75800D02*
D03*
X290000Y115006D02*
D03*
X290500Y96800D02*
D03*
X254500Y106500D02*
D03*
X275685Y68500D02*
D03*
X246000Y99000D02*
D03*
X275685Y105500D02*
D03*
X249900Y130500D02*
D03*
X197000Y65937D02*
D03*
X257000Y5263D02*
D03*
X185500Y21500D02*
D03*
Y24000D02*
D03*
X127000Y37500D02*
D03*
X123512D02*
D03*
X40000Y70500D02*
D03*
X203500Y123000D02*
D03*
X38185Y177500D02*
D03*
X185000Y93284D02*
D03*
X4500Y106500D02*
D03*
X31716Y104717D02*
D03*
X250500Y85500D02*
D03*
X243000Y43500D02*
D03*
X202500Y52480D02*
D03*
X12000Y206000D02*
D03*
X14500D02*
D03*
X223500Y148500D02*
D03*
X146850Y119000D02*
D03*
X144350D02*
D03*
X129500Y118000D02*
D03*
X89500Y33500D02*
D03*
X85500D02*
D03*
X256000Y22000D02*
D03*
X250000Y38000D02*
D03*
X198500Y188500D02*
D03*
X244500Y198500D02*
D03*
X138047Y149520D02*
D03*
X52500Y139875D02*
D03*
X94488Y17425D02*
D03*
X27000Y122500D02*
D03*
X76158Y122158D02*
D03*
X44342D02*
D03*
X174539Y183539D02*
D03*
X230500Y203500D02*
D03*
X173272Y171728D02*
D03*
X205500Y127815D02*
D03*
X205742Y167889D02*
D03*
X200461Y203539D02*
D03*
X230742Y191000D02*
D03*
X301818Y165539D02*
D03*
X321000Y199500D02*
D03*
X321496Y186500D02*
D03*
X314432Y198068D02*
D03*
X181185Y145000D02*
D03*
X192000Y144500D02*
D03*
X14223Y91939D02*
D03*
X61803Y81134D02*
D03*
X61815Y68896D02*
D03*
X324992Y82000D02*
D03*
X298041Y56417D02*
D03*
X287363Y13137D02*
D03*
X289500Y10500D02*
D03*
X330000Y53303D02*
D03*
X329000Y60500D02*
D03*
X302886Y58386D02*
D03*
X330983Y70166D02*
D03*
X328650Y72500D02*
D03*
X302500Y78000D02*
D03*
X299102Y76102D02*
D03*
X326000Y4000D02*
D03*
X324713Y101500D02*
D03*
X295500Y145850D02*
D03*
Y149150D02*
D03*
X289500Y20500D02*
D03*
X286000Y23500D02*
D03*
X290000Y149209D02*
D03*
X39063Y55500D02*
D03*
X24898Y21225D02*
D03*
X21500Y6817D02*
D03*
X24262D02*
D03*
X19500Y4000D02*
D03*
X16500Y5500D02*
D03*
X8000Y65500D02*
D03*
X7000Y21500D02*
D03*
X39000Y100000D02*
D03*
X39370Y105500D02*
D03*
X20000Y167500D02*
D03*
X54000Y26000D02*
D03*
X264032Y9500D02*
D03*
X262961Y18500D02*
D03*
X130512Y96000D02*
D03*
X134000D02*
D03*
X137000D02*
D03*
X140500Y95500D02*
D03*
X37500Y44350D02*
D03*
X325815Y159500D02*
D03*
X38185Y165539D02*
D03*
Y168839D02*
D03*
X38500Y19850D02*
D03*
Y23150D02*
D03*
X155709Y83500D02*
D03*
X158933Y87000D02*
D03*
X299024Y83976D02*
D03*
X296945Y85945D02*
D03*
X304017Y125847D02*
D03*
X293280Y130500D02*
D03*
X294094Y127815D02*
D03*
X303171Y129783D02*
D03*
X293779Y133721D02*
D03*
X296760Y135689D02*
D03*
X294926Y137657D02*
D03*
X292874Y139626D02*
D03*
X293500Y143000D02*
D03*
X298083Y143563D02*
D03*
X303500Y147504D02*
D03*
X31000Y6500D02*
D03*
X27412D02*
D03*
X36406Y78067D02*
D03*
X30200Y184906D02*
D03*
X33374Y186874D02*
D03*
X31343Y188842D02*
D03*
X39063Y182937D02*
D03*
X37000Y180500D02*
D03*
X40374Y171126D02*
D03*
X31000Y87000D02*
D03*
X5500Y25500D02*
D03*
X143110Y79000D02*
D03*
X127500D02*
D03*
X118000D02*
D03*
X130512Y42000D02*
D03*
X121063D02*
D03*
X111614D02*
D03*
X102165D02*
D03*
X139961D02*
D03*
X149409D02*
D03*
X158858D02*
D03*
X108465Y79000D02*
D03*
X99016D02*
D03*
X89567D02*
D03*
X152559D02*
D03*
X162008D02*
D03*
X171457D02*
D03*
X92603Y136815D02*
D03*
X95103D02*
D03*
X322500Y38500D02*
D03*
X327350Y30000D02*
D03*
X126500Y17425D02*
D03*
X111000D02*
D03*
X45494Y183500D02*
D03*
X41000Y186000D02*
D03*
X4000Y109000D02*
D03*
X33063Y83063D02*
D03*
X196500Y45500D02*
D03*
X36122Y155378D02*
D03*
X39000Y160965D02*
D03*
Y157000D02*
D03*
X47500Y151500D02*
D03*
X36941Y145535D02*
D03*
X33500Y147500D02*
D03*
X296500Y10000D02*
D03*
X319587Y6500D02*
D03*
X318000Y17425D02*
D03*
X302716Y62323D02*
D03*
X303500Y8000D02*
D03*
X308328Y17500D02*
D03*
X313000Y17425D02*
D03*
X14223Y80500D02*
D03*
X302626Y155374D02*
D03*
X301500Y161598D02*
D03*
X168307Y94258D02*
D03*
X163226Y93650D02*
D03*
X105390Y88500D02*
D03*
X102090D02*
D03*
X291212Y60473D02*
D03*
X288500Y33350D02*
D03*
X295500Y70000D02*
D03*
X292000Y69500D02*
D03*
X288500Y36650D02*
D03*
X294094Y51000D02*
D03*
X289650Y66926D02*
D03*
X286000Y66500D02*
D03*
X297500Y153724D02*
D03*
Y157024D02*
D03*
X317950Y55000D02*
D03*
X321250D02*
D03*
X297000Y53000D02*
D03*
X302000Y51000D02*
D03*
X40374Y85500D02*
D03*
X31000Y79000D02*
D03*
X92641Y90500D02*
D03*
X95941D02*
D03*
X31961Y53127D02*
D03*
X113000Y99000D02*
D03*
X115333Y101333D02*
D03*
X75000Y40268D02*
D03*
X76731Y38537D02*
D03*
X41000Y153500D02*
D03*
X39500Y149000D02*
D03*
X35000Y111000D02*
D03*
X37333Y108667D02*
D03*
X40800Y90000D02*
D03*
X37500D02*
D03*
X50000Y163500D02*
D03*
D85*
X215500Y40500D02*
D03*
X217000Y61606D02*
D03*
Y65937D02*
D03*
X215500Y45665D02*
D03*
X266800Y73635D02*
D03*
Y77965D02*
D03*
X266400Y54293D02*
D03*
Y58624D02*
D03*
X266600Y112841D02*
D03*
Y117172D02*
D03*
X267000Y94669D02*
D03*
Y99000D02*
D03*
D86*
X142000Y149209D02*
D03*
X235000Y81000D02*
D03*
X214000Y112800D02*
D03*
X224000Y96800D02*
D03*
X211000Y94800D02*
D03*
Y89300D02*
D03*
X147579Y173646D02*
D03*
X134610Y162615D02*
D03*
X134579Y166647D02*
D03*
X127579Y152647D02*
D03*
X127579Y157647D02*
D03*
X158079Y171147D02*
D03*
X169579Y159646D02*
D03*
X173579Y155147D02*
D03*
X170079Y151146D02*
D03*
X160079Y143647D02*
D03*
X154547Y130332D02*
D03*
X117400Y141115D02*
D03*
X104900Y159052D02*
D03*
X99400Y168615D02*
D03*
X78400Y142615D02*
D03*
X77400Y165115D02*
D03*
X67400Y159615D02*
D03*
X173700Y166115D02*
D03*
X70200Y150915D02*
D03*
X121300Y154215D02*
D03*
X137600Y141215D02*
D03*
X240000Y104500D02*
D03*
M02*
