G04 Layer_Color=16711935*
%FSLAX24Y24*%
%MOIN*%
G70*
G01*
G75*
%ADD48C,0.0039*%
D48*
X26091Y21286D02*
G03*
X26091Y21286I-197J0D01*
G01*
X35033Y18664D02*
G03*
X35033Y18664I-197J0D01*
G01*
X18918Y20283D02*
Y20717D01*
X18682Y20283D02*
Y20717D01*
X18918D01*
X18682Y20283D02*
X18918D01*
X21918Y27383D02*
Y27817D01*
X21682Y27383D02*
Y27817D01*
X21918D01*
X21682Y27383D02*
X21918D01*
X21524Y26823D02*
X22076D01*
X21524Y25977D02*
X22076D01*
Y26823D01*
X21524Y25977D02*
Y26823D01*
X33527Y20424D02*
X34373D01*
X33527Y20976D02*
X34373D01*
Y20424D02*
Y20976D01*
X33527Y20424D02*
Y20976D01*
X31477Y20626D02*
X32323D01*
X31477Y20074D02*
X32323D01*
X31477D02*
Y20626D01*
X32323Y20074D02*
Y20626D01*
X22468Y21330D02*
Y21763D01*
X22232Y21330D02*
Y21763D01*
X22468D01*
X22232Y21330D02*
X22468D01*
X18218Y23080D02*
Y23513D01*
X17982Y23080D02*
Y23513D01*
X18218D01*
X17982Y23080D02*
X18218D01*
X16837Y22206D02*
Y22894D01*
X16463Y22206D02*
Y22894D01*
X16837D01*
X16463Y22206D02*
X16837D01*
X18283Y21668D02*
X18717D01*
X18283Y21432D02*
X18717D01*
X18283D02*
Y21668D01*
X18717Y21432D02*
Y21668D01*
X17982Y22033D02*
Y22467D01*
X18218Y22033D02*
Y22467D01*
X17982Y22033D02*
X18218D01*
X17982Y22467D02*
X18218D01*
X25539Y20459D02*
Y21641D01*
X26721Y20459D02*
Y21641D01*
X25539D02*
X26721D01*
X25539Y20459D02*
X26721D01*
X28467Y20132D02*
X28900D01*
X28467Y20368D02*
X28900D01*
Y20132D02*
Y20368D01*
X28467Y20132D02*
Y20368D01*
X25612Y18633D02*
Y19067D01*
X25848Y18633D02*
Y19067D01*
X25612Y18633D02*
X25848D01*
X25612Y19067D02*
X25848D01*
X28710Y21168D02*
X29143D01*
X28710Y20932D02*
X29143D01*
X28710D02*
Y21168D01*
X29143Y20932D02*
Y21168D01*
X28013Y19568D02*
X28447D01*
X28013Y19332D02*
X28447D01*
X28013D02*
Y19568D01*
X28447Y19332D02*
Y19568D01*
X28426Y22181D02*
X29134D01*
X28426Y23519D02*
X29134D01*
X28426Y22181D02*
Y23519D01*
X29134Y22181D02*
Y23519D01*
X27748Y22630D02*
Y23063D01*
X27512Y22630D02*
Y23063D01*
X27748D01*
X27512Y22630D02*
X27748D01*
X25213Y22432D02*
X25647D01*
X25213Y22668D02*
X25647D01*
Y22432D02*
Y22668D01*
X25213Y22432D02*
Y22668D01*
X24412Y20933D02*
Y21367D01*
X24648Y20933D02*
Y21367D01*
X24412Y20933D02*
X24648D01*
X24412Y21367D02*
X24648D01*
X26212Y18687D02*
Y19120D01*
X26448Y18687D02*
Y19120D01*
X26212Y18687D02*
X26448D01*
X26212Y19120D02*
X26448D01*
X30631Y17569D02*
Y18631D01*
X31969Y17569D02*
Y18631D01*
X30631D02*
X31969D01*
X30631Y17569D02*
X31969D01*
X37919Y18369D02*
Y19431D01*
X36581Y18369D02*
Y19431D01*
Y18369D02*
X37919D01*
X36581Y19431D02*
X37919D01*
X34009Y19491D02*
X35191D01*
X34009Y18309D02*
X35191D01*
X34009D02*
Y19491D01*
X35191Y18309D02*
Y19491D01*
X24812Y23530D02*
Y23963D01*
X25048Y23530D02*
Y23963D01*
X24812Y23530D02*
X25048D01*
X24812Y23963D02*
X25048D01*
X10926Y26427D02*
Y27273D01*
X10374Y26427D02*
Y27273D01*
X10926D01*
X10374Y26427D02*
X10926D01*
X11926D02*
Y27273D01*
X11374Y26427D02*
Y27273D01*
X11926D01*
X11374Y26427D02*
X11926D01*
X12926D02*
Y27273D01*
X12374Y26427D02*
Y27273D01*
X12926D01*
X12374Y26427D02*
X12926D01*
X13926D02*
Y27273D01*
X13374Y26427D02*
Y27273D01*
X13926D01*
X13374Y26427D02*
X13926D01*
X14926D02*
Y27273D01*
X14374Y26427D02*
Y27273D01*
X14926D01*
X14374Y26427D02*
X14926D01*
X41280Y14968D02*
X41713D01*
X41280Y14732D02*
X41713D01*
X41280D02*
Y14968D01*
X41713Y14732D02*
Y14968D01*
X40480Y14732D02*
X40913D01*
X40480Y14968D02*
X40913D01*
Y14732D02*
Y14968D01*
X40480Y14732D02*
Y14968D01*
X38483Y14968D02*
X38917D01*
X38483Y14732D02*
X38917D01*
X38483D02*
Y14968D01*
X38917Y14732D02*
Y14968D01*
X37683Y14732D02*
X38117D01*
X37683Y14968D02*
X38117D01*
Y14732D02*
Y14968D01*
X37683Y14732D02*
Y14968D01*
X34883Y14782D02*
X35317D01*
X34883Y15018D02*
X35317D01*
Y14782D02*
Y15018D01*
X34883Y14782D02*
Y15018D01*
X35683Y15018D02*
X36117D01*
X35683Y14782D02*
X36117D01*
X35683D02*
Y15018D01*
X36117Y14782D02*
Y15018D01*
X30037Y15018D02*
X30470D01*
X30037Y14782D02*
X30470D01*
X30037D02*
Y15018D01*
X30470Y14782D02*
Y15018D01*
X29237Y14782D02*
X29670D01*
X29237Y15018D02*
X29670D01*
Y14782D02*
Y15018D01*
X29237Y14782D02*
Y15018D01*
X32833Y15018D02*
X33267D01*
X32833Y14782D02*
X33267D01*
X32833D02*
Y15018D01*
X33267Y14782D02*
Y15018D01*
X32033Y14782D02*
X32467D01*
X32033Y15018D02*
X32467D01*
Y14782D02*
Y15018D01*
X32033Y14782D02*
Y15018D01*
X22718Y27369D02*
Y27802D01*
X22482Y27369D02*
Y27802D01*
X22718D01*
X22482Y27369D02*
X22718D01*
X22324Y26808D02*
X22876D01*
X22324Y25962D02*
X22876D01*
Y26808D01*
X22324Y25962D02*
Y26808D01*
X23518Y27318D02*
Y27752D01*
X23282Y27318D02*
Y27752D01*
X23518D01*
X23282Y27318D02*
X23518D01*
X23124Y26808D02*
X23676D01*
X23124Y25962D02*
X23676D01*
Y26808D01*
X23124Y25962D02*
Y26808D01*
X24318Y27318D02*
Y27752D01*
X24082Y27318D02*
Y27752D01*
X24318D01*
X24082Y27318D02*
X24318D01*
X23924Y26808D02*
X24476D01*
X23924Y25962D02*
X24476D01*
Y26808D01*
X23924Y25962D02*
Y26808D01*
X18687Y25468D02*
X19120D01*
X18687Y25232D02*
X19120D01*
X18687D02*
Y25468D01*
X19120Y25232D02*
Y25468D01*
X19883Y25232D02*
X20317D01*
X19883Y25468D02*
X20317D01*
Y25232D02*
Y25468D01*
X19883Y25232D02*
Y25468D01*
M02*
