G04 Layer_Color=255*
%FSLAX24Y24*%
%MOIN*%
G70*
G01*
G75*
%ADD10R,0.0197X0.0236*%
%ADD11R,0.0512X0.0394*%
%ADD12R,0.0512X0.0610*%
%ADD13R,0.0551X0.0591*%
%ADD14R,0.0118X0.0394*%
%ADD15R,0.0394X0.0118*%
%ADD16R,0.0354X0.0315*%
%ADD17R,0.0236X0.0197*%
%ADD18R,0.0669X0.0433*%
%ADD19R,0.0315X0.0118*%
%ADD20R,0.0118X0.0315*%
%ADD21R,0.0433X0.1024*%
%ADD22R,0.0650X0.0937*%
%ADD23R,0.0276X0.0098*%
%ADD24R,0.0591X0.0551*%
%ADD26C,0.0591*%
%ADD27R,0.0591X0.0591*%
%ADD28C,0.0315*%
%ADD29C,0.0472*%
%ADD30C,0.1142*%
%ADD31R,0.1024X0.0787*%
%ADD32R,0.0787X0.1024*%
D10*
X18800Y20697D02*
D03*
Y20303D02*
D03*
X21800Y27797D02*
D03*
Y27403D02*
D03*
X22350Y21744D02*
D03*
Y21350D02*
D03*
X18100Y23494D02*
D03*
Y23100D02*
D03*
X18100Y22053D02*
D03*
Y22447D02*
D03*
X24930Y23550D02*
D03*
Y23944D02*
D03*
X27630Y23044D02*
D03*
Y22650D02*
D03*
X25730Y18653D02*
D03*
Y19047D02*
D03*
X26330Y18706D02*
D03*
Y19100D02*
D03*
X24530Y20953D02*
D03*
Y21347D02*
D03*
X22600Y27782D02*
D03*
Y27388D02*
D03*
X23400Y27732D02*
D03*
Y27338D02*
D03*
X24200Y27732D02*
D03*
Y27338D02*
D03*
D11*
X21800Y26715D02*
D03*
Y26085D02*
D03*
X22600Y26700D02*
D03*
Y26070D02*
D03*
X23400Y26700D02*
D03*
Y26070D02*
D03*
X24200Y26700D02*
D03*
Y26070D02*
D03*
D12*
X31636Y10885D02*
D03*
X29864D02*
D03*
X31636Y14015D02*
D03*
X29864D02*
D03*
X34336Y10835D02*
D03*
X32564D02*
D03*
X34336Y13965D02*
D03*
X32564D02*
D03*
X37272Y10820D02*
D03*
X35500D02*
D03*
X37272Y13950D02*
D03*
X35500D02*
D03*
X40086Y10835D02*
D03*
X38314D02*
D03*
X40086Y13965D02*
D03*
X38314D02*
D03*
X42822Y10870D02*
D03*
X41050D02*
D03*
X42822Y14000D02*
D03*
X41050D02*
D03*
D13*
X34344Y20700D02*
D03*
X33556D02*
D03*
X31506Y20350D02*
D03*
X32294D02*
D03*
D14*
X20353Y20804D02*
D03*
X20156D02*
D03*
X20550Y22496D02*
D03*
X20353D02*
D03*
X20156D02*
D03*
X20550Y20804D02*
D03*
X20747D02*
D03*
X20944D02*
D03*
X20747Y22496D02*
D03*
X20944D02*
D03*
D15*
X19723Y22241D02*
D03*
X21396Y22044D02*
D03*
X19723Y21847D02*
D03*
Y21059D02*
D03*
Y21256D02*
D03*
Y21453D02*
D03*
Y21650D02*
D03*
Y22044D02*
D03*
X21396Y21650D02*
D03*
Y21059D02*
D03*
Y21256D02*
D03*
Y21453D02*
D03*
Y21847D02*
D03*
Y22241D02*
D03*
D16*
X16650Y22826D02*
D03*
Y22274D02*
D03*
D17*
X18303Y21550D02*
D03*
X18697D02*
D03*
X28730Y21050D02*
D03*
X29124D02*
D03*
X28880Y20250D02*
D03*
X28486D02*
D03*
X28033Y19450D02*
D03*
X28427D02*
D03*
X25627Y22550D02*
D03*
X25233D02*
D03*
X41300Y14850D02*
D03*
X41694D02*
D03*
X40894Y14850D02*
D03*
X40500D02*
D03*
X38503Y14850D02*
D03*
X38897D02*
D03*
X38097Y14850D02*
D03*
X37703D02*
D03*
X35297Y14900D02*
D03*
X34903D02*
D03*
X35703Y14900D02*
D03*
X36097Y14900D02*
D03*
X30056Y14900D02*
D03*
X30450D02*
D03*
X29650D02*
D03*
X29256D02*
D03*
X32853Y14900D02*
D03*
X33247D02*
D03*
X32447Y14900D02*
D03*
X32053D02*
D03*
X18706Y25350D02*
D03*
X19100D02*
D03*
X20297Y25350D02*
D03*
X19903D02*
D03*
D18*
X28780Y22318D02*
D03*
Y23381D02*
D03*
D19*
X25638Y21444D02*
D03*
Y21247D02*
D03*
Y21050D02*
D03*
Y20853D02*
D03*
Y20656D02*
D03*
X26622D02*
D03*
Y20853D02*
D03*
Y21050D02*
D03*
Y21247D02*
D03*
Y21444D02*
D03*
D20*
X25933Y20558D02*
D03*
X26130D02*
D03*
X26327D02*
D03*
Y21542D02*
D03*
X26130D02*
D03*
X25933D02*
D03*
D21*
X30768Y18100D02*
D03*
X31831D02*
D03*
X37781Y18900D02*
D03*
X36718D02*
D03*
D22*
X34600Y18900D02*
D03*
D23*
X34049Y19195D02*
D03*
Y18998D02*
D03*
Y18802D02*
D03*
Y18605D02*
D03*
X35151Y19195D02*
D03*
Y18998D02*
D03*
Y18802D02*
D03*
Y18605D02*
D03*
D24*
X10650Y27244D02*
D03*
Y26456D02*
D03*
X11650Y27244D02*
D03*
Y26456D02*
D03*
X12650Y27244D02*
D03*
Y26456D02*
D03*
X13650Y27244D02*
D03*
Y26456D02*
D03*
X14650Y27244D02*
D03*
Y26456D02*
D03*
D26*
X17500Y28100D02*
D03*
Y27100D02*
D03*
X16500Y28100D02*
D03*
X20500Y28050D02*
D03*
Y27050D02*
D03*
X19500Y28050D02*
D03*
X10650Y25000D02*
D03*
X11650D02*
D03*
X12650D02*
D03*
X13650D02*
D03*
X14650D02*
D03*
X13937Y30079D02*
D03*
X14724Y29291D02*
D03*
Y30079D02*
D03*
X15512Y29291D02*
D03*
Y30079D02*
D03*
X16299Y29291D02*
D03*
Y30079D02*
D03*
X17087Y29291D02*
D03*
Y30079D02*
D03*
X17874Y29291D02*
D03*
Y30079D02*
D03*
X18661Y29291D02*
D03*
Y30079D02*
D03*
X19449Y29291D02*
D03*
Y30079D02*
D03*
X20236Y29291D02*
D03*
Y30079D02*
D03*
X21024Y29291D02*
D03*
Y30079D02*
D03*
X21811Y29291D02*
D03*
Y30079D02*
D03*
X22598Y29291D02*
D03*
Y30079D02*
D03*
X23386Y29291D02*
D03*
Y30079D02*
D03*
X24173Y29291D02*
D03*
Y30079D02*
D03*
X24961Y29291D02*
D03*
Y30079D02*
D03*
X25748Y29291D02*
D03*
Y30079D02*
D03*
X26535Y29291D02*
D03*
Y30079D02*
D03*
X27323Y29291D02*
D03*
Y30079D02*
D03*
X28110Y29291D02*
D03*
Y30079D02*
D03*
X28898Y29291D02*
D03*
Y30079D02*
D03*
D27*
X16500Y27100D02*
D03*
X19500Y27050D02*
D03*
X15650Y25000D02*
D03*
X13937Y29291D02*
D03*
D28*
X17343Y16083D02*
D03*
D29*
X28445D02*
D03*
D30*
X41890Y17283D02*
D03*
Y29685D02*
D03*
X11575D02*
D03*
Y17283D02*
D03*
D31*
X33100Y25719D02*
D03*
Y28081D02*
D03*
D32*
X31250Y26900D02*
D03*
M02*
