G04 Layer_Color=8421504*
%FSLAX24Y24*%
%MOIN*%
G70*
G01*
G75*
%ADD10R,0.0276X0.0098*%
%ADD11R,0.0650X0.0937*%
%ADD12R,0.0236X0.0197*%
%ADD13R,0.0512X0.0394*%
%ADD14R,0.0197X0.0236*%
%ADD15R,0.0591X0.0551*%
%ADD16R,0.0433X0.1024*%
%ADD17R,0.0118X0.0315*%
%ADD18R,0.0315X0.0118*%
%ADD19R,0.0669X0.0433*%
%ADD20R,0.0354X0.0315*%
%ADD21R,0.0394X0.0118*%
%ADD22R,0.0118X0.0394*%
%ADD23R,0.0551X0.0591*%
%ADD24R,0.0512X0.0610*%
D10*
X35151Y18605D02*
D03*
Y18802D02*
D03*
Y18998D02*
D03*
Y19195D02*
D03*
X34049Y18605D02*
D03*
Y18802D02*
D03*
Y18998D02*
D03*
Y19195D02*
D03*
D11*
X34600Y18900D02*
D03*
D12*
X19903Y25350D02*
D03*
X20297D02*
D03*
X19100Y25350D02*
D03*
X18706D02*
D03*
X32053Y14900D02*
D03*
X32447D02*
D03*
X33247Y14900D02*
D03*
X32853D02*
D03*
X29256Y14900D02*
D03*
X29650D02*
D03*
X30450D02*
D03*
X30056D02*
D03*
X36097Y14900D02*
D03*
X35703Y14900D02*
D03*
X34903Y14900D02*
D03*
X35297D02*
D03*
X37703Y14850D02*
D03*
X38097D02*
D03*
X38897Y14850D02*
D03*
X38503D02*
D03*
X40500Y14850D02*
D03*
X40894D02*
D03*
X41694Y14850D02*
D03*
X41300D02*
D03*
X25233Y22550D02*
D03*
X25627D02*
D03*
X28427Y19450D02*
D03*
X28033D02*
D03*
X28486Y20250D02*
D03*
X28880D02*
D03*
X29124Y21050D02*
D03*
X28730D02*
D03*
X18697Y21550D02*
D03*
X18303D02*
D03*
D13*
X24200Y26070D02*
D03*
Y26700D02*
D03*
X23400Y26070D02*
D03*
Y26700D02*
D03*
X22600Y26070D02*
D03*
Y26700D02*
D03*
X21800Y26085D02*
D03*
Y26715D02*
D03*
D14*
X24200Y27338D02*
D03*
Y27732D02*
D03*
X23400Y27338D02*
D03*
Y27732D02*
D03*
X22600Y27388D02*
D03*
Y27782D02*
D03*
X24530Y21347D02*
D03*
Y20953D02*
D03*
X26330Y19100D02*
D03*
Y18706D02*
D03*
X25730Y19047D02*
D03*
Y18653D02*
D03*
X27630Y22650D02*
D03*
Y23044D02*
D03*
X24930Y23944D02*
D03*
Y23550D02*
D03*
X18100Y22447D02*
D03*
Y22053D02*
D03*
X18100Y23100D02*
D03*
Y23494D02*
D03*
X22350Y21350D02*
D03*
Y21744D02*
D03*
X21800Y27403D02*
D03*
Y27797D02*
D03*
X18800Y20303D02*
D03*
Y20697D02*
D03*
D15*
X14650Y26456D02*
D03*
Y27244D02*
D03*
X13650Y26456D02*
D03*
Y27244D02*
D03*
X12650Y26456D02*
D03*
Y27244D02*
D03*
X11650Y26456D02*
D03*
Y27244D02*
D03*
X10650Y26456D02*
D03*
Y27244D02*
D03*
D16*
X36718Y18900D02*
D03*
X37781D02*
D03*
X31831Y18100D02*
D03*
X30768D02*
D03*
D17*
X25933Y21542D02*
D03*
X26130D02*
D03*
X26327D02*
D03*
Y20558D02*
D03*
X26130D02*
D03*
X25933D02*
D03*
D18*
X26622Y21444D02*
D03*
Y21247D02*
D03*
Y21050D02*
D03*
Y20853D02*
D03*
Y20656D02*
D03*
X25638D02*
D03*
Y20853D02*
D03*
Y21050D02*
D03*
Y21247D02*
D03*
Y21444D02*
D03*
D19*
X28780Y23381D02*
D03*
Y22318D02*
D03*
D20*
X16650Y22274D02*
D03*
Y22826D02*
D03*
D21*
X21396Y22241D02*
D03*
Y21847D02*
D03*
Y21453D02*
D03*
Y21256D02*
D03*
Y21059D02*
D03*
Y21650D02*
D03*
X19723Y22044D02*
D03*
Y21650D02*
D03*
Y21453D02*
D03*
Y21256D02*
D03*
Y21059D02*
D03*
Y21847D02*
D03*
X21396Y22044D02*
D03*
X19723Y22241D02*
D03*
D22*
X20944Y22496D02*
D03*
X20747D02*
D03*
X20944Y20804D02*
D03*
X20747D02*
D03*
X20550D02*
D03*
X20156Y22496D02*
D03*
X20353D02*
D03*
X20550D02*
D03*
X20156Y20804D02*
D03*
X20353D02*
D03*
D23*
X32294Y20350D02*
D03*
X31506D02*
D03*
X33556Y20700D02*
D03*
X34344D02*
D03*
D24*
X41050Y14000D02*
D03*
X42822D02*
D03*
X41050Y10870D02*
D03*
X42822D02*
D03*
X38314Y13965D02*
D03*
X40086D02*
D03*
X38314Y10835D02*
D03*
X40086D02*
D03*
X35500Y13950D02*
D03*
X37272D02*
D03*
X35500Y10820D02*
D03*
X37272D02*
D03*
X32564Y13965D02*
D03*
X34336D02*
D03*
X32564Y10835D02*
D03*
X34336D02*
D03*
X29864Y14015D02*
D03*
X31636D02*
D03*
X29864Y10885D02*
D03*
X31636D02*
D03*
M02*
