G04 Layer_Physical_Order=1*
G04 Layer_Color=255*
%FSLAX24Y24*%
%MOIN*%
G70*
G01*
G75*
%ADD10R,0.0197X0.0236*%
%ADD11R,0.0512X0.0394*%
%ADD12R,0.0512X0.0610*%
%ADD13R,0.0551X0.0591*%
%ADD14R,0.0118X0.0394*%
%ADD15R,0.0394X0.0118*%
%ADD16R,0.0354X0.0315*%
%ADD17R,0.0236X0.0197*%
%ADD18R,0.0669X0.0433*%
%ADD19R,0.0315X0.0118*%
%ADD20R,0.0118X0.0315*%
%ADD21R,0.0433X0.1024*%
%ADD22R,0.0650X0.0937*%
%ADD23R,0.0276X0.0098*%
%ADD24R,0.0591X0.0551*%
%ADD25C,0.0060*%
%ADD26C,0.0591*%
%ADD27R,0.0591X0.0591*%
%ADD28C,0.0315*%
%ADD29C,0.0472*%
%ADD30C,0.1142*%
%ADD31R,0.1024X0.0787*%
%ADD32R,0.0787X0.1024*%
%ADD33C,0.0197*%
D10*
X18800Y20697D02*
D03*
Y20303D02*
D03*
X21800Y27797D02*
D03*
Y27403D02*
D03*
X22350Y21744D02*
D03*
Y21350D02*
D03*
X18100Y23494D02*
D03*
Y23100D02*
D03*
X18100Y22053D02*
D03*
Y22447D02*
D03*
X24930Y23550D02*
D03*
Y23944D02*
D03*
X27630Y23044D02*
D03*
Y22650D02*
D03*
X25730Y18653D02*
D03*
Y19047D02*
D03*
X26330Y18706D02*
D03*
Y19100D02*
D03*
X24530Y20953D02*
D03*
Y21347D02*
D03*
X22600Y27782D02*
D03*
Y27388D02*
D03*
X23400Y27732D02*
D03*
Y27338D02*
D03*
X24200Y27732D02*
D03*
Y27338D02*
D03*
D11*
X21800Y26715D02*
D03*
Y26085D02*
D03*
X22600Y26700D02*
D03*
Y26070D02*
D03*
X23400Y26700D02*
D03*
Y26070D02*
D03*
X24200Y26700D02*
D03*
Y26070D02*
D03*
D12*
X31636Y10885D02*
D03*
X29864D02*
D03*
X31636Y14015D02*
D03*
X29864D02*
D03*
X34336Y10835D02*
D03*
X32564D02*
D03*
X34336Y13965D02*
D03*
X32564D02*
D03*
X37272Y10820D02*
D03*
X35500D02*
D03*
X37272Y13950D02*
D03*
X35500D02*
D03*
X40086Y10835D02*
D03*
X38314D02*
D03*
X40086Y13965D02*
D03*
X38314D02*
D03*
X42822Y10870D02*
D03*
X41050D02*
D03*
X42822Y14000D02*
D03*
X41050D02*
D03*
D13*
X34344Y20700D02*
D03*
X33556D02*
D03*
X31506Y20350D02*
D03*
X32294D02*
D03*
D14*
X20353Y20804D02*
D03*
X20156D02*
D03*
X20550Y22496D02*
D03*
X20353D02*
D03*
X20156D02*
D03*
X20550Y20804D02*
D03*
X20747D02*
D03*
X20944D02*
D03*
X20747Y22496D02*
D03*
X20944D02*
D03*
D15*
X19723Y22241D02*
D03*
X21396Y22044D02*
D03*
X19723Y21847D02*
D03*
Y21059D02*
D03*
Y21256D02*
D03*
Y21453D02*
D03*
Y21650D02*
D03*
Y22044D02*
D03*
X21396Y21650D02*
D03*
Y21059D02*
D03*
Y21256D02*
D03*
Y21453D02*
D03*
Y21847D02*
D03*
Y22241D02*
D03*
D16*
X16650Y22826D02*
D03*
Y22274D02*
D03*
D17*
X18303Y21550D02*
D03*
X18697D02*
D03*
X28730Y21050D02*
D03*
X29124D02*
D03*
X28880Y20250D02*
D03*
X28486D02*
D03*
X28033Y19450D02*
D03*
X28427D02*
D03*
X25627Y22550D02*
D03*
X25233D02*
D03*
X41300Y14850D02*
D03*
X41694D02*
D03*
X40894Y14850D02*
D03*
X40500D02*
D03*
X38503Y14850D02*
D03*
X38897D02*
D03*
X38097Y14850D02*
D03*
X37703D02*
D03*
X35297Y14900D02*
D03*
X34903D02*
D03*
X35703Y14900D02*
D03*
X36097Y14900D02*
D03*
X30056Y14900D02*
D03*
X30450D02*
D03*
X29650D02*
D03*
X29256D02*
D03*
X32853Y14900D02*
D03*
X33247D02*
D03*
X32447Y14900D02*
D03*
X32053D02*
D03*
X18706Y25350D02*
D03*
X19100D02*
D03*
X20297Y25350D02*
D03*
X19903D02*
D03*
D18*
X28780Y22318D02*
D03*
Y23381D02*
D03*
D19*
X25638Y21444D02*
D03*
Y21247D02*
D03*
Y21050D02*
D03*
Y20853D02*
D03*
Y20656D02*
D03*
X26622D02*
D03*
Y20853D02*
D03*
Y21050D02*
D03*
Y21247D02*
D03*
Y21444D02*
D03*
D20*
X25933Y20558D02*
D03*
X26130D02*
D03*
X26327D02*
D03*
Y21542D02*
D03*
X26130D02*
D03*
X25933D02*
D03*
D21*
X30768Y18100D02*
D03*
X31831D02*
D03*
X37781Y18900D02*
D03*
X36718D02*
D03*
D22*
X34600Y18900D02*
D03*
D23*
X34049Y19195D02*
D03*
Y18998D02*
D03*
Y18802D02*
D03*
Y18605D02*
D03*
X35151Y19195D02*
D03*
Y18998D02*
D03*
Y18802D02*
D03*
Y18605D02*
D03*
D24*
X10650Y27244D02*
D03*
Y26456D02*
D03*
X11650Y27244D02*
D03*
Y26456D02*
D03*
X12650Y27244D02*
D03*
Y26456D02*
D03*
X13650Y27244D02*
D03*
Y26456D02*
D03*
X14650Y27244D02*
D03*
Y26456D02*
D03*
D25*
X22350Y21253D02*
X22353Y21250D01*
X21750Y21196D02*
X21810Y21256D01*
X21750Y21050D02*
Y21196D01*
Y21050D02*
X22350Y20450D01*
X21797Y21453D02*
X22130Y21120D01*
X21318Y21453D02*
X21797D01*
X22300Y20800D02*
X22600D01*
X22130Y20970D02*
X22300Y20800D01*
X22130Y20970D02*
Y21120D01*
X21318Y21256D02*
X21810D01*
X22350Y20450D02*
X22650D01*
X14050Y27744D02*
Y27800D01*
X13675Y27369D02*
X14050Y27744D01*
X40250Y14850D02*
X40500D01*
X39950Y15150D02*
X40250Y14850D01*
X39950Y15150D02*
Y15250D01*
X19500Y27050D02*
X20500D01*
X16600Y27100D02*
X17600D01*
X14650Y27244D02*
Y27600D01*
X14033Y28600D02*
X14724Y29291D01*
X11350Y28600D02*
X14033D01*
X10650Y27900D02*
X11350Y28600D01*
X10650Y27244D02*
Y27900D01*
X14570Y28350D02*
X15512Y29291D01*
X12200Y28350D02*
X14570D01*
X11650Y27800D02*
X12200Y28350D01*
X11650Y27244D02*
Y27800D01*
X16172Y29291D02*
X16299D01*
X15080Y28200D02*
X16172Y29291D01*
X13050Y28200D02*
X15080D01*
X12650Y27800D02*
X13050Y28200D01*
X12650Y27244D02*
Y27800D01*
X13675Y27369D02*
X13800Y27244D01*
X16455Y28500D02*
X17087Y29132D01*
X15550Y28500D02*
X16455D01*
X14650Y27600D02*
X15550Y28500D01*
X17087Y29132D02*
Y29291D01*
X21400Y27650D02*
X21547Y27797D01*
X21800D01*
X19900Y24950D02*
X19903Y24953D01*
Y25350D01*
X19099Y24751D02*
X19800Y24050D01*
X20700D01*
X18100Y25350D02*
X18706D01*
X20297D02*
X20750D01*
X20297Y25350D02*
X20297Y25350D01*
X19099Y24751D02*
Y25851D01*
X18900Y26050D02*
X19099Y25851D01*
X18000Y26050D02*
X18900D01*
X17600Y26450D02*
X18000Y26050D01*
X17600Y26450D02*
Y27100D01*
X19850Y25403D02*
X19903Y25350D01*
X19850Y25403D02*
Y26050D01*
X19500Y26400D02*
X19850Y26050D01*
X19500Y26400D02*
Y27050D01*
X19449Y29249D02*
Y29291D01*
X19000Y28800D02*
X19449Y29249D01*
X17300Y28800D02*
X19000D01*
X16600Y28100D02*
X17300Y28800D01*
X17600Y28100D02*
X18150Y28650D01*
X20382D01*
X21024Y29291D01*
X21811Y28611D02*
Y29291D01*
X21550Y28350D02*
X21811Y28611D01*
X20800Y28350D02*
X21550D01*
X20500Y28050D02*
X20800Y28350D01*
X26800Y28550D02*
X27200D01*
X27323Y28673D01*
Y29291D01*
X24970Y26070D02*
X24990Y26050D01*
X24200Y26070D02*
X24970D01*
X23400D02*
X24200D01*
X22600D02*
X23400D01*
X22585Y26085D02*
X22600Y26070D01*
X21800Y26085D02*
X22585D01*
X29124Y21050D02*
X29700D01*
X28880Y20250D02*
X29450D01*
X28900Y19450D02*
X28900Y19450D01*
X28427Y19450D02*
X28900D01*
X26330Y18220D02*
Y18706D01*
X25730Y18230D02*
Y18653D01*
X21200Y22358D02*
X21318Y22241D01*
X21141Y22418D02*
X21200Y22358D01*
X21492Y22650D01*
X21318Y21847D02*
Y22044D01*
Y22241D01*
X20944Y22418D02*
X21141D01*
X20747D02*
X20944D01*
X20550D02*
X20747D01*
X18550Y22450D02*
X18800D01*
X19206Y22044D01*
X19802D01*
X21141Y20882D02*
X21318Y21059D01*
X20944Y20882D02*
X21141D01*
X20150Y23750D02*
X22750D01*
X20150Y23150D02*
Y23750D01*
X19309Y22241D02*
X19802D01*
X18450Y23100D02*
X19309Y22241D01*
X18100Y23100D02*
X18450D01*
X17250Y21500D02*
Y22050D01*
Y21500D02*
X17600Y21150D01*
X18950Y22050D02*
X19153Y21847D01*
X17026Y22274D02*
X17250Y22050D01*
X19153Y21847D02*
X19802D01*
X17600Y21150D02*
X18950D01*
X19253Y21453D01*
X17700Y21550D02*
X17700Y21550D01*
X18303D01*
X17550Y23500D02*
X17556Y23494D01*
X18100D01*
X18547Y22447D02*
X18550Y22450D01*
X18100Y22447D02*
X18547D01*
X16650Y23450D02*
X16650Y23450D01*
X16650Y22826D02*
Y23450D01*
X19802Y20850D02*
Y21059D01*
Y20702D02*
Y20850D01*
X19834Y20882D01*
X20156D01*
X20747D02*
X20944D01*
X20550D02*
X20747D01*
X20353D02*
X20550D01*
X20156D02*
X20353D01*
X19403Y20303D02*
X19802Y20702D01*
X18800Y20303D02*
X19403D01*
X18300Y20300D02*
X18303Y20303D01*
X18800D01*
X18300Y20700D02*
X18303Y20697D01*
X18800D01*
X19097D01*
X19150Y20750D01*
Y20950D01*
X19456Y21256D01*
X19802D01*
X20700Y24050D02*
X22950D01*
X23650Y23350D01*
X24030Y20420D02*
X24800D01*
X22750Y23750D02*
X23350Y23150D01*
Y20400D02*
Y23150D01*
Y20400D02*
X24100Y19650D01*
X25730D01*
X25933Y19853D01*
X20353Y22418D02*
Y23253D01*
X24800Y20420D02*
X25233Y20853D01*
X20150Y23150D02*
X20156Y23144D01*
Y22418D02*
Y23144D01*
X14650Y25000D02*
Y26456D01*
X13650Y25000D02*
Y26456D01*
X21800Y27403D02*
X21800Y27403D01*
Y26715D02*
Y27403D01*
X24200Y27338D02*
X24200Y27338D01*
Y26700D02*
Y27338D01*
X24173Y27759D02*
X24200Y27732D01*
X24173Y27759D02*
Y29291D01*
X23400Y26700D02*
X23400Y26700D01*
X23400Y26700D02*
Y27338D01*
X23386Y27746D02*
X23400Y27732D01*
X23386Y27746D02*
Y29291D01*
X22600Y26700D02*
X22600Y26700D01*
X22600Y26700D02*
Y27388D01*
X22598Y27783D02*
X22600Y27782D01*
X22598Y27783D02*
Y29291D01*
X12650Y25000D02*
Y26456D01*
X11650Y25000D02*
Y26456D01*
X10650Y25000D02*
Y26456D01*
X32564Y13965D02*
X32664Y14065D01*
Y14514D01*
X29650Y14700D02*
X29850Y14500D01*
X29650Y14700D02*
Y14900D01*
X32447Y14731D02*
X32664Y14514D01*
X32447Y14731D02*
Y14900D01*
X35500Y13950D02*
Y14500D01*
X35297Y14703D02*
X35500Y14500D01*
X35297Y14703D02*
Y14900D01*
X38314Y13965D02*
X38400Y14051D01*
X38314Y13965D02*
Y14386D01*
X38097Y14603D02*
X38314Y14386D01*
X38097Y14603D02*
Y14850D01*
X40894Y14156D02*
X41050Y14000D01*
X40894Y14156D02*
Y14850D01*
X41297Y14847D02*
X41300Y14850D01*
X31831Y18100D02*
X32400D01*
X33750Y19000D02*
Y19013D01*
X32600Y19000D02*
X33750D01*
X34047D01*
X34049Y18998D01*
X32294Y19306D02*
X32600Y19000D01*
X32294Y19306D02*
Y20350D01*
X35605Y18605D02*
X35800Y18800D01*
X35602Y18998D02*
X35798Y18802D01*
X35800Y18800D01*
X36100D01*
X36200Y18900D01*
X36718D01*
X35151Y18605D02*
X35605D01*
X35151Y18802D02*
X35798D01*
X35151Y18998D02*
X35602D01*
X21318Y21650D02*
X21321Y21647D01*
X22350D01*
X16650Y22274D02*
X17026D01*
X28033Y18753D02*
X28236Y18550D01*
X28033Y18753D02*
Y19450D01*
X28730Y21050D02*
Y21350D01*
X25933Y19853D02*
Y20558D01*
X25233Y20853D02*
X25638D01*
X24930Y23550D02*
X25630D01*
X28033Y19450D02*
Y20197D01*
X27580Y20650D02*
X28033Y20197D01*
X26628Y20650D02*
X27580D01*
X26622Y20656D02*
X26628Y20650D01*
X26622Y21050D02*
X28730D01*
X25930Y21545D02*
X25933Y21542D01*
X26130Y19850D02*
Y20558D01*
X25730Y19450D02*
X26130Y19850D01*
X25730Y19047D02*
Y19450D01*
X26327Y20558D02*
X26330Y20555D01*
Y19100D02*
Y20555D01*
X25080Y21247D02*
X25638D01*
X24980Y21347D02*
X25080Y21247D01*
X24530Y21347D02*
X24980D01*
X27586Y23000D02*
X27630Y23044D01*
X26780Y23000D02*
X27586D01*
X26327Y22547D02*
X26780Y23000D01*
X26327Y21542D02*
Y22547D01*
X26622Y20853D02*
X28227D01*
X28486Y20594D01*
Y20250D02*
Y20594D01*
X28050Y13900D02*
X28065Y13915D01*
X29864D01*
X32550Y15400D02*
Y15550D01*
X32447Y15297D02*
X32550Y15400D01*
X32447Y14900D02*
Y15297D01*
X33050Y24500D02*
X34344Y23206D01*
Y20700D02*
Y23206D01*
X28150Y21650D02*
X28430D01*
X28730Y21350D01*
X28236Y18550D02*
X30250D01*
X26535Y28415D02*
Y29291D01*
Y28415D02*
X26950Y28000D01*
X29784Y24500D02*
X33050D01*
X29500Y24517D02*
X29705Y24312D01*
X29380Y24420D02*
X29608Y24192D01*
X29260Y24370D02*
X29559Y24072D01*
X29140Y24321D02*
X29511Y23950D01*
X31500Y20356D02*
Y21400D01*
Y20356D02*
X31506Y20350D01*
X29705Y24312D02*
X31500D01*
X29608Y24192D02*
X30858D01*
X31050Y24000D01*
X29559Y24072D02*
X30628D01*
X29511Y23950D02*
X30350D01*
X35300Y14803D02*
Y16900D01*
X35297Y14900D02*
X35300Y14903D01*
X38100Y14753D02*
Y16700D01*
X38097Y14850D02*
X38100Y14853D01*
X40900Y14756D02*
Y16300D01*
X40894Y14850D02*
X40900Y14856D01*
X33505Y18605D02*
X34049D01*
X33702Y18802D02*
X34049D01*
X33000Y18100D02*
X33505Y18605D01*
X32400Y18100D02*
X33000D01*
X32400Y18100D02*
X32400Y18100D01*
X31506Y19394D02*
Y20350D01*
X33505Y18605D02*
X33702Y18802D01*
X31506Y19394D02*
X31831Y19068D01*
Y18100D02*
Y19068D01*
X29140Y24321D02*
Y26676D01*
X29260Y24370D02*
Y26726D01*
X29380Y24420D02*
Y26776D01*
X29500Y24517D02*
Y26826D01*
X19253Y21453D02*
X19802D01*
X18697Y21550D02*
X19050D01*
X19150Y21650D01*
X19802D01*
X36250Y20563D02*
X36718Y20094D01*
Y18900D02*
Y20094D01*
X16650Y20450D02*
Y22274D01*
Y20450D02*
X19250Y17850D01*
X29450D01*
X29950Y17350D01*
X34500D01*
X35150Y18000D01*
Y18604D01*
X35151Y18605D01*
X27924Y23044D02*
X28261Y23381D01*
X28780D01*
X27630Y23044D02*
X27924D01*
X28780Y23381D02*
X33431D01*
X29256Y14900D02*
Y15344D01*
X29250Y15350D02*
X29256Y15344D01*
X30450Y14900D02*
Y15400D01*
X31050D01*
X31636Y14814D01*
Y14015D02*
Y14814D01*
X34336Y13965D02*
Y14636D01*
X34350Y14650D01*
X33247Y14900D02*
X34100D01*
X34350Y14650D01*
X37272Y13950D02*
Y14378D01*
X36900Y14750D02*
X37272Y14378D01*
X36097Y14900D02*
X36750D01*
X36900Y14750D01*
X38897Y14850D02*
X39750D01*
X40086Y14514D01*
Y13965D02*
Y14514D01*
X32053Y14900D02*
Y15897D01*
X32050Y15900D02*
X32053Y15897D01*
X42822Y14000D02*
Y14800D01*
X41694Y14850D02*
X42772D01*
X42822Y14800D01*
X34800Y14900D02*
X34903D01*
X34500Y15200D02*
X34800Y14900D01*
X37353Y15200D02*
X37703Y14850D01*
X30100Y18100D02*
X30768D01*
X30050Y18050D02*
X30100Y18100D01*
X34305Y19195D02*
X34403Y19097D01*
X34797D02*
X34895Y19195D01*
X25050Y21050D02*
X25638D01*
X24950Y20950D02*
X25050Y21050D01*
X24533Y20950D02*
X24950D01*
X24530Y20953D02*
X24533Y20950D01*
X25606Y20656D02*
X25638D01*
X25100Y20150D02*
X25606Y20656D01*
X26622Y21247D02*
Y21444D01*
X27144D01*
X27630Y21930D02*
Y22650D01*
X27144Y21444D02*
X27630Y21930D01*
X28780Y21970D02*
Y22318D01*
Y21970D02*
X28950Y21800D01*
X37781Y18900D02*
X38700D01*
X24961Y28411D02*
Y29291D01*
Y28411D02*
X25621Y27750D01*
X17250Y22050D02*
X18950D01*
X24930Y23944D02*
Y24530D01*
X25200Y22517D02*
X25233Y22550D01*
X25200Y22100D02*
Y22517D01*
X25627Y21455D02*
Y22550D01*
Y21455D02*
X25638Y21444D01*
X27630Y22650D02*
X27850D01*
X28200Y22300D01*
X28761D01*
X28780Y22318D01*
X16650Y22826D02*
X17124D01*
X17500Y22450D01*
X18097D01*
X18100Y22447D01*
X25748Y28386D02*
X26254Y27880D01*
X25748Y28386D02*
Y29291D01*
X25850Y26500D02*
X26300Y26950D01*
X25350Y27250D02*
X25730Y27630D01*
X27920D01*
X28050Y27500D01*
X25850Y26900D02*
Y27350D01*
X25550Y26600D02*
X25850Y26900D01*
Y25800D02*
Y26500D01*
X24200Y24150D02*
X25850Y25800D01*
X25550Y25670D02*
Y26600D01*
X23950Y24070D02*
X25550Y25670D01*
X24200Y20800D02*
Y24150D01*
X23650Y20800D02*
X24030Y20420D01*
X23650Y20800D02*
Y23350D01*
X23950Y21150D02*
Y24070D01*
X28110Y28215D02*
Y29291D01*
Y28215D02*
X29500Y26826D01*
X26950Y28000D02*
X28156D01*
X29380Y26776D01*
X26254Y27880D02*
X28106D01*
X29260Y26726D01*
X25621Y27750D02*
X28066D01*
X29140Y26676D01*
X30350Y23950D02*
X30450Y23850D01*
Y23700D02*
Y23850D01*
X30628Y24072D02*
X30800Y23900D01*
Y23700D02*
Y23900D01*
X40894Y14850D02*
X41300D01*
X40894Y14850D02*
X40894Y14850D01*
X38097Y14850D02*
X38503D01*
X38097Y14850D02*
X38097Y14850D01*
X35297Y14900D02*
X35703D01*
X35297Y14900D02*
X35297Y14900D01*
X32447Y14900D02*
X32853D01*
X32447Y14900D02*
X32447Y14900D01*
X29850Y14029D02*
Y14500D01*
Y14029D02*
X29864Y14015D01*
X29650Y14900D02*
X30056D01*
X25630Y23550D02*
X25933Y23247D01*
Y21542D02*
Y23247D01*
X25627Y22550D02*
Y22877D01*
X35151Y19195D02*
X35545D01*
X35600Y19250D01*
X33855Y19195D02*
X34049D01*
X33700Y19350D02*
X33855Y19195D01*
X33512Y20655D02*
X33556Y20700D01*
X33512Y19251D02*
Y20655D01*
Y19251D02*
X33750Y19013D01*
D26*
X17500Y28100D02*
D03*
Y27100D02*
D03*
X16500Y28100D02*
D03*
X20500Y28050D02*
D03*
Y27050D02*
D03*
X19500Y28050D02*
D03*
X10650Y25000D02*
D03*
X11650D02*
D03*
X12650D02*
D03*
X13650D02*
D03*
X14650D02*
D03*
X13937Y30079D02*
D03*
X14724Y29291D02*
D03*
Y30079D02*
D03*
X15512Y29291D02*
D03*
Y30079D02*
D03*
X16299Y29291D02*
D03*
Y30079D02*
D03*
X17087Y29291D02*
D03*
Y30079D02*
D03*
X17874Y29291D02*
D03*
Y30079D02*
D03*
X18661Y29291D02*
D03*
Y30079D02*
D03*
X19449Y29291D02*
D03*
Y30079D02*
D03*
X20236Y29291D02*
D03*
Y30079D02*
D03*
X21024Y29291D02*
D03*
Y30079D02*
D03*
X21811Y29291D02*
D03*
Y30079D02*
D03*
X22598Y29291D02*
D03*
Y30079D02*
D03*
X23386Y29291D02*
D03*
Y30079D02*
D03*
X24173Y29291D02*
D03*
Y30079D02*
D03*
X24961Y29291D02*
D03*
Y30079D02*
D03*
X25748Y29291D02*
D03*
Y30079D02*
D03*
X26535Y29291D02*
D03*
Y30079D02*
D03*
X27323Y29291D02*
D03*
Y30079D02*
D03*
X28110Y29291D02*
D03*
Y30079D02*
D03*
X28898Y29291D02*
D03*
Y30079D02*
D03*
D27*
X16500Y27100D02*
D03*
X19500Y27050D02*
D03*
X15650Y25000D02*
D03*
X13937Y29291D02*
D03*
D28*
X17343Y16083D02*
D03*
D29*
X28445D02*
D03*
D30*
X41890Y17283D02*
D03*
Y29685D02*
D03*
X11575D02*
D03*
Y17283D02*
D03*
D31*
X33100Y25719D02*
D03*
Y28081D02*
D03*
D32*
X31250Y26900D02*
D03*
D33*
X14050Y27800D02*
D03*
X39950Y15250D02*
D03*
X21400Y27650D02*
D03*
X19900Y24950D02*
D03*
X18100Y25350D02*
D03*
X20750D02*
D03*
X26300Y28100D02*
D03*
X26800Y28550D02*
D03*
X24990Y26050D02*
D03*
X29700Y21050D02*
D03*
X29450Y20250D02*
D03*
X28900Y19450D02*
D03*
X26330Y18220D02*
D03*
X25730Y18230D02*
D03*
X21492Y22650D02*
D03*
X22800Y21250D02*
D03*
X20150Y23750D02*
D03*
X17700Y21550D02*
D03*
X17550Y23500D02*
D03*
X18550Y22450D02*
D03*
X16650Y23450D02*
D03*
X18300Y20300D02*
D03*
Y20700D02*
D03*
X20700Y24050D02*
D03*
X20353Y23253D02*
D03*
X34403Y19097D02*
D03*
X34797D02*
D03*
X34403Y18703D02*
D03*
X34797D02*
D03*
X28050Y13900D02*
D03*
X32550Y15550D02*
D03*
X28150Y21650D02*
D03*
X30250Y18550D02*
D03*
X29784Y24500D02*
D03*
X31500Y24312D02*
D03*
Y21400D02*
D03*
X31050Y24000D02*
D03*
X35300Y16900D02*
D03*
X38100Y16700D02*
D03*
X40900Y16300D02*
D03*
X25350Y27250D02*
D03*
X28050Y27500D02*
D03*
X33431Y23381D02*
D03*
X36250Y20563D02*
D03*
X29250Y15350D02*
D03*
X30450Y15400D02*
D03*
X34350Y14650D02*
D03*
X36900Y14750D02*
D03*
X39750Y14850D02*
D03*
X32050Y15900D02*
D03*
X42822Y14800D02*
D03*
X34500Y15200D02*
D03*
X37353D02*
D03*
X30050Y18050D02*
D03*
X24950Y20950D02*
D03*
X25100Y20150D02*
D03*
X27144Y21444D02*
D03*
X28950Y21800D02*
D03*
X38700Y18900D02*
D03*
X24930Y24530D02*
D03*
X25200Y22100D02*
D03*
X26300Y26950D02*
D03*
X25850Y27350D02*
D03*
X23950Y21150D02*
D03*
X24200Y20800D02*
D03*
X22650Y20450D02*
D03*
X22600Y20800D02*
D03*
X30450Y23700D02*
D03*
X30800D02*
D03*
X25627Y22877D02*
D03*
X35600Y19250D02*
D03*
X33700Y19350D02*
D03*
M02*
