G04 Layer_Color=128*
%FSLAX24Y24*%
%MOIN*%
G70*
G01*
G75*
%ADD47R,0.0197X0.0787*%
D47*
X27461Y16949D02*
D03*
X27146D02*
D03*
X26831D02*
D03*
X26516D02*
D03*
X26201D02*
D03*
X25886D02*
D03*
X25571D02*
D03*
X25256D02*
D03*
X24941D02*
D03*
X24626D02*
D03*
X24311D02*
D03*
X23996D02*
D03*
X23681D02*
D03*
X23366D02*
D03*
X23051D02*
D03*
X22736D02*
D03*
X22421D02*
D03*
X22106D02*
D03*
X21791D02*
D03*
X21476D02*
D03*
X21161D02*
D03*
X20846D02*
D03*
X20531D02*
D03*
X20217D02*
D03*
X19902D02*
D03*
X19587D02*
D03*
X19272D02*
D03*
X18957D02*
D03*
X18642D02*
D03*
X18327D02*
D03*
X27461Y15217D02*
D03*
X27146D02*
D03*
X26831D02*
D03*
X26516D02*
D03*
X26201D02*
D03*
X25886D02*
D03*
X25571D02*
D03*
X25256D02*
D03*
X24941D02*
D03*
X24626D02*
D03*
X24311D02*
D03*
X23996D02*
D03*
X23681D02*
D03*
X23366D02*
D03*
X23051D02*
D03*
X22736D02*
D03*
X22421D02*
D03*
X22106D02*
D03*
X21791D02*
D03*
X21476D02*
D03*
X21161D02*
D03*
X20846D02*
D03*
X20531D02*
D03*
X20217D02*
D03*
X19902D02*
D03*
X19587D02*
D03*
X19272D02*
D03*
X18957D02*
D03*
X18642D02*
D03*
X18327D02*
D03*
M02*
