G04 Layer_Color=8388736*
%FSLAX25Y25*%
%MOIN*%
G70*
G01*
G75*
%ADD42C,0.00500*%
%ADD44C,0.00394*%
%ADD45C,0.01000*%
%ADD46C,0.00197*%
%ADD47C,0.00787*%
%ADD48C,0.00600*%
%ADD80R,0.05918X0.01981*%
%ADD81R,0.01706X0.05131*%
%ADD82R,0.02375X0.05131*%
%ADD83R,0.06902X0.05918*%
%ADD84R,0.06706X0.06312*%
%ADD85R,0.06312X0.06706*%
G04:AMPARAMS|DCode=86|XSize=19.81mil|YSize=25.72mil|CornerRadius=5.95mil|HoleSize=0mil|Usage=FLASHONLY|Rotation=90.000|XOffset=0mil|YOffset=0mil|HoleType=Round|Shape=RoundedRectangle|*
%AMROUNDEDRECTD86*
21,1,0.01981,0.01382,0,0,90.0*
21,1,0.00791,0.02572,0,0,90.0*
1,1,0.01190,0.00691,0.00396*
1,1,0.01190,0.00691,-0.00396*
1,1,0.01190,-0.00691,-0.00396*
1,1,0.01190,-0.00691,0.00396*
%
%ADD86ROUNDEDRECTD86*%
G04:AMPARAMS|DCode=87|XSize=47.37mil|YSize=70.99mil|CornerRadius=5.97mil|HoleSize=0mil|Usage=FLASHONLY|Rotation=0.000|XOffset=0mil|YOffset=0mil|HoleType=Round|Shape=RoundedRectangle|*
%AMROUNDEDRECTD87*
21,1,0.04737,0.05905,0,0,0.0*
21,1,0.03543,0.07099,0,0,0.0*
1,1,0.01194,0.01772,-0.02953*
1,1,0.01194,-0.01772,-0.02953*
1,1,0.01194,-0.01772,0.02953*
1,1,0.01194,0.01772,0.02953*
%
%ADD87ROUNDEDRECTD87*%
%ADD88R,0.07493X0.05131*%
%ADD89R,0.05131X0.07493*%
%ADD90R,0.05918X0.06902*%
%ADD91R,0.01981X0.04737*%
%ADD92R,0.04737X0.01981*%
%ADD93R,0.02768X0.03162*%
%ADD94R,0.04343X0.03950*%
%ADD95R,0.01981X0.03950*%
%ADD96R,0.03950X0.01981*%
%ADD97R,0.03162X0.02768*%
%ADD98R,0.05918X0.04737*%
%ADD99R,0.02847X0.01863*%
%ADD100R,0.02847X0.02217*%
%ADD101R,0.01863X0.02847*%
%ADD102R,0.02217X0.02847*%
%ADD103R,0.07299X0.10173*%
%ADD104R,0.03559X0.01787*%
%ADD105R,0.05131X0.11036*%
%ADD106R,0.11036X0.05131*%
%ADD107R,0.04737X0.05918*%
%ADD108R,0.09461X0.07887*%
%ADD109R,0.02768X0.02650*%
%ADD110R,0.02768X0.02257*%
%ADD111C,0.06706*%
%ADD112R,0.06706X0.06706*%
%ADD113C,0.05524*%
%ADD114C,0.03950*%
%ADD115C,0.05800*%
%ADD116R,0.11036X0.08674*%
%ADD117R,0.08674X0.11036*%
%ADD118C,0.02600*%
%ADD119C,0.03200*%
%ADD120C,0.02768*%
D42*
X4380Y37900D02*
X41900D01*
X1900Y10302D02*
Y37900D01*
Y7900D02*
X37550D01*
X41900D01*
Y36286D02*
Y37900D01*
X1900D02*
X4380D01*
X1900Y7900D02*
Y10302D01*
X41900Y7900D02*
Y36286D01*
X21900Y21916D02*
Y23884D01*
X20916Y22900D02*
X22884D01*
X53000Y130017D02*
Y132017D01*
X52000Y131017D02*
X54000D01*
X65205Y119017D02*
Y142517D01*
X40795D02*
X65205D01*
X40795Y119017D02*
Y142517D01*
Y119017D02*
X65205D01*
X60500Y104500D02*
Y106500D01*
X59500Y105500D02*
X61500D01*
X48295Y94000D02*
Y117500D01*
Y94000D02*
X72705D01*
Y117500D01*
X48295D02*
X72705D01*
X213600Y147889D02*
X215600D01*
X214600Y146889D02*
Y148889D01*
X202600Y135684D02*
X226100D01*
Y160094D01*
X202600D02*
X226100D01*
X202600Y135684D02*
Y160094D01*
X238600Y167889D02*
X240600D01*
X239600Y166889D02*
Y168889D01*
X227600Y155684D02*
X251100D01*
Y180094D01*
X227600D02*
X251100D01*
X227600Y155684D02*
Y180094D01*
X188600Y167889D02*
X190600D01*
X189600Y166889D02*
Y168889D01*
X177600Y155684D02*
X201100D01*
Y180094D01*
X177600D02*
X201100D01*
X177600Y155684D02*
Y180094D01*
X213600Y187889D02*
X215600D01*
X214600Y186889D02*
Y188889D01*
X202600Y175684D02*
X226100D01*
Y200094D01*
X202600D02*
X226100D01*
X202600Y175684D02*
Y200094D01*
X104925Y18500D02*
Y19500D01*
X104425Y19000D02*
X105425D01*
X108425Y15500D02*
Y22500D01*
X101425Y15500D02*
X108425D01*
X101425D02*
Y22500D01*
X108425D01*
X294980Y36000D02*
X332500D01*
X292500Y8402D02*
Y36000D01*
Y6000D02*
X328150D01*
X332500D01*
Y34386D02*
Y36000D01*
X292500D02*
X294980D01*
X292500Y6000D02*
Y8402D01*
X332500Y6000D02*
Y34386D01*
X312500Y20016D02*
Y21984D01*
X311516Y21000D02*
X313484D01*
X152500Y19000D02*
Y20000D01*
X152000Y19500D02*
X153000D01*
X156000Y16000D02*
Y23000D01*
X149000Y16000D02*
X156000D01*
X149000D02*
Y23000D01*
X156000D01*
X121075Y19075D02*
Y20075D01*
X120575Y19575D02*
X121575D01*
X124575Y16075D02*
Y23075D01*
X117575Y16075D02*
X124575D01*
X117575D02*
Y23075D01*
X124575D01*
X135685Y19425D02*
Y20425D01*
X135185Y19925D02*
X136185D01*
X139185Y16425D02*
Y23425D01*
X132185Y16425D02*
X139185D01*
X132185D02*
Y23425D01*
X139185D01*
D44*
X56500Y85363D02*
Y89300D01*
X54532Y87331D02*
X58469D01*
X48626Y91072D02*
X64374D01*
X48626Y83591D02*
X64374D01*
Y91072D01*
X48626Y83591D02*
Y91072D01*
X55713Y92453D02*
Y95209D01*
X48626Y92453D02*
Y95209D01*
X55713D01*
X48626Y92453D02*
X55713D01*
X50988Y93831D02*
X53350D01*
X52169Y92650D02*
Y95013D01*
X194374Y159760D02*
Y167240D01*
X178626Y159760D02*
X194374D01*
X178626Y167240D02*
X194374D01*
X178626Y159760D02*
Y167240D01*
X184531Y163500D02*
X188469D01*
X186500Y161531D02*
Y165469D01*
Y178032D02*
Y181968D01*
X184531Y180000D02*
X188469D01*
X178626Y176260D02*
X194374D01*
X178626Y183740D02*
X194374D01*
X178626Y176260D02*
Y183740D01*
X194374Y176260D02*
Y183740D01*
Y151760D02*
Y159240D01*
X178626Y151760D02*
X194374D01*
X178626Y159240D02*
X194374D01*
X178626Y151760D02*
Y159240D01*
X184531Y155500D02*
X188469D01*
X186500Y153532D02*
Y157468D01*
Y169760D02*
Y173697D01*
X184531Y171728D02*
X188469D01*
X178626Y167988D02*
X194374D01*
X178626Y175468D02*
X194374D01*
X178626Y167988D02*
Y175468D01*
X194374Y167988D02*
Y175468D01*
X56500Y60863D02*
Y64800D01*
X54532Y62831D02*
X58469D01*
X48626Y66572D02*
X64374D01*
X48626Y59091D02*
X64374D01*
Y66572D01*
X48626Y59091D02*
Y66572D01*
X55713Y67622D02*
Y70378D01*
X48626Y67622D02*
Y70378D01*
X55713D01*
X48626Y67622D02*
X55713D01*
X50988Y69000D02*
X53350D01*
X52169Y67819D02*
Y70181D01*
X56205Y112659D02*
Y115415D01*
X49118Y112659D02*
Y115415D01*
X56205D01*
X49118Y112659D02*
X56205D01*
X51480Y114037D02*
X53843D01*
X52661Y112856D02*
Y115218D01*
X56992Y105569D02*
Y109505D01*
X55024Y107537D02*
X58961D01*
X49118Y111277D02*
X64866D01*
X49118Y103797D02*
X64866D01*
Y111277D01*
X49118Y103797D02*
Y111277D01*
X55713Y79756D02*
Y82512D01*
X48626Y79756D02*
Y82512D01*
X55713D01*
X48626Y79756D02*
X55713D01*
X50988Y81134D02*
X53350D01*
X52169Y79953D02*
Y82315D01*
X56500Y72992D02*
Y76929D01*
X54532Y74961D02*
X58469D01*
X48626Y78701D02*
X64374D01*
X48626Y71220D02*
X64374D01*
Y78701D01*
X48626Y71220D02*
Y78701D01*
X313724Y164122D02*
Y166878D01*
X306638Y164122D02*
Y166878D01*
X313724D01*
X306638Y164122D02*
X313724D01*
X309000Y165500D02*
X311362D01*
X310181Y164319D02*
Y166681D01*
X314512Y157531D02*
Y161469D01*
X312543Y159500D02*
X316480D01*
X306638Y163240D02*
X322386D01*
X306638Y155760D02*
X322386D01*
Y163240D01*
X306638Y155760D02*
Y163240D01*
X313724Y152122D02*
Y154878D01*
X306638Y152122D02*
Y154878D01*
X313724D01*
X306638Y152122D02*
X313724D01*
X309000Y153500D02*
X311362D01*
X310181Y152319D02*
Y154681D01*
X314512Y145031D02*
Y148969D01*
X312543Y147000D02*
X316480D01*
X306638Y150740D02*
X322386D01*
X306638Y143260D02*
X322386D01*
Y150740D01*
X306638Y143260D02*
Y150740D01*
X313724Y139122D02*
Y141878D01*
X306638Y139122D02*
Y141878D01*
X313724D01*
X306638Y139122D02*
X313724D01*
X309000Y140500D02*
X311362D01*
X310181Y139319D02*
Y141681D01*
X314512Y132647D02*
Y136583D01*
X312543Y134615D02*
X316480D01*
X306638Y138355D02*
X322386D01*
X306638Y130875D02*
X322386D01*
Y138355D01*
X306638Y130875D02*
Y138355D01*
X255122Y94457D02*
X257878D01*
X255122Y101543D02*
X257878D01*
Y94457D02*
Y101543D01*
X255122Y94457D02*
Y101543D01*
X256500Y96819D02*
Y99181D01*
X255319Y98000D02*
X257681D01*
X248532Y93685D02*
X252468D01*
X250500Y91716D02*
Y95653D01*
X254240Y85811D02*
Y101559D01*
X246760Y85811D02*
Y101559D01*
Y85811D02*
X254240D01*
X246760Y101559D02*
X254240D01*
X64279Y17861D02*
X74121D01*
X64279Y539D02*
X74121D01*
Y17861D01*
X64279Y539D02*
Y17861D01*
X69200Y7231D02*
Y11169D01*
X67232Y9200D02*
X71169D01*
X74679Y17861D02*
X84521D01*
X74679Y539D02*
X84521D01*
Y17861D01*
X74679Y539D02*
Y17861D01*
X79600Y7231D02*
Y11169D01*
X77631Y9200D02*
X81568D01*
X53079Y18161D02*
X62921D01*
X53079Y839D02*
X62921D01*
Y18161D01*
X53079Y839D02*
Y18161D01*
X58000Y7531D02*
Y11468D01*
X56032Y9500D02*
X59969D01*
X265839Y3079D02*
Y12921D01*
X283161Y3079D02*
Y12921D01*
X265839D02*
X283161D01*
X265839Y3079D02*
X283161D01*
X272532Y8000D02*
X276468D01*
X274500Y6032D02*
Y9968D01*
X42579Y18161D02*
X52421D01*
X42579Y839D02*
X52421D01*
Y18161D01*
X42579Y839D02*
Y18161D01*
X47500Y7531D02*
Y11468D01*
X45531Y9500D02*
X49468D01*
X265839Y13542D02*
Y23384D01*
X283161Y13542D02*
Y23384D01*
X265839D02*
X283161D01*
X265839Y13542D02*
X283161D01*
X272532Y18463D02*
X276468D01*
X274500Y16495D02*
Y20432D01*
X265032Y96835D02*
X268969D01*
X267000Y94866D02*
Y98803D01*
X248532Y93835D02*
X252468D01*
X250500Y91866D02*
Y95803D01*
X254240Y85961D02*
Y101709D01*
X246760Y85961D02*
Y101709D01*
X254240D01*
X246760Y85961D02*
X254240D01*
X281500Y94874D02*
Y98811D01*
X279532Y96842D02*
X283469D01*
X273626Y100583D02*
X289374D01*
X273626Y93102D02*
X289374D01*
X273626D02*
Y100583D01*
X289374Y93102D02*
Y100583D01*
X103156Y143115D02*
X105518D01*
X104337Y141934D02*
Y144296D01*
X102959Y139572D02*
Y146658D01*
X105715Y139572D02*
Y146658D01*
X102959Y139572D02*
X105715D01*
X102959Y146658D02*
X105715D01*
X71719Y153084D02*
X74081D01*
X72900Y151902D02*
Y154265D01*
X74278Y149540D02*
Y156627D01*
X71522Y149540D02*
Y156627D01*
X74278D01*
X71522Y149540D02*
X74278D01*
X115530Y151178D02*
X119270D01*
X117400Y149308D02*
Y153048D01*
X115235Y146453D02*
Y155902D01*
X119565Y146453D02*
Y155902D01*
X115235Y146453D02*
X119565D01*
X115235Y155902D02*
X119565D01*
X109432Y151115D02*
X111794D01*
X110613Y149934D02*
Y152296D01*
X111990Y147572D02*
Y154658D01*
X109235Y147572D02*
Y154658D01*
X111990D01*
X109235Y147572D02*
X111990D01*
X103719Y166615D02*
X106081D01*
X104900Y165434D02*
Y167796D01*
X103522Y163072D02*
Y170158D01*
X106278Y163072D02*
Y170158D01*
X103522Y163072D02*
X106278D01*
X103522Y170158D02*
X106278D01*
X108219Y166615D02*
X110581D01*
X109400Y165434D02*
Y167796D01*
X110778Y163072D02*
Y170158D01*
X108022Y163072D02*
Y170158D01*
X110778D01*
X108022Y163072D02*
X110778D01*
X152579Y151178D02*
Y155115D01*
X150610Y153147D02*
X154547D01*
X139122Y156269D02*
Y159024D01*
X132035Y156269D02*
Y159024D01*
Y156269D02*
X139122D01*
X132035Y159024D02*
X139122D01*
X134398Y157647D02*
X136760D01*
X135579Y156465D02*
Y158827D01*
X151201Y165603D02*
X153957D01*
X151201Y172690D02*
X153957D01*
X151201Y165603D02*
Y172690D01*
X153957Y165603D02*
Y172690D01*
X152579Y167965D02*
Y170328D01*
X151398Y169147D02*
X153760D01*
X153169Y136103D02*
X155925D01*
X153169Y143190D02*
X155925D01*
X153169Y136103D02*
Y143190D01*
X155925Y136103D02*
Y143190D01*
X154547Y138465D02*
Y140828D01*
X153366Y139646D02*
X155728D01*
X132535Y151268D02*
Y154024D01*
X139622Y151268D02*
Y154024D01*
X132535D02*
X139622D01*
X132535Y151268D02*
X139622D01*
X134898Y152647D02*
X137260D01*
X136079Y151465D02*
Y153828D01*
X140201Y168190D02*
X142957D01*
X140201Y161103D02*
X142957D01*
Y168190D01*
X140201Y161103D02*
Y168190D01*
X141579Y163465D02*
Y165828D01*
X140398Y164646D02*
X142760D01*
X141110Y135646D02*
X145047D01*
X143079Y133678D02*
Y137615D01*
X146819Y127772D02*
Y143520D01*
X139339Y127772D02*
Y143520D01*
X146819D01*
X139339Y127772D02*
X146819D01*
X149232Y136103D02*
X151988D01*
X149232Y143190D02*
X151988D01*
X149232Y136103D02*
Y143190D01*
X151988Y136103D02*
Y143190D01*
X150610Y138465D02*
Y140828D01*
X149429Y139646D02*
X151791D01*
X158701Y133603D02*
X161457D01*
X158701Y140690D02*
X161457D01*
X158701Y133603D02*
Y140690D01*
X161457Y133603D02*
Y140690D01*
X160079Y135965D02*
Y138328D01*
X158898Y137146D02*
X161260D01*
X164201Y148690D02*
X166957D01*
X164201Y141603D02*
X166957D01*
Y148690D01*
X164201Y141603D02*
Y148690D01*
X165579Y143965D02*
Y146328D01*
X164398Y145147D02*
X166760D01*
X146201Y162603D02*
X148957D01*
X146201Y169690D02*
X148957D01*
X146201Y162603D02*
Y169690D01*
X148957Y162603D02*
Y169690D01*
X147579Y164965D02*
Y167328D01*
X146398Y166147D02*
X148760D01*
X145622Y14043D02*
X148378D01*
X145622Y6957D02*
X148378D01*
Y14043D01*
X145622Y6957D02*
Y14043D01*
X147000Y9319D02*
Y11681D01*
X145819Y10500D02*
X148181D01*
X149547Y4188D02*
Y15212D01*
X155453Y4188D02*
Y15212D01*
X149547Y4188D02*
X155453D01*
X149547Y15212D02*
X155453D01*
X152500Y9200D02*
Y10200D01*
X152000Y9700D02*
X153000D01*
X195531Y139000D02*
X199469D01*
X197500Y137031D02*
Y140969D01*
X237000Y194532D02*
Y198468D01*
X235032Y196500D02*
X238968D01*
X211000Y90332D02*
Y94269D01*
X209032Y92300D02*
X212968D01*
X320443Y192522D02*
Y195278D01*
X313357Y192522D02*
Y195278D01*
Y192522D02*
X320443D01*
X313357Y195278D02*
X320443D01*
X315719Y193900D02*
X318081D01*
X316900Y192719D02*
Y195081D01*
X319943Y203322D02*
Y206078D01*
X312857Y203322D02*
Y206078D01*
Y203322D02*
X319943D01*
X312857Y206078D02*
X319943D01*
X315219Y204700D02*
X317581D01*
X316400Y203519D02*
Y205881D01*
X128622Y15043D02*
X131378D01*
X128622Y7957D02*
X131378D01*
Y15043D01*
X128622Y7957D02*
Y15043D01*
X130000Y10319D02*
Y12681D01*
X128819Y11500D02*
X131181D01*
X113201Y14543D02*
X115957D01*
X113201Y7457D02*
X115957D01*
Y14543D01*
X113201Y7457D02*
Y14543D01*
X114579Y9819D02*
Y12181D01*
X113398Y11000D02*
X115760D01*
X97122Y14543D02*
X99878D01*
X97122Y7457D02*
X99878D01*
Y14543D01*
X97122Y7457D02*
Y14543D01*
X98500Y9819D02*
Y12181D01*
X97319Y11000D02*
X99681D01*
X219579Y93961D02*
X229421D01*
X219579Y76639D02*
X229421D01*
Y93961D01*
X219579Y76639D02*
Y93961D01*
X224500Y83332D02*
Y87269D01*
X222532Y85300D02*
X226468D01*
X230579Y84639D02*
X240421D01*
X230579Y101961D02*
X240421D01*
X230579Y84639D02*
Y101961D01*
X240421Y84639D02*
Y101961D01*
X235500Y91331D02*
Y95268D01*
X233531Y93300D02*
X237469D01*
X132714Y4688D02*
Y15712D01*
X138619Y4688D02*
Y15712D01*
X132714Y4688D02*
X138619D01*
X132714Y15712D02*
X138619D01*
X135667Y9700D02*
Y10700D01*
X135167Y10200D02*
X136167D01*
X117381Y4188D02*
Y15212D01*
X123286Y4188D02*
Y15212D01*
X117381Y4188D02*
X123286D01*
X117381Y15212D02*
X123286D01*
X120333Y9200D02*
Y10200D01*
X119833Y9700D02*
X120833D01*
X101847Y4188D02*
Y15212D01*
X107753Y4188D02*
Y15212D01*
X101847Y4188D02*
X107753D01*
X101847Y15212D02*
X107753D01*
X104800Y9200D02*
Y10200D01*
X104300Y9700D02*
X105300D01*
X194000Y91316D02*
Y95253D01*
X192032Y93284D02*
X195968D01*
X186126Y87773D02*
X201874D01*
X186126Y98796D02*
X201874D01*
Y87773D02*
Y98796D01*
X186126Y87773D02*
Y98796D01*
X222031Y107300D02*
X225969D01*
X224000Y105332D02*
Y109268D01*
X218488Y99426D02*
Y115174D01*
X229512Y99426D02*
Y115174D01*
X218488Y99426D02*
X229512D01*
X218488Y115174D02*
X229512D01*
X320688Y208053D02*
X331712D01*
X320688Y202147D02*
X331712D01*
X320688D02*
Y208053D01*
X331712Y202147D02*
Y208053D01*
X325700Y205100D02*
X326700D01*
X326200Y204600D02*
Y205600D01*
X320988Y197053D02*
X332012D01*
X320988Y191147D02*
X332012D01*
X320988D02*
Y197053D01*
X332012Y191147D02*
Y197053D01*
X326000Y194100D02*
X327000D01*
X326500Y193600D02*
Y194600D01*
X281000Y113038D02*
Y116975D01*
X279031Y115006D02*
X282968D01*
X273126Y118746D02*
X288874D01*
X273126Y111266D02*
X288874D01*
X273126D02*
Y118746D01*
X288874Y111266D02*
Y118746D01*
X248131Y112006D02*
X252068D01*
X250100Y110038D02*
Y113975D01*
X253840Y104132D02*
Y119880D01*
X246360Y104132D02*
Y119880D01*
X253840D01*
X246360Y104132D02*
X253840D01*
X264632Y115006D02*
X268568D01*
X266600Y113038D02*
Y116975D01*
X264432Y56458D02*
X268369D01*
X266400Y54490D02*
Y58427D01*
X256522Y60502D02*
X259278D01*
X256522Y53415D02*
X259278D01*
Y60502D01*
X256522Y53415D02*
Y60502D01*
X257900Y55777D02*
Y58139D01*
X256719Y56958D02*
X259081D01*
X247932Y53458D02*
X251869D01*
X249900Y51490D02*
Y55427D01*
X253640Y45584D02*
Y61332D01*
X246160Y45584D02*
Y61332D01*
X253640D01*
X246160Y45584D02*
X253640D01*
X281000Y54532D02*
Y58469D01*
X279031Y56500D02*
X282968D01*
X273126Y60240D02*
X288874D01*
X273126Y52760D02*
X288874D01*
X273126D02*
Y60240D01*
X288874Y52760D02*
Y60240D01*
X281500Y73831D02*
Y77768D01*
X279532Y75800D02*
X283469D01*
X273626Y79540D02*
X289374D01*
X273626Y72060D02*
X289374D01*
X273626D02*
Y79540D01*
X289374Y72060D02*
Y79540D01*
X248331Y72800D02*
X252269D01*
X250300Y70832D02*
Y74769D01*
X254040Y64926D02*
Y80674D01*
X246560Y64926D02*
Y80674D01*
X254040D01*
X246560Y64926D02*
X254040D01*
X264831Y75800D02*
X268769D01*
X266800Y73831D02*
Y77768D01*
X16532Y87000D02*
X20469D01*
X18500Y85031D02*
Y88968D01*
X314134Y76102D02*
X318071D01*
X316102Y74134D02*
Y78071D01*
X316000Y145531D02*
Y149469D01*
X314032Y147500D02*
X317969D01*
X207122Y47394D02*
X209878D01*
X207122Y40307D02*
X209878D01*
Y47394D01*
X207122Y40307D02*
Y47394D01*
X208500Y42669D02*
Y45031D01*
X207319Y43850D02*
X209681D01*
X213531Y43500D02*
X217469D01*
X215500Y41532D02*
Y45469D01*
X207622Y67043D02*
X210378D01*
X207622Y59957D02*
X210378D01*
Y67043D01*
X207622Y59957D02*
Y67043D01*
X209000Y62319D02*
Y64681D01*
X207819Y63500D02*
X210181D01*
X200532Y60538D02*
X204468D01*
X202500Y58569D02*
Y62506D01*
X206240Y52664D02*
Y68412D01*
X198760Y52664D02*
Y68412D01*
X206240D01*
X198760Y52664D02*
X206240D01*
X257122Y100878D02*
X259878D01*
X257122Y93791D02*
X259878D01*
Y100878D01*
X257122Y93791D02*
Y100878D01*
X258500Y96153D02*
Y98516D01*
X257319Y97335D02*
X259681D01*
X256722Y119050D02*
X259478D01*
X256722Y111963D02*
X259478D01*
Y119050D01*
X256722Y111963D02*
Y119050D01*
X258100Y114325D02*
Y116687D01*
X256919Y115506D02*
X259281D01*
X256922Y79843D02*
X259678D01*
X256922Y72757D02*
X259678D01*
Y79843D01*
X256922Y72757D02*
Y79843D01*
X258300Y75119D02*
Y77481D01*
X257119Y76300D02*
X259481D01*
X200532Y40300D02*
X204468D01*
X202500Y38331D02*
Y42268D01*
X206240Y32426D02*
Y48174D01*
X198760Y32426D02*
Y48174D01*
X206240D01*
X198760Y32426D02*
X206240D01*
X230500Y61803D02*
Y65740D01*
X228532Y63772D02*
X232469D01*
X222626Y67512D02*
X238374D01*
X222626Y60031D02*
X238374D01*
X222626D02*
Y67512D01*
X238374Y60031D02*
Y67512D01*
X215032Y63772D02*
X218969D01*
X217000Y61803D02*
Y65740D01*
X229815Y41532D02*
Y45469D01*
X227847Y43500D02*
X231784D01*
X221941Y47240D02*
X237689D01*
X221941Y39760D02*
X237689D01*
X221941D02*
Y47240D01*
X237689Y39760D02*
Y47240D01*
X26961Y127075D02*
X30898D01*
X28929Y125106D02*
Y129043D01*
X18500Y165220D02*
Y169158D01*
X16532Y167189D02*
X20469D01*
X314937Y67575D02*
Y71512D01*
X312968Y69543D02*
X316905D01*
X307063Y73283D02*
X322811D01*
X307063Y65803D02*
X322811D01*
Y73283D01*
X307063Y65803D02*
Y73283D01*
X315043Y74165D02*
Y76921D01*
X307957Y74165D02*
Y76921D01*
X315043D01*
X307957Y74165D02*
X315043D01*
X310319Y75543D02*
X312681D01*
X311500Y74362D02*
Y76724D01*
X315185Y80032D02*
Y83969D01*
X313216Y82000D02*
X317154D01*
X307311Y85740D02*
X323059D01*
X307311Y78260D02*
X323059D01*
Y85740D01*
X307311Y78260D02*
Y85740D01*
X315543Y87122D02*
Y89878D01*
X308457Y87122D02*
Y89878D01*
X315543D01*
X308457Y87122D02*
X315543D01*
X310819Y88500D02*
X313181D01*
X312000Y87319D02*
Y89681D01*
X19957Y93067D02*
Y95823D01*
X27043Y93067D02*
Y95823D01*
X19957Y93067D02*
X27043D01*
X19957Y95823D02*
X27043D01*
X22319Y94445D02*
X24681D01*
X23500Y93264D02*
Y95626D01*
X20214Y98476D02*
Y102413D01*
X18246Y100445D02*
X22183D01*
X12340Y96705D02*
X28088D01*
X12340Y104185D02*
X28088D01*
X12340Y96705D02*
Y104185D01*
X28088Y96705D02*
Y104185D01*
X18957Y76122D02*
Y78878D01*
X26043Y76122D02*
Y78878D01*
X18957Y76122D02*
X26043D01*
X18957Y78878D02*
X26043D01*
X21319Y77500D02*
X23681D01*
X22500Y76319D02*
Y78681D01*
X19500Y82032D02*
Y85969D01*
X17531Y84000D02*
X21468D01*
X11626Y80260D02*
X27374D01*
X11626Y87740D02*
X27374D01*
X11626Y80260D02*
Y87740D01*
X27374Y80260D02*
Y87740D01*
X19494Y64622D02*
Y67378D01*
X26581Y64622D02*
Y67378D01*
X19494Y64622D02*
X26581D01*
X19494Y67378D02*
X26581D01*
X21857Y66000D02*
X24219D01*
X23038Y64819D02*
Y67181D01*
X19538Y70031D02*
Y73968D01*
X17569Y72000D02*
X21506D01*
X11664Y68260D02*
X27412D01*
X11664Y75740D02*
X27412D01*
X11664Y68260D02*
Y75740D01*
X27412Y68260D02*
Y75740D01*
X315713Y100622D02*
Y103378D01*
X308626Y100622D02*
Y103378D01*
X315713D01*
X308626Y100622D02*
X315713D01*
X310988Y102000D02*
X313350D01*
X312169Y100819D02*
Y103181D01*
X316500Y92532D02*
Y96469D01*
X314531Y94500D02*
X318468D01*
X308626Y98240D02*
X324374D01*
X308626Y90760D02*
X324374D01*
Y98240D01*
X308626Y90760D02*
Y98240D01*
X237339Y3079D02*
Y12921D01*
X254661Y3079D02*
Y12921D01*
X237339D02*
X254661D01*
X237339Y3079D02*
X254661D01*
X244032Y8000D02*
X247969D01*
X246000Y6032D02*
Y9968D01*
X237339Y13579D02*
Y23421D01*
X254661Y13579D02*
Y23421D01*
X237339D02*
X254661D01*
X237339Y13579D02*
X254661D01*
X244032Y18500D02*
X247969D01*
X246000Y16532D02*
Y20469D01*
X237339Y24079D02*
Y33921D01*
X254661Y24079D02*
Y33921D01*
X237339D02*
X254661D01*
X237339Y24079D02*
X254661D01*
X244032Y29000D02*
X247969D01*
X246000Y27031D02*
Y30968D01*
X265327Y99197D02*
G03*
X265327Y99197I-787J0D01*
G01*
X156909Y150784D02*
G03*
X156909Y150784I-1969J0D01*
G01*
X210606Y94662D02*
G03*
X210606Y94662I-1969J0D01*
G01*
X264927Y117368D02*
G03*
X264927Y117368I-787J0D01*
G01*
X264727Y58820D02*
G03*
X264727Y58820I-787J0D01*
G01*
X265127Y78162D02*
G03*
X265127Y78162I-787J0D01*
G01*
X213827Y45862D02*
G03*
X213827Y45862I-787J0D01*
G01*
X215327Y66134D02*
G03*
X215327Y66134I-787J0D01*
G01*
X49807Y90875D02*
X63193D01*
X49807Y83788D02*
X63193D01*
Y90875D01*
X49807Y83788D02*
Y90875D01*
X54335Y92650D02*
Y95013D01*
X50004Y92650D02*
Y95013D01*
X54335D01*
X50004Y92650D02*
X54335D01*
X193193Y159957D02*
Y167043D01*
X179807Y159957D02*
X193193D01*
X179807D02*
Y167043D01*
X193193D01*
X179807Y176457D02*
X193193D01*
X179807Y183543D02*
X193193D01*
X179807Y176457D02*
Y183543D01*
X193193Y176457D02*
Y183543D01*
Y151957D02*
Y159043D01*
X179807Y151957D02*
X193193D01*
X179807D02*
Y159043D01*
X193193D01*
X179807Y168185D02*
X193193D01*
X179807Y175272D02*
X193193D01*
X179807Y168185D02*
Y175272D01*
X193193Y168185D02*
Y175272D01*
X49807Y66375D02*
X63193D01*
X49807Y59288D02*
X63193D01*
Y66375D01*
X49807Y59288D02*
Y66375D01*
X54335Y67819D02*
Y70181D01*
X50004Y67819D02*
Y70181D01*
X54335D01*
X50004Y67819D02*
X54335D01*
X54827Y112856D02*
Y115218D01*
X50496Y112856D02*
Y115218D01*
X54827D01*
X50496Y112856D02*
X54827D01*
X50299Y111080D02*
X63685D01*
X50299Y103994D02*
X63685D01*
Y111080D01*
X50299Y103994D02*
Y111080D01*
X54335Y79953D02*
Y82315D01*
X50004Y79953D02*
Y82315D01*
X54335D01*
X50004Y79953D02*
X54335D01*
X49807Y78504D02*
X63193D01*
X49807Y71417D02*
X63193D01*
Y78504D01*
X49807Y71417D02*
Y78504D01*
X312346Y164319D02*
Y166681D01*
X308016Y164319D02*
Y166681D01*
X312346D01*
X308016Y164319D02*
X312346D01*
X307819Y163043D02*
X321205D01*
X307819Y155957D02*
X321205D01*
Y163043D01*
X307819Y155957D02*
Y163043D01*
X312346Y152319D02*
Y154681D01*
X308016Y152319D02*
Y154681D01*
X312346D01*
X308016Y152319D02*
X312346D01*
X307819Y150543D02*
X321205D01*
X307819Y143457D02*
X321205D01*
Y150543D01*
X307819Y143457D02*
Y150543D01*
X312346Y139319D02*
Y141681D01*
X308016Y139319D02*
Y141681D01*
X312346D01*
X308016Y139319D02*
X312346D01*
X307819Y138158D02*
X321205D01*
X307819Y131072D02*
X321205D01*
Y138158D01*
X307819Y131072D02*
Y138158D01*
X255319Y95835D02*
X257681D01*
X255319Y100165D02*
X257681D01*
Y95835D02*
Y100165D01*
X255319Y95835D02*
Y100165D01*
X254043Y86992D02*
Y100378D01*
X246957Y86992D02*
Y100378D01*
Y86992D02*
X254043D01*
X246957Y100378D02*
X254043D01*
X66444Y13432D02*
X71956D01*
X66444Y4968D02*
X71956D01*
Y13432D01*
X66444Y4968D02*
Y13432D01*
X76844D02*
X82356D01*
X76844Y4968D02*
X82356D01*
Y13432D01*
X76844Y4968D02*
Y13432D01*
X55244Y13732D02*
X60756D01*
X55244Y5268D02*
X60756D01*
Y13732D01*
X55244Y5268D02*
Y13732D01*
X270268Y5244D02*
Y10756D01*
X278732Y5244D02*
Y10756D01*
X270268D02*
X278732D01*
X270268Y5244D02*
X278732D01*
X44744Y13732D02*
X50256D01*
X44744Y5268D02*
X50256D01*
Y13732D01*
X44744Y5268D02*
Y13732D01*
X270268Y15707D02*
Y21219D01*
X278732Y15707D02*
Y21219D01*
X270268D02*
X278732D01*
X270268Y15707D02*
X278732D01*
X262866Y92701D02*
Y100969D01*
X271134Y92701D02*
Y100969D01*
X262866D02*
X271134D01*
X262866Y92701D02*
X271134D01*
X254043Y87142D02*
Y100528D01*
X246957Y87142D02*
Y100528D01*
X254043D01*
X246957Y87142D02*
X254043D01*
X274807Y100386D02*
X288193D01*
X274807Y93299D02*
X288193D01*
X274807D02*
Y100386D01*
X288193Y93299D02*
Y100386D01*
X103156Y140950D02*
Y145280D01*
X105518Y140950D02*
Y145280D01*
X103156Y140950D02*
X105518D01*
X103156Y145280D02*
X105518D01*
X74081Y150918D02*
Y155249D01*
X71719Y150918D02*
Y155249D01*
X74081D01*
X71719Y150918D02*
X74081D01*
X115530Y147733D02*
Y154623D01*
X119270Y147733D02*
Y154623D01*
X115530Y147733D02*
X119270D01*
X115530Y154623D02*
X119270D01*
X111794Y148950D02*
Y153280D01*
X109432Y148950D02*
Y153280D01*
X111794D01*
X109432Y148950D02*
X111794D01*
X103719Y164450D02*
Y168780D01*
X106081Y164450D02*
Y168780D01*
X103719Y164450D02*
X106081D01*
X103719Y168780D02*
X106081D01*
X110581Y164450D02*
Y168780D01*
X108219Y164450D02*
Y168780D01*
X110581D01*
X108219Y164450D02*
X110581D01*
X146673Y159052D02*
X158484D01*
X146673Y147241D02*
X158484D01*
X146673D02*
Y159052D01*
X158484Y147241D02*
Y159052D01*
X137744Y156465D02*
Y158827D01*
X133413Y156465D02*
Y158827D01*
Y156465D02*
X137744D01*
X133413Y158827D02*
X137744D01*
X151398Y166981D02*
X153760D01*
X151398Y171312D02*
X153760D01*
X151398Y166981D02*
Y171312D01*
X153760Y166981D02*
Y171312D01*
X153366Y137481D02*
X155728D01*
X153366Y141812D02*
X155728D01*
X153366Y137481D02*
Y141812D01*
X155728Y137481D02*
Y141812D01*
X133913Y151465D02*
Y153828D01*
X138244Y151465D02*
Y153828D01*
X133913D02*
X138244D01*
X133913Y151465D02*
X138244D01*
X140398Y166812D02*
X142760D01*
X140398Y162481D02*
X142760D01*
Y166812D01*
X140398Y162481D02*
Y166812D01*
X146622Y128954D02*
Y142339D01*
X139535Y128954D02*
Y142339D01*
X146622D01*
X139535Y128954D02*
X146622D01*
X149429Y137481D02*
X151791D01*
X149429Y141812D02*
X151791D01*
X149429Y137481D02*
Y141812D01*
X151791Y137481D02*
Y141812D01*
X158898Y134981D02*
X161260D01*
X158898Y139312D02*
X161260D01*
X158898Y134981D02*
Y139312D01*
X161260Y134981D02*
Y139312D01*
X164398Y147312D02*
X166760D01*
X164398Y142981D02*
X166760D01*
Y147312D01*
X164398Y142981D02*
Y147312D01*
X146398Y163981D02*
X148760D01*
X146398Y168312D02*
X148760D01*
X146398Y163981D02*
Y168312D01*
X148760Y163981D02*
Y168312D01*
X145819Y12665D02*
X148181D01*
X145819Y8335D02*
X148181D01*
Y12665D01*
X145819Y8335D02*
Y12665D01*
X149744Y5468D02*
Y13932D01*
X155256Y5468D02*
Y13932D01*
X149744Y5468D02*
X155256D01*
X149744Y13932D02*
X155256D01*
X195925Y136638D02*
Y141362D01*
X199075D01*
Y136638D02*
Y141362D01*
X195925Y136638D02*
X199075D01*
X234638Y198075D02*
X239362D01*
Y194925D02*
Y198075D01*
X234638Y194925D02*
X239362D01*
X234638D02*
Y198075D01*
X205095Y86395D02*
X216905D01*
X205095Y98206D02*
X216905D01*
Y86395D02*
Y98206D01*
X205095Y86395D02*
Y98206D01*
X319065Y192719D02*
Y195081D01*
X314735Y192719D02*
Y195081D01*
Y192719D02*
X319065D01*
X314735Y195081D02*
X319065D01*
X318565Y203519D02*
Y205881D01*
X314235Y203519D02*
Y205881D01*
Y203519D02*
X318565D01*
X314235Y205881D02*
X318565D01*
X128819Y13665D02*
X131181D01*
X128819Y9335D02*
X131181D01*
Y13665D01*
X128819Y9335D02*
Y13665D01*
X113398Y13165D02*
X115760D01*
X113398Y8835D02*
X115760D01*
Y13165D01*
X113398Y8835D02*
Y13165D01*
X97319D02*
X99681D01*
X97319Y8835D02*
X99681D01*
Y13165D01*
X97319Y8835D02*
Y13165D01*
X221744Y89532D02*
X227256D01*
X221744Y81068D02*
X227256D01*
Y89532D01*
X221744Y81068D02*
Y89532D01*
X232744Y89068D02*
X238256D01*
X232744Y97532D02*
X238256D01*
X232744Y89068D02*
Y97532D01*
X238256Y89068D02*
Y97532D01*
X132911Y5968D02*
Y14432D01*
X138423Y5968D02*
Y14432D01*
X132911Y5968D02*
X138423D01*
X132911Y14432D02*
X138423D01*
X117577Y5468D02*
Y13932D01*
X123089Y5468D02*
Y13932D01*
X117577Y5468D02*
X123089D01*
X117577Y13932D02*
X123089D01*
X102044Y5468D02*
Y13932D01*
X107556Y5468D02*
Y13932D01*
X102044Y5468D02*
X107556D01*
X102044Y13932D02*
X107556D01*
X187307Y87969D02*
X200693D01*
X187307Y98599D02*
X200693D01*
Y87969D02*
Y98599D01*
X187307Y87969D02*
Y98599D01*
X218685Y100607D02*
Y113993D01*
X229315Y100607D02*
Y113993D01*
X218685Y100607D02*
X229315D01*
X218685Y113993D02*
X229315D01*
X321968Y207856D02*
X330432D01*
X321968Y202344D02*
X330432D01*
X321968D02*
Y207856D01*
X330432Y202344D02*
Y207856D01*
X322268Y196856D02*
X330732D01*
X322268Y191344D02*
X330732D01*
X322268D02*
Y196856D01*
X330732Y191344D02*
Y196856D01*
X274307Y118550D02*
X287693D01*
X274307Y111463D02*
X287693D01*
X274307D02*
Y118550D01*
X287693Y111463D02*
Y118550D01*
X253643Y105313D02*
Y118699D01*
X246557Y105313D02*
Y118699D01*
X253643D01*
X246557Y105313D02*
X253643D01*
X262466Y110872D02*
Y119140D01*
X270734Y110872D02*
Y119140D01*
X262466D02*
X270734D01*
X262466Y110872D02*
X270734D01*
X262266Y52324D02*
Y60592D01*
X270534Y52324D02*
Y60592D01*
X262266D02*
X270534D01*
X262266Y52324D02*
X270534D01*
X256719Y59124D02*
X259081D01*
X256719Y54793D02*
X259081D01*
Y59124D01*
X256719Y54793D02*
Y59124D01*
X253443Y46765D02*
Y60151D01*
X246357Y46765D02*
Y60151D01*
X253443D01*
X246357Y46765D02*
X253443D01*
X274307Y60043D02*
X287693D01*
X274307Y52957D02*
X287693D01*
X274307D02*
Y60043D01*
X287693Y52957D02*
Y60043D01*
X274807Y79343D02*
X288193D01*
X274807Y72257D02*
X288193D01*
X274807D02*
Y79343D01*
X288193Y72257D02*
Y79343D01*
X253843Y66107D02*
Y79493D01*
X246757Y66107D02*
Y79493D01*
X253843D01*
X246757Y66107D02*
X253843D01*
X262666Y71666D02*
Y79934D01*
X270934Y71666D02*
Y79934D01*
X262666D02*
X270934D01*
X262666Y71666D02*
X270934D01*
X14465Y56291D02*
X22339D01*
X9741Y54323D02*
X14465D01*
X4229Y56291D02*
Y58652D01*
X3048D02*
X4229D01*
X3048Y57078D02*
Y58652D01*
X292Y57078D02*
X3048D01*
X14465Y54323D02*
Y56291D01*
X9741Y54323D02*
Y56291D01*
X4230D02*
X9741D01*
X4230Y117709D02*
X9741D01*
Y119677D01*
X14465Y117709D02*
Y119677D01*
X292Y116922D02*
X3048D01*
Y115348D02*
Y116922D01*
Y115348D02*
X4229D01*
Y117710D01*
X9741Y119677D02*
X14465D01*
X14465Y117710D02*
X22339D01*
X292Y57079D02*
Y116922D01*
X22339Y57079D02*
Y117710D01*
X312263Y106812D02*
X320138D01*
X320137Y108780D02*
X324862D01*
X330373Y104450D02*
Y106812D01*
Y104450D02*
X331554D01*
Y106025D01*
X334310D01*
X320137Y106811D02*
Y108780D01*
X324862Y106811D02*
Y108780D01*
Y106811D02*
X330372D01*
X324862Y45394D02*
X330372D01*
X324862Y43425D02*
Y45394D01*
X320137Y43425D02*
Y45394D01*
X331554Y46180D02*
X334310D01*
X331554D02*
Y47755D01*
X330373D02*
X331554D01*
X330373Y45393D02*
Y47755D01*
X320137Y43425D02*
X324862D01*
X312263Y45393D02*
X320138D01*
X334310Y46180D02*
Y106024D01*
X312263Y45393D02*
Y106024D01*
X312161Y116790D02*
Y177421D01*
X334208Y117578D02*
Y177421D01*
X312161Y116790D02*
X320035D01*
X320035Y114823D02*
X324759D01*
X330271Y116790D02*
Y119152D01*
X331452D01*
Y117578D02*
Y119152D01*
Y117578D02*
X334208D01*
X320035Y114823D02*
Y116791D01*
X324759Y114823D02*
Y116791D01*
X330270D01*
X324759Y178209D02*
X330270D01*
X324759D02*
Y180177D01*
X320035Y178209D02*
Y180177D01*
X331452Y177422D02*
X334208D01*
X331452Y175848D02*
Y177422D01*
X330271Y175848D02*
X331452D01*
X330271D02*
Y178209D01*
X320035Y180177D02*
X324759D01*
X312161Y178209D02*
X320035D01*
X207319Y46016D02*
X209681D01*
X207319Y41685D02*
X209681D01*
Y46016D01*
X207319Y41685D02*
Y46016D01*
X211366Y39366D02*
Y47634D01*
X219634Y39366D02*
Y47634D01*
X211366D02*
X219634D01*
X211366Y39366D02*
X219634D01*
X207819Y65665D02*
X210181D01*
X207819Y61335D02*
X210181D01*
Y65665D01*
X207819Y61335D02*
Y65665D01*
X206043Y53845D02*
Y67231D01*
X198957Y53845D02*
Y67231D01*
X206043D01*
X198957Y53845D02*
X206043D01*
X257319Y99500D02*
X259681D01*
X257319Y95169D02*
X259681D01*
Y99500D01*
X257319Y95169D02*
Y99500D01*
X256919Y117672D02*
X259281D01*
X256919Y113341D02*
X259281D01*
Y117672D01*
X256919Y113341D02*
Y117672D01*
X257119Y78465D02*
X259481D01*
X257119Y74135D02*
X259481D01*
Y78465D01*
X257119Y74135D02*
Y78465D01*
X206043Y33607D02*
Y46993D01*
X198957Y33607D02*
Y46993D01*
X206043D01*
X198957Y33607D02*
X206043D01*
X223807Y67315D02*
X237193D01*
X223807Y60228D02*
X237193D01*
X223807D02*
Y67315D01*
X237193Y60228D02*
Y67315D01*
X212866Y59638D02*
Y67905D01*
X221134Y59638D02*
Y67905D01*
X212866D02*
X221134D01*
X212866Y59638D02*
X221134D01*
X223122Y47043D02*
X236508D01*
X223122Y39957D02*
X236508D01*
X223122D02*
Y47043D01*
X236508Y39957D02*
Y47043D01*
X27354Y124713D02*
Y129437D01*
X30504D01*
Y124713D02*
Y129437D01*
X27354Y124713D02*
X30504D01*
X22339Y137268D02*
Y197898D01*
X292Y137268D02*
Y197111D01*
X14465Y197898D02*
X22339D01*
X9741Y199866D02*
X14465D01*
X4229Y195537D02*
Y197898D01*
X3048Y195537D02*
X4229D01*
X3048D02*
Y197111D01*
X292D02*
X3048D01*
X14465Y197898D02*
Y199866D01*
X9741Y197898D02*
Y199866D01*
X4230Y197898D02*
X9741D01*
X4230Y136480D02*
X9741D01*
Y134512D02*
Y136480D01*
X14465Y134512D02*
Y136480D01*
X292Y137267D02*
X3048D01*
Y138841D01*
X4229D01*
Y136479D02*
Y138841D01*
X9741Y134512D02*
X14465D01*
X14465Y136479D02*
X22339D01*
X308244Y73087D02*
X321630D01*
X308244Y66000D02*
X321630D01*
Y73087D01*
X308244Y66000D02*
Y73087D01*
X313665Y74362D02*
Y76724D01*
X309335Y74362D02*
Y76724D01*
X313665D01*
X309335Y74362D02*
X313665D01*
X308492Y85543D02*
X321878D01*
X308492Y78457D02*
X321878D01*
Y85543D01*
X308492Y78457D02*
Y85543D01*
X314165Y87319D02*
Y89681D01*
X309835Y87319D02*
Y89681D01*
X314165D01*
X309835Y87319D02*
X314165D01*
X21335Y93264D02*
Y95626D01*
X25665Y93264D02*
Y95626D01*
X21335Y93264D02*
X25665D01*
X21335Y95626D02*
X25665D01*
X13521Y96902D02*
X26907D01*
X13521Y103988D02*
X26907D01*
X13521Y96902D02*
Y103988D01*
X26907Y96902D02*
Y103988D01*
X20335Y76319D02*
Y78681D01*
X24665Y76319D02*
Y78681D01*
X20335Y76319D02*
X24665D01*
X20335Y78681D02*
X24665D01*
X12807Y80457D02*
X26193D01*
X12807Y87543D02*
X26193D01*
X12807Y80457D02*
Y87543D01*
X26193Y80457D02*
Y87543D01*
X20873Y64819D02*
Y67181D01*
X25203Y64819D02*
Y67181D01*
X20873Y64819D02*
X25203D01*
X20873Y67181D02*
X25203D01*
X12845Y68457D02*
X26231D01*
X12845Y75543D02*
X26231D01*
X12845Y68457D02*
Y75543D01*
X26231Y68457D02*
Y75543D01*
X314335Y100819D02*
Y103181D01*
X310004Y100819D02*
Y103181D01*
X314335D01*
X310004Y100819D02*
X314335D01*
X309807Y98043D02*
X323193D01*
X309807Y90957D02*
X323193D01*
Y98043D01*
X309807Y90957D02*
Y98043D01*
X241768Y5244D02*
Y10756D01*
X250232Y5244D02*
Y10756D01*
X241768D02*
X250232D01*
X241768Y5244D02*
X250232D01*
X241768Y15744D02*
Y21256D01*
X250232Y15744D02*
Y21256D01*
X241768D02*
X250232D01*
X241768Y15744D02*
X250232D01*
X241768Y26244D02*
Y31756D01*
X250232Y26244D02*
Y31756D01*
X241768D02*
X250232D01*
X241768Y26244D02*
X250232D01*
D45*
X66437Y35827D02*
Y85827D01*
Y35827D02*
X191437D01*
Y85827D01*
X66437D02*
X191437D01*
X251878Y213496D02*
X297153D01*
Y152472D02*
Y213496D01*
X251878Y152472D02*
X297153D01*
X251878D02*
Y213496D01*
X273532Y170189D02*
X277468D01*
X275500Y168220D02*
Y172158D01*
X334646Y-19500D02*
Y-1394D01*
X0Y-19500D02*
Y-1394D01*
X180818Y-18500D02*
X334646D01*
X0D02*
X150627D01*
X328646Y-16500D02*
X334646Y-18500D01*
X328646Y-20500D02*
X334646Y-18500D01*
X0D02*
X6000Y-20500D01*
X0Y-18500D02*
X6000Y-16500D01*
X-12500Y212598D02*
X-1394D01*
X-12500Y0D02*
X-1394D01*
X-11500Y106299D02*
Y212598D01*
Y0D02*
Y106299D01*
X-13500Y206598D02*
X-11500Y212598D01*
X-9500Y206598D01*
X-11500Y0D02*
X-9500Y6000D01*
X-13500D02*
X-11500Y0D01*
D46*
X261882Y101953D02*
X272118D01*
X261882Y91716D02*
Y101953D01*
X272118Y91716D02*
Y101953D01*
X261882Y91716D02*
X272118D01*
X145689Y160036D02*
X159468D01*
Y146257D02*
Y160036D01*
X145689Y146257D02*
Y160036D01*
Y146257D02*
X159468D01*
X194153Y136244D02*
Y141756D01*
X200847D01*
Y136244D02*
Y141756D01*
X194153Y136244D02*
X200847D01*
X234244Y199846D02*
X239756D01*
Y193154D02*
Y199846D01*
X234244Y193154D02*
X239756D01*
X234244D02*
Y199846D01*
X203716Y85804D02*
X218284D01*
X203716Y98796D02*
X218284D01*
Y85804D02*
Y98796D01*
X203716Y85804D02*
Y98796D01*
X261482Y120124D02*
X271718D01*
X261482Y109888D02*
Y120124D01*
X271718Y109888D02*
Y120124D01*
X261482Y109888D02*
X271718D01*
X261282Y61576D02*
X271518D01*
X261282Y51340D02*
Y61576D01*
X271518Y51340D02*
Y61576D01*
X261282Y51340D02*
X271518D01*
X261682Y80918D02*
X271918D01*
X261682Y70682D02*
Y80918D01*
X271918Y70682D02*
Y80918D01*
X261682Y70682D02*
X271918D01*
X-102Y51961D02*
X27850D01*
X-102D02*
Y122039D01*
X27850Y51961D02*
Y122039D01*
X-102D02*
X27850D01*
X306752Y111142D02*
X334705D01*
Y41063D02*
Y111142D01*
X306752Y41063D02*
Y111142D01*
Y41063D02*
X334705D01*
X306650Y112461D02*
X334602D01*
X306650D02*
Y182539D01*
X334602Y112461D02*
Y182539D01*
X306650D02*
X334602D01*
X210382Y48618D02*
X220618D01*
X210382Y38382D02*
Y48618D01*
X220618Y38382D02*
Y48618D01*
X210382Y38382D02*
X220618D01*
X211882Y68890D02*
X222118D01*
X211882Y58653D02*
Y68890D01*
X222118Y58653D02*
Y68890D01*
X211882Y58653D02*
X222118D01*
X25583Y124319D02*
Y129831D01*
X32276D01*
Y124319D02*
Y129831D01*
X25583Y124319D02*
X32276D01*
X-102Y202228D02*
X27850D01*
Y132150D02*
Y202228D01*
X-102Y132150D02*
Y202228D01*
Y132150D02*
X27850D01*
D47*
X0Y0D02*
Y212598D01*
X334646D01*
Y0D02*
Y212598D01*
X0Y0D02*
X334646D01*
D48*
X152227Y-17101D02*
X153227Y-16101D01*
X155226D01*
X156226Y-17101D01*
Y-18100D01*
X155226Y-19100D01*
X156226Y-20100D01*
Y-21099D01*
X155226Y-22099D01*
X153227D01*
X152227Y-21099D01*
Y-20100D01*
X153227Y-19100D01*
X152227Y-18100D01*
Y-17101D01*
X153227Y-19100D02*
X155226D01*
X162224Y-16101D02*
X158225D01*
Y-19100D01*
X160225Y-18100D01*
X161224D01*
X162224Y-19100D01*
Y-21099D01*
X161224Y-22099D01*
X159225D01*
X158225Y-21099D01*
X164223Y-22099D02*
Y-21099D01*
X165223D01*
Y-22099D01*
X164223D01*
X169222Y-17101D02*
X170221Y-16101D01*
X172221D01*
X173220Y-17101D01*
Y-21099D01*
X172221Y-22099D01*
X170221D01*
X169222Y-21099D01*
Y-17101D01*
X175220D02*
X176219Y-16101D01*
X178219D01*
X179218Y-17101D01*
Y-21099D01*
X178219Y-22099D01*
X176219D01*
X175220Y-21099D01*
Y-17101D01*
X-20998Y48499D02*
Y44500D01*
X-17999D01*
X-18999Y46499D01*
Y47499D01*
X-17999Y48499D01*
X-16000D01*
X-15000Y47499D01*
Y45500D01*
X-16000Y44500D01*
X-15000Y53497D02*
X-20998D01*
X-17999Y50498D01*
Y54497D01*
X-15000Y56496D02*
X-16000D01*
Y57496D01*
X-15000D01*
Y56496D01*
X-19998Y61494D02*
X-20998Y62494D01*
Y64494D01*
X-19998Y65493D01*
X-16000D01*
X-15000Y64494D01*
Y62494D01*
X-16000Y61494D01*
X-19998D01*
Y67493D02*
X-20998Y68492D01*
Y70492D01*
X-19998Y71491D01*
X-16000D01*
X-15000Y70492D01*
Y68492D01*
X-16000Y67493D01*
X-19998D01*
D80*
X24898Y149472D02*
D03*
Y153409D02*
D03*
X309602Y157343D02*
D03*
X309705Y66260D02*
D03*
X24898Y110622D02*
D03*
Y108653D02*
D03*
Y106685D02*
D03*
Y104717D02*
D03*
Y102748D02*
D03*
Y100779D02*
D03*
Y94874D02*
D03*
Y88968D02*
D03*
Y87000D02*
D03*
Y85031D02*
D03*
Y83063D02*
D03*
Y81094D02*
D03*
Y79126D02*
D03*
Y77157D02*
D03*
Y75189D02*
D03*
Y73220D02*
D03*
Y71252D02*
D03*
Y69283D02*
D03*
Y67315D02*
D03*
Y65346D02*
D03*
X309705Y52480D02*
D03*
Y54449D02*
D03*
Y56417D02*
D03*
Y58386D02*
D03*
Y60354D02*
D03*
Y62323D02*
D03*
Y68228D02*
D03*
Y70197D02*
D03*
Y74134D02*
D03*
Y76102D02*
D03*
Y78071D02*
D03*
Y80039D02*
D03*
Y82008D02*
D03*
Y83976D02*
D03*
Y85945D02*
D03*
Y87913D02*
D03*
Y89882D02*
D03*
Y91850D02*
D03*
Y93819D02*
D03*
Y95787D02*
D03*
Y97756D02*
D03*
X309602Y169153D02*
D03*
Y167185D02*
D03*
Y165217D02*
D03*
Y163248D02*
D03*
Y161279D02*
D03*
Y159311D02*
D03*
Y155374D02*
D03*
Y151437D02*
D03*
Y147500D02*
D03*
Y143563D02*
D03*
Y141595D02*
D03*
Y139626D02*
D03*
Y137657D02*
D03*
Y135689D02*
D03*
Y133721D02*
D03*
Y131752D02*
D03*
Y129783D02*
D03*
Y127815D02*
D03*
Y125847D02*
D03*
Y123878D02*
D03*
X24898Y145535D02*
D03*
Y147504D02*
D03*
Y151441D02*
D03*
Y155378D02*
D03*
Y159315D02*
D03*
Y163252D02*
D03*
Y167189D02*
D03*
Y171126D02*
D03*
Y173094D02*
D03*
Y175063D02*
D03*
Y177032D02*
D03*
Y179000D02*
D03*
Y180968D02*
D03*
Y182937D02*
D03*
Y184906D02*
D03*
Y186874D02*
D03*
Y188842D02*
D03*
Y190811D02*
D03*
Y169158D02*
D03*
Y165220D02*
D03*
Y161284D02*
D03*
Y157346D02*
D03*
Y92905D02*
D03*
Y90937D02*
D03*
X309602Y153405D02*
D03*
Y149469D02*
D03*
Y145531D02*
D03*
X309705Y64291D02*
D03*
X24898Y98811D02*
D03*
Y96842D02*
D03*
X309705Y72165D02*
D03*
D81*
X16388Y31955D02*
D03*
X19538D02*
D03*
X14813D02*
D03*
X17963D02*
D03*
X21113D02*
D03*
X24262D02*
D03*
X27412D02*
D03*
X14813Y13845D02*
D03*
X16388D02*
D03*
X17963D02*
D03*
X19538D02*
D03*
X21113D02*
D03*
X22687D02*
D03*
X24262D02*
D03*
X25837D02*
D03*
X27412D02*
D03*
X28987D02*
D03*
X25837Y31955D02*
D03*
X22687D02*
D03*
X28987D02*
D03*
X313287Y30055D02*
D03*
X316437D02*
D03*
X306988D02*
D03*
X310138D02*
D03*
X318012Y11945D02*
D03*
X314862D02*
D03*
X311713D02*
D03*
X305413D02*
D03*
X306988D02*
D03*
X308563D02*
D03*
X310138D02*
D03*
X319587D02*
D03*
Y30055D02*
D03*
X305413D02*
D03*
X308563D02*
D03*
X311713D02*
D03*
X314862D02*
D03*
X318012D02*
D03*
X313287Y11945D02*
D03*
X316437D02*
D03*
D82*
X30896Y13845D02*
D03*
Y31955D02*
D03*
X12904D02*
D03*
X12904Y13845D02*
D03*
X303504Y11945D02*
D03*
X321496D02*
D03*
Y30055D02*
D03*
X303504D02*
D03*
D83*
X68650Y139875D02*
D03*
Y122158D02*
D03*
X37350Y139875D02*
D03*
Y122158D02*
D03*
X44850Y96642D02*
D03*
Y114358D02*
D03*
X76150Y96642D02*
D03*
Y114358D02*
D03*
D84*
X69200Y13137D02*
D03*
Y5263D02*
D03*
X79600Y13137D02*
D03*
Y5263D02*
D03*
X58000Y13437D02*
D03*
Y5563D02*
D03*
X47500Y13437D02*
D03*
Y5563D02*
D03*
X224500Y89237D02*
D03*
Y81363D02*
D03*
X235500Y89363D02*
D03*
Y97237D02*
D03*
D85*
X270563Y8000D02*
D03*
X278437D02*
D03*
X270563Y18463D02*
D03*
X278437D02*
D03*
X242063Y8000D02*
D03*
X249937D02*
D03*
X242063Y18500D02*
D03*
X249937D02*
D03*
X242063Y29000D02*
D03*
X249937D02*
D03*
D86*
X263161Y99394D02*
D03*
Y96835D02*
D03*
Y94276D02*
D03*
X270839D02*
D03*
Y96835D02*
D03*
Y99394D02*
D03*
X262761Y117565D02*
D03*
Y115006D02*
D03*
Y112447D02*
D03*
X270439D02*
D03*
Y115006D02*
D03*
Y117565D02*
D03*
X262561Y59017D02*
D03*
Y56458D02*
D03*
Y53899D02*
D03*
X270239D02*
D03*
Y56458D02*
D03*
Y59017D02*
D03*
X262961Y78359D02*
D03*
Y75800D02*
D03*
Y73241D02*
D03*
X270639D02*
D03*
Y75800D02*
D03*
Y78359D02*
D03*
X211661Y46059D02*
D03*
Y43500D02*
D03*
Y40941D02*
D03*
X219339D02*
D03*
Y43500D02*
D03*
Y46059D02*
D03*
X213161Y66331D02*
D03*
Y63772D02*
D03*
Y61213D02*
D03*
X220839D02*
D03*
Y63772D02*
D03*
Y66331D02*
D03*
D87*
X267000Y96835D02*
D03*
X266600Y115006D02*
D03*
X266400Y56458D02*
D03*
X266800Y75800D02*
D03*
X215500Y43500D02*
D03*
X217000Y63772D02*
D03*
D88*
X250500Y99150D02*
D03*
Y88520D02*
D03*
X143079Y140961D02*
D03*
Y130332D02*
D03*
X250100Y117321D02*
D03*
Y106691D02*
D03*
X249900Y58773D02*
D03*
Y48143D02*
D03*
X250300Y78115D02*
D03*
Y67485D02*
D03*
X202500Y65853D02*
D03*
Y55223D02*
D03*
Y45615D02*
D03*
Y34985D02*
D03*
D89*
X276185Y96842D02*
D03*
X286815D02*
D03*
X275685Y115006D02*
D03*
X286315D02*
D03*
X275685Y56500D02*
D03*
X286315D02*
D03*
X276185Y75800D02*
D03*
X286815D02*
D03*
X225185Y63772D02*
D03*
X235815D02*
D03*
X224500Y43500D02*
D03*
X235130D02*
D03*
D90*
X223458Y132239D02*
D03*
X205742D02*
D03*
X223458Y163539D02*
D03*
X205742D02*
D03*
X248458Y152239D02*
D03*
X230742D02*
D03*
X248458Y183539D02*
D03*
X230742D02*
D03*
X198458Y152239D02*
D03*
X180742D02*
D03*
X198458Y183539D02*
D03*
X180742D02*
D03*
X223458Y172239D02*
D03*
X205742D02*
D03*
X223458Y203539D02*
D03*
X205742D02*
D03*
D91*
X92869Y163579D02*
D03*
X94837D02*
D03*
X90900Y146650D02*
D03*
X92869D02*
D03*
X94837D02*
D03*
X90900Y163579D02*
D03*
X88932D02*
D03*
X86963D02*
D03*
X88932Y146650D02*
D03*
X86963D02*
D03*
D92*
X99168Y149209D02*
D03*
X82435Y151178D02*
D03*
X99168Y153147D02*
D03*
Y161021D02*
D03*
Y159052D02*
D03*
Y157083D02*
D03*
Y155115D02*
D03*
Y151178D02*
D03*
X82435Y155115D02*
D03*
Y161021D02*
D03*
Y159052D02*
D03*
Y157083D02*
D03*
Y153147D02*
D03*
Y149209D02*
D03*
D93*
X104337Y141147D02*
D03*
Y145083D02*
D03*
X72900Y155052D02*
D03*
Y151115D02*
D03*
X110613Y153084D02*
D03*
Y149146D02*
D03*
X104900Y164646D02*
D03*
Y168584D02*
D03*
X109400Y168584D02*
D03*
Y164646D02*
D03*
X152579Y167178D02*
D03*
Y171115D02*
D03*
X154547Y137678D02*
D03*
Y141615D02*
D03*
X141579Y166615D02*
D03*
Y162678D02*
D03*
X150610Y137678D02*
D03*
Y141615D02*
D03*
X160079Y135178D02*
D03*
Y139115D02*
D03*
X165579Y147115D02*
D03*
Y143178D02*
D03*
X147579Y164178D02*
D03*
Y168115D02*
D03*
X147000Y12468D02*
D03*
Y8531D02*
D03*
X130000Y13468D02*
D03*
Y9532D02*
D03*
X114579Y12968D02*
D03*
Y9031D02*
D03*
X98500Y12968D02*
D03*
Y9031D02*
D03*
X257900Y58927D02*
D03*
Y54990D02*
D03*
X208500Y45819D02*
D03*
Y41882D02*
D03*
X209000Y65469D02*
D03*
Y61532D02*
D03*
X258500Y99303D02*
D03*
Y95366D02*
D03*
X258100Y117475D02*
D03*
Y113538D02*
D03*
X258300Y78268D02*
D03*
Y74331D02*
D03*
D94*
X117400Y148422D02*
D03*
Y153934D02*
D03*
D95*
X154547Y148225D02*
D03*
X152579D02*
D03*
X150610D02*
D03*
Y158068D02*
D03*
X152579D02*
D03*
X154547D02*
D03*
D96*
X147658Y149209D02*
D03*
Y151178D02*
D03*
Y153147D02*
D03*
Y155115D02*
D03*
Y157083D02*
D03*
X157500D02*
D03*
Y155115D02*
D03*
Y153147D02*
D03*
Y151178D02*
D03*
Y149209D02*
D03*
D97*
X137547Y157647D02*
D03*
X133610D02*
D03*
X134110Y152647D02*
D03*
X138047D02*
D03*
X318868Y193900D02*
D03*
X314932D02*
D03*
X318369Y204700D02*
D03*
X314432D02*
D03*
D98*
X152500Y6550D02*
D03*
Y12850D02*
D03*
X135667Y7050D02*
D03*
Y13350D02*
D03*
X120333Y6550D02*
D03*
Y12850D02*
D03*
X104800Y6550D02*
D03*
Y12850D02*
D03*
D99*
X195571Y140575D02*
D03*
Y137425D02*
D03*
X27000Y128650D02*
D03*
Y125500D02*
D03*
D100*
X199429Y139000D02*
D03*
X30858Y127075D02*
D03*
D101*
X238575Y198429D02*
D03*
X235425D02*
D03*
D102*
X237000Y194571D02*
D03*
D103*
X211000Y92300D02*
D03*
D104*
X216512Y89347D02*
D03*
Y91316D02*
D03*
Y93284D02*
D03*
Y95253D02*
D03*
X205488Y89347D02*
D03*
Y91316D02*
D03*
Y93284D02*
D03*
Y95253D02*
D03*
D105*
X199315Y93284D02*
D03*
X188685D02*
D03*
D106*
X224000Y101985D02*
D03*
Y112615D02*
D03*
D107*
X323050Y205100D02*
D03*
X329350D02*
D03*
X323350Y194100D02*
D03*
X329650D02*
D03*
D108*
X12102Y118102D02*
D03*
Y55898D02*
D03*
X322500Y45000D02*
D03*
Y107205D02*
D03*
X322398Y178602D02*
D03*
Y116398D02*
D03*
X12102Y136087D02*
D03*
Y198291D02*
D03*
D109*
X106500Y19000D02*
D03*
X154075Y19500D02*
D03*
X122650Y19575D02*
D03*
X137260Y19925D02*
D03*
D110*
X103350Y20575D02*
D03*
Y17425D02*
D03*
X150925Y21075D02*
D03*
Y17925D02*
D03*
X119500Y21150D02*
D03*
Y18000D02*
D03*
X134110Y21500D02*
D03*
Y18350D02*
D03*
D111*
X188976Y200787D02*
D03*
Y192913D02*
D03*
X181102Y200787D02*
D03*
Y192913D02*
D03*
X173228Y200787D02*
D03*
Y192913D02*
D03*
X165354Y200787D02*
D03*
Y192913D02*
D03*
X157480Y200787D02*
D03*
Y192913D02*
D03*
X149606Y200787D02*
D03*
Y192913D02*
D03*
X141732Y200787D02*
D03*
Y192913D02*
D03*
X133858Y200787D02*
D03*
Y192913D02*
D03*
X125984Y200787D02*
D03*
Y192913D02*
D03*
X118110Y200787D02*
D03*
Y192913D02*
D03*
X110236Y200787D02*
D03*
Y192913D02*
D03*
X102362Y200787D02*
D03*
Y192913D02*
D03*
X94488Y200787D02*
D03*
Y192913D02*
D03*
X86614Y200787D02*
D03*
Y192913D02*
D03*
X78740Y200787D02*
D03*
Y192913D02*
D03*
X70866Y200787D02*
D03*
Y192913D02*
D03*
X62992Y200787D02*
D03*
Y192913D02*
D03*
X55118Y200787D02*
D03*
Y192913D02*
D03*
X47244Y200787D02*
D03*
Y192913D02*
D03*
X39370Y200787D02*
D03*
X219500Y8600D02*
D03*
X209500D02*
D03*
X199500D02*
D03*
X189500D02*
D03*
X179500D02*
D03*
X280000Y144332D02*
D03*
Y133000D02*
D03*
D112*
X39370Y192913D02*
D03*
X229500Y8600D02*
D03*
X270000Y144332D02*
D03*
Y133000D02*
D03*
D113*
X184449Y60827D02*
D03*
D114*
X73425D02*
D03*
D115*
X60402Y159213D02*
D03*
X43000Y74961D02*
D03*
X103000Y116000D02*
D03*
X235000Y114000D02*
D03*
X234000Y132000D02*
D03*
X199500Y103500D02*
D03*
X301500Y203500D02*
D03*
Y193500D02*
D03*
Y183000D02*
D03*
X254000Y140500D02*
D03*
X282000Y30000D02*
D03*
X60000Y173500D02*
D03*
X67400Y175500D02*
D03*
X261000Y39000D02*
D03*
X194500Y26000D02*
D03*
X160000Y22000D02*
D03*
D116*
X275500Y158378D02*
D03*
Y182000D02*
D03*
D117*
X256996Y170189D02*
D03*
D118*
X50000Y163500D02*
D03*
X37500Y90000D02*
D03*
X40800D02*
D03*
X37333Y108667D02*
D03*
X35000Y111000D02*
D03*
X39500Y149000D02*
D03*
X41000Y153500D02*
D03*
X76731Y38537D02*
D03*
X75000Y40268D02*
D03*
X115333Y101333D02*
D03*
X113000Y99000D02*
D03*
X31961Y53127D02*
D03*
X95941Y90500D02*
D03*
X92641D02*
D03*
X31000Y79000D02*
D03*
X40374Y85500D02*
D03*
X302000Y51000D02*
D03*
X297000Y53000D02*
D03*
X321250Y55000D02*
D03*
X317950D02*
D03*
X297500Y157024D02*
D03*
Y153724D02*
D03*
X286000Y66500D02*
D03*
X289650Y66926D02*
D03*
X294094Y51000D02*
D03*
X288500Y36650D02*
D03*
X292000Y69500D02*
D03*
X295500Y70000D02*
D03*
X288500Y33350D02*
D03*
X291212Y60473D02*
D03*
X102090Y88500D02*
D03*
X105390D02*
D03*
X163226Y93650D02*
D03*
X168307Y94258D02*
D03*
X301500Y161598D02*
D03*
X302626Y155374D02*
D03*
X14223Y80500D02*
D03*
X313000Y17425D02*
D03*
X308328Y17500D02*
D03*
X303500Y8000D02*
D03*
X302716Y62323D02*
D03*
X318000Y17425D02*
D03*
X319587Y6500D02*
D03*
X296500Y10000D02*
D03*
X33500Y147500D02*
D03*
X36941Y145535D02*
D03*
X47500Y151500D02*
D03*
X39000Y157000D02*
D03*
Y160965D02*
D03*
X36122Y155378D02*
D03*
X196500Y45500D02*
D03*
X33063Y83063D02*
D03*
X4000Y109000D02*
D03*
X41000Y186000D02*
D03*
X45494Y183500D02*
D03*
X111000Y17425D02*
D03*
X126500D02*
D03*
X327350Y30000D02*
D03*
X322500Y38500D02*
D03*
X95103Y136815D02*
D03*
X92603D02*
D03*
X171457Y79000D02*
D03*
X162008D02*
D03*
X152559D02*
D03*
X89567D02*
D03*
X99016D02*
D03*
X108465D02*
D03*
X158858Y42000D02*
D03*
X149409D02*
D03*
X139961D02*
D03*
X102165D02*
D03*
X111614D02*
D03*
X121063D02*
D03*
X130512D02*
D03*
X118000Y79000D02*
D03*
X127500D02*
D03*
X143110D02*
D03*
X5500Y25500D02*
D03*
X31000Y87000D02*
D03*
X40374Y171126D02*
D03*
X37000Y180500D02*
D03*
X39063Y182937D02*
D03*
X31343Y188842D02*
D03*
X33374Y186874D02*
D03*
X30200Y184906D02*
D03*
X36406Y78067D02*
D03*
X27412Y6500D02*
D03*
X31000D02*
D03*
X303500Y147504D02*
D03*
X298083Y143563D02*
D03*
X293500Y143000D02*
D03*
X292874Y139626D02*
D03*
X294926Y137657D02*
D03*
X296760Y135689D02*
D03*
X293779Y133721D02*
D03*
X303171Y129783D02*
D03*
X294094Y127815D02*
D03*
X293280Y130500D02*
D03*
X304017Y125847D02*
D03*
X296945Y85945D02*
D03*
X299024Y83976D02*
D03*
X158933Y87000D02*
D03*
X155709Y83500D02*
D03*
X38500Y23150D02*
D03*
Y19850D02*
D03*
X38185Y168839D02*
D03*
Y165539D02*
D03*
X325815Y159500D02*
D03*
X37500Y44350D02*
D03*
X140500Y95500D02*
D03*
X137000Y96000D02*
D03*
X134000D02*
D03*
X130512D02*
D03*
X262961Y18500D02*
D03*
X264032Y9500D02*
D03*
X54000Y26000D02*
D03*
X20000Y167500D02*
D03*
X39370Y105500D02*
D03*
X39000Y100000D02*
D03*
X7000Y21500D02*
D03*
X8000Y65500D02*
D03*
X16500Y5500D02*
D03*
X19500Y4000D02*
D03*
X24262Y6817D02*
D03*
X21500D02*
D03*
X24898Y21225D02*
D03*
X39063Y55500D02*
D03*
X290000Y149209D02*
D03*
X286000Y23500D02*
D03*
X289500Y20500D02*
D03*
X295500Y149150D02*
D03*
Y145850D02*
D03*
X324713Y101500D02*
D03*
X326000Y4000D02*
D03*
X299102Y76102D02*
D03*
X302500Y78000D02*
D03*
X328650Y72500D02*
D03*
X330983Y70166D02*
D03*
X302886Y58386D02*
D03*
X329000Y60500D02*
D03*
X330000Y53303D02*
D03*
X289500Y10500D02*
D03*
X287363Y13137D02*
D03*
X298041Y56417D02*
D03*
X324992Y82000D02*
D03*
X61815Y68896D02*
D03*
X61803Y81134D02*
D03*
X14223Y91939D02*
D03*
X192000Y144500D02*
D03*
X181185Y145000D02*
D03*
X314432Y198068D02*
D03*
X321496Y186500D02*
D03*
X321000Y199500D02*
D03*
X301818Y165539D02*
D03*
X230742Y191000D02*
D03*
X200461Y203539D02*
D03*
X205742Y167889D02*
D03*
X205500Y127815D02*
D03*
X173272Y171728D02*
D03*
X230500Y203500D02*
D03*
X174539Y183539D02*
D03*
X44342Y122158D02*
D03*
X76158D02*
D03*
X27000Y122500D02*
D03*
X94488Y17425D02*
D03*
X52500Y139875D02*
D03*
X138047Y149520D02*
D03*
X244500Y198500D02*
D03*
X198500Y188500D02*
D03*
X250000Y38000D02*
D03*
X256000Y22000D02*
D03*
X85500Y33500D02*
D03*
X89500D02*
D03*
X129500Y118000D02*
D03*
X144350Y119000D02*
D03*
X146850D02*
D03*
X223500Y148500D02*
D03*
X14500Y206000D02*
D03*
X12000D02*
D03*
X202500Y52480D02*
D03*
X243000Y43500D02*
D03*
X250500Y85500D02*
D03*
X31716Y104717D02*
D03*
X4500Y106500D02*
D03*
X185000Y93284D02*
D03*
X38185Y177500D02*
D03*
X203500Y123000D02*
D03*
X40000Y70500D02*
D03*
X123512Y37500D02*
D03*
X127000D02*
D03*
X185500Y24000D02*
D03*
Y21500D02*
D03*
X257000Y5263D02*
D03*
X197000Y65937D02*
D03*
X249900Y130500D02*
D03*
X275685Y105500D02*
D03*
X246000Y99000D02*
D03*
X275685Y68500D02*
D03*
X254500Y106500D02*
D03*
X290500Y96800D02*
D03*
X290000Y115006D02*
D03*
X290458Y75800D02*
D03*
X284000Y63000D02*
D03*
X137500Y118000D02*
D03*
X62307Y114037D02*
D03*
X52992Y119500D02*
D03*
X44500Y81000D02*
D03*
X244500Y77500D02*
D03*
X305429Y102000D02*
D03*
X209000Y77500D02*
D03*
X243500Y59017D02*
D03*
X142500Y17925D02*
D03*
X74500Y19250D02*
D03*
Y21750D02*
D03*
X118110Y25000D02*
D03*
X108500Y25500D02*
D03*
X95103Y23500D02*
D03*
X241000Y81500D02*
D03*
X255500Y67315D02*
D03*
X235815Y59500D02*
D03*
X283000Y104000D02*
D03*
X291500D02*
D03*
X90000Y106500D02*
D03*
X275685Y47650D02*
D03*
X168307Y42000D02*
D03*
X198485Y34985D02*
D03*
X177500Y39000D02*
D03*
X112000Y38000D02*
D03*
X105315Y39000D02*
D03*
X304508Y82008D02*
D03*
X290458Y82500D02*
D03*
X34165Y98811D02*
D03*
X39500Y96500D02*
D03*
X8000Y111000D02*
D03*
X225185Y67485D02*
D03*
X225500Y38000D02*
D03*
X296200Y30000D02*
D03*
X37500Y47650D02*
D03*
X33500Y50000D02*
D03*
D119*
X240000Y104500D02*
D03*
X137600Y141215D02*
D03*
X121300Y154215D02*
D03*
X70200Y150915D02*
D03*
X173700Y166115D02*
D03*
X67400Y159615D02*
D03*
X77400Y165115D02*
D03*
X78400Y142615D02*
D03*
X99400Y168615D02*
D03*
X104900Y159052D02*
D03*
X117400Y141115D02*
D03*
X154547Y130332D02*
D03*
X160079Y143647D02*
D03*
X170079Y151146D02*
D03*
X173579Y155147D02*
D03*
X169579Y159646D02*
D03*
X158079Y171147D02*
D03*
X127579Y157647D02*
D03*
X127579Y152647D02*
D03*
X134579Y166647D02*
D03*
X134610Y162615D02*
D03*
X147579Y173646D02*
D03*
X211000Y89300D02*
D03*
Y94800D02*
D03*
X224000Y96800D02*
D03*
X214000Y112800D02*
D03*
X235000Y81000D02*
D03*
X142000Y149209D02*
D03*
D120*
X267000Y99000D02*
D03*
Y94669D02*
D03*
X266600Y117172D02*
D03*
Y112841D02*
D03*
X266400Y58624D02*
D03*
Y54293D02*
D03*
X266800Y77965D02*
D03*
Y73635D02*
D03*
X215500Y45665D02*
D03*
X217000Y65937D02*
D03*
Y61606D02*
D03*
X215500Y40500D02*
D03*
M02*
