G04 Layer_Physical_Order=2*
G04 Layer_Color=32768*
%FSLAX24Y24*%
%MOIN*%
G70*
G01*
G75*
%ADD34C,0.0400*%
%ADD35C,0.0100*%
%ADD36C,0.0872*%
%ADD37C,0.0715*%
%ADD38C,0.1542*%
%ADD39C,0.1030*%
G04:AMPARAMS|DCode=40|XSize=123mil|YSize=123mil|CornerRadius=0mil|HoleSize=0mil|Usage=FLASHONLY|Rotation=0.000|XOffset=0mil|YOffset=0mil|HoleType=Round|Shape=Relief|Width=10mil|Gap=10mil|Entries=4|*
%AMTHD40*
7,0,0,0.1230,0.1030,0.0100,45*
%
%ADD40THD40*%
%ADD41C,0.0754*%
G04:AMPARAMS|DCode=42|XSize=95.433mil|YSize=95.433mil|CornerRadius=0mil|HoleSize=0mil|Usage=FLASHONLY|Rotation=0.000|XOffset=0mil|YOffset=0mil|HoleType=Round|Shape=Relief|Width=10mil|Gap=10mil|Entries=4|*
%AMTHD42*
7,0,0,0.0954,0.0754,0.0100,45*
%
%ADD42THD42*%
%ADD43C,0.0480*%
G04:AMPARAMS|DCode=44|XSize=68mil|YSize=68mil|CornerRadius=0mil|HoleSize=0mil|Usage=FLASHONLY|Rotation=0.000|XOffset=0mil|YOffset=0mil|HoleType=Round|Shape=Relief|Width=10mil|Gap=10mil|Entries=4|*
%AMTHD44*
7,0,0,0.0680,0.0480,0.0100,45*
%
%ADD44THD44*%
D34*
X10000Y10000D02*
X43465D01*
Y31260D01*
X10000D02*
X43465D01*
X10000Y10000D02*
Y31260D01*
D35*
X26550Y26400D02*
Y31250D01*
Y26400D02*
X28050Y24900D01*
X35950D01*
X36500Y25450D01*
Y31260D01*
X26550Y31250D02*
X27700D01*
D36*
X28445Y16083D02*
D03*
D37*
X17343D02*
D03*
D38*
X11575Y17283D02*
D03*
Y29685D02*
D03*
X41890D02*
D03*
Y17283D02*
D03*
D39*
X31250Y26900D02*
D03*
X33100Y28081D02*
D03*
D40*
Y25719D02*
D03*
D41*
X28898Y30079D02*
D03*
Y29291D02*
D03*
X28110D02*
D03*
X27323D02*
D03*
X26535Y30079D02*
D03*
Y29291D02*
D03*
X25748Y30079D02*
D03*
Y29291D02*
D03*
X24961Y30079D02*
D03*
Y29291D02*
D03*
X24173Y30079D02*
D03*
Y29291D02*
D03*
X23386Y30079D02*
D03*
Y29291D02*
D03*
X22598Y30079D02*
D03*
Y29291D02*
D03*
X21811Y30079D02*
D03*
Y29291D02*
D03*
X21024Y30079D02*
D03*
Y29291D02*
D03*
X20236Y30079D02*
D03*
Y29291D02*
D03*
X19449Y30079D02*
D03*
Y29291D02*
D03*
X18661Y30079D02*
D03*
Y29291D02*
D03*
X17874Y30079D02*
D03*
Y29291D02*
D03*
X17087Y30079D02*
D03*
Y29291D02*
D03*
X16299Y30079D02*
D03*
Y29291D02*
D03*
X15512Y30079D02*
D03*
Y29291D02*
D03*
X14724Y30079D02*
D03*
Y29291D02*
D03*
X13937Y30079D02*
D03*
Y29291D02*
D03*
X15650Y25000D02*
D03*
X14650D02*
D03*
X13650D02*
D03*
X12650D02*
D03*
X11650D02*
D03*
X10650D02*
D03*
X19500Y27050D02*
D03*
Y28050D02*
D03*
X20500Y27050D02*
D03*
Y28050D02*
D03*
X16500Y27000D02*
D03*
Y28000D02*
D03*
X17500Y27000D02*
D03*
Y28000D02*
D03*
D42*
X28110Y30079D02*
D03*
X27323D02*
D03*
D43*
X28050Y27500D02*
D03*
X31500Y24312D02*
D03*
X30450Y23700D02*
D03*
X38200Y16550D02*
D03*
X34000Y19750D02*
D03*
X35600Y19250D02*
D03*
X30800Y23700D02*
D03*
X22600Y20800D02*
D03*
X22650Y20450D02*
D03*
X24200Y20800D02*
D03*
X23950Y21150D02*
D03*
X25850Y27350D02*
D03*
X26300Y26950D02*
D03*
X25200Y22100D02*
D03*
X24930Y24530D02*
D03*
X38700Y18900D02*
D03*
X28950Y21800D02*
D03*
X27144Y21444D02*
D03*
X25100Y20150D02*
D03*
X24950Y20950D02*
D03*
X30050Y18050D02*
D03*
X42822Y14800D02*
D03*
X39750Y14850D02*
D03*
X36900Y14750D02*
D03*
X34350Y14650D02*
D03*
X30450Y15400D02*
D03*
X36250Y20563D02*
D03*
X33431Y23381D02*
D03*
X25350Y27250D02*
D03*
X40900Y16300D02*
D03*
X35300Y16900D02*
D03*
X31050Y24000D02*
D03*
X31500Y21400D02*
D03*
X29784Y24500D02*
D03*
X30250Y18550D02*
D03*
X28150Y21650D02*
D03*
X32550Y15550D02*
D03*
X28050Y13900D02*
D03*
X20353Y23253D02*
D03*
X20700Y24050D02*
D03*
X18300Y20300D02*
D03*
X16650Y23450D02*
D03*
X18550Y22450D02*
D03*
X17550Y23500D02*
D03*
X17700Y21550D02*
D03*
X20150Y23750D02*
D03*
X21492Y22650D02*
D03*
X26330Y18220D02*
D03*
X29450Y20250D02*
D03*
X24990Y26050D02*
D03*
X26800Y28550D02*
D03*
X19900Y24950D02*
D03*
X14050Y27800D02*
D03*
D44*
X26300Y28100D02*
D03*
X25627Y22877D02*
D03*
X37353Y15200D02*
D03*
X34500D02*
D03*
X32050Y15900D02*
D03*
X29250Y15350D02*
D03*
X18300Y20700D02*
D03*
X25730Y18230D02*
D03*
X28900Y19450D02*
D03*
X29700Y21050D02*
D03*
X20750Y25350D02*
D03*
X18100D02*
D03*
X21400Y27650D02*
D03*
X39950Y15250D02*
D03*
X22750Y21350D02*
D03*
M02*
